<svg xmlns="http://www.w3.org/2000/svg" enable-background="new 0 0 512 512" viewBox="0 0 512 512" id="Doctor">
  <linearGradient id="a" x1="56.215" x2="455.802" y1="542.238" y2="142.651" gradientUnits="userSpaceOnUse">
    <stop offset="0" stop-color="#ea1b1b" class="stopColorda1467 svgShape"></stop>
    <stop offset="1" stop-color="#ff2e2e" class="stopColorff992e svgShape"></stop>
  </linearGradient>
  <path fill="url(#a)" d="M388.874,313.832c-15.319-21.696-39.866-36.443-67.941-38.379
		c18.731-18.76,32.558-44.739,37.791-68.995c15.137-1.113,27.121-13.752,27.121-29.166c0-12.143-7.442-22.559-17.999-26.981
		c0.541-3.239,0.084,4.824,0.255-55.935c0-52.035-41.728-94.367-93.013-94.367h-38.145c-51.285,0-93.008,42.332-93.008,94.367
		v56.077c-10.411,4.49-17.744,14.802-17.744,26.84c0,15.41,11.978,28.047,27.11,29.165c5.262,24.408,19.139,50.301,37.771,68.995
		c-28.077,1.935-52.626,16.682-67.946,38.38C58.06,332.66,10.33,392.733,10.33,463.783v21.544c0,14.703,11.963,26.666,26.666,26.666
		h438.007c14.703,0,26.666-11.963,26.666-26.666v-21.544C501.67,392.733,453.939,332.659,388.874,313.832z M361.898,177.823v-18.242
		c7.652,2.309,13.281,9.319,13.281,17.71c0,8.844-6.251,16.124-14.542,17.991C361.384,189.515,361.898,183.702,361.898,177.823z
		 M136.858,177.291c0-7.814,4.89-14.401,11.74-17.133c0.502,0.337,0.972,0.715,1.535,0.966c0.257,14.086-0.694,19.195,1.276,34.296
		C143.097,193.561,136.858,186.154,136.858,177.291z M371.949,309.947c-15.29-2.616-26.631-2.237-27.564-2.277
		c-4.743-3.941-9.69-7.855-14.913-11.51c-3.499-2.474-7.981-2.55-11.599-0.313v-9.988
		C339.026,286.702,358.086,295.777,371.949,309.947z M342.138,357.89c1.281,8.38,5.864,20.038,13.614,34.653
		c2.635,4.963,1.307,10.981-3.161,14.309c-20.385,15.195-47.087,41.66-74.123,69.222c19.044-36.399,39.3-78.614,45.947-117.262
		c3.521-20.163,3.245-37.895-1.089-53.933c15.568,10.896,28.483,23.693,41.066,34.52l-19.937,13.242
		C342.727,353.789,341.82,355.838,342.138,357.89z M167.544,352.64l-19.937-13.242c12.134-10.44,25.242-23.255,40.832-34.801
		c-4.099,16.32-4.375,34.051-0.854,54.199c6.708,39.027,27.324,81.665,45.947,117.278c-27.036-27.562-53.738-54.027-74.123-69.222
		c-4.469-3.328-5.797-9.346-3.161-14.309c7.75-14.614,12.333-26.273,13.614-34.653C170.18,355.838,169.273,353.789,167.544,352.64z
		 M227.987,441.278c-10.813-22.564-18.524-41.678-23.701-58.803c1.899,1.471,3.833,1.566,5.617,0.656l19.418-9.946
		c1.362,7.558,4.726,14.569,9.818,20.434L227.987,441.278z M209.147,371.533l-11.246-15.822c-2.909-17.401-2.74-32.732,0.511-46.815
		c4.675,1.222,9.016,3.554,12.511,7.051l36.16,36.158L209.147,371.533z M204.83,299.61v-12.395
		c9.668,6.94,20.161,11.917,31.155,13.878c13.261,2.363,26.736,2.343,40.119-0.078c11.019-1.995,21.484-6.956,31.103-13.845v12.455
		c-5.043,1.913-9.696,4.869-13.609,8.78l-37.567,37.567l-37.567-37.567C214.542,304.482,209.864,301.519,204.83,299.61z
		 M256.031,359.506l16.492,8.447c-0.531,6.993-3.155,13.564-7.789,18.838h-17.458c-4.623-5.272-7.245-11.835-7.781-18.816
		L256.031,359.506z M264.979,352.104l36.16-36.158c3.468-3.468,7.762-5.79,12.454-7.027c3.25,14.055,3.418,29.418,0.494,46.876
		l-11.168,15.741L264.979,352.104z M282.699,373.164l19.461,9.967c1.786,0.911,3.672,0.796,5.533-0.582
		c-5.169,17.073-12.858,36.132-23.629,58.618l-11.207-47.528C277.966,387.77,281.338,380.743,282.699,373.164z M154.602,94.375
		c0-46.152,36.936-83.701,82.341-83.701h38.145c45.405,0,82.346,37.548,82.346,83.701v53.717
		c-4.932-10.414-11.291-20.814-18.9-30.924c-6.89-9.138-18.953-12.179-29.327-7.396c-31.483,14.52-61.545,10.742-89.351-11.244
		c-9.531-7.534-24.135-6.443-32.556,2.422c-9.146,9.617-22.265,26.176-32.697,50.592V94.375z M160.8,177.851v-17.94
		c0.139-0.105,16.635-33.104,34.228-51.613c4.651-4.893,12.989-5.534,18.213-1.404c30.77,24.335,65.493,28.668,100.434,12.565
		c5.781-2.669,12.494-0.964,16.338,4.127c6.916,9.185,21.141,33.404,21.218,33.461v20.774c0,60.488-44.036,106.721-77.024,112.697
		c-12.114,2.19-24.338,2.211-36.348,0.073C205.108,284.749,160.8,238.542,160.8,177.851z M194.163,285.857v10.007
		c-3.628-2.257-8.134-2.179-11.604,0.275c-5.239,3.666-10.195,7.585-14.944,11.531c-0.587,0.025-11.35-0.497-27.566,2.277
		C153.921,295.769,172.996,286.691,194.163,285.857z M117.213,365.814c0-15.735,4.603-30.385,12.475-42.762
		c8.083-2.113,16.446-3.511,25.007-4.199c-7.454,6.664-13.513,12.179-19.337,16.892c-2.792,2.254-2.602,6.588,0.401,8.588
		l22.895,15.208c-2.968,12.039-10.708,25.389-12.569,29.748c-7.075-8.578-17.277-14.487-28.873-15.886V365.814z M36.996,501.326
		c-8.823,0-16-7.177-16-16v-21.544c0-62.112,39.151-115.231,94.061-136.041c-5.405,11.584-8.511,24.451-8.511,38.073v7.589
		c-21.948,2.647-39.025,21.354-39.025,44.003v41.522c0,16.533,13.453,29.986,29.983,29.986c2.948,0,5.333-2.388,5.333-5.333
		s-2.385-5.333-5.333-5.333c-10.651,0-19.317-8.666-19.317-19.32v-41.522c0-18.575,15.114-33.689,33.692-33.689
		c18.572,0,33.686,15.114,33.686,33.689v41.522c0,10.653-8.666,19.32-19.317,19.32c-2.948,0-5.333,2.388-5.333,5.333
		s2.385,5.333,5.333,5.333c16.531,0,29.983-13.453,29.983-29.986v-41.066c25.534,19.869,62.835,58.642,87.071,83.463H36.996z
		 M235.417,456.348l13.776-58.881h13.604l13.859,58.76c-6.259,12.436-14.019,27.054-20.66,39.297
		C249.147,482.869,241.802,469.096,235.417,456.348z M491.003,485.326c0,8.823-7.177,16-16,16H268.697
		c23.687-24.264,64.358-66.604,90.269-85.922c8.718-6.495,11.328-18.213,6.213-27.861c-7.281-13.724-10.484-22.531-11.833-28.002
		l22.895-15.208c3.009-2.004,3.186-6.34,0.401-8.588c-5.965-4.828-12.131-10.454-19.337-16.892c8.562,0.688,16.925,2.087,25.008,4.2
		c7.872,12.377,12.474,27.027,12.474,42.762v57.016c-13.705,2.702-24.077,14.801-24.077,29.286
		c0,16.432,13.395,29.801,29.858,29.801c16.432,0,29.801-13.369,29.801-29.801c0-14.793-10.805-27.074-24.916-29.421v-56.881
		c0-13.622-3.106-26.489-8.511-38.073c54.91,20.811,94.061,73.929,94.061,136.041V485.326z M400.569,432.924
		c10.552,0,19.135,8.609,19.135,19.192c0,10.552-8.583,19.135-19.135,19.135c-10.583,0-19.192-8.583-19.192-19.135
		C381.376,441.533,389.986,432.924,400.569,432.924z"></path>
</svg>
