<svg xmlns="http://www.w3.org/2000/svg" xmlns:xlink="http://www.w3.org/1999/xlink" width="100" height="100" viewBox="0 0 100 100">
  <defs>
    <style>
      .cls-1 {
        fill: none;
      }

      .cls-2 {
        opacity: 0.05;
        fill: url(#linear-gradient);
      }

      .cls-3 {
        fill: #fff;
      }

      .cls-4 {
        fill: #2d2d2d;
      }

      .cls-5 {
        fill: #474747;
      }

      .cls-6 {
        mix-blend-mode: multiply;
        isolation: isolate;
      }

      .cls-7 {
        fill: #ff8e93;
        opacity: 0.5;
      }
    </style>
    <linearGradient id="linear-gradient" x1="0.5" x2="0.5" y2="1" gradientUnits="objectBoundingBox">
      <stop offset="0" stop-color="#1778f2"/>
      <stop offset="1" stop-color="#f40009"/>
    </linearGradient>
  </defs>
  <g id="Group_124980" data-name="Group 124980" transform="translate(-48 -859)">
    <rect id="Rectangle_10354" data-name="Rectangle 10354" class="cls-1" width="100" height="100" transform="translate(48 859)"/>
    <g id="Group_124909" data-name="Group 124909">
      <path id="Path_153245" data-name="Path 153245" class="cls-2" d="M32.3,83.491A105.79,105.79,0,0,1,17.2,70.917,105.57,105.57,0,0,1,4.909,56.1,17.251,17.251,0,0,1,0,44.2,16.783,16.783,0,0,1,4.909,32.3,144.539,144.539,0,0,1,32.3,4.909,17.263,17.263,0,0,1,44.2,0,16.781,16.781,0,0,1,56.1,4.909a164.255,164.255,0,0,1,13.841,12.23A164.608,164.608,0,0,1,83.491,32.3,17.24,17.24,0,0,1,88.4,44.2a16.782,16.782,0,0,1-4.909,11.9A163.679,163.679,0,0,1,69.255,71.955,164.629,164.629,0,0,1,56.1,83.491a17.386,17.386,0,0,1-7.239,4.259,16.564,16.564,0,0,1-4.664.65,17.462,17.462,0,0,1-5.792-1.133A18.7,18.7,0,0,1,32.3,83.491Z" transform="translate(56.375 863)"/>
      <g id="Group_75794" data-name="Group 75794" transform="translate(-1869.679 826.536)">
        <g id="Group_5266" data-name="Group 5266" transform="translate(1937.588 86.676)">
          <path id="Path_344" data-name="Path 344" class="cls-3" d="M1939.624,90.953l-1.588,3.339c1.5.829,3.152,1.657,4.967,2.443a56.68,56.68,0,0,0,8.8,2.972q.665-4.23,1.333-8.46l-8.052-3.633Z" transform="translate(-1938.036 -87.614)"/>
        </g>
        <g id="Group_5267" data-name="Group 5267" transform="translate(1946.357 61.458)">
          <path id="Path_345" data-name="Path 345" class="cls-3" d="M1951.561,63.132a2.759,2.759,0,0,0-3.738-.341,2.228,2.228,0,0,0-.261,2.383,3.2,3.2,0,0,0,1.553,1.362,11.094,11.094,0,0,1,3.6,3.336" transform="translate(-1946.996 -61.876)"/>
          <path id="Path_346" data-name="Path 346" class="cls-4" d="M1952.428,70.065a10.932,10.932,0,0,0-3.487-3.236l-.132-.073a3.279,3.279,0,0,1-1.563-1.442,2.571,2.571,0,0,1,.322-2.765,3.107,3.107,0,0,1,4.222.327l-.471.5a2.416,2.416,0,0,0-3.255-.354,1.894,1.894,0,0,0-.2,2,2.648,2.648,0,0,0,1.272,1.131l.136.075a11.609,11.609,0,0,1,3.711,3.436Z" transform="translate(-1946.989 -61.869)"/>
        </g>
        <g id="Group_5268" data-name="Group 5268" transform="translate(1939.473 73.402)">
          <path id="Path_347" data-name="Path 347" class="cls-3" d="M1975.792,76.425,1987.6,88.4q1.778,1.848,3.623,3.706.673.676,1.344,1.344a12.527,12.527,0,0,1-2.4,2.728,13.821,13.821,0,0,1-8.8,3.074,1.574,1.574,0,0,0-.448.591,1.614,1.614,0,0,0-.081,1.018q2.016,5.494,4.033,10.986a24.042,24.042,0,0,1-1.835,17.109l-35.667-.272c-2.058-8.46-2.2-11.978-1.737-13.409.033-.1.312-.948.651-2.118.48-1.658.752-2.839.869-3.312.761-3.107,1.712-3.961,2.551-6.731a20.02,20.02,0,0,0,.84-5.755l-7.166-.733a25.8,25.8,0,0,0-3.419-7.329,83.492,83.492,0,0,1,15.553-15.229Z" transform="translate(-1939.961 -74.063)"/>
        </g>
        <g id="Group_5269" data-name="Group 5269" transform="translate(1975.572 60.231)">
          <path id="Path_348" data-name="Path 348" class="cls-3" d="M1977.344,62.221c1.759-1.394,3.658-1.574,4.437-.817.7.682.395,2.027.35,2.213-.279,1.155-1.088,1.723-2.167,2.757a23.243,23.243,0,0,0-2.864,3.336" transform="translate(-1976.82 -60.623)"/>
          <path id="Path_349" data-name="Path 349" class="cls-4" d="M1977.373,69.9l-.56-.4a23.915,23.915,0,0,1,2.907-3.386c.182-.173.357-.335.522-.49a4.192,4.192,0,0,0,1.549-2.1c.032-.136.3-1.343-.256-1.887-.633-.614-2.335-.468-3.985.839l-.426-.537c1.765-1.4,3.911-1.745,4.889-.794a2.819,2.819,0,0,1,.443,2.539,4.822,4.822,0,0,1-1.747,2.444c-.162.15-.335.309-.513.481A23.067,23.067,0,0,0,1977.373,69.9Z" transform="translate(-1976.814 -60.616)"/>
        </g>
        <g id="Group_5270" data-name="Group 5270" transform="translate(1950.878 47.664)">
          <ellipse id="Ellipse_4939" data-name="Ellipse 4939" class="cls-3" cx="12.682" cy="15.831" rx="12.682" ry="15.831" transform="translate(0.343 0.342)"/>
          <path id="Path_350" data-name="Path 350" class="cls-4" d="M1964.629,80.133c-7.182,0-13.025-7.255-13.025-16.173s5.843-16.173,13.025-16.173,13.025,7.254,13.025,16.173S1971.811,80.133,1964.629,80.133Zm0-31.662c-6.8,0-12.339,6.948-12.339,15.488s5.535,15.487,12.339,15.487,12.34-6.947,12.34-15.487S1971.434,48.472,1964.629,48.472Z" transform="translate(-1951.604 -47.787)"/>
        </g>
        <g id="Group_5273" data-name="Group 5273" transform="translate(1947.574 41.787)">
          <g id="Group_5271" data-name="Group 5271" transform="translate(0.343 0.346)">
            <path id="Path_351" data-name="Path 351" class="cls-5" d="M1951.781,62.823c1.5.535,2.348-.842,5.135-1.327,2.941-.512,3.56.748,6.568.272a12.61,12.61,0,0,0,4.891-2.043c3.986-2.462,4.88-5.194,6.15-4.868,1.808.465,1.01,6.273,2.41,6.536,1.02.192,2.969-2.573,3.249-5.549.536-5.7-5.27-10.035-6.079-10.622A17.757,17.757,0,0,0,1961,42.4c-1.924.328-6.906,1.178-10.028,5.549a12.158,12.158,0,0,0-1.5,11.711C1949.956,60.733,1950.423,62.34,1951.781,62.823Z" transform="translate(-1948.581 -42.14)"/>
          </g>
          <g id="Group_5272" data-name="Group 5272">
            <path id="Path_352" data-name="Path 352" class="cls-4" d="M1952.45,63.281a2.364,2.364,0,0,1-.792-.142c-1.3-.463-1.849-1.786-2.291-2.849-.073-.174-.143-.343-.213-.5a12.446,12.446,0,0,1,1.536-12.05c3.2-4.483,8.318-5.358,10.245-5.688a17.979,17.979,0,0,1,13.364,2.886c1.134.821,6.757,5.205,6.219,10.932a8.625,8.625,0,0,1-2.6,5.514,1.365,1.365,0,0,1-1.055.34c-.9-.169-1.083-1.575-1.292-3.2-.181-1.4-.406-3.151-1.141-3.34-.406-.1-.85.35-1.665,1.232a19.144,19.144,0,0,1-4.218,3.6,13,13,0,0,1-5.017,2.088,8.3,8.3,0,0,1-3.422-.15,7.236,7.236,0,0,0-3.141-.123,10.285,10.285,0,0,0-2.717.908A4.375,4.375,0,0,1,1952.45,63.281Zm11.7-20.809a18.608,18.608,0,0,0-3.091.255c-1.852.317-6.768,1.159-9.8,5.411a11.749,11.749,0,0,0-1.469,11.372c.073.162.145.336.219.516.41.987.876,2.107,1.889,2.466h0c.7.251,1.218.013,2.076-.383a10.927,10.927,0,0,1,2.886-.959,7.876,7.876,0,0,1,3.4.128,7.59,7.59,0,0,0,3.171.143,12.252,12.252,0,0,0,4.765-2,18.54,18.54,0,0,0,4.076-3.479c.914-.987,1.514-1.638,2.338-1.43,1.186.3,1.421,2.141,1.651,3.916.138,1.072.326,2.538.738,2.615.058.009.218.009.515-.215a8,8,0,0,0,2.329-5.029c.5-5.355-4.859-9.531-5.938-10.314A16.5,16.5,0,0,0,1964.146,42.472Z" transform="translate(-1948.231 -41.787)"/>
          </g>
        </g>
        <g id="Group_5274" data-name="Group 5274" transform="translate(1973.168 74.118)">
          <path id="Path_353" data-name="Path 353" class="cls-4" d="M1981.6,99.843l-.151-.669c9.331-2.116,11.377-4.168,11.451-5.518.048-.808-.606-1.395-2.221-2.762a55.238,55.238,0,0,1-5.464-5.185c-1.265-1.371-1.905-2.2-2.471-2.924a20.593,20.593,0,0,0-2.348-2.629,28.929,28.929,0,0,0-6.041-4.764l.333-.6a29.479,29.479,0,0,1,6.183,4.868,21.312,21.312,0,0,1,2.414,2.7c.558.718,1.189,1.53,2.434,2.881a54.619,54.619,0,0,0,5.4,5.126c1.633,1.381,2.532,2.142,2.462,3.324C1993.462,96.031,1989.542,98.042,1981.6,99.843Z" transform="translate(-1974.36 -74.793)"/>
        </g>
        <g id="Group_5275" data-name="Group 5275" transform="translate(1936.435 74.034)">
          <path id="Path_354" data-name="Path 354" class="cls-4" d="M1950.105,99.05c-8.878-2.089-13.21-4.225-13.246-6.529-.008-.956.686-1.559,1.945-2.655a44.86,44.86,0,0,0,3.928-3.785,28.362,28.362,0,0,0,2.542-3.128,21.676,21.676,0,0,1,1.87-2.332,25.982,25.982,0,0,1,7.551-5.914l.307.614a25.336,25.336,0,0,0-7.352,5.765,20.987,20.987,0,0,0-1.817,2.268,29.573,29.573,0,0,1-2.595,3.193,45.757,45.757,0,0,1-3.984,3.837c-1.177,1.024-1.714,1.491-1.709,2.129.021,1.316,2.244,3.4,12.717,5.869Z" transform="translate(-1936.859 -74.708)"/>
        </g>
        <g id="Group_5276" data-name="Group 5276" transform="translate(1944.619 90.135)">
          <path id="Path_355" data-name="Path 355" class="cls-4" d="M1947.465,128.928a.341.341,0,0,1-.325-.235c-2.422-7.339-2.56-13.642-.411-18.736.27-.643.575-1.263.9-1.92a20.094,20.094,0,0,0,1.4-16.443.343.343,0,1,1,.652-.21,20.77,20.77,0,0,1-1.441,16.955c-.318.648-.618,1.261-.881,1.884-2.082,4.937-1.937,11.08.431,18.256a.342.342,0,0,1-.219.432A.313.313,0,0,1,1947.465,128.928Z" transform="translate(-1945.214 -91.145)"/>
        </g>
        <g id="Group_5277" data-name="Group 5277" transform="translate(1978.999 90.767)">
          <path id="Path_356" data-name="Path 356" class="cls-4" d="M1984.438,128.625a.32.32,0,0,1-.117-.02.344.344,0,0,1-.206-.439c2.123-5.854,2.544-11.193,1.255-15.871a26.479,26.479,0,0,0-1.224-3.356c-.473-1.127-1.01-2.406-1.612-4.3a48.669,48.669,0,0,1-2.221-12.488.343.343,0,1,1,.685-.03,47.979,47.979,0,0,0,2.191,12.312c.593,1.869,1.123,3.132,1.59,4.245a26.657,26.657,0,0,1,1.251,3.439c1.33,4.817.9,10.3-1.269,16.287A.342.342,0,0,1,1984.438,128.625Z" transform="translate(-1980.313 -91.79)"/>
        </g>
        <g id="Group_5278" data-name="Group 5278" transform="translate(1934.669 94.478)">
          <path id="Path_357" data-name="Path 357" class="cls-3" d="M1940.274,96.011a26.283,26.283,0,0,0-3.1,5.561c-1.3,3.2-2.026,4.979-1.681,7.041.805,4.82,6.848,7.878,10.824,9.879,3.452,1.737,5.212,2.461,5.212,2.461,2.439,1,3.618,1.286,5.3,2.478a34.952,34.952,0,0,1,2.837,2.627c2.41,2.105,4.215,3.683,6.621,3.889,2.146.183,4.794-.722,4.94-1.891.261-2.106-7.577-4.669-7.253-5.577.188-.527,2.9.149,3.176-.611.166-.458-.666-1.14-.814-1.262a5.289,5.289,0,0,0-3.135-.936c-2.119-.19-3.178-.285-3.543-.285-2.832,0-5.316-1.81-9.974-5.2-4-2.91-6.007-4.4-6.067-6.282-.037-1.148.638-2.285,1.986-4.56a35.549,35.549,0,0,1,3.152-4.492c-1.334-.33-2.759-.736-4.256-1.235C1942.97,97.1,1941.561,96.561,1940.274,96.011Z" transform="translate(-1935.064 -95.588)"/>
          <path id="Path_358" data-name="Path 358" class="cls-4" d="M1966.852,130.3c-.2,0-.406-.008-.6-.024-2.518-.215-4.414-1.873-6.817-3.971a18.668,18.668,0,0,1-1.508-1.457,7.16,7.16,0,0,0-1.3-1.151,14.646,14.646,0,0,0-3.631-1.807c-.474-.183-1-.387-1.6-.634-.018-.007-1.812-.749-5.236-2.471-4.05-2.037-10.171-5.116-11.009-10.127-.361-2.157.371-3.956,1.7-7.222a26.655,26.655,0,0,1,3.141-5.638l.161-.221.252.107c1.371.587,2.783,1.123,4.2,1.594,1.384.462,2.806.875,4.229,1.226l.528.131-.345.42a35.529,35.529,0,0,0-3.124,4.45c-1.313,2.214-1.971,3.324-1.938,4.373.052,1.674,1.855,3.054,5.927,6.016,4.551,3.312,7.054,5.133,9.772,5.135.371,0,1.306.082,3.574.286a5.627,5.627,0,0,1,3.321,1.014c.776.635,1.085,1.188.92,1.643-.233.646-1.216.629-2.148.616a7.638,7.638,0,0,0-.917.023,16.411,16.411,0,0,0,2.317,1.356c2.356,1.237,5.027,2.641,4.843,4.12C1971.393,129.41,1968.986,130.3,1966.852,130.3Zm-26.466-33.879a26,26,0,0,0-2.9,5.268c-1.283,3.155-1.989,4.89-1.66,6.855.781,4.668,6.714,7.654,10.64,9.629,3.4,1.709,5.171,2.443,5.188,2.45.595.244,1.115.446,1.584.629a15.364,15.364,0,0,1,3.782,1.888,7.845,7.845,0,0,1,1.406,1.24,18.23,18.23,0,0,0,1.458,1.409c2.4,2.1,4.131,3.609,6.425,3.806,2.19.184,4.467-.755,4.57-1.593.126-1.009-2.647-2.465-4.48-3.428-2.072-1.089-2.978-1.6-2.755-2.223.168-.469.839-.462,1.684-.449.353.009,1.426.022,1.493-.164.023-.062-.1-.385-.708-.88a5.053,5.053,0,0,0-2.948-.86c-2.036-.183-3.158-.284-3.513-.284-2.943,0-5.509-1.87-10.167-5.259-3.97-2.889-6.151-4.476-6.216-6.556-.041-1.247.652-2.417,2.033-4.745a36.4,36.4,0,0,1,2.843-4.117c-1.266-.326-2.527-.7-3.759-1.11C1943.037,97.481,1941.7,96.976,1940.386,96.424Z" transform="translate(-1935.057 -95.579)"/>
        </g>
        <g id="Group_5279" data-name="Group 5279" transform="translate(1957.258 94.479)">
          <path id="Path_359" data-name="Path 359" class="cls-3" d="M1983.615,99.453c1.147,1.073,2.677,2.563,4.405,4.431,1.921,2.076,2.116,2.476,2.1,2.943-.076,2.581-5.564,4.537-8.828,5.185-2.316.459-3.494.693-5.045.28-4.155-1.107-5.547-5.414-8.337-4.9-.551.1-1.278.411-1.331.841-.113.913,2.9,1.707,2.8,2.241-.175.94-9.591-1.146-10.788,1.4-.563,1.2.9,2.963,1.12,3.223,2,2.353,5.765,3.279,15.833,1.962,10.872-1.424,21.837-2.859,22.84-7.987.231-1.182-.521-2.707-1.962-5.745a37.723,37.723,0,0,0-4.536-7.286,30.178,30.178,0,0,1-8.276,3.415Z" transform="translate(-1958.125 -95.589)"/>
          <path id="Path_360" data-name="Path 360" class="cls-4" d="M1967.863,117.985c-4.922,0-7.057-1.078-8.415-2.678-.432-.508-1.792-2.271-1.171-3.591.846-1.8,4.772-1.584,7.927-1.414a20.129,20.129,0,0,0,2.655.05c-.206-.133-.531-.3-.772-.424-.957-.49-1.945-1-1.854-1.751.1-.835,1.457-1.107,1.61-1.135,1.606-.3,2.739.782,4.052,2.028a10.345,10.345,0,0,0,4.435,2.883c1.472.394,2.611.167,4.882-.284,3.519-.7,8.494-2.664,8.56-4.859.008-.317-.121-.658-2.011-2.7-1.413-1.526-2.889-3.011-4.388-4.413l-.46-.431.613-.152a29.921,29.921,0,0,0,8.181-3.376l.258-.155.187.235a38.046,38.046,0,0,1,4.577,7.352l.144.3c1.392,2.931,2.089,4.4,1.844,5.655-1.05,5.371-11.775,6.774-23.131,8.261A60.571,60.571,0,0,1,1967.863,117.985Zm-4.667-7.1c-1.988,0-3.868.216-4.3,1.128-.355.755.356,2.009,1.073,2.854,1.779,2.094,5.1,3.208,15.527,1.843,10.616-1.39,21.593-2.826,22.548-7.714.2-1.03-.506-2.522-1.792-5.229l-.144-.3a37.333,37.333,0,0,0-4.309-6.986,30.517,30.517,0,0,1-7.505,3.143c1.355,1.287,2.688,2.637,3.97,4.023,1.939,2.1,2.21,2.563,2.192,3.184-.087,2.949-5.993,4.895-9.1,5.511-2.31.456-3.577.708-5.2.275a10.9,10.9,0,0,1-4.73-3.047c-1.226-1.164-2.193-2.087-3.457-1.85-.557.1-1.032.382-1.052.545-.035.277.992.805,1.486,1.058.845.435,1.4.721,1.313,1.206-.115.617-1,.6-3.546.463C1965.272,110.938,1964.219,110.88,1963.2,110.88Z" transform="translate(-1958.118 -95.58)"/>
        </g>
        <g id="Group_5280" data-name="Group 5280" transform="translate(1986.442 116.139)">
          <path id="Path_361" data-name="Path 361" class="cls-3" d="M1990.054,118.042a27.265,27.265,0,0,1-1.792,10.993" transform="translate(-1987.919 -117.699)"/>
          <path id="Path_362" data-name="Path 362" class="cls-4" d="M1988.255,129.371a.366.366,0,0,1-.123-.022.344.344,0,0,1-.2-.444,26.927,26.927,0,0,0,1.769-10.855.343.343,0,0,1,.327-.359.333.333,0,0,1,.358.327,27.61,27.61,0,0,1-1.813,11.133A.344.344,0,0,1,1988.255,129.371Z" transform="translate(-1987.912 -117.692)"/>
        </g>
        <g id="Group_5281" data-name="Group 5281" transform="translate(1990.045 117.64)">
          <path id="Path_363" data-name="Path 363" class="cls-3" d="M1992.887,119.574a19.029,19.029,0,0,1-.948,7.721" transform="translate(-1991.597 -119.232)"/>
          <path id="Path_364" data-name="Path 364" class="cls-4" d="M1991.932,127.63a.329.329,0,0,1-.109-.019.342.342,0,0,1-.215-.434,18.733,18.733,0,0,0,.931-7.583.343.343,0,0,1,.683-.057,19.419,19.419,0,0,1-.965,7.859A.343.343,0,0,1,1991.932,127.63Z" transform="translate(-1991.59 -119.224)"/>
        </g>
        <g id="Group_5282" data-name="Group 5282" transform="translate(1939.838 116.139)">
          <path id="Path_365" data-name="Path 365" class="cls-3" d="M1940.709,118.042a27.276,27.276,0,0,0,1.792,10.993" transform="translate(-1940.341 -117.699)"/>
          <path id="Path_366" data-name="Path 366" class="cls-4" d="M1942.494,129.371a.343.343,0,0,1-.32-.219,27.629,27.629,0,0,1-1.814-11.132.343.343,0,0,1,.686.031,26.888,26.888,0,0,0,1.769,10.856.343.343,0,0,1-.2.443A.355.355,0,0,1,1942.494,129.371Z" transform="translate(-1940.333 -117.692)"/>
        </g>
        <g id="Group_5283" data-name="Group 5283" transform="translate(1937.04 117.639)">
          <path id="Path_367" data-name="Path 367" class="cls-3" d="M1937.894,119.574a19.053,19.053,0,0,0,.947,7.721" transform="translate(-1937.484 -119.231)"/>
          <path id="Path_368" data-name="Path 368" class="cls-4" d="M1938.834,127.63a.341.341,0,0,1-.324-.233,19.376,19.376,0,0,1-.965-7.859.343.343,0,0,1,.683.057,18.752,18.752,0,0,0,.931,7.583.341.341,0,0,1-.214.434A.336.336,0,0,1,1938.834,127.63Z" transform="translate(-1937.477 -119.224)"/>
        </g>
        <g id="Group_5284" data-name="Group 5284" transform="translate(1959.709 99.095)">
          <path id="Path_369" data-name="Path 369" class="cls-3" d="M1972.106,101.108a27.29,27.29,0,0,0-11.136.228" transform="translate(-1960.627 -100.299)"/>
          <path id="Path_370" data-name="Path 370" class="cls-4" d="M1960.963,101.671a.342.342,0,0,1-.076-.676,27.624,27.624,0,0,1,11.275-.231.343.343,0,1,1-.126.674,28.528,28.528,0,0,0-5.322-.458,27.012,27.012,0,0,0-5.674.683A.352.352,0,0,1,1960.963,101.671Z" transform="translate(-1960.62 -100.292)"/>
        </g>
        <g id="Group_5285" data-name="Group 5285" transform="translate(1961.97 96.139)">
          <path id="Path_371" data-name="Path 371" class="cls-3" d="M1971.055,98.105a19.031,19.031,0,0,0-7.778-.147" transform="translate(-1962.935 -97.282)"/>
          <path id="Path_372" data-name="Path 372" class="cls-4" d="M1971.049,98.441a.293.293,0,0,1-.077-.009,18.65,18.65,0,0,0-7.637-.144.337.337,0,0,1-.4-.273.341.341,0,0,1,.272-.4,18.914,18.914,0,0,1,4.1-.331,19.389,19.389,0,0,1,3.817.481.343.343,0,0,1-.076.677Z" transform="translate(-1962.928 -97.274)"/>
        </g>
        <g id="Group_5286" data-name="Group 5286" class="cls-6" transform="translate(1954.961 103.405)">
          <path id="Path_373" data-name="Path 373" class="cls-7" d="M1975.775,114.521c.274,1.234,1.014,4.555-.935,7.239-2.679,3.689-8.159,3.035-8.892,2.936-4.066-.547-10.068-3.744-10.174-9.827a10,10,0,0,1,9.827-10.174C1971.865,104.585,1975,111.034,1975.775,114.521Z" transform="translate(-1955.772 -104.693)"/>
        </g>
      </g>
    </g>
  </g>
</svg>
