<svg xmlns="http://www.w3.org/2000/svg" xmlns:xlink="http://www.w3.org/1999/xlink" width="100" height="100" viewBox="0 0 100 100">
  <defs>
    <style>
      .cls-1 {
        fill: none;
      }

      .cls-2 {
        opacity: 0.05;
        fill: url(#linear-gradient);
      }

      .cls-3 {
        fill: #fff;
      }

      .cls-4 {
        fill: #474747;
      }

      .cls-5 {
        fill: #2d2d2d;
      }

      .cls-6 {
        mix-blend-mode: multiply;
        isolation: isolate;
      }

      .cls-7 {
        fill: #ff8e93;
        opacity: 0.5;
      }
    </style>
    <linearGradient id="linear-gradient" x1="0.5" x2="0.5" y2="1" gradientUnits="objectBoundingBox">
      <stop offset="0" stop-color="#1778f2"/>
      <stop offset="1" stop-color="#f40009"/>
    </linearGradient>
  </defs>
  <g id="Group_124989" data-name="Group 124989" transform="translate(-216 -1611)">
    <rect id="Rectangle_10362" data-name="Rectangle 10362" class="cls-1" width="100" height="100" transform="translate(216 1611)"/>
    <g id="Group_124924" data-name="Group 124924">
      <g id="Group_124923" data-name="Group 124923">
        <path id="Path_153253" data-name="Path 153253" class="cls-2" d="M32.3,83.491A105.79,105.79,0,0,1,17.2,70.917,105.57,105.57,0,0,1,4.909,56.1,17.251,17.251,0,0,1,0,44.2,16.783,16.783,0,0,1,4.909,32.3,144.539,144.539,0,0,1,32.3,4.909,17.263,17.263,0,0,1,44.2,0,16.781,16.781,0,0,1,56.1,4.909a164.255,164.255,0,0,1,13.841,12.23A164.608,164.608,0,0,1,83.491,32.3,17.24,17.24,0,0,1,88.4,44.2a16.782,16.782,0,0,1-4.909,11.9A163.679,163.679,0,0,1,69.255,71.955,164.629,164.629,0,0,1,56.1,83.491a17.386,17.386,0,0,1-7.239,4.259,16.564,16.564,0,0,1-4.664.65,17.462,17.462,0,0,1-5.792-1.133A18.7,18.7,0,0,1,32.3,83.491Z" transform="translate(221.375 1617)"/>
        <g id="Group_75819" data-name="Group 75819" transform="translate(-1413.282 1577.593)">
          <g id="Group_8112" data-name="Group 8112" transform="translate(1643.273 97.579)">
            <path id="Path_511" data-name="Path 511" class="cls-3" d="M1650.076,100.708l-6.6,16.821,22.4,11.908,8.529-2.318c-7.768-2.957-11.526-4.178-12.852-4.362a3.467,3.467,0,0,1-1.926-.747c-.679-.591-.574-1.1-1.218-1.533-.726-.485-1.256-.1-2.241-.354a4.26,4.26,0,0,1-2.4-1.926c-.976-1.729-.048-3.826.589-5.266a12.343,12.343,0,0,1,4.206-5.031Z" transform="translate(-1643.474 -100.708)"/>
          </g>
          <g id="Group_8115" data-name="Group 8115" transform="translate(1656.749 43.311)">
            <g id="Group_8113" data-name="Group 8113" transform="translate(0.331 0.326)">
              <path id="Path_512" data-name="Path 512" class="cls-4" d="M1691.041,91.922c-6.228-.691-15.858-2-23.21-7.458a24.111,24.111,0,0,1-6.573-7.272,21.28,21.28,0,0,1-3.143-9.589c-.649-10.569,7.352-22.189,17.645-23.757a16.077,16.077,0,0,1,8.462.964c2.638,1.08,7.136,3.787,13.565,21.526,4.743,13.1,7.7,21.252,4.022,24.765-.36.346-1.312,1.137-4.844,1.2" transform="translate(-1658.078 -43.655)"/>
            </g>
            <g id="Group_8114" data-name="Group 8114">
              <path id="Path_513" data-name="Path 513" class="cls-5" d="M1696.952,92.609l-.011-.661c3.528-.059,4.35-.846,4.621-1.1,3.516-3.36.491-11.716-4.086-24.365-6.765-18.664-11.413-20.567-13.4-21.38a15.764,15.764,0,0,0-8.288-.944c-9.747,1.485-18.023,12.644-17.362,23.41a20.925,20.925,0,0,0,3.1,9.442,23.913,23.913,0,0,0,6.486,7.172c7.665,5.69,18.055,6.842,23.048,7.4l-.074.658c-5.05-.56-15.561-1.726-23.369-7.521a24.537,24.537,0,0,1-6.662-7.37,21.535,21.535,0,0,1-3.187-9.735c-.681-11.083,7.863-22.572,17.926-24.106a16.417,16.417,0,0,1,8.636.985c2.066.846,6.9,2.828,13.751,21.719,4.85,13.4,7.767,21.46,3.94,25.118C1701.7,91.625,1700.738,92.547,1696.952,92.609Z" transform="translate(-1657.728 -43.311)"/>
            </g>
          </g>
          <g id="Group_8116" data-name="Group 8116" transform="translate(1649.117 76.527)">
            <path id="Path_514" data-name="Path 514" class="cls-3" d="M1673.668,78.442a5.367,5.367,0,0,1-.118,3.475,5.243,5.243,0,0,1-1.886,2.394,29.635,29.635,0,0,1-5.385,1.516,42.917,42.917,0,0,0-5.266.958,21.185,21.185,0,0,0-3.34,1.276,41.785,41.785,0,0,0-8.018,12.926q7,4.069,13.991,8.139l30.459,5.226a9.5,9.5,0,0,1,1.337,3.271,3.559,3.559,0,0,1-.04,2.553c-.606,1.042-2.055,1.183-3.026,1.277a9.275,9.275,0,0,1-5.266-1.157l-5.66,7.141c2.957.634,5.5,1.026,7.468,1.276.4.051.219.025,7.586.559,2.41.174,3.6.262,5.031-.359a7.548,7.548,0,0,0,3.065-2.553,50.351,50.351,0,0,0-1.729-18.032,47.216,47.216,0,0,0-3.223-10.971,46.708,46.708,0,0,0-3.406-6.449c-3.974-1.922-6.683-3.209-8.62-4.122-1.857-.876-3.218-1.507-4.167-3.032a7.55,7.55,0,0,1-.864-5.027Z" transform="translate(-1649.655 -78.442)"/>
          </g>
          <g id="Group_8117" data-name="Group 8117" transform="translate(1662.105 66.083)">
            <path id="Path_515" data-name="Path 515" class="cls-3" d="M1667.567,68.3c-1.621-.757-3.148-.723-3.645-.035-.675.937.729,2.838,1.079,3.312a8.155,8.155,0,0,0,4.075,2.833" transform="translate(-1663.411 -67.415)"/>
            <path id="Path_516" data-name="Path 516" class="cls-5" d="M1669.057,74.724a.328.328,0,0,1-.1-.015,8.446,8.446,0,0,1-4.238-2.952c-1.26-1.706-1.623-2.95-1.081-3.7.613-.852,2.317-.882,4.053-.072a.331.331,0,0,1-.281.6c-1.539-.72-2.88-.635-3.235-.14-.162.222-.379.952,1.075,2.921a7.789,7.789,0,0,0,3.911,2.715.33.33,0,0,1-.1.645Z" transform="translate(-1663.392 -67.396)"/>
          </g>
          <g id="Group_8118" data-name="Group 8118" transform="translate(1657.248 102.836)">
            <path id="Path_517" data-name="Path 517" class="cls-3" d="M1658.255,108.459l.383.049.875-1.248-.845-.992Z" transform="translate(-1658.255 -106.268)"/>
          </g>
          <g id="Group_8119" data-name="Group 8119" transform="translate(1666.186 53.059)">
            <path id="Path_518" data-name="Path 518" class="cls-3" d="M1682.461,53.932a13.57,13.57,0,0,1,5.058,4.5,13.811,13.811,0,0,1,2.2,8.58c-.381,5.71-4.659,13.8-11.073,13.585-5.167-.172-10.461-5.692-10.589-13.215" transform="translate(-1667.727 -53.638)"/>
            <path id="Path_519" data-name="Path 519" class="cls-5" d="M1678.868,80.918c-.085,0-.169,0-.253,0-5.16-.172-10.774-5.654-10.907-13.54l.661-.011c.128,7.51,5.413,12.728,10.269,12.891.078,0,.156,0,.233,0,5.963,0,10.125-7.672,10.5-13.281a13.064,13.064,0,0,0-7.079-12.767l.3-.587a13.726,13.726,0,0,1,7.435,13.4A19.045,19.045,0,0,1,1686.7,76.2C1684.536,79.251,1681.765,80.918,1678.868,80.918Z" transform="translate(-1667.708 -53.621)"/>
          </g>
          <g id="Group_8120" data-name="Group 8120" transform="translate(1665.747 48.13)">
            <path id="Path_520" data-name="Path 520" class="cls-5" d="M1667.575,67.4a.331.331,0,0,1-.047-.658,28.2,28.2,0,0,0,10.611-3.762,25.386,25.386,0,0,0,3.9-2.859,23.819,23.819,0,0,0,6.739-11.472.331.331,0,1,1,.638.174,24.47,24.47,0,0,1-6.93,11.786,25.884,25.884,0,0,1-4,2.939,28.869,28.869,0,0,1-10.858,3.85Z" transform="translate(-1667.243 -48.408)"/>
          </g>
          <g id="Group_8121" data-name="Group 8121" transform="translate(1666.926 52.594)">
            <path id="Path_521" data-name="Path 521" class="cls-4" d="M1668.491,66.85a27.927,27.927,0,0,0,3.871-.953,29.5,29.5,0,0,0,4.543-1.924,23.749,23.749,0,0,0,3.371-2.079c.522-.388,1.069-.831,1.631-1.339A22.349,22.349,0,0,0,1686,55.6c-.9-1.245-2.179-2.7-3.294-2.445-.7.159-1.026.917-1.322,1.442-1.35,2.388-4.85,3.216-7.431,4.828C1672.215,60.512,1670.061,62.568,1668.491,66.85Z" transform="translate(-1668.491 -53.13)"/>
          </g>
          <g id="Group_8122" data-name="Group 8122" transform="translate(1659.669 101.47)">
            <path id="Path_522" data-name="Path 522" class="cls-3" d="M1662.786,104.823a16.79,16.79,0,0,0-1.886,6.17,17.385,17.385,0,0,0,2.278,10.337l25.861,3.772-.707-13.755-9.825-5.109Z" transform="translate(-1660.815 -104.823)"/>
          </g>
          <g id="Group_8123" data-name="Group 8123" transform="translate(1642.361 77.828)">
            <path id="Path_523" data-name="Path 523" class="cls-5" d="M1672.947,130.359c-.323,0-.645,0-.967,0h0a93.056,93.056,0,0,1-18.07-2.242c-4.646-1.035-9.191-2.529-10.971-6.409a4.016,4.016,0,0,1-.255-.627c-.466-1.522-.3-4.622,4.495-16.074,6.063-14.488,9.451-17.8,12.954-18.443.236-.044.469-.074.772-.113.192-.025.413-.053.685-.092h0s.708-.1,1.4-.222c4.948-.834,7.432-1.252,8.829-2.721a6.016,6.016,0,0,0,1.388-2.549l.113-.4.361.194a7.85,7.85,0,0,0,8.248-.511l.473-.334.048.577a7.072,7.072,0,0,0,.75,2.668c.916,1.774,2.39,2.711,5.564,4.27A49.9,49.9,0,0,0,1694,89.622a5.714,5.714,0,0,1,2.06,1.1c1.623,1.349,2.516,3.772,4.291,8.6a77.355,77.355,0,0,1,3.108,11.227c.184.924.413,2.073.631,3.575,1.076,7.457,1.617,11.2-.115,13.4-2.151,2.731-6.632,2.6-14.377,1.711A125.624,125.624,0,0,1,1672.947,130.359Zm.781-48.933a6.511,6.511,0,0,1-1.427,2.442c-1.55,1.629-4.106,2.06-9.2,2.917-.7.119-1.418.226-1.418.226-.278.04-.5.068-.7.093-.289.037-.51.066-.736.107-3.285.6-6.516,3.835-12.463,18.047-4.739,11.324-4.88,14.3-4.474,15.624a3.472,3.472,0,0,0,.214.524c1.67,3.639,6.044,5.062,10.525,6.062a92.3,92.3,0,0,0,17.928,2.226,126.97,126.97,0,0,0,14.865-.782l-1.268-.154c-8.85-1.083-14.541-3.253-25.88-7.58-2.871-1.095-5.976-2.475-6.456-5.014a2.66,2.66,0,0,1-.048-.64c.112-2.189,1.05-3.547,2.757-6.014.428-.619.906-1.31,1.432-2.1.473-.713.874-1.35,1.208-1.884,1-1.6,1.309-2.082,1.768-1.878.431.188.3.835.119,1.731l-.019.091c-.006.029-.152.791-.887,6.268a11.757,11.757,0,0,0,1.743,7.184.331.331,0,0,1-.58.321,12.4,12.4,0,0,1-1.819-7.594c.744-5.546.889-6.281.9-6.309l.018-.092c.032-.16.077-.384.111-.592-.216.309-.5.758-.789,1.222-.338.538-.741,1.18-1.217,1.9-.529.8-1.01,1.493-1.44,2.115-1.691,2.444-2.54,3.67-2.641,5.671a2.05,2.05,0,0,0,.038.484c.416,2.2,3.337,3.487,6.042,4.518,11.288,4.307,16.955,6.468,25.724,7.541,10.768,1.319,15.621,1.783,17.8-.981,1.557-1.979,1.031-5.628-.02-12.9-.214-1.485-.442-2.625-.623-3.54a76.627,76.627,0,0,0-3.079-11.127c-1.736-4.715-2.607-7.083-4.093-8.317a5.057,5.057,0,0,0-1.868-.993,51.554,51.554,0,0,1-5.3-2.316c-3.248-1.6-4.865-2.632-5.859-4.56a7.548,7.548,0,0,1-.758-2.373,8.507,8.507,0,0,1-8.128.433Z" transform="translate(-1642.51 -79.818)"/>
          </g>
          <g id="Group_8126" data-name="Group 8126" transform="translate(1664.232 99.499)">
            <g id="Group_8124" data-name="Group 8124" transform="translate(0.331 0.332)">
              <path id="Path_524" data-name="Path 524" class="cls-3" d="M1677.767,116.715a9.676,9.676,0,0,0,.157-5.187c-.266-1.05-1.018-4.016-3.148-4.829-.75-.286-1.4-.3-3.025-.859a7.756,7.756,0,0,1-1.468-.7c-1.757-1.055-2.478-2.262-3.3-2.023s-.964,1.71-.977,1.873c-.194,2.489,2.083,4.478,2.448,4.783a9.2,9.2,0,0,0,2.714,1.516A16.378,16.378,0,0,1,1677.767,116.715Z" transform="translate(-1665.992 -103.09)"/>
            </g>
            <g id="Group_8125" data-name="Group 8125" transform="translate(0 0)">
              <path id="Path_525" data-name="Path 525" class="cls-5" d="M1677.877,117.406l-.391-.507a16.366,16.366,0,0,0-6.468-5.32l-.239-.1a8.862,8.862,0,0,1-2.559-1.469c-.463-.388-2.768-2.454-2.566-5.062.034-.436.224-1.881,1.214-2.165.669-.194,1.225.271,1.932.857a12.88,12.88,0,0,0,1.635,1.2,7.432,7.432,0,0,0,1.405.667,18.407,18.407,0,0,0,1.976.564,7.881,7.881,0,0,1,1.058.3c2.292.874,3.062,3.912,3.351,5.056a10.012,10.012,0,0,1-.161,5.366Zm-10.7-14a.435.435,0,0,0-.121.017c-.5.143-.7,1.1-.738,1.582-.177,2.283,1.911,4.152,2.331,4.5a8.2,8.2,0,0,0,2.384,1.363l.246.1a16.6,16.6,0,0,1,6.325,5.009,9.251,9.251,0,0,0-.015-4.386c-.241-.952-.975-3.85-2.946-4.6a7.252,7.252,0,0,0-.972-.273,18.593,18.593,0,0,1-2.041-.582,7.979,7.979,0,0,1-1.531-.726,13.362,13.362,0,0,1-1.716-1.258C1667.805,103.675,1667.46,103.4,1667.173,103.4Z" transform="translate(-1665.642 -102.739)"/>
            </g>
          </g>
          <g id="Group_8129" data-name="Group 8129" transform="translate(1660.829 106.721)">
            <g id="Group_8127" data-name="Group 8127" transform="translate(0.332 0.331)">
              <path id="Path_526" data-name="Path 526" class="cls-3" d="M1690.411,114.251a11.131,11.131,0,0,1-1.684,8.326,10.348,10.348,0,0,1-8.927,4.414,10.079,10.079,0,0,1-5.7-2.223c-.138-.112-2.774-2.283-3.046-4.417-.141-1.1-.157-1.646-.157-1.646-.032-1.054.088-1.459-.157-1.645-.313-.238-.723.254-1.759.508a5.726,5.726,0,0,1-3.181-.238,6.507,6.507,0,0,1-1.019-.44,4.985,4.985,0,0,1-1.677-1.309,2.692,2.692,0,0,1-.7-1.474,2.117,2.117,0,0,1,.141-.986c.693-1.314,4.322.69,7.638-.925,1.413-.688,1.624-1.431,2.677-1.467,1.693-.059,3.14,1.791,4.1,3.374.459.755,2.128,1.392,3.948,1.369a6.425,6.425,0,0,0,4.171-1.8,3.85,3.85,0,0,0,1.886,1.258A4.145,4.145,0,0,0,1690.411,114.251Z" transform="translate(-1662.393 -110.727)"/>
            </g>
            <g id="Group_8128" data-name="Group 8128">
              <path id="Path_527" data-name="Path 527" class="cls-5" d="M1680.305,127.317c-.181,0-.36-.006-.542-.015a10.42,10.42,0,0,1-5.892-2.3c-.118-.1-2.876-2.36-3.167-4.634-.141-1.106-.159-1.655-.16-1.677-.01-.337-.006-.608,0-.827a2.118,2.118,0,0,0-.026-.566,2.485,2.485,0,0,0-.372.157,5.631,5.631,0,0,1-1.107.41,6.077,6.077,0,0,1-3.358-.245,6.835,6.835,0,0,1-1.075-.462,5.357,5.357,0,0,1-1.78-1.395,2.99,2.99,0,0,1-.771-1.652,2.375,2.375,0,0,1,.177-1.169c.422-.8,1.474-.693,2.809-.56a8.912,8.912,0,0,0,4.977-.508,6.4,6.4,0,0,0,1.24-.807,2.462,2.462,0,0,1,1.57-.694l.091,0c1.433,0,2.882,1.188,4.307,3.534.358.589,1.816,1.21,3.568,1.21h.094a6.083,6.083,0,0,0,3.948-1.709l.258-.238.223.27a3.5,3.5,0,0,0,1.723,1.151,3.8,3.8,0,0,0,3.158-.629l.42-.311.1.512a11.492,11.492,0,0,1-1.738,8.579A10.683,10.683,0,0,1,1680.305,127.317Zm-9.766-10.673a.611.611,0,0,1,.38.131c.3.231.3.578.286,1.1,0,.212-.008.472,0,.8,0,.006.019.545.155,1.614.206,1.612,2,3.455,2.926,4.2a9.749,9.749,0,0,0,5.511,2.149,9.99,9.99,0,0,0,8.638-4.273,10.751,10.751,0,0,0,1.713-7.59,4.329,4.329,0,0,1-3.3.452,4.1,4.1,0,0,1-1.822-1.109,6.633,6.633,0,0,1-4.139,1.662c-1.85.054-3.691-.633-4.235-1.529-1.323-2.176-2.607-3.289-3.808-3.215a1.848,1.848,0,0,0-1.184.554,7.122,7.122,0,0,1-1.361.88,9.611,9.611,0,0,1-5.333.572c-1.088-.11-1.944-.194-2.158.209a1.756,1.756,0,0,0-.1.8,2.378,2.378,0,0,0,.629,1.3,4.718,4.718,0,0,0,1.576,1.224,6.272,6.272,0,0,0,.967.417,5.4,5.4,0,0,0,3,.231,4.938,4.938,0,0,0,.982-.367A1.7,1.7,0,0,1,1670.539,116.645Z" transform="translate(-1662.042 -110.377)"/>
            </g>
          </g>
          <g id="Group_8132" data-name="Group 8132" transform="translate(1679.072 95.216)">
            <g id="Group_8130" data-name="Group 8130">
              <ellipse id="Ellipse_7618" data-name="Ellipse 7618" class="cls-3" cx="7.218" cy="6.537" rx="7.218" ry="6.537" transform="translate(0 9.851) rotate(-43.031)"/>
            </g>
            <g id="Group_8131" data-name="Group 8131" transform="translate(2.498 2.514)">
              <path id="Path_528" data-name="Path 528" class="cls-5" d="M1690.522,115.248a6.739,6.739,0,0,1-3.161-.77,6.284,6.284,0,0,1-3.137-3.92,7.4,7.4,0,0,1,.877-5.761c2.131-3.526,6.606-4.942,9.975-3.161a6.283,6.283,0,0,1,3.136,3.917,7.4,7.4,0,0,1-.877,5.763h0A8.084,8.084,0,0,1,1690.522,115.248Zm1.385-13.723a7.415,7.415,0,0,0-6.238,3.615,6.739,6.739,0,0,0-.807,5.243,5.629,5.629,0,0,0,2.81,3.511c3.06,1.622,7.143.314,9.1-2.918h0a6.74,6.74,0,0,0,.806-5.245,5.621,5.621,0,0,0-2.808-3.509A6.083,6.083,0,0,0,1691.907,101.525Z" transform="translate(-1683.98 -100.867)"/>
            </g>
          </g>
          <g id="Group_8133" data-name="Group 8133" transform="translate(1667.71 121.698)">
            <path id="Path_529" data-name="Path 529" class="cls-5" d="M1686.03,131.15a.356.356,0,0,1-.063-.006c-2.574-.507-5.161-1.093-7.693-1.741-2.923-.749-5.859-1.6-8.725-2.54a.331.331,0,0,1,.2-.63c2.854.933,5.775,1.783,8.685,2.528,2.519.645,5.094,1.227,7.656,1.731a.331.331,0,0,1-.064.656Z" transform="translate(-1669.32 -126.218)"/>
          </g>
          <g id="Group_8134" data-name="Group 8134" transform="translate(1666.75 122.154)">
            <path id="Path_530" data-name="Path 530" class="cls-3" d="M1668.963,126.7c.957.332,2.3.779,3.914,1.261,1.977.591,3.462.963,5.148,1.387,1.395.351,2.978.722,6.146,1.469l1.22.286a2.243,2.243,0,0,0-1.022.735c-.519.043-1.254.1-2.138.156-1.36.085-2.376.119-3.709.165-.187.007-.457.016-.82.026-1.066.032-1.953.049-2.594.058l-6.8-1.047Q1668.634,128.949,1668.963,126.7Z" transform="translate(-1668.305 -126.7)"/>
          </g>
          <g id="Group_8135" data-name="Group 8135" transform="translate(1655.035 110.848)">
            <path id="Path_531" data-name="Path 531" class="cls-5" d="M1689.684,124.357c-.318,0-.588-.015-.8-.033l-.157-.014c-1.466-.155-13.687-1.418-32.516-3.361a.333.333,0,0,1-.3-.364.321.321,0,0,1,.364-.295c18.829,1.945,31.054,3.208,32.477,3.358l.182.017a9.627,9.627,0,0,0,3.69-.428,5.039,5.039,0,0,0,2.437-1.408c1.1-1.386.722-4.028-.95-6.575a.332.332,0,0,1,.554-.364c1.829,2.787,2.2,5.741.913,7.351a5.614,5.614,0,0,1-2.749,1.625A10.3,10.3,0,0,1,1689.684,124.357Z" transform="translate(-1655.914 -114.742)"/>
          </g>
          <g id="Group_8136" data-name="Group 8136" transform="translate(1659.283 117.529)">
            <path id="Path_532" data-name="Path 532" class="cls-3" d="M1660.853,121.808l30.1,3.085-2.781,5.675c-.672-.061-1.67-.172-2.869-.379-.427-.074-.868-.163-1.169-.221,0,0-.99-.2-2.01-.421-1.765-.391-4.905-1.182-8.155-2.113-.422-.12-1.353-.39-2.549-.758-.992-.307-1.488-.46-2.11-.679-.805-.283-.819-.317-2.372-.885-.608-.222-.8-.289-1.431-.523-.749-.278-1.293-.488-1.5-.567-.708-.272-1.827-.693-3.606-1.336Z" transform="translate(-1660.407 -121.808)"/>
          </g>
          <g id="Group_8139" data-name="Group 8139" transform="translate(1684.515 97.38)">
            <g id="Group_8137" data-name="Group 8137" transform="translate(0.332 0.333)">
              <path id="Path_533" data-name="Path 533" class="cls-4" d="M1693.5,100.886c-1.484.236-2.452,1.58-3.354,2.83-.766,1.061-1.94,2.687-1.467,4.192.311.991,1.2,1.514.944,2.1-.2.446-.934.606-1.049.629-.615.125-.9-.131-1.048,0-.384.344.517,3.074,2.62,4.192,2.211,1.176,4.969.166,6.55-1.022a7.431,7.431,0,0,0,2.777-7.467C1698.783,103.319,1695.965,100.494,1693.5,100.886Z" transform="translate(-1687.445 -100.849)"/>
            </g>
            <g id="Group_8138" data-name="Group 8138">
              <path id="Path_534" data-name="Path 534" class="cls-5" d="M1692.331,115.659a4.961,4.961,0,0,1-2.354-.562,5.954,5.954,0,0,1-2.869-3.963.844.844,0,0,1,.182-.767.621.621,0,0,1,.582-.09,1.463,1.463,0,0,0,.622.012c.325-.066.719-.233.812-.44.062-.142-.049-.322-.32-.7a4.068,4.068,0,0,1-.638-1.161c-.523-1.663.7-3.361,1.513-4.484.921-1.275,1.956-2.708,3.572-2.964h0c2.78-.444,5.646,2.646,6.348,5.7a7.745,7.745,0,0,1-2.9,7.806A7.888,7.888,0,0,1,1692.331,115.659Zm-4.608-4.738a5.372,5.372,0,0,0,2.564,3.593c1.972,1.048,4.532.256,6.2-.995a7.075,7.075,0,0,0,2.654-7.129c-.694-3.018-3.418-5.54-5.6-5.2h0c-1.344.214-2.253,1.472-3.13,2.688-.741,1.026-1.849,2.561-1.426,3.909a3.529,3.529,0,0,0,.545.974c.3.42.611.853.385,1.356a1.8,1.8,0,0,1-1.284.818,2.08,2.08,0,0,1-.883-.012Z" transform="translate(-1687.094 -100.498)"/>
            </g>
          </g>
          <g id="Group_8142" data-name="Group 8142" transform="translate(1676.791 113.103)">
            <g id="Group_8140" data-name="Group 8140" transform="translate(0.331 0.331)">
              <path id="Path_535" data-name="Path 535" class="cls-3" d="M1687.89,118.031c-.223,1.33-1.467,8.241-5.075,9.727-.571.234-1.962.807-2.83.157a2.378,2.378,0,0,1-.707-1.886c.1-1.836,1.986-2.427,3.772-4.8a12.234,12.234,0,0,0,1.9-3.756" transform="translate(-1679.275 -117.477)"/>
            </g>
            <g id="Group_8141" data-name="Group 8141">
              <path id="Path_536" data-name="Path 536" class="cls-5" d="M1680.979,128.53a1.979,1.979,0,0,1-1.213-.369,2.671,2.671,0,0,1-.839-2.168c.066-1.249.848-1.963,1.838-2.867a15,15,0,0,0,2-2.111,12.006,12.006,0,0,0,1.85-3.657.331.331,0,0,1,.632.2,12.666,12.666,0,0,1-1.953,3.857,15.519,15.519,0,0,1-2.083,2.2c-.912.833-1.571,1.435-1.623,2.413a2.059,2.059,0,0,0,.575,1.6c.719.541,2.018,0,2.505-.2,3.273-1.347,4.559-7.593,4.876-9.475a.321.321,0,0,1,.38-.271.328.328,0,0,1,.271.38c-.423,2.522-1.785,8.541-5.276,9.978A5.307,5.307,0,0,1,1680.979,128.53Z" transform="translate(-1678.925 -117.127)"/>
            </g>
          </g>
          <g id="Group_8143" data-name="Group 8143" class="cls-6" transform="translate(1668.151 90.971)">
            <path id="Path_537" data-name="Path 537" class="cls-7" d="M1689.095,103.205c.265,1.191.979,4.4-.9,6.987-2.586,3.561-7.876,2.929-8.583,2.834-3.925-.528-9.72-3.614-9.822-9.485a9.655,9.655,0,0,1,9.485-9.821C1685.32,93.615,1688.345,99.839,1689.095,103.205Z" transform="translate(-1669.786 -93.719)"/>
          </g>
        </g>
      </g>
    </g>
  </g>
</svg>
