<svg xmlns="http://www.w3.org/2000/svg" xmlns:xlink="http://www.w3.org/1999/xlink" width="100" height="100" viewBox="0 0 100 100">
  <defs>
    <style>
      .cls-1 {
        fill: none;
      }

      .cls-2 {
        opacity: 0.05;
        fill: url(#linear-gradient);
      }

      .cls-3 {
        fill: #fff;
      }

      .cls-4 {
        fill: #a1bf64;
      }

      .cls-5 {
        fill: #2d2d2d;
      }

      .cls-6 {
        fill: #474747;
      }

      .cls-7 {
        fill: #211f20;
      }

      .cls-8 {
        fill: #ffa6ab;
      }

      .cls-11, .cls-9 {
        fill: #ff8e93;
      }

      .cls-10 {
        mix-blend-mode: multiply;
        isolation: isolate;
      }

      .cls-11 {
        opacity: 0.5;
      }
    </style>
    <linearGradient id="linear-gradient" x1="0.5" x2="0.5" y2="1" gradientUnits="objectBoundingBox">
      <stop offset="0" stop-color="#1778f2"/>
      <stop offset="1" stop-color="#f40009"/>
    </linearGradient>
  </defs>
  <g id="Group_124988" data-name="Group 124988" transform="translate(-48 -1611)">
    <rect id="Rectangle_10361" data-name="Rectangle 10361" class="cls-1" width="100" height="100" transform="translate(48 1611)"/>
    <g id="Group_124926" data-name="Group 124926">
      <path id="Path_153254" data-name="Path 153254" class="cls-2" d="M32.3,83.491A105.79,105.79,0,0,1,17.2,70.917,105.57,105.57,0,0,1,4.909,56.1,17.251,17.251,0,0,1,0,44.2,16.783,16.783,0,0,1,4.909,32.3,144.539,144.539,0,0,1,32.3,4.909,17.263,17.263,0,0,1,44.2,0,16.781,16.781,0,0,1,56.1,4.909a164.255,164.255,0,0,1,13.841,12.23A164.608,164.608,0,0,1,83.491,32.3,17.24,17.24,0,0,1,88.4,44.2a16.782,16.782,0,0,1-4.909,11.9A163.679,163.679,0,0,1,69.255,71.955,164.629,164.629,0,0,1,56.1,83.491a17.386,17.386,0,0,1-7.239,4.259,16.564,16.564,0,0,1-4.664.65,17.462,17.462,0,0,1-5.792-1.133A18.7,18.7,0,0,1,32.3,83.491Z" transform="translate(56.375 1616)"/>
      <g id="Group_75818" data-name="Group 75818" transform="translate(-2424.379 1575.552)">
        <g id="Group_15619" data-name="Group 15619" transform="translate(2504.231 105.191)">
          <path id="Path_74944" data-name="Path 74944" class="cls-3" d="M2513.294,107.975l-7.632,1.484-.477,7.314,6.413,2.438Z" transform="translate(-2505.185 -107.975)"/>
        </g>
        <g id="Group_15620" data-name="Group 15620" transform="translate(2505.141 109.46)">
          <path id="Path_74945" data-name="Path 74945" class="cls-3" d="M2506.137,127.771l5.536-15.331,17.175,2.524s1.239,13.282.682,13.617S2506.137,127.771,2506.137,127.771Z" transform="translate(-2506.137 -112.44)"/>
        </g>
        <g id="Group_15621" data-name="Group 15621" transform="translate(2509.519 56.915)">
          <path id="Path_74946" data-name="Path 74946" class="cls-4" d="M2510.715,57.49" transform="translate(-2510.715 -57.49)"/>
        </g>
        <g id="Group_15622" data-name="Group 15622" transform="translate(2491.054 90.729)">
          <path id="Path_74947" data-name="Path 74947" class="cls-3" d="M2514.671,92.852a44.355,44.355,0,0,0-15.741,7.367,21.492,21.492,0,0,0-2.438,3.815c-1.237,2.481-1.479,4.186-2.279,6.784a42.849,42.849,0,0,1-2.808,6.891l7.525,5.458,3.817.159.265-11.712,10.493-6.783,4.24-7.9Z" transform="translate(-2491.405 -92.852)"/>
        </g>
        <g id="Group_15623" data-name="Group 15623" transform="translate(2507.206 67.767)">
          <path id="Path_74948" data-name="Path 74948" class="cls-3" d="M2512.1,69.235c-.239.026-2.7.33-3.308,1.91-.641,1.661.815,4.606,4.24,5.865a19.735,19.735,0,0,1-.932-7.774Z" transform="translate(-2508.312 -68.856)"/>
          <path id="Path_74949" data-name="Path 74949" class="cls-5" d="M2513.556,77.545l-.652-.24a7.29,7.29,0,0,1-4.209-3.642,3.478,3.478,0,0,1-.227-2.657c.657-1.706,3.1-2.066,3.581-2.121l.4-.046-.034.405a19.519,19.519,0,0,0,.083,3.927,19.283,19.283,0,0,0,.834,3.715Zm-1.832-7.934c-.738.142-2.216.555-2.633,1.635a2.871,2.871,0,0,0,.213,2.14,6.392,6.392,0,0,0,3.183,3.022,19.986,19.986,0,0,1-.649-3.155A20.239,20.239,0,0,1,2511.724,69.612Z" transform="translate(-2508.297 -68.839)"/>
        </g>
        <g id="Group_15624" data-name="Group 15624" transform="translate(2533.147 66.385)">
          <path id="Path_74950" data-name="Path 74950" class="cls-3" d="M2536.076,67.742c.24,0,2.717.026,3.48,1.528.8,1.58-.35,4.672-3.631,6.307a19.761,19.761,0,0,0,.151-7.835Z" transform="translate(-2535.447 -67.408)"/>
          <path id="Path_74951" data-name="Path 74951" class="cls-5" d="M2535.425,76.174l.152-.686a19.431,19.431,0,0,0,.147-7.7l-.071-.393h.411c.347,0,2.927.055,3.767,1.711a3.46,3.46,0,0,1,.048,2.643,7.4,7.4,0,0,1-3.827,4.115Zm1.029-8.094a20.115,20.115,0,0,1-.078,6.84,6.5,6.5,0,0,0,2.869-3.382,2.86,2.86,0,0,0-.009-2.131C2538.714,68.382,2537.188,68.138,2536.454,68.08Z" transform="translate(-2535.425 -67.393)"/>
        </g>
        <g id="Group_15625" data-name="Group 15625" transform="translate(2509.873 51.931)">
          <ellipse id="Ellipse_8511" data-name="Ellipse 8511" class="cls-3" cx="11.921" cy="17.105" rx="11.921" ry="17.105" transform="translate(0 1.056) rotate(-2.539)"/>
          <path id="Path_74952" data-name="Path 74952" class="cls-5" d="M2524.15,87.334a9.983,9.983,0,0,1-6.7-2.776c-3.423-3.075-5.635-8.3-5.919-13.971-.481-9.6,4.616-17.723,11.363-18.1a9.867,9.867,0,0,1,7.194,2.763c3.422,3.077,5.634,8.3,5.918,13.97.481,9.6-4.617,17.725-11.364,18.1C2524.48,87.329,2524.314,87.334,2524.15,87.334Zm-.759-34.194c-.153,0-.3,0-.456.013-6.38.359-11.193,8.164-10.731,17.4.275,5.5,2.4,10.547,5.7,13.507a9.27,9.27,0,0,0,6.708,2.59c6.381-.358,11.195-8.163,10.733-17.4-.275-5.5-2.4-10.546-5.7-13.507A9.344,9.344,0,0,0,2523.391,53.14Z" transform="translate(-2511.104 -52.286)"/>
        </g>
        <g id="Group_15628" data-name="Group 15628" transform="translate(2507.105 44.352)">
          <g id="Group_15626" data-name="Group 15626" transform="translate(0.33 0.332)">
            <path id="Path_74953" data-name="Path 74953" class="cls-6" d="M2527.115,45.171a15.009,15.009,0,0,0-10.431,1.1c-1.089.554-6,3.041-7.613,8.691-1.768,6.2,1.281,12.855,2.712,12.76,1.278-.084.45-5.5,3.849-7.817,2.3-1.568,3.684.221,7.887-1.323,3.253-1.194,4.031-2.855,5.971-2.415,1.8.408,2.893,2.243,3.722,3.638,2.141,3.6,1.662,6.583,2.316,6.657,1.021.117,4.595-6.869,2.239-13.112C2535.423,47.141,2528.668,45.54,2527.115,45.171Z" transform="translate(-2508.536 -44.7)"/>
          </g>
          <g id="Group_15627" data-name="Group 15627">
            <path id="Path_74954" data-name="Path 74954" class="cls-5" d="M2511.739,68.045a1.685,1.685,0,0,1-1.2-.777c-1.656-2.052-3.206-7.506-1.806-12.41a14.5,14.5,0,0,1,7.771-8.893,15.193,15.193,0,0,1,10.671-1.135l-.078.325.079-.325c7.009,1.666,9.788,5.481,10.886,8.389a15.041,15.041,0,0,1-1.566,12.89c-.381.488-.714.71-1.024.673-.507-.058-.6-.629-.766-1.574a14.257,14.257,0,0,0-1.8-5.245c-.823-1.387-1.847-3.107-3.508-3.484-1-.228-1.634.169-2.686.826a15.641,15.641,0,0,1-3.1,1.578,10.823,10.823,0,0,1-4.825.67,4.17,4.17,0,0,0-2.989.615c-1.94,1.322-2.431,3.749-2.789,5.522-.27,1.337-.465,2.3-1.225,2.353Zm11.49-23.024a14.8,14.8,0,0,0-13.848,10.019c-1.449,5.076.382,10.194,1.683,11.808.323.4.571.555.684.528.251-.016.452-1.016.615-1.818.38-1.885.9-4.468,3.068-5.943a4.823,4.823,0,0,1,3.4-.73,10.11,10.11,0,0,0,4.56-.629,15.226,15.226,0,0,0,2.973-1.518c1.072-.672,1.924-1.2,3.188-.912,1.943.44,3.094,2.378,3.936,3.791a15.064,15.064,0,0,1,1.884,5.477,6.178,6.178,0,0,0,.217.994,3.621,3.621,0,0,0,.937-1.259,14.671,14.671,0,0,0,.915-11.374c-1.041-2.757-3.691-6.378-10.413-7.975l.074-.326-.077.326A16.44,16.44,0,0,0,2523.229,45.021Z" transform="translate(-2508.191 -44.352)"/>
          </g>
        </g>
        <g id="Group_15629" data-name="Group 15629" transform="translate(2499.639 84.582)">
          <path id="Path_74955" data-name="Path 74955" class="cls-3" d="M2517.608,86.423a18.915,18.915,0,0,1-.53,5.313c-2.467,9.963-12.48,14.65-14.681,15.621l-2.014,14.521,9.752,9.01,27.241-1.272,6.465-12.3-7.034-19.376-7.8-7-.384-3.631a8.923,8.923,0,0,1-11.01-.887Z" transform="translate(-2500.383 -86.423)"/>
        </g>
        <g id="Group_15630" data-name="Group 15630" transform="translate(2488.571 84.245)">
          <path id="Path_74956" data-name="Path 74956" class="cls-5" d="M2499.125,124.991a36.192,36.192,0,0,1-4.268-.251c-3.086-.366-4.872-.637-5.7-1.955-.862-1.367,0-3,1.427-5.7.536-1.014,1.141-2.161,1.786-3.526a38.916,38.916,0,0,0,2.7-7.271,17.011,17.011,0,0,1,.9-2.695c0-.008.117-.238.3-.582.015-.026.359-.653.755-1.256,3.227-4.927,11.561-7.729,11.914-7.846,1.331-.441,2.437-.721,3.326-.947,1.9-.482,2.948-.747,3.752-1.908a6.212,6.212,0,0,0,.753-4.594.334.334,0,0,1,.279-.382.326.326,0,0,1,.382.279,6.855,6.855,0,0,1-.863,5.079c-.947,1.366-2.149,1.671-4.139,2.175-.878.222-1.972.5-3.279.932-.085.028-8.466,2.847-11.564,7.576-.381.582-.724,1.207-.727,1.213-.179.327-.286.545-.287.548a16.281,16.281,0,0,0-.858,2.584,39.536,39.536,0,0,1-2.743,7.381c-.651,1.379-1.261,2.534-1.8,3.552-1.36,2.573-2.109,3.99-1.453,5.031.636,1.007,2.078,1.276,5.215,1.647a35.511,35.511,0,0,0,9.082-.091.335.335,0,0,1,.094.663A36.09,36.09,0,0,1,2499.125,124.991Z" transform="translate(-2488.809 -86.071)"/>
        </g>
        <g id="Group_15631" data-name="Group 15631" transform="translate(2527.478 85.135)">
          <path id="Path_74957" data-name="Path 74957" class="cls-3" d="M2542.216,123.032a31.527,31.527,0,0,0,8.109-.159c2.984-.447,4.708-.755,5.406-2.014.822-1.482-.322-3.33-2.544-7.314-4.5-8.063-4.98-9.929-6.1-11.366v0s-.474-.553-1-1.06c-2.282-2.192-9.618-5.962-9.618-5.962-4.236-2.176-5.44-2.875-6.134-4.451a6.326,6.326,0,0,1-.425-3.353" transform="translate(-2529.512 -87.017)"/>
          <path id="Path_74958" data-name="Path 74958" class="cls-5" d="M2545.638,123.54a31.933,31.933,0,0,1-3.474-.19.335.335,0,0,1,.073-.666,31.353,31.353,0,0,0,8.023-.157c2.883-.431,4.543-.73,5.163-1.846.681-1.227-.261-2.91-2.139-6.264l-.4-.724c-2.359-4.229-3.608-6.747-4.437-8.412a17.394,17.394,0,0,0-1.632-2.912l-.007-.009c-.118-.134-.525-.6-.965-1.018-2.221-2.132-9.467-5.867-9.542-5.9-4.178-2.147-5.535-2.908-6.287-4.616a6.6,6.6,0,0,1-.449-3.528.335.335,0,1,1,.665.083,5.92,5.92,0,0,0,.4,3.175c.633,1.437,1.626,2.052,5.981,4.29.3.155,7.406,3.817,9.7,6.018.534.513,1.006,1.061,1.026,1.085l.081.1a18.741,18.741,0,0,1,1.634,2.935c.825,1.659,2.072,4.167,4.423,8.382l.4.724c2,3.571,3,5.363,2.14,6.915-.771,1.392-2.558,1.72-5.649,2.183A31.889,31.889,0,0,1,2545.638,123.54Z" transform="translate(-2529.497 -87.001)"/>
        </g>
        <g id="Group_15632" data-name="Group 15632" transform="translate(2502.855 111.858)">
          <path id="Path_74959" data-name="Path 74959" class="cls-7" d="M2504.081,132.63a.445.445,0,0,1-.061,0,.338.338,0,0,1-.269-.391,46.7,46.7,0,0,0,0-16.891.335.335,0,0,1,.659-.121,47.45,47.45,0,0,1,0,17.134A.335.335,0,0,1,2504.081,132.63Z" transform="translate(-2503.746 -114.948)"/>
        </g>
        <g id="Group_15633" data-name="Group 15633" transform="translate(2539.636 111.858)">
          <path id="Path_74960" data-name="Path 74960" class="cls-7" d="M2543.32,132.63a.336.336,0,0,1-.33-.273,47.45,47.45,0,0,1,0-17.134.335.335,0,0,1,.66.121,46.7,46.7,0,0,0,0,16.891.338.338,0,0,1-.269.391A.445.445,0,0,1,2543.32,132.63Z" transform="translate(-2542.211 -114.948)"/>
        </g>
        <g id="Group_15634" data-name="Group 15634" transform="translate(2493.846 122.299)">
          <line id="Line_67" data-name="Line 67" class="cls-3" x1="0.159" y2="6.625" transform="translate(0.335 0.335)"/>
          <path id="Path_74961" data-name="Path 74961" class="cls-5" d="M2494.66,133.16h-.009a.334.334,0,0,1-.326-.342l.159-6.625a.322.322,0,0,1,.344-.326.334.334,0,0,1,.325.343l-.159,6.624A.332.332,0,0,1,2494.66,133.16Z" transform="translate(-2494.325 -125.867)"/>
        </g>
        <g id="Group_15635" data-name="Group 15635" transform="translate(2547.585 120.762)">
          <line id="Line_68" data-name="Line 68" class="cls-3" x2="0.106" y2="8.215" transform="translate(0.335 0.334)"/>
          <path id="Path_74962" data-name="Path 74962" class="cls-5" d="M2550.965,133.143a.334.334,0,0,1-.334-.33l-.107-8.215a.334.334,0,0,1,.33-.339h0a.334.334,0,0,1,.335.329l.106,8.215a.333.333,0,0,1-.33.339Z" transform="translate(-2550.524 -124.26)"/>
        </g>
        <g id="Group_15638" data-name="Group 15638" transform="translate(2526.946 114.928)">
          <g id="Group_15636" data-name="Group 15636" transform="translate(0.335 0.243)">
            <path id="Path_74963" data-name="Path 74963" class="cls-8" d="M2532.792,118.412a7.434,7.434,0,0,1-.891.711c-1.789,1.269-2.546,1.4-2.607,2.065-.046.523.4.649,1.219,2.152.589,1.079.585,1.426.845,1.472.646.119,1.04-1.926,2.511-4.036.157-.226.313-.432.478-.631" transform="translate(-2529.29 -118.412)"/>
          </g>
          <g id="Group_15637" data-name="Group 15637">
            <path id="Path_74964" data-name="Path 74964" class="cls-5" d="M2531.409,125.141a.736.736,0,0,1-.126-.011c-.329-.057-.441-.311-.613-.692-.1-.22-.235-.527-.465-.949a10.585,10.585,0,0,0-.843-1.313,1.409,1.409,0,0,1-.417-1.029c.057-.606.485-.867,1.265-1.342.388-.237.872-.533,1.483-.966a7.209,7.209,0,0,0,.854-.682l.459.486a7.511,7.511,0,0,1-.925.741c-.631.448-1.125.75-1.523.992-.7.426-.922.574-.945.831-.013.148.036.229.288.572a11.433,11.433,0,0,1,.891,1.388c.242.443.386.765.489,1a2.037,2.037,0,0,0,.166.331,9.114,9.114,0,0,0,.651-1.253,17.656,17.656,0,0,1,1.482-2.669c.162-.233.325-.447.5-.652l.516.426c-.159.192-.311.391-.462.609a17.153,17.153,0,0,0-1.425,2.571C2532.248,124.484,2531.938,125.141,2531.409,125.141Z" transform="translate(-2528.94 -118.158)"/>
          </g>
        </g>
        <g id="Group_15641" data-name="Group 15641" transform="translate(2527.587 106.084)">
          <g id="Group_15639" data-name="Group 15639" transform="translate(0.335 0.334)">
            <path id="Path_74965" data-name="Path 74965" class="cls-9" d="M2538.127,122.5c-.673,1.247-.536,1.693-.826,1.751-.63.119-1.074-2.01-2.924-4.511-.2-.264-.406-.531-.635-.8a9.629,9.629,0,0,0-.921-.933,10.059,10.059,0,0,1-1-1.07c-1.14-1.407-1.774-2.187-1.85-3.368a4.084,4.084,0,0,1,1.357-3.261,4.187,4.187,0,0,1,1.778-.89,5.5,5.5,0,0,1,2.5-.042,3.514,3.514,0,0,1,3.264,3.261,6.375,6.375,0,0,1,.042,1.907c-.241,1.548-1.406,2.248-2.79,3.425l-1.63-1.409.139-.1a5.268,5.268,0,0,0,2.183-2.343,2.506,2.506,0,0,0,.146-1.252,2.033,2.033,0,0,0-.46-1.071,2.467,2.467,0,0,0-2.037-.557c-.284.016-2.017.11-2.374,1.1a2.084,2.084,0,0,0,.084,1.227,4.137,4.137,0,0,0,.555,1.189,13.563,13.563,0,0,0,1.724,1.813c.276.27.387.377.543.515.433.384.792.623,1.128.883,1.376,1.071,2.133,1.644,2.473,1.873a1.069,1.069,0,0,1,.486.528C2539.27,120.929,2538.715,121.41,2538.127,122.5Z" transform="translate(-2529.961 -109.259)"/>
          </g>
          <g id="Group_15640" data-name="Group 15640" transform="translate(0 0)">
            <path id="Path_74966" data-name="Path 74966" class="cls-5" d="M2537.224,124.58c-.5,0-.809-.609-1.3-1.57a20.391,20.391,0,0,0-1.835-3.082c-.19-.258-.4-.519-.621-.781a8.825,8.825,0,0,0-.839-.853,10.991,10.991,0,0,1-1.088-1.154c-1.152-1.424-1.842-2.274-1.926-3.559a4.4,4.4,0,0,1,1.471-3.534,4.548,4.548,0,0,1,1.911-.962,5.893,5.893,0,0,1,2.656-.047,3.838,3.838,0,0,1,3.522,3.519,6.646,6.646,0,0,1,.045,2.028c-.223,1.432-1.175,2.209-2.278,3.11l-.31.254c1.157.9,1.819,1.4,2.127,1.606a1.379,1.379,0,0,1,.616.7c.185.533-.1.983-.469,1.552-.151.237-.327.512-.5.842h0a6.532,6.532,0,0,0-.534,1.271c-.095.3-.183.583-.522.65A.732.732,0,0,1,2537.224,124.58Zm-2.81-15a4.858,4.858,0,0,0-1.238.152,3.879,3.879,0,0,0-1.644.819,3.769,3.769,0,0,0-1.244,2.987c.07,1.073.672,1.816,1.767,3.168a9.855,9.855,0,0,0,.978,1.047,9.948,9.948,0,0,1,.949.961c.234.273.448.546.648.818a20.971,20.971,0,0,1,1.9,3.178,6.759,6.759,0,0,0,.662,1.153c.015-.044.03-.1.046-.143a7.237,7.237,0,0,1,.584-1.388c.188-.349.372-.637.531-.885.323-.5.474-.756.4-.976a.715.715,0,0,0-.319-.335c-.366-.245-1.074-.78-2.314-1.744l-.011.01-.21-.182c-.1-.077-.2-.152-.3-.229-.252-.187-.525-.388-.834-.663-.16-.143-.275-.251-.556-.527a13.248,13.248,0,0,1-1.768-1.868,4.461,4.461,0,0,1-.6-1.289,2.368,2.368,0,0,1-.075-1.424c.377-1.048,1.835-1.278,2.671-1.322a2.755,2.755,0,0,1,2.3.666,2.374,2.374,0,0,1,.542,1.243,2.829,2.829,0,0,1-.161,1.416,5.208,5.208,0,0,1-2.1,2.354l1.09.943.418-.342c1.078-.88,1.855-1.516,2.04-2.695a6.058,6.058,0,0,0-.04-1.792,3.193,3.193,0,0,0-3-2.995A5.465,5.465,0,0,0,2534.414,109.578Zm.467,1.972c-.152,0-.295.008-.416.014-.423.023-1.816.152-2.078.88a1.831,1.831,0,0,0,.092,1.027,3.856,3.856,0,0,0,.512,1.093,11.9,11.9,0,0,0,1.488,1.572,4.883,4.883,0,0,0,2-2.141,2.18,2.18,0,0,0,.131-1.087,1.709,1.709,0,0,0-.379-.9A1.769,1.769,0,0,0,2534.881,111.55Z" transform="translate(-2529.611 -108.909)"/>
          </g>
        </g>
        <g id="Group_15642" data-name="Group 15642" transform="translate(2514.673 90.103)">
          <path id="Path_74967" data-name="Path 74967" class="cls-3" d="M2516.456,92.547a10.638,10.638,0,0,0,14.548.027" transform="translate(-2516.121 -92.212)"/>
          <path id="Path_74968" data-name="Path 74968" class="cls-5" d="M2523.728,95.755a11.13,11.13,0,0,1-7.516-2.98.334.334,0,1,1,.457-.488,10.3,10.3,0,0,0,14.092.026.334.334,0,1,1,.455.49,11.15,11.15,0,0,1-7.433,2.951Z" transform="translate(-2516.105 -92.197)"/>
        </g>
        <g id="Group_15643" data-name="Group 15643" class="cls-10" transform="translate(2515.943 105.231)">
          <path id="Path_74969" data-name="Path 74969" class="cls-11" d="M2536.961,117.612c.268,1.206.99,4.447-.912,7.067-2.615,3.6-7.965,2.962-8.681,2.867-3.969-.535-9.83-3.656-9.933-9.594a9.764,9.764,0,0,1,9.593-9.932C2533.144,107.913,2536.2,114.208,2536.961,117.612Z" transform="translate(-2517.434 -108.018)"/>
        </g>
      </g>
    </g>
  </g>
</svg>
