<svg xmlns="http://www.w3.org/2000/svg" xmlns:xlink="http://www.w3.org/1999/xlink" width="100" height="100" viewBox="0 0 100 100">
  <defs>
    <style>
      .cls-1 {
        fill: none;
      }

      .cls-2 {
        opacity: 0.05;
        fill: url(#linear-gradient);
      }

      .cls-3 {
        fill: #fff;
      }

      .cls-4 {
        fill: #2d2d2d;
      }

      .cls-5 {
        fill: #474747;
      }

      .cls-6 {
        mix-blend-mode: multiply;
        isolation: isolate;
      }

      .cls-7 {
        fill: #ff8e93;
        opacity: 0.5;
      }
    </style>
    <linearGradient id="linear-gradient" x1="0.5" x2="0.5" y2="1" gradientUnits="objectBoundingBox">
      <stop offset="0" stop-color="#1778f2"/>
      <stop offset="1" stop-color="#f40009"/>
    </linearGradient>
  </defs>
  <g id="Group_124986" data-name="Group 124986" transform="translate(-48 -1423)">
    <rect id="Rectangle_10359" data-name="Rectangle 10359" class="cls-1" width="100" height="100" transform="translate(48 1423)"/>
    <g id="Group_124921" data-name="Group 124921">
      <path id="Path_153252" data-name="Path 153252" class="cls-2" d="M32.3,83.491A105.79,105.79,0,0,1,17.2,70.917,105.57,105.57,0,0,1,4.909,56.1,17.251,17.251,0,0,1,0,44.2,16.783,16.783,0,0,1,4.909,32.3,144.539,144.539,0,0,1,32.3,4.909,17.263,17.263,0,0,1,44.2,0,16.781,16.781,0,0,1,56.1,4.909a164.255,164.255,0,0,1,13.841,12.23A164.608,164.608,0,0,1,83.491,32.3,17.24,17.24,0,0,1,88.4,44.2a16.782,16.782,0,0,1-4.909,11.9A163.679,163.679,0,0,1,69.255,71.955,164.629,164.629,0,0,1,56.1,83.491a17.386,17.386,0,0,1-7.239,4.259,16.564,16.564,0,0,1-4.664.65,17.462,17.462,0,0,1-5.792-1.133A18.7,18.7,0,0,1,32.3,83.491Z" transform="translate(56.375 1428)"/>
      <g id="Group_75812" data-name="Group 75812" transform="translate(-2921.367 1388.219)">
        <g id="Group_7165" data-name="Group 7165" transform="translate(2992.028 87.278)">
          <path id="Path_452" data-name="Path 452" class="cls-3" d="M2994.325,92.845l-1.539,3.236c1.45.8,3.054,1.607,4.813,2.367a54.9,54.9,0,0,0,8.522,2.88q.645-4.1,1.292-8.2l-7.8-3.519Z" transform="translate(-2992.787 -89.61)"/>
        </g>
        <g id="Group_7166" data-name="Group 7166" transform="translate(3000.525 62.842)">
          <path id="Path_453" data-name="Path 453" class="cls-3" d="M3006.18,65.1a2.672,2.672,0,0,0-3.622-.329,2.157,2.157,0,0,0-.252,2.308,3.1,3.1,0,0,0,1.5,1.32,10.74,10.74,0,0,1,3.487,3.233" transform="translate(-3001.758 -63.882)"/>
          <path id="Path_454" data-name="Path 454" class="cls-4" d="M3007.01,71.805a10.579,10.579,0,0,0-3.379-3.135l-.131-.072a3.184,3.184,0,0,1-1.512-1.4,2.488,2.488,0,0,1,.312-2.678,3.009,3.009,0,0,1,4.091.317l-.457.483a2.344,2.344,0,0,0-3.154-.343,1.835,1.835,0,0,0-.192,1.939,2.558,2.558,0,0,0,1.23,1.1l.136.075a11.235,11.235,0,0,1,3.594,3.329Z" transform="translate(-3001.74 -63.865)"/>
        </g>
        <g id="Group_7167" data-name="Group 7167" transform="translate(2993.855 74.416)">
          <path id="Path_455" data-name="Path 455" class="cls-3" d="M3009.782,76.059a80.861,80.861,0,0,0-15.07,14.755,25.006,25.006,0,0,1,3.313,7.1l6.944.71c-.145,4.366-.417,8.95-.853,13.73-.547,6-1.291,11.651-2.157,16.938l34.493-.052c-.228-1.9-.555-4.827-.853-8.443-.228-2.756-.324-4.521-.552-8.127-.159-2.5-.4-6.153-.724-10.652a1.553,1.553,0,0,1,.079-.986,1.535,1.535,0,0,1,.434-.572,13.391,13.391,0,0,0,8.521-2.978,12.122,12.122,0,0,0,2.328-2.643q-.651-.646-1.3-1.3-1.788-1.8-3.511-3.59-5.722-5.8-11.441-11.6Z" transform="translate(-2994.712 -76.059)"/>
        </g>
        <g id="Group_7168" data-name="Group 7168" transform="translate(3028.832 61.653)">
          <path id="Path_456" data-name="Path 456" class="cls-3" d="M3032.087,64.177c1.7-1.351,3.545-1.525,4.3-.792.68.661.382,1.964.339,2.144-.271,1.12-1.055,1.67-2.1,2.673a22.425,22.425,0,0,0-2.775,3.233" transform="translate(-3031.579 -62.629)"/>
          <path id="Path_457" data-name="Path 457" class="cls-4" d="M3032.107,71.609l-.542-.384a23.181,23.181,0,0,1,2.817-3.281c.177-.168.346-.325.506-.475a4.054,4.054,0,0,0,1.5-2.035c.032-.132.3-1.3-.247-1.828-.613-.594-2.263-.453-3.861.814l-.413-.521c1.71-1.353,3.79-1.69,4.737-.77a2.723,2.723,0,0,1,.429,2.46,4.672,4.672,0,0,1-1.693,2.368c-.157.145-.325.3-.5.466A22.342,22.342,0,0,0,3032.107,71.609Z" transform="translate(-3031.565 -62.611)"/>
        </g>
        <g id="Group_7169" data-name="Group 7169" transform="translate(3004.905 49.477)">
          <ellipse id="Ellipse_6724" data-name="Ellipse 6724" class="cls-3" cx="12.288" cy="15.339" rx="12.288" ry="15.339" transform="translate(0.333 0.332)"/>
          <path id="Path_458" data-name="Path 458" class="cls-4" d="M3018.975,81.123c-6.959,0-12.62-7.03-12.62-15.671s5.662-15.671,12.62-15.671,12.62,7.029,12.62,15.671S3025.934,81.123,3018.975,81.123Zm0-30.678c-6.593,0-11.956,6.732-11.956,15.007s5.364,15.006,11.956,15.006,11.957-6.731,11.957-15.006S3025.569,50.445,3018.975,50.445Z" transform="translate(-3006.355 -49.782)"/>
        </g>
        <g id="Group_7172" data-name="Group 7172" transform="translate(3001.704 43.781)">
          <g id="Group_7170" data-name="Group 7170" transform="translate(0.332 0.335)">
            <path id="Path_459" data-name="Path 459" class="cls-5" d="M3006.432,64.175c1.456.518,2.276-.816,4.976-1.286,2.85-.5,3.45.726,6.365.264a12.238,12.238,0,0,0,4.739-1.979c3.862-2.386,4.728-5.033,5.958-4.717,1.752.45.979,6.077,2.336,6.333.988.186,2.877-2.494,3.148-5.378.519-5.528-5.106-9.724-5.89-10.291a17.2,17.2,0,0,0-12.7-2.738c-1.863.318-6.69,1.142-9.715,5.377a11.78,11.78,0,0,0-1.456,11.348C3004.665,62.15,3005.116,63.707,3006.432,64.175Z" transform="translate(-3003.331 -44.135)"/>
          </g>
          <g id="Group_7171" data-name="Group 7171">
            <path id="Path_460" data-name="Path 460" class="cls-4" d="M3007.07,64.609a2.27,2.27,0,0,1-.767-.139c-1.259-.448-1.791-1.729-2.219-2.759-.071-.17-.139-.333-.207-.485a12.06,12.06,0,0,1,1.488-11.677c3.1-4.347,8.063-5.193,9.931-5.511a17.4,17.4,0,0,1,12.945,2.8c1.1.793,6.548,5.037,6.026,10.592a8.358,8.358,0,0,1-2.518,5.342,1.325,1.325,0,0,1-1.022.33c-.875-.165-1.05-1.526-1.252-3.1-.176-1.36-.394-3.053-1.106-3.236-.391-.1-.822.338-1.613,1.194a18.543,18.543,0,0,1-4.087,3.485,12.639,12.639,0,0,1-4.861,2.024,8.025,8.025,0,0,1-3.316-.146,7,7,0,0,0-3.044-.12,10.009,10.009,0,0,0-2.633.88A4.239,4.239,0,0,1,3007.07,64.609Zm11.336-20.164a17.962,17.962,0,0,0-3,.248c-1.792.306-6.556,1.119-9.5,5.243a11.391,11.391,0,0,0-1.424,11.019c.071.157.142.326.215.5.4.957.847,2.04,1.829,2.388h0c.681.244,1.181.013,2.011-.371a10.586,10.586,0,0,1,2.8-.929,7.633,7.633,0,0,1,3.3.124,7.323,7.323,0,0,0,3.072.139,11.875,11.875,0,0,0,4.614-1.931,17.981,17.981,0,0,0,3.952-3.373c.885-.957,1.467-1.594,2.265-1.386,1.148.3,1.377,2.075,1.6,3.8.133,1.037.316,2.459.715,2.534.055.01.209.011.5-.209a7.748,7.748,0,0,0,2.256-4.873c.488-5.2-4.708-9.235-5.753-9.992A15.979,15.979,0,0,0,3018.406,44.445Z" transform="translate(-3002.982 -43.781)"/>
          </g>
        </g>
        <g id="Group_7178" data-name="Group 7178" transform="translate(3015.658 88.516)">
          <g id="Group_7173" data-name="Group 7173" transform="translate(3.417 0.678)">
            <path id="Path_461" data-name="Path 461" class="cls-3" d="M3022.216,96.015a10.3,10.3,0,0,0-.291-1.949c-.232-.925-.488-1.392-.236-1.767a.873.873,0,0,1,.994-.316c.446.213.385,1,.5,1.805a6.892,6.892,0,0,0,1.309,3.114" transform="translate(-3021.3 -91.644)"/>
            <path id="Path_462" data-name="Path 462" class="cls-4" d="M3024.473,97.172a.286.286,0,0,1-.233-.119,7.272,7.272,0,0,1-1.358-3.241c-.028-.194-.045-.386-.061-.569-.042-.476-.082-.924-.277-1.017a.609.609,0,0,0-.634.217c-.111.164-.045.414.1.919.053.182.114.387.172.621a10.77,10.77,0,0,1,.3,2,.286.286,0,0,1-.269.3.277.277,0,0,1-.3-.269,10.107,10.107,0,0,0-.283-1.894c-.056-.225-.115-.423-.165-.6-.171-.583-.3-1.005-.031-1.4a1.153,1.153,0,0,1,1.352-.412c.49.232.542.839.6,1.481.016.175.031.357.057.542a6.7,6.7,0,0,0,1.259,2.987.286.286,0,0,1-.066.4A.28.28,0,0,1,3024.473,97.172Z" transform="translate(-3021.285 -91.629)"/>
          </g>
          <g id="Group_7174" data-name="Group 7174" transform="translate(0 1.427)">
            <path id="Path_463" data-name="Path 463" class="cls-3" d="M3020.408,101.109a6.432,6.432,0,0,0-.6-4.272c-.789-1.389-1.976-1.935-1.805-2.889.134-.741,1.025-1.37,1.5-1.2.6.206.17,1.5,1.144,2.467.49.485.792.4,1.384.843a4.234,4.234,0,0,1,1.5,2.693" transform="translate(-3017.7 -92.433)"/>
            <path id="Path_464" data-name="Path 464" class="cls-4" d="M3020.393,101.378l-.042,0a.284.284,0,0,1-.24-.323,6.3,6.3,0,0,0-.567-4.09,7.248,7.248,0,0,0-.995-1.3c-.521-.577-.971-1.074-.843-1.782a1.946,1.946,0,0,1,.935-1.257,1.155,1.155,0,0,1,.942-.165c.428.149.508.584.593,1.043a2.566,2.566,0,0,0,.657,1.491,1.809,1.809,0,0,0,.633.407,3.4,3.4,0,0,1,.721.409,4.612,4.612,0,0,1,1.613,2.863.284.284,0,0,1-.221.337.287.287,0,0,1-.337-.22,4.065,4.065,0,0,0-1.4-2.523,2.844,2.844,0,0,0-.611-.345,2.338,2.338,0,0,1-.8-.523,3.112,3.112,0,0,1-.816-1.791c-.057-.306-.106-.57-.22-.61a.649.649,0,0,0-.467.12,1.4,1.4,0,0,0-.663.866c-.074.413.2.746.705,1.3a7.792,7.792,0,0,1,1.067,1.4,6.845,6.845,0,0,1,.636,4.454A.285.285,0,0,1,3020.393,101.378Z" transform="translate(-3017.685 -92.418)"/>
          </g>
          <g id="Group_7175" data-name="Group 7175" transform="translate(4.809)">
            <path id="Path_465" data-name="Path 465" class="cls-3" d="M3023.051,99.032c1.923-2.107,2.272-3.726,2.188-4.858-.061-.821-.377-1.766.181-2.408a2.213,2.213,0,0,1,1.745-.541c.1.008,1.339.112,1.564.782.108.324-.128.45-.361,1.384a5.039,5.039,0,0,0-.181,1.385,3.9,3.9,0,0,0,.426,1.631" transform="translate(-3022.766 -90.93)"/>
            <path id="Path_466" data-name="Path 466" class="cls-4" d="M3023.036,99.3a.28.28,0,0,1-.192-.074.286.286,0,0,1-.019-.4c1.51-1.654,2.221-3.217,2.115-4.646-.013-.177-.039-.361-.065-.546a2.472,2.472,0,0,1,.314-2.069,2.446,2.446,0,0,1,1.98-.639c.362.028,1.549.183,1.815.976a.955.955,0,0,1-.087.734,5.448,5.448,0,0,0-.268.81,4.8,4.8,0,0,0-.172,1.307,3.633,3.633,0,0,0,.4,1.513.285.285,0,1,1-.51.253,4.2,4.2,0,0,1-.457-1.748,5.378,5.378,0,0,1,.189-1.463,6.1,6.1,0,0,1,.291-.885c.094-.232.1-.266.077-.34-.133-.394-.92-.557-1.318-.59a1.917,1.917,0,0,0-1.507.446,2.009,2.009,0,0,0-.179,1.617c.027.2.054.392.067.583.119,1.589-.642,3.3-2.262,5.07A.283.283,0,0,1,3023.036,99.3Z" transform="translate(-3022.751 -90.915)"/>
          </g>
          <g id="Group_7176" data-name="Group 7176" transform="translate(5.796 3.227)">
            <path id="Path_467" data-name="Path 467" class="cls-3" d="M3023.883,98.663c4.561-1.454,5.749-2.572,5.912-3.354.028-.132.086-.549.361-.662.466-.193,1.5.52,1.625,1.323.174,1.117-1.534,1.607-2.106,3.31a4.507,4.507,0,0,0,.3,3.189" transform="translate(-3023.796 -94.33)"/>
            <path id="Path_468" data-name="Path 468" class="cls-4" d="M3029.708,102.567a4.686,4.686,0,0,1-.308-3.393,4.93,4.93,0,0,1,1.355-1.94c.516-.512.8-.823.739-1.236a1.559,1.559,0,0,0-.773-.983.673.673,0,0,0-.462-.121q-.109.046-.182.415c-.254,1.225-2.193,2.36-6.112,3.61l-.173-.543c4.486-1.431,5.586-2.5,5.718-3.142.047-.235.14-.705.533-.867a1.12,1.12,0,0,1,.958.151,2.11,2.11,0,0,1,1.057,1.392c.111.72-.38,1.208-.9,1.726a4.4,4.4,0,0,0-1.217,1.718,4.133,4.133,0,0,0,.291,2.985Z" transform="translate(-3023.792 -94.315)"/>
          </g>
          <g id="Group_7177" data-name="Group 7177" transform="translate(1.132 7.532)">
            <path id="Path_469" data-name="Path 469" class="cls-3" d="M3028.352,103.6a6.989,6.989,0,0,0-1.324-2.346c-.552-.641-1.819-2.113-3.551-2.106-1.983.008-3.575,1.952-4.092,3.67a6.265,6.265,0,0,0,.843,4.875,8.811,8.811,0,0,0,3.971,3.55c1.364.72,3.487,1.842,4.994.962.591-.345.9-.951,1.5-2.166a7.548,7.548,0,0,0,1.144-3.551c-.016-1.816-1.073-4.126-2.769-4.452a2.531,2.531,0,0,0-1.384.151" transform="translate(-3018.893 -98.866)"/>
            <path id="Path_470" data-name="Path 470" class="cls-4" d="M3027.9,112.8a12.035,12.035,0,0,1-7.933-4.987,6.543,6.543,0,0,1-.865-5.093c.563-1.872,2.284-3.866,4.363-3.872h.014c1.855,0,3.183,1.543,3.753,2.2a7.161,7.161,0,0,1,.579.774,2.715,2.715,0,0,1,1.3-.084c1.83.352,2.981,2.73,3,4.73a7.708,7.708,0,0,1-1.169,3.674c-.637,1.27-.955,1.9-1.618,2.29A2.789,2.789,0,0,1,3027.9,112.8Zm-4.421-13.383h-.012c-1.805.007-3.315,1.792-3.819,3.466a6.029,6.029,0,0,0,.819,4.656,8.519,8.519,0,0,0,3.853,3.435c1.334.705,3.349,1.768,4.719.969.517-.3.811-.885,1.393-2.048a7.35,7.35,0,0,0,1.113-3.419c-.016-1.784-1.039-3.888-2.537-4.176a2.09,2.09,0,0,0-.9.032,7.335,7.335,0,0,1,.5,1.163.283.283,0,0,1-.18.36.28.28,0,0,1-.359-.18,6.894,6.894,0,0,0-.588-1.3.3.3,0,0,1-.07-.105c0-.009-.007-.018-.009-.026a6.542,6.542,0,0,0-.6-.824C3026.279,100.825,3025.069,99.42,3023.475,99.42Z" transform="translate(-3018.878 -98.851)"/>
          </g>
        </g>
        <g id="Group_7179" data-name="Group 7179" transform="translate(3026.502 75.108)">
          <path id="Path_471" data-name="Path 471" class="cls-4" d="M3036.131,101.06l-.146-.648c9.041-2.049,11.024-4.038,11.095-5.346.047-.783-.586-1.352-2.153-2.676a53.85,53.85,0,0,1-5.293-5.024c-1.225-1.33-1.846-2.129-2.395-2.834a19.947,19.947,0,0,0-2.275-2.547,28.024,28.024,0,0,0-5.854-4.616l.323-.58a28.544,28.544,0,0,1,5.992,4.717,20.654,20.654,0,0,1,2.34,2.62c.54.695,1.152,1.482,2.358,2.79a52.841,52.841,0,0,0,5.235,4.967c1.582,1.339,2.453,2.076,2.386,3.22C3047.62,97.367,3043.821,99.315,3036.131,101.06Z" transform="translate(-3029.11 -76.788)"/>
        </g>
        <g id="Group_7180" data-name="Group 7180" transform="translate(2990.911 75.028)">
          <path id="Path_472" data-name="Path 472" class="cls-4" d="M3004.445,100.289c-8.6-2.023-12.8-4.094-12.835-6.326-.008-.926.664-1.511,1.885-2.572a43.536,43.536,0,0,0,3.806-3.666,27.6,27.6,0,0,0,2.464-3.031,20.771,20.771,0,0,1,1.81-2.26,25.224,25.224,0,0,1,7.317-5.731l.3.6a24.557,24.557,0,0,0-7.124,5.586,20.221,20.221,0,0,0-1.76,2.2,28.585,28.585,0,0,1-2.514,3.1,44.164,44.164,0,0,1-3.86,3.717c-1.141.992-1.661,1.445-1.656,2.062.02,1.276,2.174,3.3,12.322,5.687Z" transform="translate(-2991.61 -76.703)"/>
        </g>
        <g id="Group_7181" data-name="Group 7181" transform="translate(3000.689 90.627)">
          <path id="Path_473" data-name="Path 473" class="cls-4" d="M3002.245,129.749l-.044,0a.331.331,0,0,1-.285-.374c.8-5.962,1.544-11.912,2.207-17.685a63.078,63.078,0,0,0,.54-8.841,57.5,57.5,0,0,0-.912-9.314.332.332,0,0,1,.268-.387.326.326,0,0,1,.386.269,58.1,58.1,0,0,1,.922,9.421,63.865,63.865,0,0,1-.543,8.928c-.664,5.776-1.406,11.731-2.21,17.7A.33.33,0,0,1,3002.245,129.749Z" transform="translate(-3001.913 -93.139)"/>
        </g>
        <g id="Group_7182" data-name="Group 7182" transform="translate(3032.724 91.127)">
          <path id="Path_474" data-name="Path 474" class="cls-4" d="M3039.091,129.471a.331.331,0,0,1-.323-.258,106.973,106.973,0,0,1-2.393-15.463c-.18-2.291-.265-4.373-.393-7.527-.169-4.149-.275-8.24-.318-12.222a.331.331,0,0,1,.328-.335h0a.332.332,0,0,1,.332.328c.043,3.974.149,8.06.315,12.141.131,3.207.216,5.285.394,7.562a106.61,106.61,0,0,0,2.377,15.367.331.331,0,0,1-.249.4A.293.293,0,0,1,3039.091,129.471Z" transform="translate(-3035.665 -93.666)"/>
        </g>
        <g id="Group_7183" data-name="Group 7183" transform="translate(2990.594 95.05)">
          <path id="Path_475" data-name="Path 475" class="cls-3" d="M2995.276,98.228a22.943,22.943,0,0,0-2.472,5.26c-.8,2.485-1.465,4.548-1.052,6.838.832,4.61,5.538,7.395,9.053,9.473a30.05,30.05,0,0,0,5.05,2.384,43.27,43.27,0,0,0,5.132,2.4,27.6,27.6,0,0,0,3.279,1.1,17.8,17.8,0,0,0,4.524.737c4.316-.159,8.136-5.32,7.469-6.313-.768-1.144-7.892,2.654-8.626,1.368-.127-.223.02-.675.316-1.578.507-1.551,1.076-2.109.841-2.419-.255-.336-1.214-.07-1.788.211a5.6,5.6,0,0,0-1.578,1.368,16.171,16.171,0,0,1-1.7,1.6c-1.323.876-4.006-.774-9.665-5.039-4.908-3.7-5.833-4.672-5.879-6.087-.036-1.112.618-2.214,1.925-4.418a34.513,34.513,0,0,1,3.054-4.353c-.646-.16-1.315-.338-2-.537-.294-.084-1.021-.3-2.121-.66C2998.076,99.253,2996.8,98.812,2995.276,98.228Z" transform="translate(-2991.294 -97.821)"/>
          <path id="Path_476" data-name="Path 476" class="cls-4" d="M3018.555,126.738a19.346,19.346,0,0,1-4.383-.75,28.034,28.034,0,0,1-3.324-1.116,43.935,43.935,0,0,1-5.171-2.419,29.894,29.894,0,0,1-5.06-2.39c-3.526-2.085-8.352-4.941-9.211-9.7-.428-2.375.263-4.518,1.063-7a23.39,23.39,0,0,1,2.508-5.336l.146-.23.254.1c1.255.481,2.516.931,3.749,1.338,1.092.359,1.815.57,2.109.654.683.2,1.349.375,1.99.534l.512.127-.334.407a34.191,34.191,0,0,0-3.027,4.311c-1.273,2.148-1.91,3.222-1.877,4.238.042,1.279,1.008,2.262,5.747,5.832,5.231,3.944,8.1,5.8,9.281,5.026a16.5,16.5,0,0,0,1.64-1.558l.31-.324a4.52,4.52,0,0,1,1.361-1.111c.067-.033,1.671-.808,2.2-.112.255.336.075.712-.175,1.232a11.664,11.664,0,0,0-.615,1.492,4.752,4.752,0,0,0-.34,1.315c.237.42,2.709-.393,4.037-.83,2.515-.826,4.084-1.293,4.574-.564.233.346.159.9-.218,1.641-1.027,2.018-4.126,5.063-7.515,5.189C3018.709,126.736,3018.632,126.738,3018.555,126.738Zm-23.161-28.124a22.72,22.72,0,0,0-2.292,4.954c-.8,2.5-1.439,4.467-1.04,6.677.8,4.459,5.479,7.226,8.893,9.245a29.83,29.83,0,0,0,5,2.359,44.082,44.082,0,0,0,5.139,2.4,27.35,27.35,0,0,0,3.243,1.09,17.493,17.493,0,0,0,4.427.727c2.987-.111,5.954-2.874,6.948-4.826.321-.629.293-.918.259-.97-.238-.35-2.564.414-3.814.825-2.674.877-4.34,1.371-4.824.523-.2-.35-.049-.814.282-1.832a12.3,12.3,0,0,1,.653-1.587,2.435,2.435,0,0,0,.233-.574,2.714,2.714,0,0,0-1.365.339,3.912,3.912,0,0,0-1.171.973l-.315.328a15.109,15.109,0,0,1-1.75,1.65c-1.527,1.005-4.329-.74-10.047-5.05-5.007-3.773-5.961-4.78-6.011-6.342-.04-1.208.631-2.34,1.967-4.593a35.117,35.117,0,0,1,2.758-3.994q-.738-.189-1.51-.413c-.294-.084-1.026-.3-2.132-.662C2997.759,99.482,2996.575,99.062,2995.394,98.614Z" transform="translate(-2991.276 -97.799)"/>
        </g>
        <g id="Group_7184" data-name="Group 7184" transform="translate(3019.542 96.215)">
          <path id="Path_477" data-name="Path 477" class="cls-3" d="M3037.083,101.592c.449.644,4.348,6.252,5.247,8.377a1.616,1.616,0,0,1,.105,1.262c-.181.406-.657.748-1.893.947a7.349,7.349,0,0,1-4.9-.417c-2.836-1.541-2.473-4.8-4.913-5.317-.7-.15-1.576-.061-1.735.315-.285.672,1.866,1.909,1.656,2.367-.362.8-7.008-2.55-8.285-.946-.77.967.383,3.771,2.367,5.287s3.412.673,8.969,1.867c3.1.665,2.88.969,5.05,1.262,2.468.334,7.036.951,8.679-1.368.815-1.149.6-2.576.158-5.417a23.442,23.442,0,0,0-1.684-5.576,37.544,37.544,0,0,0-2.334-4.764q-.918.394-1.927.766A38.279,38.279,0,0,1,3037.083,101.592Z" transform="translate(-3021.795 -99.05)"/>
          <path id="Path_478" data-name="Path 478" class="cls-4" d="M3042.59,117.238a29.112,29.112,0,0,1-3.9-.334,11.142,11.142,0,0,1-2.323-.532,24.252,24.252,0,0,0-2.751-.735,38.179,38.179,0,0,0-5.121-.746c-1.714-.151-2.75-.243-3.979-1.182a7.293,7.293,0,0,1-2.715-4.341,1.877,1.877,0,0,1,.288-1.416c.9-1.135,3.563-.333,5.908.375a15.831,15.831,0,0,0,2.215.571c-.135-.159-.365-.375-.533-.534-.616-.578-1.252-1.176-1.007-1.754.272-.642,1.439-.657,2.112-.513,1.39.3,1.959,1.367,2.561,2.5a6.064,6.064,0,0,0,2.44,2.85,7.045,7.045,0,0,0,4.687.382c1.408-.228,1.586-.625,1.644-.755a1.313,1.313,0,0,0-.108-1c-.879-2.079-4.772-7.686-5.214-8.318l-.282-.4.48-.11a37.64,37.64,0,0,0,4.523-1.344c.641-.233,1.283-.488,1.909-.758l.271-.117.148.255a38.149,38.149,0,0,1,2.356,4.805,23.948,23.948,0,0,1,1.7,5.65c.451,2.93.678,4.4-.217,5.66C3046.654,116.854,3044.612,117.238,3042.59,117.238Zm-18.963-9.193a.953.953,0,0,0-1.167,1.241,6.547,6.547,0,0,0,2.459,3.894c1.077.823,1.986.9,3.635,1.049a39.055,39.055,0,0,1,5.2.759,24.816,24.816,0,0,1,2.819.751,10.439,10.439,0,0,0,2.206.507c2.392.324,6.837.924,8.365-1.231.737-1.041.525-2.423.1-5.175a23.038,23.038,0,0,0-1.663-5.5,37.413,37.413,0,0,0-2.168-4.468c-.552.232-1.112.453-1.671.657a38.652,38.652,0,0,1-4.126,1.255,71.657,71.657,0,0,1,5,8.035,1.908,1.908,0,0,1,.1,1.528c-.266.592-.926.943-2.144,1.14a7.7,7.7,0,0,1-5.11-.454,6.7,6.7,0,0,1-2.711-3.123c-.572-1.078-1.023-1.93-2.113-2.161a1.772,1.772,0,0,0-1.36.121c-.034.181.585.764.849,1.012.558.524,1,.939.8,1.364-.266.584-1.224.3-3.132-.281A17.627,17.627,0,0,0,3023.627,108.044Z" transform="translate(-3021.777 -99.027)"/>
        </g>
        <g id="Group_7187" data-name="Group 7187" transform="translate(3022.229 83.254)">
          <g id="Group_7185" data-name="Group 7185" transform="translate(0 1.679)">
            <path id="Path_479" data-name="Path 479" class="cls-3" d="M3024.958,87.492a17.866,17.866,0,0,1,7.025,2.023" transform="translate(-3024.625 -87.157)"/>
            <path id="Path_480" data-name="Path 480" class="cls-4" d="M3031.964,89.829a.341.341,0,0,1-.156-.038,17.58,17.58,0,0,0-6.894-1.986.332.332,0,0,1-.307-.356.321.321,0,0,1,.356-.306,18.247,18.247,0,0,1,7.155,2.06.332.332,0,0,1-.156.626Z" transform="translate(-3024.608 -87.14)"/>
          </g>
          <g id="Group_7186" data-name="Group 7186" transform="translate(1.193)">
            <path id="Path_481" data-name="Path 481" class="cls-3" d="M3026.215,85.721a12.518,12.518,0,0,1,4.958,1.218" transform="translate(-3025.882 -85.389)"/>
            <path id="Path_482" data-name="Path 482" class="cls-4" d="M3031.154,87.253a.324.324,0,0,1-.143-.032,12.167,12.167,0,0,0-2.434-.862,12.3,12.3,0,0,0-2.393-.325.333.333,0,0,1-.32-.344.313.313,0,0,1,.345-.32,12.786,12.786,0,0,1,5.089,1.251.332.332,0,0,1-.144.631Z" transform="translate(-3025.865 -85.371)"/>
          </g>
        </g>
        <g id="Group_7188" data-name="Group 7188" class="cls-6" transform="translate(3008.296 88.021)">
          <path id="Path_483" data-name="Path 483" class="cls-7" d="M3029.309,99.915c.267,1.2.982,4.414-.905,7.014-2.6,3.575-7.905,2.941-8.616,2.845-3.94-.531-9.756-3.627-9.858-9.521a9.691,9.691,0,0,1,9.521-9.858C3025.52,90.289,3028.556,96.537,3029.309,99.915Z" transform="translate(-3009.927 -90.394)"/>
        </g>
      </g>
    </g>
  </g>
</svg>
