<svg xmlns="http://www.w3.org/2000/svg" xmlns:xlink="http://www.w3.org/1999/xlink" width="100" height="100" viewBox="0 0 100 100">
  <defs>
    <style>
      .cls-1 {
        fill: none;
      }

      .cls-2 {
        opacity: 0.05;
        fill: url(#linear-gradient);
      }

      .cls-3 {
        fill: #fff;
      }

      .cls-4 {
        fill: #2d2d2d;
      }

      .cls-5 {
        fill: #474747;
      }

      .cls-6 {
        mix-blend-mode: multiply;
        isolation: isolate;
      }

      .cls-7 {
        fill: #ff8e93;
        opacity: 0.5;
      }
    </style>
    <linearGradient id="linear-gradient" x1="0.5" x2="0.5" y2="1" gradientUnits="objectBoundingBox">
      <stop offset="0" stop-color="#1778f2"/>
      <stop offset="1" stop-color="#f40009"/>
    </linearGradient>
  </defs>
  <g id="Group_124982" data-name="Group 124982" transform="translate(-48 -1049)">
    <rect id="Rectangle_10355" data-name="Rectangle 10355" class="cls-1" width="100" height="100" transform="translate(48 1049)"/>
    <g id="Group_124913" data-name="Group 124913">
      <path id="Path_153248" data-name="Path 153248" class="cls-2" d="M32.3,83.491A105.79,105.79,0,0,1,17.2,70.917,105.57,105.57,0,0,1,4.909,56.1,17.251,17.251,0,0,1,0,44.2,16.783,16.783,0,0,1,4.909,32.3,144.539,144.539,0,0,1,32.3,4.909,17.263,17.263,0,0,1,44.2,0,16.781,16.781,0,0,1,56.1,4.909a164.255,164.255,0,0,1,13.841,12.23A164.608,164.608,0,0,1,83.491,32.3,17.24,17.24,0,0,1,88.4,44.2a16.782,16.782,0,0,1-4.909,11.9A163.679,163.679,0,0,1,69.255,71.955,164.629,164.629,0,0,1,56.1,83.491a17.386,17.386,0,0,1-7.239,4.259,16.564,16.564,0,0,1-4.664.65,17.462,17.462,0,0,1-5.792-1.133A18.7,18.7,0,0,1,32.3,83.491Z" transform="translate(56.375 1052)"/>
      <g id="Group_75800" data-name="Group 75800" transform="translate(-1738.647 884.238)">
        <g id="Group_4320" data-name="Group 4320" transform="translate(1804.087 220.45)">
          <g id="Group_4318" data-name="Group 4318" transform="translate(0.324 0.323)">
            <path id="Path_300" data-name="Path 300" class="cls-3" d="M1830.4,235.337c-4.148-13.668-7.969-16.933-10.872-17.021-2.41-.072-3.857,2.054-8.5,2.083-3.738.023-5.989-1.336-7.065-.026s.074,4.068.206,4.37c1.523,3.512,5.224,4.832,8.281,5.835A164.09,164.09,0,0,0,1830.4,235.337Z" transform="translate(-1803.508 -218.314)"/>
          </g>
          <g id="Group_4319" data-name="Group 4319">
            <path id="Path_301" data-name="Path 301" class="cls-4" d="M1830.9,235.788l-.533-.11a165.721,165.721,0,0,1-17.986-4.768c-2.724-.894-6.842-2.243-8.476-6.013-.232-.534-1.334-3.273-.161-4.7.767-.935,1.955-.735,3.6-.462a21.119,21.119,0,0,0,3.624.369h.092a12.47,12.47,0,0,0,5.475-1.275,6.815,6.815,0,0,1,3.035-.807c4.033.121,7.687,5.764,11.174,17.25Zm-25.472-15.636a1.393,1.393,0,0,0-1.183.451c-.775.946-.2,2.982.254,4.034,1.4,3.235,4.626,4.522,8.086,5.657a164.585,164.585,0,0,0,17.378,4.638c-3.3-10.687-6.8-16.159-10.412-16.268a6.28,6.28,0,0,0-2.757.754,13.2,13.2,0,0,1-5.731,1.33,22.455,22.455,0,0,1-3.825-.378A12.109,12.109,0,0,0,1805.423,220.152Z" transform="translate(-1803.208 -218.015)"/>
          </g>
        </g>
        <g id="Group_4323" data-name="Group 4323" transform="translate(1827.505 209.808)">
          <g id="Group_4321" data-name="Group 4321" transform="translate(0.327 0.323)">
            <path id="Path_302" data-name="Path 302" class="cls-3" d="M1843.626,236.18c-3.933-2.975-14.835-11.629-17.474-19.846-.54-1.682-1.745-5.432-.161-7.075a3.354,3.354,0,0,1,2.7-.769c4.253.694,4.4,9.24,10.454,16.136a23.7,23.7,0,0,0,7.537,5.684" transform="translate(-1825.203 -208.457)"/>
          </g>
          <g id="Group_4322" data-name="Group 4322">
            <path id="Path_303" data-name="Path 303" class="cls-4" d="M1843.456,236.463c-5.508-4.167-15.117-12.308-17.588-20.006-.586-1.825-1.8-5.618-.085-7.4a3.659,3.659,0,0,1,2.982-.865c2.434.4,3.587,3.092,5.045,6.5a34.767,34.767,0,0,0,5.606,9.738,23.366,23.366,0,0,0,7.435,5.608l-.282.582a23.993,23.993,0,0,1-7.64-5.761,35.275,35.275,0,0,1-5.714-9.913c-1.381-3.228-2.471-5.777-4.549-6.117a3.046,3.046,0,0,0-2.417.674c-1.449,1.5-.269,5.18.235,6.749,2.418,7.532,11.916,15.569,17.362,19.689Z" transform="translate(-1824.9 -208.158)"/>
          </g>
        </g>
        <g id="Group_4326" data-name="Group 4326" transform="translate(1799.534 225.085)">
          <g id="Group_4324" data-name="Group 4324" transform="translate(0.325 0.323)">
            <path id="Path_304" data-name="Path 304" class="cls-3" d="M1850.025,224.428c.559,1.627,3.348,10.275-1.29,18.926-2.948,5.5-8.855,10.917-15.287,11.355a16.265,16.265,0,0,1-8.679-1.825,14.825,14.825,0,0,1-2.19-1.64c-1.606-1.368-5.195-4.151-6.323-8.4-.964-3.628.24-5.737-1.163-6.708-1.8-1.249-4.244,1.937-8.953,1.306a7.833,7.833,0,0,1-5.173-2.59c-.224-.275-2.351-2.944-1.46-4.94,1.3-2.919,7.222-.258,13.5-4.243,2.69-1.707,3-3.08,4.792-3.065,2.8.024,5.064,1.529,8.053,6,.875,1.308,4.061,2.267,7.413,1.91a11.488,11.488,0,0,0,7.223-4.028c1.119-.118,2.306-.285,3.549-.517A45.023,45.023,0,0,0,1850.025,224.428Z" transform="translate(-1799.291 -222.608)"/>
          </g>
          <g id="Group_4325" data-name="Group 4325">
            <path id="Path_305" data-name="Path 305" class="cls-4" d="M1832.374,255.1a16.293,16.293,0,0,1-7.747-1.909,14.887,14.887,0,0,1-2.225-1.664l-.352-.3c-1.75-1.471-5-4.208-6.085-8.271a14.539,14.539,0,0,1-.429-4.141c.012-1.32-.009-1.973-.6-2.385-.7-.49-1.6-.134-2.827.355a11.066,11.066,0,0,1-5.983,1,8.143,8.143,0,0,1-5.381-2.7c-.416-.511-2.447-3.166-1.5-5.277.694-1.559,2.494-1.7,4.773-1.882a17.912,17.912,0,0,0,8.848-2.5,15.752,15.752,0,0,0,2.289-1.788,3.757,3.757,0,0,1,2.679-1.327c3.05.025,5.382,1.749,8.32,6.147.762,1.14,3.8,2.121,7.11,1.769a11.145,11.145,0,0,0,7.014-3.919l.083-.1.127-.014c1.181-.124,2.366-.3,3.525-.512a45.344,45.344,0,0,0,5.943-1.538l.306-.1.1.3c.822,2.394,3.157,10.851-1.311,19.185-2.9,5.407-8.831,11.067-15.55,11.525C1833.114,255.082,1832.739,255.1,1832.374,255.1Zm-18.212-19.548a1.936,1.936,0,0,1,1.139.349c.9.626.9,1.64.883,2.922a13.88,13.88,0,0,0,.408,3.969c1.026,3.867,4.18,6.517,5.874,7.943l.347.29a14.456,14.456,0,0,0,2.146,1.608,16.123,16.123,0,0,0,8.492,1.781c6.472-.442,12.209-5.936,15.024-11.185,4.172-7.783,2.238-15.689,1.37-18.365a45.765,45.765,0,0,1-5.723,1.458c-1.132.212-2.292.382-3.448.507a11.735,11.735,0,0,1-7.348,4.041c-3.326.361-6.713-.547-7.719-2.051-2.8-4.194-4.984-5.837-7.786-5.861h-.028c-.931,0-1.388.415-2.211,1.159a16.23,16.23,0,0,1-2.376,1.855,18.7,18.7,0,0,1-9.145,2.6c-2.145.172-3.693.295-4.233,1.5-.8,1.8,1.185,4.322,1.415,4.6a7.545,7.545,0,0,0,4.966,2.473,10.635,10.635,0,0,0,5.657-.966A6.684,6.684,0,0,1,1814.163,235.547Z" transform="translate(-1798.99 -222.309)"/>
          </g>
        </g>
        <g id="Group_4329" data-name="Group 4329" transform="translate(1833.375 198.972)">
          <g id="Group_4327" data-name="Group 4327" transform="translate(0 0)">
            <ellipse id="Ellipse_4039" data-name="Ellipse 4039" class="cls-3" cx="15.994" cy="14.137" rx="15.994" ry="14.137" transform="translate(0 30.261) rotate(-71.084)"/>
          </g>
          <g id="Group_4328" data-name="Group 4328" transform="translate(3.893 3.578)">
            <path id="Path_306" data-name="Path 306" class="cls-4" d="M1847.526,233.7a12.916,12.916,0,0,1-5.252-1.108c-7.29-3.237-10.383-12.61-6.9-20.893a16.982,16.982,0,0,1,9.192-9.272,13.305,13.305,0,0,1,10.375.112c7.291,3.236,10.385,12.609,6.894,20.892a16.976,16.976,0,0,1-9.19,9.271A13.9,13.9,0,0,1,1847.526,233.7Zm2.167-31.621a13.236,13.236,0,0,0-4.883.951,16.331,16.331,0,0,0-8.834,8.921c-3.352,7.96-.409,16.955,6.561,20.049a12.672,12.672,0,0,0,9.875.1,16.326,16.326,0,0,0,8.831-8.92h0c3.354-7.961.411-16.955-6.56-20.049A12.242,12.242,0,0,0,1849.693,202.083Z" transform="translate(-1833.944 -201.435)"/>
          </g>
        </g>
        <g id="Group_4332" data-name="Group 4332" transform="translate(1847.913 201.505)">
          <g id="Group_4330" data-name="Group 4330" transform="translate(0.326 0.319)">
            <path id="Path_307" data-name="Path 307" class="cls-5" d="M1844.228,201.741c-1.121,2.122,5.978,5.5,5.845,11.854-.037,1.757-.626,3.62.572,5.149,1.076,1.373,2.586,1.192,3.148,2.616a3.464,3.464,0,0,1-.859,3.556c-1.165,1.089-2.374.411-3.381,1.28-1.517,1.309-1.445,5.151.193,6.323,2.293,1.638,8.224-1.536,11.413-5.778a16.031,16.031,0,0,0,2.572-13.983c-2.041-7.008-8.143-9.75-9.326-10.281C1850.558,200.748,1845.134,200.026,1844.228,201.741Z" transform="translate(-1844.108 -200.761)"/>
          </g>
          <g id="Group_4331" data-name="Group 4331">
            <path id="Path_308" data-name="Path 308" class="cls-4" d="M1851.338,233.3a2.976,2.976,0,0,1-1.757-.494,4.179,4.179,0,0,1-1.41-3.236,4.546,4.546,0,0,1,1.194-3.595,2.933,2.933,0,0,1,1.7-.621,2.649,2.649,0,0,0,1.672-.65,3.157,3.157,0,0,0,.778-3.2,2.393,2.393,0,0,0-1.373-1.234,4.768,4.768,0,0,1-1.727-1.3c-.994-1.268-.858-2.719-.728-4.123.039-.413.078-.826.086-1.232.075-3.56-2.266-6.226-3.976-8.172-1.344-1.531-2.406-2.74-1.832-3.827,1.086-2.06,7-1.026,10.6.592a16.828,16.828,0,0,1,9.5,10.488,16.283,16.283,0,0,1-2.622,14.268C1858.926,230.306,1854.339,233.3,1851.338,233.3Zm-4.238-32.19c-1.308,0-2.273.259-2.562.805h0c-.366.693.567,1.755,1.747,3.1,1.779,2.026,4.215,4.8,4.135,8.61-.009.423-.049.852-.088,1.28-.126,1.335-.244,2.6.592,3.664a4.163,4.163,0,0,0,1.517,1.126,3.014,3.014,0,0,1,1.676,1.571,3.8,3.8,0,0,1-.938,3.911,3.259,3.259,0,0,1-2.033.822,2.333,2.333,0,0,0-1.357.469,3.959,3.959,0,0,0-.972,3.073,3.607,3.607,0,0,0,1.141,2.74c2.067,1.477,7.807-1.508,10.965-5.71a15.626,15.626,0,0,0,2.52-13.7A16.2,16.2,0,0,0,1854.3,202.8,19.041,19.041,0,0,0,1847.1,201.11Z" transform="translate(-1843.805 -200.466)"/>
          </g>
        </g>
        <g id="Group_4335" data-name="Group 4335" transform="translate(1815.459 229.615)">
          <g id="Group_4333" data-name="Group 4333" transform="translate(0.323 0.325)">
            <path id="Path_309" data-name="Path 309" class="cls-3" d="M1827.735,229.917c1.034.548-.011,5.62-6.295,21.132a17.107,17.107,0,0,1-6.213-6.745h0a10.2,10.2,0,0,1-1.184-5.044c.108-4.8,8.13-13.316,9.6-12.383.1.065.092.124.552.674a12.453,12.453,0,0,0,1.41,1.471A5.611,5.611,0,0,0,1827.735,229.917Z" transform="translate(-1814.041 -226.806)"/>
          </g>
          <g id="Group_4334" data-name="Group 4334">
            <path id="Path_310" data-name="Path 310" class="cls-4" d="M1821.621,251.55l-.327-.2a17.436,17.436,0,0,1-6.33-6.872,10.488,10.488,0,0,1-1.219-5.2c.093-4.172,5.938-11,8.66-12.459.635-.34,1.1-.4,1.437-.19a.806.806,0,0,1,.228.235c.065.089.174.236.4.5a10.649,10.649,0,0,0,1.365,1.427,3.613,3.613,0,0,0,1.593.71,2,2,0,0,1,.485.149h0c1.05.556,1.14,3.552-6.146,21.539Zm1.777-24.4a1.613,1.613,0,0,0-.688.238c-2.545,1.362-8.23,8.007-8.318,11.9a9.938,9.938,0,0,0,1.136,4.869,16.765,16.765,0,0,0,5.783,6.43c7.315-18.106,6.672-20.164,6.3-20.364a2,2,0,0,0-.327-.09,4.245,4.245,0,0,1-1.856-.838,11.758,11.758,0,0,1-1.455-1.517c-.237-.283-.353-.44-.423-.535-.027-.037-.043-.059-.058-.078A.189.189,0,0,0,1823.4,227.152Z" transform="translate(-1813.742 -226.505)"/>
          </g>
        </g>
        <g id="Group_4336" data-name="Group 4336" transform="translate(1825.384 229.513)">
          <path id="Path_311" data-name="Path 311" class="cls-3" d="M1823.389,227.523l2.621-.751,1.318,3.1a4.728,4.728,0,0,1-3.939-2.345Z" transform="translate(-1822.9 -226.382)"/>
          <path id="Path_312" data-name="Path 312" class="cls-4" d="M1827.862,230.238l-.508-.017a5.045,5.045,0,0,1-4.207-2.506l-.21-.361,3.3-.944Zm-3.926-2.5a4.383,4.383,0,0,0,2.918,1.783l-.992-2.334Z" transform="translate(-1822.936 -226.411)"/>
        </g>
        <g id="Group_4339" data-name="Group 4339" transform="translate(1813.948 238.788)">
          <g id="Group_4337" data-name="Group 4337" transform="translate(0.322 0.324)">
            <path id="Path_313" data-name="Path 313" class="cls-3" d="M1843.847,240.193c-4.195,2.847-16.187,10.6-24.6,10.48-1.723-.026-5.562-.083-6.428-2.158a3.686,3.686,0,0,1,.351-2.875c2.265-3.9,10.012-1.252,18.552-4.876a25.782,25.782,0,0,0,8.023-5.461" transform="translate(-1812.641 -235.303)"/>
          </g>
          <g id="Group_4338" data-name="Group 4338">
            <path id="Path_314" data-name="Path 314" class="cls-4" d="M1819.471,251.023l-.205,0c-1.873-.028-5.773-.084-6.722-2.358a4.018,4.018,0,0,1,.369-3.16c1.287-2.217,4.153-2.455,7.781-2.755a34.018,34.018,0,0,0,10.925-2.258,25.4,25.4,0,0,0,7.922-5.392.324.324,0,1,1,.456.46,26.071,26.071,0,0,1-8.123,5.529,34.56,34.56,0,0,1-11.124,2.307c-3.575.3-6.158.51-7.274,2.433a3.4,3.4,0,0,0-.334,2.588c.787,1.879,4.534,1.936,6.136,1.958h.2c7.694,0,18.454-6.517,24.215-10.425a.323.323,0,1,1,.363.535C1838.23,244.435,1827.341,251.023,1819.471,251.023Z" transform="translate(-1812.342 -235.003)"/>
          </g>
        </g>
        <g id="Group_4340" data-name="Group 4340" class="cls-6" transform="translate(1828.945 224.033)">
          <path id="Path_315" data-name="Path 315" class="cls-7" d="M1840.193,227.059c.228,1.049.84,3.871-.773,6.151-2.217,3.135-6.75,2.579-7.358,2.5-3.364-.465-8.331-3.181-8.419-8.35a8.4,8.4,0,0,1,8.131-8.646C1836.958,218.616,1839.551,224.1,1840.193,227.059Z" transform="translate(-1823.643 -218.708)"/>
        </g>
      </g>
    </g>
  </g>
</svg>
