<svg xmlns="http://www.w3.org/2000/svg" xmlns:xlink="http://www.w3.org/1999/xlink" width="100" height="100" viewBox="0 0 100 100">
  <defs>
    <style>
      .cls-1 {
        fill: none;
      }

      .cls-2 {
        opacity: 0.05;
        fill: url(#linear-gradient);
      }

      .cls-3 {
        fill: #fff;
      }

      .cls-4 {
        fill: #2d2d2d;
      }

      .cls-5 {
        fill: #474747;
      }

      .cls-6 {
        mix-blend-mode: multiply;
        isolation: isolate;
      }

      .cls-7 {
        fill: #ff8e93;
        opacity: 0.5;
      }
    </style>
    <linearGradient id="linear-gradient" x1="0.5" x2="0.5" y2="1" gradientUnits="objectBoundingBox">
      <stop offset="0" stop-color="#1778f2"/>
      <stop offset="1" stop-color="#f40009"/>
    </linearGradient>
  </defs>
  <g id="Group_124985" data-name="Group 124985" transform="translate(-216 -1239)">
    <rect id="Rectangle_10358" data-name="Rectangle 10358" class="cls-1" width="100" height="100" transform="translate(216 1239)"/>
    <g id="Group_124915" data-name="Group 124915">
      <path id="Path_153249" data-name="Path 153249" class="cls-2" d="M32.3,83.491A105.79,105.79,0,0,1,17.2,70.917,105.57,105.57,0,0,1,4.909,56.1,17.251,17.251,0,0,1,0,44.2,16.783,16.783,0,0,1,4.909,32.3,144.539,144.539,0,0,1,32.3,4.909,17.263,17.263,0,0,1,44.2,0,16.781,16.781,0,0,1,56.1,4.909a164.255,164.255,0,0,1,13.841,12.23A164.608,164.608,0,0,1,83.491,32.3,17.24,17.24,0,0,1,88.4,44.2a16.782,16.782,0,0,1-4.909,11.9A163.679,163.679,0,0,1,69.255,71.955,164.629,164.629,0,0,1,56.1,83.491a17.386,17.386,0,0,1-7.239,4.259,16.564,16.564,0,0,1-4.664.65,17.462,17.462,0,0,1-5.792-1.133A18.7,18.7,0,0,1,32.3,83.491Z" transform="translate(221.375 1241)"/>
      <g id="Group_75807" data-name="Group 75807" transform="translate(-986.762 1201.081)">
        <g id="Group_6674" data-name="Group 6674" transform="translate(1231.332 81.863)">
          <path id="Path_413" data-name="Path 413" class="cls-3" d="M1232.245,91.968a24.735,24.735,0,0,0,1.247,4.585c.292.77.606,1.481.925,2.132l6.8-4.908q-3.238-5.309-6.475-10.617Q1233.493,87.564,1232.245,91.968Z" transform="translate(-1232.245 -83.16)"/>
        </g>
        <g id="Group_6675" data-name="Group 6675" transform="translate(1229.479 90.23)">
          <path id="Path_414" data-name="Path 414" class="cls-3" d="M1230.582,92.05a9.983,9.983,0,0,1,3.025,6.362,6.207,6.207,0,0,1-.015.674" transform="translate(-1230.338 -91.815)"/>
          <path id="Path_415" data-name="Path 415" class="cls-4" d="M1233.923,99.1l-.676-.047a6.13,6.13,0,0,0,.014-.638,9.622,9.622,0,0,0-2.93-6.139l.488-.47a10.124,10.124,0,0,1,3.12,6.584A6.851,6.851,0,0,1,1233.923,99.1Z" transform="translate(-1230.33 -91.807)"/>
        </g>
        <g id="Group_6676" data-name="Group 6676" transform="translate(1234.504 82.838)">
          <path id="Path_416" data-name="Path 416" class="cls-4" d="M1249.284,126.928a.336.336,0,0,1-.338-.33c-.359-16.992-1.8-26.785-4.277-29.107l-.067-.061a41.411,41.411,0,0,1-4.227-4.579,33.124,33.124,0,0,1-2.366-3.408,36.939,36.939,0,0,1-2.459-4.806.338.338,0,1,1,.623-.264,36.465,36.465,0,0,0,2.414,4.719,32.778,32.778,0,0,0,2.32,3.337,40.58,40.58,0,0,0,4.157,4.5l.069.064c2.654,2.486,4.124,12.164,4.491,29.586a.339.339,0,0,1-.331.345Z" transform="translate(-1235.524 -84.168)"/>
        </g>
        <g id="Group_6677" data-name="Group 6677" transform="translate(1225.556 91.412)">
          <path id="Path_417" data-name="Path 417" class="cls-3" d="M1249.076,132.278a90.383,90.383,0,0,0,.966-11.428c.154-7.256.258-12.049-1.971-17.363a27.7,27.7,0,0,0-7.386-10.093,6.993,6.993,0,0,0-4.157.965,7.954,7.954,0,0,0-3.1,4.755c-2.513,8.79-4.257,20.644-6.154,29.044-.275,1.218-.516,2.193-.651,2.735" transform="translate(-1226.287 -93.04)"/>
          <path id="Path_418" data-name="Path 418" class="cls-4" d="M1249.065,132.606a.311.311,0,0,1-.05,0,.338.338,0,0,1-.284-.385,90.351,90.351,0,0,0,.963-11.385c.152-7.232.252-11.987-1.946-17.225a27.411,27.411,0,0,0-7.209-9.893,6.509,6.509,0,0,0-3.839.918,7.65,7.65,0,0,0-2.952,4.562c-1.569,5.486-2.823,12.091-4.035,18.478-.722,3.806-1.4,7.4-2.114,10.548-.277,1.222-.518,2.2-.653,2.743a.339.339,0,0,1-.658-.164c.137-.541.376-1.513.649-2.728.708-3.137,1.391-6.726,2.111-10.525,1.214-6.4,2.47-13.021,4.047-18.537a8.262,8.262,0,0,1,3.241-4.946,7.2,7.2,0,0,1,4.357-1.019l.117.007.088.077a28.129,28.129,0,0,1,7.475,10.217c2.252,5.371,2.152,10.184,2,17.466a91.082,91.082,0,0,1-.97,11.507A.338.338,0,0,1,1249.065,132.606Z" transform="translate(-1226.276 -93.029)"/>
        </g>
        <g id="Group_6678" data-name="Group 6678" transform="translate(1204.063 63.961)">
          <ellipse id="Ellipse_6276" data-name="Ellipse 6276" class="cls-3" cx="11.207" cy="14.633" rx="11.207" ry="14.633" transform="translate(0 14.64) rotate(-40.78)"/>
          <path id="Path_419" data-name="Path 419" class="cls-4" d="M1225.572,96.839a16.067,16.067,0,0,1-11.137-5.1c-5.793-5.85-7-14.432-2.693-19.129a9.474,9.474,0,0,1,7-3.009,16.011,16.011,0,0,1,11.369,5.1h0c5.793,5.85,7,14.432,2.693,19.13a9.477,9.477,0,0,1-7,3.008Zm-6.6-26.56c-.073,0-.147,0-.221,0a8.807,8.807,0,0,0-6.511,2.789c-4.068,4.435-2.867,12.6,2.676,18.2a15.392,15.392,0,0,0,10.654,4.9c.074,0,.146,0,.221,0a8.813,8.813,0,0,0,6.511-2.789c4.068-4.436,2.867-12.6-2.676-18.2A15.4,15.4,0,0,0,1218.973,70.278Z" transform="translate(-1204.228 -64.819)"/>
        </g>
        <g id="Group_6681" data-name="Group 6681" transform="translate(1204.511 62.3)">
          <g id="Group_6679" data-name="Group 6679" transform="translate(0.336 0.341)">
            <path id="Path_420" data-name="Path 420" class="cls-5" d="M1205.892,81.448c3.457,4.74,15.947,2.717,18.048-2.817.664-1.747.27-3.789,1.335-4.132s2.955,1.169,3.538,2.947c.551,1.687-.413,2.488.072,3.806.791,2.145,4.673,3.65,6.4,2.477,2.332-1.582,1.15-8.329-1.646-12.841a15.816,15.816,0,0,0-7.719-6.606c-7.286-2.817-13.7,1.24-14.254,1.612a16.73,16.73,0,0,0-6.5,9.341C1204.388,78.95,1205.365,80.725,1205.892,81.448Z" transform="translate(-1204.874 -63.294)"/>
          </g>
          <g id="Group_6680" data-name="Group 6680">
            <path id="Path_421" data-name="Path 421" class="cls-4" d="M1233.719,84.468a5.733,5.733,0,0,1-1.738-.293,5.353,5.353,0,0,1-3.426-2.817,3.2,3.2,0,0,1-.041-1.873,3.424,3.424,0,0,0-.037-1.944c-.533-1.629-2.281-3-3.111-2.731-.42.135-.524.761-.657,1.772a9.513,9.513,0,0,1-.465,2.158c-1.045,2.753-4.65,4.925-9.187,5.536-3.311.447-7.536-.014-9.451-2.639h0c-1.088-1.493-1.36-3.735-.789-6.482a17.025,17.025,0,0,1,6.645-9.552c.279-.189,6.936-4.6,14.566-1.647a15.99,15.99,0,0,1,7.886,6.743c2.835,4.576,4.158,11.529,1.548,13.3A3.088,3.088,0,0,1,1233.719,84.468ZM1225.573,74.1c1.261,0,2.987,1.509,3.549,3.227a4.1,4.1,0,0,1,.058,2.284,2.578,2.578,0,0,0,.011,1.508,4.671,4.671,0,0,0,3,2.407,3.492,3.492,0,0,0,2.894-.092c2.028-1.377,1.132-7.742-1.744-12.382a15.335,15.335,0,0,0-7.554-6.468c-7.3-2.823-13.675,1.4-13.942,1.576a16.346,16.346,0,0,0-6.368,9.151c-.525,2.534-.293,4.589.679,5.924,1.455,2,4.837,2.9,8.812,2.366,3.519-.472,7.556-2.235,8.645-5.1a8.945,8.945,0,0,0,.426-2.006c.141-1.058.273-2.056,1.122-2.328A1.324,1.324,0,0,1,1225.573,74.1Z" transform="translate(-1204.527 -62.942)"/>
          </g>
        </g>
        <g id="Group_6682" data-name="Group 6682" transform="translate(1232.86 108.072)">
          <path id="Path_422" data-name="Path 422" class="cls-3" d="M1234.2,132.517q.986-10.93,1.971-21.859l7.6.783q-1.729,10.578-3.459,21.156" transform="translate(-1233.837 -110.26)"/>
          <path id="Path_423" data-name="Path 423" class="cls-4" d="M1240.3,132.947a.311.311,0,0,1-.059-.006.362.362,0,0,1-.3-.416l3.4-20.776-6.854-.706-1.938,21.493a.362.362,0,1,1-.722-.064l2-22.225,8.349.859-3.52,21.537A.363.363,0,0,1,1240.3,132.947Z" transform="translate(-1233.825 -110.247)"/>
        </g>
        <g id="Group_6683" data-name="Group 6683" transform="translate(1232.803 99.951)">
          <path id="Path_424" data-name="Path 424" class="cls-3" d="M1235.845,102.206a37.241,37.241,0,0,1-1.367,11.074,3.65,3.65,0,0,0-.134,2.762c1.351,2.612,8.485,2.711,10.081,0a4.059,4.059,0,0,0,.136-2.849,28.128,28.128,0,0,1,.507-10.558" transform="translate(-1233.777 -101.866)"/>
          <path id="Path_425" data-name="Path 425" class="cls-4" d="M1239.323,118.365c-.094,0-.186,0-.276,0-1.908-.053-4.227-.652-5.015-2.175a3.732,3.732,0,0,1,.062-2.852l.048-.16A37.458,37.458,0,0,0,1235.5,102.2a.338.338,0,0,1,.333-.343.324.324,0,0,1,.344.334,38.123,38.123,0,0,1-1.381,11.173l-.048.162a3.134,3.134,0,0,0-.111,2.35c.539,1.04,2.279,1.75,4.432,1.809,2.369.074,4.378-.67,5.059-1.826a3.289,3.289,0,0,0,.14-2.329l-.047-.3a28.892,28.892,0,0,1,.512-10.684.342.342,0,0,1,.4-.256.339.339,0,0,1,.256.4,28.2,28.2,0,0,0-.5,10.433l.046.29a3.892,3.892,0,0,1-.225,2.782C1243.762,117.807,1241.278,118.365,1239.323,118.365Z" transform="translate(-1233.765 -101.854)"/>
        </g>
        <g id="Group_6684" data-name="Group 6684" transform="translate(1253.762 116.774)">
          <path id="Path_426" data-name="Path 426" class="cls-3" d="M1255.426,123.383l1.609,5.992-1.247,9.009,16.088-1.568a50.136,50.136,0,0,0-4.383-17.576Z" transform="translate(-1255.426 -119.24)"/>
        </g>
        <g id="Group_6685" data-name="Group 6685" transform="translate(1250.294 85.121)">
          <path id="Path_427" data-name="Path 427" class="cls-3" d="M1263.864,90.12a9.448,9.448,0,0,0-1.823,3.807,9.173,9.173,0,0,0-.215,2.038,14.081,14.081,0,0,0,.751,4.344,14.251,14.251,0,0,0,3.486,5.524l-14.1,6.221a49.984,49.984,0,0,1,2.95-20.647l6.757-4.88Z" transform="translate(-1251.842 -86.527)"/>
        </g>
        <g id="Group_6686" data-name="Group 6686" transform="translate(1249.918 84.304)">
          <path id="Path_428" data-name="Path 428" class="cls-4" d="M1256.692,132.046a.337.337,0,0,1-.338-.331,38.062,38.062,0,0,0-.4-4.778,10.47,10.47,0,0,0-.6-2.244c-.107-.269-.208-.491-.282-.642-.013-.034-.927-2.14-1.541-3.84a38.174,38.174,0,0,1-1.924-9.283,39.894,39.894,0,0,1,.262-9.279,36.786,36.786,0,0,1,1.1-5.01A34.491,34.491,0,0,1,1258.35,86l.234-.314,5.4,5.388-.223.239a6.278,6.278,0,0,0-1.7,3.429,6.444,6.444,0,0,0,.086,1.974c.4,2.68,1.662,4.873,3.126,7.413.261.45.476.81.6,1.022a.338.338,0,0,1-.578.351c-.131-.216-.35-.58-.613-1.034-1.5-2.6-2.8-4.845-3.212-7.652a7.122,7.122,0,0,1-.085-2.163,6.86,6.86,0,0,1,1.654-3.558l-4.388-4.375a33.778,33.778,0,0,0-5.038,10.119,36.17,36.17,0,0,0-1.085,4.914,39.074,39.074,0,0,0-.255,9.121,38.489,38.489,0,0,0,1.885,9.111c.609,1.68,1.511,3.767,1.521,3.788.072.15.181.384.3.672a11.2,11.2,0,0,1,.638,2.382,38.417,38.417,0,0,1,.407,4.876.339.339,0,0,1-.331.346Z" transform="translate(-1251.454 -85.683)"/>
        </g>
        <g id="Group_6687" data-name="Group 6687" transform="translate(1250.202 101.912)">
          <path id="Path_429" data-name="Path 429" class="cls-3" d="M1258.938,106.354a25.44,25.44,0,0,1,5.685-2.078,41.7,41.7,0,0,0,3.406,4.4c2.5,2.819,3.772,3.486,4.209,5.4a6.114,6.114,0,0,1-1.233,5.148c-1.209,1.427-2.9,1.843-4.76,2.3a17.106,17.106,0,0,1-3,.429,18.234,18.234,0,0,0-7.723,2.724,30.172,30.172,0,0,1-3.418-13.256A25.573,25.573,0,0,1,1258.938,106.354Z" transform="translate(-1251.759 -103.893)"/>
          <path id="Path_430" data-name="Path 430" class="cls-4" d="M1255.374,125.14l-.166-.318a30.55,30.55,0,0,1-3.456-13.405l0-.141.1-.1a25.858,25.858,0,0,1,6.928-5.135h0a25.852,25.852,0,0,1,5.76-2.1l.227-.054.131.194a41.592,41.592,0,0,0,3.378,4.361c.745.839,1.367,1.475,1.918,2.035,1.272,1.3,2.042,2.083,2.369,3.517a6.468,6.468,0,0,1-1.3,5.443c-1.279,1.511-3.056,1.949-4.937,2.41a15.486,15.486,0,0,1-2.678.406l-.376.031a18.257,18.257,0,0,0-7.58,2.678Zm-2.943-13.6a29.9,29.9,0,0,0,3.214,12.649,18.7,18.7,0,0,1,7.555-2.588l.383-.032a14.8,14.8,0,0,0,2.57-.388c1.849-.455,3.446-.847,4.581-2.191a5.764,5.764,0,0,0,1.162-4.854c-.286-1.248-.963-1.939-2.193-3.193-.528-.539-1.185-1.209-1.94-2.06a42.32,42.32,0,0,1-3.3-4.237,25.145,25.145,0,0,0-5.383,2h0A25.153,25.153,0,0,0,1252.431,111.542Z" transform="translate(-1251.747 -103.88)"/>
        </g>
        <g id="Group_6688" data-name="Group 6688" transform="translate(1252.877 95.175)">
          <path id="Path_431" data-name="Path 431" class="cls-3" d="M1254.512,100.217a84.454,84.454,0,0,0,3.137,20.915q1.569,5.269,3.137,10.538c1.426-.04,4.012-.292,4.746-1.85.532-1.127-.134-2.451-.456-3.137-1.579-3.369-1.5-7.3-2.574-10.86-1.032-3.413-1.934-9.064-1.394-18.9Z" transform="translate(-1254.512 -96.918)"/>
        </g>
        <g id="Group_6689" data-name="Group 6689" transform="translate(1254.968 65.077)">
          <ellipse id="Ellipse_6277" data-name="Ellipse 6277" class="cls-3" cx="12.943" cy="9.913" rx="12.943" ry="9.913" transform="translate(0 17.783) rotate(-43.388)"/>
          <path id="Path_432" data-name="Path 432" class="cls-4" d="M1270.032,93.8a11.032,11.032,0,0,1-1.33-.079,8.379,8.379,0,0,1-5.887-3.277c-3.368-4.522-1.535-11.964,4.09-16.59a14.147,14.147,0,0,1,10.46-3.462,8.375,8.375,0,0,1,5.887,3.275c3.37,4.523,1.536,11.966-4.089,16.592A14.643,14.643,0,0,1,1270.032,93.8Zm6-22.889a14.04,14.04,0,0,0-8.749,3.4h0c-5.38,4.426-7.17,11.5-3.99,15.771a7.8,7.8,0,0,0,5.479,3.039,13.519,13.519,0,0,0,10.009-3.33c5.382-4.426,7.171-11.5,3.989-15.772a7.8,7.8,0,0,0-5.478-3.038A10.472,10.472,0,0,0,1276.033,70.908Z" transform="translate(-1256.818 -65.958)"/>
        </g>
        <g id="Group_6690" data-name="Group 6690" transform="translate(1266.495 118.727)">
          <path id="Path_433" data-name="Path 433" class="cls-4" d="M1271.888,133.2a.341.341,0,0,1-.328-.253l-2.963-11.263a.339.339,0,1,1,.655-.172l2.964,11.263a.34.34,0,0,1-.242.414A.329.329,0,0,1,1271.888,133.2Z" transform="translate(-1268.586 -121.258)"/>
        </g>
        <g id="Group_6691" data-name="Group 6691" transform="translate(1255.477 101.128)">
          <path id="Path_434" data-name="Path 434" class="cls-3" d="M1257.2,106.228c0-.646.025-1.339.091-2.072q.051-.563.125-1.087.817,2.293,1.635,4.585a3.387,3.387,0,0,1-.483.805,3.347,3.347,0,0,1-.858.75Q1257.455,107.72,1257.2,106.228Z" transform="translate(-1257.199 -103.07)"/>
        </g>
        <g id="Group_6692" data-name="Group 6692" transform="translate(1252.506 99.238)">
          <path id="Path_435" data-name="Path 435" class="cls-4" d="M1261.122,132.651a.364.364,0,0,1-.339-.234,105.555,105.555,0,0,1-6.654-30.915.363.363,0,0,1,.339-.385.37.37,0,0,1,.385.34,104.623,104.623,0,0,0,6.609,30.7.364.364,0,0,1-.211.468A.376.376,0,0,1,1261.122,132.651Z" transform="translate(-1254.128 -101.117)"/>
        </g>
        <g id="Group_6693" data-name="Group 6693" transform="translate(1258.843 98.487)">
          <path id="Path_436" data-name="Path 436" class="cls-4" d="M1266.885,132.626a.363.363,0,0,1-.345-.253c-.721-2.26-1.389-4.585-1.989-6.91a130,130,0,0,1-3.872-24.738.362.362,0,0,1,.34-.383.366.366,0,0,1,.384.34,129.393,129.393,0,0,0,3.849,24.6c.6,2.313,1.263,4.624,1.979,6.873a.36.36,0,0,1-.235.454A.334.334,0,0,1,1266.885,132.626Z" transform="translate(-1260.677 -100.341)"/>
        </g>
        <g id="Group_6694" data-name="Group 6694" transform="translate(1260.899 132.95)">
          <path id="Path_437" data-name="Path 437" class="cls-3" d="M1262.8,135.958q.183.448.375.9c.081.19.162.378.243.566l4.66.378q-.163-.453-.324-.907Z" transform="translate(-1262.802 -135.958)"/>
        </g>
        <g id="Group_6697" data-name="Group 6697" transform="translate(1232.27 54.631)">
          <g id="Group_6695" data-name="Group 6695" transform="translate(0.338 0.34)">
            <path id="Path_438" data-name="Path 438" class="cls-3" d="M1246.778,61.563c-3.069-5.338-5.063-6.377-6.365-6.172-1.081.171-1.535,1.177-3.6,1.575-1.663.321-2.788-.056-3.151.579s.4,1.686.483,1.8c.992,1.334,2.758,1.574,4.211,1.736A79.617,79.617,0,0,0,1246.778,61.563Z" transform="translate(-1233.563 -55.367)"/>
          </g>
          <g id="Group_6696" data-name="Group 6696">
            <path id="Path_439" data-name="Path 439" class="cls-4" d="M1247.353,61.894l-.589,0a80.44,80.44,0,0,1-8.458-.484c-1.327-.148-3.331-.373-4.445-1.87-.231-.313-.949-1.392-.505-2.17.314-.547.934-.566,1.721-.589a9.822,9.822,0,0,0,1.658-.153,5.692,5.692,0,0,0,2.258-.96,3.389,3.389,0,0,1,1.354-.617c1.9-.311,4.089,1.775,6.711,6.337Zm-6.651-6.2a1.613,1.613,0,0,0-.248.018,2.816,2.816,0,0,0-1.09.516,6.359,6.359,0,0,1-2.5,1.058,10.734,10.734,0,0,1-1.768.165c-.675.02-1.033.041-1.152.249-.179.313.113.961.459,1.43.868,1.165,2.377,1.421,3.978,1.6,2.525.282,5.144.441,7.79.474C1244.025,57.589,1242.145,55.7,1240.7,55.7Z" transform="translate(-1233.214 -55.016)"/>
          </g>
        </g>
        <g id="Group_6700" data-name="Group 6700" transform="translate(1250.653 56.507)">
          <g id="Group_6698" data-name="Group 6698" transform="translate(0.211 0.219)">
            <path id="Path_440" data-name="Path 440" class="cls-3" d="M1254.448,57.181c1.388,1.642,5.193,6.358,5.413,10.014.046.748.146,2.416-.738,2.921a1.617,1.617,0,0,1-1.276.027c-1.791-.739-.879-4.262-2.752-7.74a10.2,10.2,0,0,0-2.664-3.138" transform="translate(-1252.431 -57.181)"/>
          </g>
          <g id="Group_6699" data-name="Group 6699">
            <path id="Path_441" data-name="Path 441" class="cls-4" d="M1258.5,70.6a2.178,2.178,0,0,1-.788-.152c-1.126-.463-1.332-1.742-1.594-3.361a13.8,13.8,0,0,0-1.328-4.53,9.844,9.844,0,0,0-2.577-3.033l.421-.53a10.491,10.491,0,0,1,2.752,3.242,14.346,14.346,0,0,1,1.4,4.743c.237,1.466.406,2.524,1.183,2.845a1.3,1.3,0,0,0,.978-.009c.7-.4.609-1.943.57-2.6-.2-3.294-3.428-7.566-5.336-9.819l.518-.438c1.963,2.319,5.284,6.728,5.494,10.212.051.856.156,2.628-.909,3.235A1.56,1.56,0,0,1,1258.5,70.6Z" transform="translate(-1252.213 -56.955)"/>
          </g>
        </g>
        <g id="Group_6703" data-name="Group 6703" transform="translate(1231.085 54.636)">
          <g id="Group_6701" data-name="Group 6701" transform="translate(0.339 0.528)">
            <path id="Path_442" data-name="Path 442" class="cls-3" d="M1254.387,55.567a9.355,9.355,0,0,1-4.68,13.976,8.623,8.623,0,0,1-5.152-.535,6.981,6.981,0,0,1-3.567-2.965c-.745-1.413-.432-2.405-1.118-2.693-.943-.4-1.892,1.332-3.821,1.449a4.239,4.239,0,0,1-2.586-.805c-1.091-.993-1.191-1.582-1.092-1.932.354-1.259,3.558-.457,5.774-2.668.932-.929.9-1.605,1.723-1.9,1.319-.469,2.948.731,4.124,1.825a3.1,3.1,0,0,0,3.474.176c1.3-.774,1.386-2.66,1.4-2.992a4.471,4.471,0,0,0,1.766.522A5.085,5.085,0,0,0,1254.387,55.567Z" transform="translate(-1232.34 -55.567)"/>
          </g>
          <g id="Group_6702" data-name="Group 6702">
            <path id="Path_443" data-name="Path 443" class="cls-4" d="M1247.944,70.033a8.757,8.757,0,0,1-3.538-.733,7.327,7.327,0,0,1-3.731-3.117,6.334,6.334,0,0,1-.587-1.733c-.113-.532-.169-.725-.363-.806-.274-.115-.62.1-1.163.463a4.912,4.912,0,0,1-2.507,1.012,4.526,4.526,0,0,1-2.794-.861c-1.019-.923-1.408-1.667-1.23-2.3.216-.766,1.1-.945,2.123-1.151a6.8,6.8,0,0,0,3.739-1.665,5.2,5.2,0,0,0,.757-.973,2.037,2.037,0,0,1,1.091-1c1.187-.417,2.645.2,4.468,1.9a2.772,2.772,0,0,0,3.069.133c1.116-.665,1.221-2.374,1.231-2.71l.015-.546.482.256a4.126,4.126,0,0,0,1.634.483,4.7,4.7,0,0,0,3.5-1.368l.294-.284.225.342a9.694,9.694,0,0,1-4.851,14.482A9.349,9.349,0,0,1,1247.944,70.033Zm-8.377-7.1a1.077,1.077,0,0,1,.422.087c.535.224.641.717.763,1.288a5.621,5.621,0,0,0,.522,1.559,6.713,6.713,0,0,0,3.405,2.814,8.317,8.317,0,0,0,4.948.513,9.47,9.47,0,0,0,5.541-5.768,9.319,9.319,0,0,0-.869-7.355,5.255,5.255,0,0,1-3.71,1.277,4.692,4.692,0,0,1-1.442-.344,3.681,3.681,0,0,1-1.521,2.768,3.441,3.441,0,0,1-3.877-.22c-1.6-1.488-2.871-2.076-3.781-1.753-.365.129-.5.342-.748.728a5.821,5.821,0,0,1-.849,1.09,7.473,7.473,0,0,1-4.083,1.85c-.838.168-1.5.3-1.6.67-.1.351.254.916.994,1.591a3.761,3.761,0,0,0,2.339.716,4.309,4.309,0,0,0,2.171-.9A2.714,2.714,0,0,1,1239.567,62.933Z" transform="translate(-1231.99 -55.021)"/>
          </g>
        </g>
        <g id="Group_6706" data-name="Group 6706" transform="translate(1246.204 59.029)">
          <g id="Group_6704" data-name="Group 6704" transform="translate(0.342 0.338)">
            <path id="Path_444" data-name="Path 444" class="cls-3" d="M1254.285,59.91c-.071,2.15-.412,8.2-2.7,11.059-.468.585-1.512,1.89-2.507,1.671a1.618,1.618,0,0,1-.965-.835c-.833-1.75,2.207-3.751,3.151-7.587a10.222,10.222,0,0,0,.128-4.114" transform="translate(-1247.969 -59.91)"/>
          </g>
          <g id="Group_6705" data-name="Group 6705">
            <path id="Path_445" data-name="Path 445" class="cls-4" d="M1249.3,72.992a1.366,1.366,0,0,1-.3-.033,1.961,1.961,0,0,1-1.2-1.027c-.521-1.092.183-2.179,1.075-3.555a13.812,13.812,0,0,0,2.054-4.253,9.831,9.831,0,0,0,.123-3.979.339.339,0,0,1,.67-.109,10.529,10.529,0,0,1-.135,4.251,14.419,14.419,0,0,1-2.143,4.459c-.808,1.244-1.39,2.143-1.03,2.9a1.3,1.3,0,0,0,.73.651c.783.186,1.792-1.079,2.169-1.551,2.063-2.577,2.531-7.91,2.628-10.86a.35.35,0,0,1,.349-.326.337.337,0,0,1,.327.349c-.1,3.033-.59,8.53-2.773,11.259C1251.347,71.78,1250.376,72.992,1249.3,72.992Z" transform="translate(-1247.616 -59.561)"/>
          </g>
        </g>
        <g id="Group_6709" data-name="Group 6709" transform="translate(1244.584 43.134)">
          <g id="Group_6707" data-name="Group 6707" transform="translate(0 0)">
            <ellipse id="Ellipse_6278" data-name="Ellipse 6278" class="cls-3" cx="6.797" cy="6.057" rx="6.797" ry="6.057" transform="translate(0 13.294) rotate(-77.935)"/>
          </g>
          <g id="Group_6708" data-name="Group 6708" transform="translate(0.913 0.807)">
            <path id="Path_446" data-name="Path 446" class="cls-4" d="M1253.043,58.181a5.791,5.791,0,0,1-1.219-.13c-3.447-.736-5.584-4.466-4.762-8.314s4.3-6.384,7.745-5.64a6.036,6.036,0,0,1,4,3,7.524,7.524,0,0,1,.766,5.309h0a7.523,7.523,0,0,1-2.87,4.531A6.169,6.169,0,0,1,1253.043,58.181Zm.557-13.535a6.315,6.315,0,0,0-5.877,5.233c-.744,3.482,1.159,6.852,4.243,7.511a5.372,5.372,0,0,0,4.333-.995,6.852,6.852,0,0,0,2.61-4.126h0a6.856,6.856,0,0,0-.694-4.832,5.369,5.369,0,0,0-3.549-2.678A5.068,5.068,0,0,0,1253.6,44.646Z" transform="translate(-1246.885 -43.968)"/>
          </g>
        </g>
        <g id="Group_6712" data-name="Group 6712" transform="translate(1248.925 43.703)">
          <g id="Group_6710" data-name="Group 6710" transform="translate(0.333 0.338)">
            <path id="Path_447" data-name="Path 447" class="cls-5" d="M1251.137,44.8c-1.066,1.25.46,4.309,1.286,5.536a3.6,3.6,0,0,0,1.926,1.778c.972.249,1.707-.3,2.119.138a1.361,1.361,0,0,1-.12,1.609c-.4.481-.9.286-1.208.674a2,2,0,0,0,.741,2.521c1.147.493,3.3-1.313,4.251-3.262a6.651,6.651,0,0,0-.1-6.029C1258.029,44.175,1252.477,43.234,1251.137,44.8Z" transform="translate(-1250.772 -44.072)"/>
          </g>
          <g id="Group_6711" data-name="Group 6711">
            <path id="Path_448" data-name="Path 448" class="cls-4" d="M1256.283,57.469a1.365,1.365,0,0,1-.547-.108,2.084,2.084,0,0,1-1.064-1.448,1.876,1.876,0,0,1,.192-1.592,1.22,1.22,0,0,1,.711-.411.879.879,0,0,0,.5-.271,1.064,1.064,0,0,0,.133-1.161c-.088-.092-.247-.081-.618-.027a3.2,3.2,0,0,1-1.337-.015,3.765,3.765,0,0,1-2.083-1.855c-.818-1.217-2.558-4.536-1.3-6.007a3.692,3.692,0,0,1,3.176-.816,8.256,8.256,0,0,1,6.274,3.836,6.943,6.943,0,0,1,.107,6.343C1259.552,55.723,1257.665,57.468,1256.283,57.469Zm-.292-5.737a.916.916,0,0,1,.712.282,1.685,1.685,0,0,1-.1,2.058,1.518,1.518,0,0,1-.841.491.619.619,0,0,0-.361.176,1.291,1.291,0,0,0-.069,1.006,1.475,1.475,0,0,0,.677.995c.907.4,2.9-1.234,3.812-3.1a6.343,6.343,0,0,0-.09-5.717,7.638,7.638,0,0,0-5.75-3.492,3.173,3.173,0,0,0-2.593.582h0c-.817.956.3,3.624,1.308,5.125.52.774.971,1.447,1.731,1.641a2.635,2.635,0,0,0,1.07,0A3.366,3.366,0,0,1,1255.991,51.732Z" transform="translate(-1250.428 -43.722)"/>
          </g>
        </g>
        <g id="Group_6713" data-name="Group 6713" class="cls-6" transform="translate(1236.078 81.14)">
          <path id="Path_449" data-name="Path 449" class="cls-7" d="M1256.91,92.121c.271,1.219,1,4.5-.923,7.15-2.646,3.645-8.06,3-8.784,2.9-4.016-.541-9.947-3.7-10.051-9.707a9.88,9.88,0,0,1,9.707-10.05C1253.048,82.306,1256.143,88.675,1256.91,92.121Z" transform="translate(-1237.151 -82.413)"/>
        </g>
        <g id="Group_6716" data-name="Group 6716" transform="translate(1246.517 62.52)">
          <g id="Group_6714" data-name="Group 6714" transform="translate(0.339 0.338)">
            <path id="Path_450" data-name="Path 450" class="cls-5" d="M1284.252,77.98c-1.665,2.172-4.906,2.445-7.927,2.7-1.662.139-1.846-.051-3.355.169a17.988,17.988,0,0,0-5.8,1.978c-3.8,2.179-3.321,4.95-7.752,8.324-1.573,1.2-4,2.995-6.93,2.6-2.009-.273-4.209-1.574-4.2-2.836.005-.847,1-1.194,2.729-2.682a24.012,24.012,0,0,0,3.6-4.046,37.671,37.671,0,0,0,3.856-6.8c1.406-2.85,1.631-3.7,2.961-5.953a21.443,21.443,0,0,1,2.213-3.352,14.1,14.1,0,0,1,8.245-4.481,12.718,12.718,0,0,1,8.5,2.154,10.414,10.414,0,0,1,4.452,5.663C1285.078,72.2,1286.066,75.612,1284.252,77.98Z" transform="translate(-1248.289 -63.519)"/>
          </g>
          <g id="Group_6715" data-name="Group 6715">
            <path id="Path_451" data-name="Path 451" class="cls-4" d="M1253.322,94.131a6.478,6.478,0,0,1-.887-.061c-2.133-.289-4.5-1.663-4.5-3.173,0-.74.54-1.144,1.428-1.811.387-.291.869-.653,1.417-1.125a23.853,23.853,0,0,0,3.549-3.988,37.467,37.467,0,0,0,3.817-6.733c.516-1.045.869-1.811,1.175-2.478a33.416,33.416,0,0,1,1.807-3.515,21.727,21.727,0,0,1,2.25-3.4,14.307,14.307,0,0,1,8.464-4.6,13.11,13.11,0,0,1,8.733,2.212,10.748,10.748,0,0,1,4.585,5.847c1.045,3.607.221,5.725-.655,6.868h0c-1.755,2.29-5.162,2.578-8.167,2.829a15.579,15.579,0,0,1-1.629.057,9.213,9.213,0,0,0-1.7.11,17.537,17.537,0,0,0-5.68,1.937,9.781,9.781,0,0,0-3.569,3.674,16.5,16.5,0,0,1-4.146,4.625C1258.244,92.452,1256.04,94.131,1253.322,94.131Zm19.923-30.285a12.009,12.009,0,0,0-1.324.075,13.886,13.886,0,0,0-8.028,4.367,21.285,21.285,0,0,0-2.176,3.3,32.7,32.7,0,0,0-1.776,3.455c-.309.671-.664,1.442-1.174,2.476a37.9,37.9,0,0,1-3.892,6.857,24.279,24.279,0,0,1-3.649,4.095c-.566.489-1.057.858-1.452,1.155-.823.617-1.155.884-1.158,1.273-.006.992,1.931,2.229,3.909,2.5,2.85.383,5.245-1.438,6.678-2.529a15.92,15.92,0,0,0,3.99-4.459,10.436,10.436,0,0,1,3.8-3.89,18.266,18.266,0,0,1,5.917-2.02,10.33,10.33,0,0,1,1.808-.117,15,15,0,0,0,1.566-.054c3.005-.253,6.113-.514,7.687-2.567h0c.78-1.019,1.507-2.932.542-6.267a10.123,10.123,0,0,0-4.319-5.479A12.546,12.546,0,0,0,1273.245,63.846Z" transform="translate(-1247.939 -63.169)"/>
          </g>
        </g>
      </g>
    </g>
  </g>
</svg>
