<svg xmlns="http://www.w3.org/2000/svg" xmlns:xlink="http://www.w3.org/1999/xlink" width="100" height="100" viewBox="0 0 100 100">
  <defs>
    <style>
      .cls-1, .cls-4 {
        fill: none;
      }

      .cls-2 {
        opacity: 0.05;
        fill: url(#linear-gradient);
      }

      .cls-3, .cls-5 {
        fill: #fff;
      }

      .cls-4, .cls-5 {
        stroke: #2d2d2d;
        stroke-linecap: round;
        stroke-miterlimit: 10;
        stroke-width: 0.7px;
      }

      .cls-6 {
        fill: #ff8e93;
        opacity: 0.5;
        mix-blend-mode: multiply;
        isolation: isolate;
      }
    </style>
    <linearGradient id="linear-gradient" x1="0.5" x2="0.5" y2="1" gradientUnits="objectBoundingBox">
      <stop offset="0" stop-color="#1778f2"/>
      <stop offset="1" stop-color="#f40009"/>
    </linearGradient>
  </defs>
  <g id="Group_124996" data-name="Group 124996" transform="translate(-48 -2365)">
    <rect id="Rectangle_10369" data-name="Rectangle 10369" class="cls-1" width="100" height="100" transform="translate(48 2365)"/>
    <g id="Group_124196" data-name="Group 124196">
      <g id="Group_124190" data-name="Group 124190">
        <g id="Group_124149" data-name="Group 124149" transform="translate(0 376)">
          <path id="Path_228175" data-name="Path 228175" class="cls-2" d="M32.3,83.491A105.79,105.79,0,0,1,17.2,70.917,105.57,105.57,0,0,1,4.909,56.1,17.251,17.251,0,0,1,0,44.2,16.783,16.783,0,0,1,4.909,32.3,144.539,144.539,0,0,1,32.3,4.909,17.263,17.263,0,0,1,44.2,0,16.781,16.781,0,0,1,56.1,4.909a164.255,164.255,0,0,1,13.841,12.23A164.608,164.608,0,0,1,83.491,32.3,17.24,17.24,0,0,1,88.4,44.2a16.782,16.782,0,0,1-4.909,11.9A163.679,163.679,0,0,1,69.255,71.955,164.629,164.629,0,0,1,56.1,83.491a17.386,17.386,0,0,1-7.239,4.259,16.564,16.564,0,0,1-4.664.65,17.462,17.462,0,0,1-5.792-1.133A18.7,18.7,0,0,1,32.3,83.491Z" transform="translate(56.375 1992)"/>
        </g>
        <g id="Group_124156" data-name="Group 124156" transform="translate(-744.366 2056.213)">
          <g id="Group_124179" data-name="Group 124179" transform="translate(802.851 351.967)">
            <path id="Path_229174" data-name="Path 229174" class="cls-3" d="M882.327,352.608l-2.246,3.9,1.851,2.715,6.591-2.518-1.481-2.987Z" transform="translate(-813.068 -334.552)"/>
            <path id="Path_229175" data-name="Path 229175" class="cls-3" d="M874.7,356.691l1.754-5.985a22.9,22.9,0,0,0-4.489-.258c-2.314.1-3.682.516-8.978,1.7-1.624.364-2.944.649-3.766.826l-29.2-5.883a32.537,32.537,0,0,1-8.152-2.528,40.926,40.926,0,0,1-8.874-5.882c-1.871-1.492-8.134-5.349-10.791-8.1-.121,5.675,1.671,12.475,1.551,18.15a97.54,97.54,0,0,1,15.535,5.434,75.374,75.374,0,0,1,14.6,8.926,13.656,13.656,0,0,0,7.482,4.437,13.365,13.365,0,0,0,3.766.155c3.967-.372,5.831-2.2,9.958-4.334a74.68,74.68,0,0,1,9.958-3.766C868.929,358.269,872.246,357.331,874.7,356.691Z" transform="translate(-804.94 -332.338)"/>
            <path id="Path_229176" data-name="Path 229176" class="cls-4" d="M852.351,355.806a104.942,104.942,0,0,0,13.414-2.254c3.877-.918,7.358-1.987,11.325-.55.7.254,3.487,1.263,3.482,2.584-.006,1.828-5.344,3.022-10.409,4.4-19.112,5.192-23.08,12.207-30.2,9.236-.269-.113.039,0-9.53-6.158-3.519-2.266-5.522-3.556-6.341-4.068-3.714-2.325-9.685-5.329-19.242-7.807" transform="translate(-804.851 -334.397)"/>
            <path id="Path_229177" data-name="Path 229177" class="cls-5" d="M845.751,357.819a28.993,28.993,0,0,1,6.213-2.309c4.849-1.19,7.813-.567,8.576-2.144.6-1.242-.346-3.467-1.925-4.673-4.093-3.127-9.974,2.48-15.063-.66a14.332,14.332,0,0,0-4.215-2.162,11,11,0,0,0-8.485.9c-1.175.576-3.612.256-9.034-2.709a150.606,150.606,0,0,1-15.982-10.68" transform="translate(-804.959 -332.452)"/>
          </g>
          <path id="Path_229178" data-name="Path 229178" class="cls-5" d="M851.751,318.515c-1.513-.936-2.715-1.724-3.53-2.267a13.935,13.935,0,0,0-2.921-1.727,9.548,9.548,0,0,0-3.127-.646,6.865,6.865,0,0,0-2.419.247,6.412,6.412,0,0,0-3.552,2.932,6.164,6.164,0,0,0-.67,3.517,7.076,7.076,0,0,0,1.089,3.015,30.915,30.915,0,0,1,3.208,8.013c.536,2.423.5,4.794,1.7,6.961a2.7,2.7,0,0,0,1.407,1.333,2.85,2.85,0,0,0,2.309-.395,4.186,4.186,0,0,0,1.675-2.512c.69-2.438-.537-4.067.5-5.109a1.575,1.575,0,0,1,1.172-.5,1.455,1.455,0,0,1,.921.586c1.053,1.291-.046,2.971.754,5.276a3.874,3.874,0,0,0,1.759,2.345,3.357,3.357,0,0,0,3.266-.167,3.022,3.022,0,0,0,.9-.929c1.131-1.789.789-4.263.815-5.776.068-3.933,2.666-4.07,4.024-10.245a8.045,8.045,0,0,0-.061-4.427,6.438,6.438,0,0,0-4.875-4.36,7.124,7.124,0,0,0-4.316.445,7.526,7.526,0,0,0-3.088,2.439" transform="translate(-5.347 21.684)"/>
          <path id="Path_229179" data-name="Path 229179" class="cls-4" d="M831.079,313.335a8.546,8.546,0,0,1-4.495-4.973" transform="translate(-4.374 22.248)"/>
          <path id="Path_229180" data-name="Path 229180" class="cls-4" d="M850.022,309.843a17.127,17.127,0,0,1,0-8.368" transform="translate(-6.877 23)"/>
          <path id="Path_229181" data-name="Path 229181" class="cls-4" d="M865.825,312.477a9.279,9.279,0,0,0,4.4-4.9" transform="translate(-8.66 22.333)"/>
          <path id="Path_229182" data-name="Path 229182" class="cls-6" d="M857.29,340.459c.25,1.123.922,4.143-.85,6.583-2.436,3.356-7.419,2.76-8.086,2.671-3.7-.5-9.156-3.4-9.253-8.936a9.1,9.1,0,0,1,8.936-9.253C853.734,331.424,856.584,337.288,857.29,340.459Z" transform="translate(7.607 9.543)"/>
        </g>
      </g>
    </g>
  </g>
</svg>
