<svg xmlns="http://www.w3.org/2000/svg" xmlns:xlink="http://www.w3.org/1999/xlink" width="100" height="100" viewBox="0 0 100 100">
  <defs>
    <style>
      .cls-1 {
        fill: none;
      }

      .cls-2 {
        opacity: 0.05;
        fill: url(#linear-gradient);
      }

      .cls-3 {
        fill: #86bcff;
      }

      .cls-4 {
        fill: #2d2d2d;
      }

      .cls-5 {
        fill: #fff;
      }

      .cls-6 {
        fill: #211f20;
      }

      .cls-7 {
        fill: #474747;
      }

      .cls-8 {
        fill: #ff8e93;
      }

      .cls-9 {
        opacity: 0.5;
        mix-blend-mode: multiply;
        isolation: isolate;
      }
    </style>
    <linearGradient id="linear-gradient" x1="0.5" x2="0.5" y2="1" gradientUnits="objectBoundingBox">
      <stop offset="0" stop-color="#1778f2"/>
      <stop offset="1" stop-color="#f40009"/>
    </linearGradient>
  </defs>
  <g id="Group_124987" data-name="Group 124987" transform="translate(-216 -1423)">
    <rect id="Rectangle_10360" data-name="Rectangle 10360" class="cls-1" width="100" height="100" transform="translate(216 1423)"/>
    <g id="Group_124919" data-name="Group 124919">
      <path id="Path_153251" data-name="Path 153251" class="cls-2" d="M32.3,83.491A105.79,105.79,0,0,1,17.2,70.917,105.57,105.57,0,0,1,4.909,56.1,17.251,17.251,0,0,1,0,44.2,16.783,16.783,0,0,1,4.909,32.3,144.539,144.539,0,0,1,32.3,4.909,17.263,17.263,0,0,1,44.2,0,16.781,16.781,0,0,1,56.1,4.909a164.255,164.255,0,0,1,13.841,12.23A164.608,164.608,0,0,1,83.491,32.3,17.24,17.24,0,0,1,88.4,44.2a16.782,16.782,0,0,1-4.909,11.9A163.679,163.679,0,0,1,69.255,71.955,164.629,164.629,0,0,1,56.1,83.491a17.386,17.386,0,0,1-7.239,4.259,16.564,16.564,0,0,1-4.664.65,17.462,17.462,0,0,1-5.792-1.133A18.7,18.7,0,0,1,32.3,83.491Z" transform="translate(221.375 1429)"/>
      <g id="Group_75813" data-name="Group 75813" transform="translate(-2643.119 1384.286)">
        <g id="Group_7639" data-name="Group 7639">
          <g id="Group_7637" data-name="Group 7637">
            <rect id="Rectangle_123" data-name="Rectangle 123" class="cls-3" width="4.792" height="14" rx="1.418" transform="translate(2904.75 53.37)"/>
          </g>
          <g id="Group_7638" data-name="Group 7638">
            <path id="Path_484" data-name="Path 484" class="cls-4" d="M2908.124,67.672h-1.956a1.722,1.722,0,0,1-1.72-1.72V54.788a1.722,1.722,0,0,1,1.72-1.72h1.956a1.722,1.722,0,0,1,1.72,1.72V65.952A1.722,1.722,0,0,1,2908.124,67.672Zm-1.956-14a1.116,1.116,0,0,0-1.116,1.116V65.952a1.116,1.116,0,0,0,1.116,1.116h1.956a1.116,1.116,0,0,0,1.116-1.116V54.788a1.116,1.116,0,0,0-1.116-1.116Z"/>
          </g>
        </g>
        <g id="Group_7640" data-name="Group 7640">
          <path id="Path_485" data-name="Path 485" class="cls-5" d="M2890.116,113.707a18.252,18.252,0,0,1-5.336,11.048l14.923,8.168,5.138-3.274,2.8-4.868Z"/>
        </g>
        <g id="Group_7641" data-name="Group 7641">
          <path id="Path_486" data-name="Path 486" class="cls-5" d="M2923.858,92.954c.068,2.52.129,4.76-1.482,6.11a3.9,3.9,0,0,1-3.347.876c-2.743-.73-3.285-5.234-3.461-6.69-.243-2.022-.53-4.4,1.1-6.174,1.181-1.278,3.354-2.23,4.96-1.509C2923.683,86.489,2923.769,89.673,2923.858,92.954Z"/>
          <path id="Path_487" data-name="Path 487" class="cls-6" d="M2919.8,100.39a3.373,3.373,0,0,1-.866-.113c-2.97-.79-3.533-5.451-3.717-6.982-.245-2.038-.55-4.568,1.194-6.456,1.265-1.371,3.576-2.394,5.359-1.591,2.252,1.013,2.34,4.259,2.433,7.7l-.35.01.35-.006c.068,2.533.132,4.926-1.607,6.384A4.561,4.561,0,0,1,2919.8,100.39Zm.6-14.723a5.1,5.1,0,0,0-3.471,1.646c-1.525,1.652-1.253,3.9-1.015,5.892.172,1.421.692,5.729,3.2,6.4a3.555,3.555,0,0,0,3.032-.807c1.48-1.24,1.423-3.366,1.358-5.828l.349-.013-.349.01c-.087-3.212-.169-6.245-2.021-7.077A2.63,2.63,0,0,0,2920.4,85.667Z"/>
        </g>
        <g id="Group_7642" data-name="Group 7642">
          <path id="Path_488" data-name="Path 488" class="cls-5" d="M2885.285,78.374c-2.02.748-3.718,5.015-1.725,21.307.068,2.072.592,11.231,7.7,17.623a23.2,23.2,0,0,0,8.133,4.687,21.841,21.841,0,0,0,11.314.751c5.481-1.2,9.607-6.674,17.871-17.618,1.29-1.708,2.846-3.864,2.235-6.131s-3.29-4.174-5.388-3.777c-2.368.448-2.263,3.443-4.7,5.816-4.454,4.335-13.526,2.829-18.935.3a23.394,23.394,0,0,1-10.447-10.046c1.679-4.5,1.012-8.9-1.626-11.282C2889.493,79.8,2887.115,77.7,2885.285,78.374Z"/>
          <path id="Path_489" data-name="Path 489" class="cls-4" d="M2906.567,123.526a23.336,23.336,0,0,1-7.28-1.2,23.636,23.636,0,0,1-8.259-4.76c-6.723-6.045-7.708-14.511-7.818-17.871-1.648-13.459-1.01-20.55,1.954-21.647h0c1.955-.727,4.333,1.285,4.79,1.7,2.728,2.466,3.417,6.971,1.775,11.514a22.83,22.83,0,0,0,10.211,9.757c4.78,2.236,14.039,4.15,18.542-.233a10.871,10.871,0,0,0,2.071-3.072c.694-1.368,1.294-2.55,2.808-2.837,2.265-.434,5.127,1.569,5.791,4.03.676,2.5-1.11,4.867-2.293,6.433-8.327,11.026-12.48,16.526-18.076,17.749A19.764,19.764,0,0,1,2906.567,123.526ZM2885.406,78.7c-1.771.656-3.47,4.821-1.5,20.937.111,3.3,1.066,11.54,7.59,17.4a22.919,22.919,0,0,0,8.007,4.615,21.156,21.156,0,0,0,11.131.742c5.342-1.167,9.443-6.6,17.614-17.418,1.508-2,2.77-3.892,2.228-5.9-.569-2.105-3.093-3.882-4.985-3.524-1.177.222-1.654,1.164-2.315,2.465a11.421,11.421,0,0,1-2.206,3.258c-4.788,4.661-14.182,2.771-19.327.365a23.562,23.562,0,0,1-10.606-10.2l-.076-.14.056-.149c1.612-4.323,1.01-8.6-1.533-10.9-.9-.809-2.771-2.048-4.079-1.561Z"/>
        </g>
        <g id="Group_7643" data-name="Group 7643">
          <path id="Path_490" data-name="Path 490" class="cls-5" d="M2917.843,73.687c-3.044,5.381-4.114,13.237-2.006,14.175,3.146,1.4,14.594-12.07,11.672-17.67a4.28,4.28,0,0,0-3.2-2.247C2921.244,67.677,2918.713,72.149,2917.843,73.687Z"/>
          <path id="Path_491" data-name="Path 491" class="cls-4" d="M2916.354,88.312a1.616,1.616,0,0,1-.66-.131,2.009,2.009,0,0,1-1.016-1.306c-.922-2.794.415-9.036,2.86-13.359h0l.3.172-.3-.176c.96-1.7,3.535-6.2,6.8-5.914a4.643,4.643,0,0,1,3.475,2.433c2.046,3.922-2.374,10.84-5.844,14.533C2921.086,85.509,2918.285,88.312,2916.354,88.312Zm1.489-14.625.3.172c-2.54,4.492-3.576,10.46-2.8,12.8a1.373,1.373,0,0,0,.637.887c.937.422,3.148-.971,5.486-3.458,4.02-4.278,7.4-10.544,5.733-13.73a3.909,3.909,0,0,0-2.915-2.06c-2.835-.253-5.319,4.125-6.133,5.561Z"/>
        </g>
        <g id="Group_7644" data-name="Group 7644">
          <ellipse id="Ellipse_7170" data-name="Ellipse 7170" class="cls-5" cx="5.753" cy="4.407" rx="5.753" ry="4.407" transform="translate(2919.662 104.266) rotate(-62.768)"/>
          <path id="Path_492" data-name="Path 492" class="cls-4" d="M2925.189,107.015a3.843,3.843,0,0,1-1.769-.42c-2.332-1.2-2.977-4.613-1.438-7.6s4.689-4.45,7.023-3.25,2.977,4.611,1.438,7.6A6.294,6.294,0,0,1,2925.189,107.015Zm2.035-11a5.6,5.6,0,0,0-4.619,3.293c-1.363,2.649-.854,5.637,1.135,6.661s4.718-.3,6.08-2.948.854-5.636-1.135-6.66A3.171,3.171,0,0,0,2927.224,96.018Z"/>
        </g>
        <g id="Group_7647" data-name="Group 7647">
          <g id="Group_7645" data-name="Group 7645">
            <path id="Path_493" data-name="Path 493" class="cls-7" d="M2900.217,126.455l13.4-.059c3.668-.016,6.651-4.286,6.628-9.489.6-6.476,1.011-13.938.98-22.2-.03-8.408-.513-15.984-1.178-22.541a12.273,12.273,0,0,0-1.988-6.672,5.881,5.881,0,0,0-4.722-2.758l-13.4.059c-3.668.016-6.65,4.286-6.627,9.489-.5,5.249-.856,11.021-.969,17.248a227.744,227.744,0,0,0,1.166,27.5,12.628,12.628,0,0,0,1.519,5.918A6.363,6.363,0,0,0,2900.217,126.455Z"/>
          </g>
          <g id="Group_7646" data-name="Group 7646">
            <path id="Path_494" data-name="Path 494" class="cls-4" d="M2900.212,126.805h-.007a6.707,6.707,0,0,1-5.482-3.688,12.905,12.905,0,0,1-1.567-6.087,228.494,228.494,0,0,1-1.166-27.508c.1-5.748.43-11.559.97-17.275-.024-5.374,3.1-9.788,6.975-9.806l13.4-.058a6.172,6.172,0,0,1,5.009,2.9,12.688,12.688,0,0,1,2.053,6.873c.754,7.414,1.151,15.01,1.178,22.542.028,7.4-.3,14.888-.982,22.237a11.963,11.963,0,0,1-1.991,6.858,6.185,6.185,0,0,1-4.983,2.948Zm13.142-63.723h-.02l-13.4.059c-3.484.016-6.3,4.115-6.28,9.137-.54,5.733-.865,11.527-.969,17.256a228.053,228.053,0,0,0,1.165,27.454,12.274,12.274,0,0,0,1.474,5.779,6.018,6.018,0,0,0,4.9,3.338l13.387-.059a5.508,5.508,0,0,0,4.413-2.651,11.312,11.312,0,0,0,1.867-6.486c.678-7.361,1.007-14.821.981-22.2-.028-7.509-.424-15.081-1.178-22.507a11.994,11.994,0,0,0-1.924-6.5A5.515,5.515,0,0,0,2913.354,63.082Z"/>
          </g>
        </g>
        <g id="Group_7648" data-name="Group 7648">
          <ellipse id="Ellipse_7171" data-name="Ellipse 7171" class="cls-5" cx="5.753" cy="4.407" rx="5.753" ry="4.407" transform="translate(2917.256 98.208) rotate(-62.768)"/>
          <path id="Path_495" data-name="Path 495" class="cls-4" d="M2922.8,100.961a3.87,3.87,0,0,1-1.781-.425c-2.332-1.2-2.977-4.612-1.438-7.6a7.046,7.046,0,0,1,3.171-3.183,4.289,4.289,0,0,1,3.852-.067c2.332,1.2,2.976,4.612,1.437,7.6a7.046,7.046,0,0,1-3.171,3.183A4.845,4.845,0,0,1,2922.8,100.961Zm2.022-11a4.162,4.162,0,0,0-1.771.424,6.346,6.346,0,0,0-2.847,2.87h0c-1.363,2.648-.854,5.637,1.135,6.66a3.6,3.6,0,0,0,3.232-.077,6.346,6.346,0,0,0,2.847-2.87c1.363-2.649.855-5.637-1.135-6.66A3.158,3.158,0,0,0,2924.818,89.959Z"/>
        </g>
        <g id="Group_7649" data-name="Group 7649">
          <path id="Path_496" data-name="Path 496" class="cls-5" d="M2906.948,126.333a12.645,12.645,0,0,0-1.061,1.535,13.23,13.23,0,0,0-1.718,5.192"/>
          <path id="Path_497" data-name="Path 497" class="cls-4" d="M2904.169,133.41a.277.277,0,0,1-.04,0,.351.351,0,0,1-.308-.388,13.543,13.543,0,0,1,1.764-5.33,13.109,13.109,0,0,1,1.091-1.577.346.346,0,0,1,.492-.052.35.35,0,0,1,.053.492,12.415,12.415,0,0,0-1.033,1.493,12.806,12.806,0,0,0-1.671,5.055A.35.35,0,0,1,2904.169,133.41Z"/>
        </g>
        <g id="Group_7650" data-name="Group 7650">
          <path id="Path_498" data-name="Path 498" class="cls-5" d="M2885.706,123.759a19.6,19.6,0,0,0,4.007-7.981"/>
          <path id="Path_499" data-name="Path 499" class="cls-4" d="M2885.706,124.109a.349.349,0,0,1-.268-.573,19.271,19.271,0,0,0,3.935-7.84.35.35,0,1,1,.68.164,19.928,19.928,0,0,1-4.078,8.123A.35.35,0,0,1,2885.706,124.109Z"/>
        </g>
        <g id="Group_7651" data-name="Group 7651">
          <path id="Path_500" data-name="Path 500" class="cls-5" d="M2901.329,122.71l10.758-.048c2.945-.013,5.339-3.8,5.318-8.419.479-5.748.807-12.37.78-19.707-.028-7.463-.418-14.187-.955-20.007a11.785,11.785,0,0,0-1.6-5.923,4.658,4.658,0,0,0-3.793-2.449l-10.758.047c-2.945.013-5.339,3.8-5.318,8.42-.4,4.659-.684,9.781-.772,15.308a223.2,223.2,0,0,0,.947,24.4,12.183,12.183,0,0,0,1.222,5.253C2898.71,122.555,2900.982,122.7,2901.329,122.71Z"/>
          <path id="Path_501" data-name="Path 501" class="cls-4" d="M2901.323,123.06h-.007c-.654-.024-2.911-.333-4.468-3.307a12.46,12.46,0,0,1-1.261-5.41,223.817,223.817,0,0,1-.946-24.417c.081-5.1.34-10.261.772-15.331a11.443,11.443,0,0,1,1.6-6.1,4.961,4.961,0,0,1,4.065-2.646l10.758-.046h.018a4.966,4.966,0,0,1,4.071,2.609,11.987,11.987,0,0,1,1.655,6.11c.608,6.588.93,13.329.954,20.008.026,6.581-.237,13.222-.78,19.737a11.439,11.439,0,0,1-1.6,6.094,4.962,4.962,0,0,1-4.065,2.646Zm10.531-56.553h-.014l-10.758.047a4.3,4.3,0,0,0-3.478,2.32,10.812,10.812,0,0,0-1.493,5.748c-.43,5.086-.69,10.229-.771,15.315a223.711,223.711,0,0,0,.945,24.369,11.823,11.823,0,0,0,1.184,5.123c1.376,2.628,3.3,2.909,3.866,2.931l10.75-.048a4.3,4.3,0,0,0,3.478-2.32,10.808,10.808,0,0,0,1.493-5.747c.542-6.526.8-13.146.779-19.708-.024-6.657-.346-13.378-.953-19.976a11.537,11.537,0,0,0-1.545-5.765A4.3,4.3,0,0,0,2911.854,66.507Z"/>
        </g>
        <g id="Group_7652" data-name="Group 7652">
          <ellipse id="Ellipse_7172" data-name="Ellipse 7172" class="cls-5" cx="5.753" cy="4.407" rx="5.753" ry="4.407" transform="translate(2914.397 89.907) rotate(-62.768)"/>
          <path id="Path_502" data-name="Path 502" class="cls-4" d="M2919.925,92.655a3.846,3.846,0,0,1-1.77-.42c-2.332-1.2-2.976-4.612-1.437-7.6s4.688-4.449,7.022-3.25,2.978,4.611,1.439,7.6A6.293,6.293,0,0,1,2919.925,92.655Zm2.034-11a5.6,5.6,0,0,0-4.618,3.294c-1.363,2.649-.855,5.637,1.135,6.66s4.717-.3,6.08-2.947.853-5.637-1.136-6.66A3.156,3.156,0,0,0,2921.959,81.658Z"/>
        </g>
        <g id="Group_7655" data-name="Group 7655">
          <g id="Group_7653" data-name="Group 7653">
            <path id="Path_503" data-name="Path 503" class="cls-8" d="M2906.612,74.287c-1.012-.149-4.41,7.378-1.88,9.639a3.759,3.759,0,0,0,3.585.543,2.953,2.953,0,0,0,1.694-1.478,3.088,3.088,0,0,0-.036-2.308c-.438-1.277-1.183-1.479-2-2.615C2906.577,76.113,2907.1,74.358,2906.612,74.287Z"/>
          </g>
          <g id="Group_7654" data-name="Group 7654">
            <path id="Path_504" data-name="Path 504" class="cls-4" d="M2907.018,85.044a3.854,3.854,0,0,1-2.52-.858c-1.948-1.741-.752-5.874.262-8.041.5-1.059,1.221-2.28,1.9-2.2h0c.452.068.511.532.578,1.069a5.754,5.754,0,0,0,1.021,2.854,7.043,7.043,0,0,0,.859.969,4.069,4.069,0,0,1,1.185,1.738,3.418,3.418,0,0,1,.024,2.563,3.188,3.188,0,0,1-1.891,1.663A4.035,4.035,0,0,1,2907.018,85.044Zm-.529-10.344a10.884,10.884,0,0,0-2.087,4.645c-.263,1.189-.541,3.333.563,4.32a3.422,3.422,0,0,0,3.228.477,2.51,2.51,0,0,0,1.5-1.294,2.743,2.743,0,0,0-.047-2.05,3.4,3.4,0,0,0-1.014-1.467,7.771,7.771,0,0,1-.937-1.06,6.45,6.45,0,0,1-1.146-3.174C2906.53,74.964,2906.511,74.811,2906.489,74.7Zm.115-.067"/>
          </g>
        </g>
        <g id="Group_7658" data-name="Group 7658">
          <g id="Group_7656" data-name="Group 7656">
            <path id="Path_505" data-name="Path 505" class="cls-8" d="M2909.363,48.065c-.787-.116-3.43,5.737-1.462,7.5a2.925,2.925,0,0,0,2.788.422,2.293,2.293,0,0,0,1.317-1.15,2.392,2.392,0,0,0-.028-1.794c-.34-.994-.92-1.151-1.553-2.034C2909.336,49.485,2909.739,48.12,2909.363,48.065Z"/>
          </g>
          <g id="Group_7657" data-name="Group 7657">
            <path id="Path_506" data-name="Path 506" class="cls-4" d="M2909.682,56.507a3.083,3.083,0,0,1-2.015-.686c-1.548-1.384-.613-4.637.185-6.343.578-1.236,1.114-1.816,1.562-1.76h0c.41.061.464.487.516.9a4.417,4.417,0,0,0,.779,2.185,5.558,5.558,0,0,0,.66.743,3.233,3.233,0,0,1,.941,1.382,2.733,2.733,0,0,1,.016,2.05,2.563,2.563,0,0,1-1.512,1.334A3.241,3.241,0,0,1,2909.682,56.507Zm-.467-7.957a9.56,9.56,0,0,0-1.584,3.927c-.222,1.333-.043,2.335.5,2.823a2.581,2.581,0,0,0,2.431.356,1.894,1.894,0,0,0,1.123-.967,2.064,2.064,0,0,0-.041-1.537,2.545,2.545,0,0,0-.769-1.109,6.082,6.082,0,0,1-.737-.834,5.1,5.1,0,0,1-.906-2.505C2909.229,48.654,2909.223,48.6,2909.215,48.55Z"/>
          </g>
        </g>
        <g id="Group_7659" data-name="Group 7659">
          <path id="Path_507" data-name="Path 507" class="cls-4" d="M2912.63,100.578h-12.688a.35.35,0,0,1,0-.7h12.688a.35.35,0,0,1,0,.7Z"/>
        </g>
        <g id="Group_7660" data-name="Group 7660">
          <path id="Path_508" data-name="Path 508" class="cls-4" d="M2912.63,105.872h-12.688a.35.35,0,0,1,0-.7h12.688a.35.35,0,0,1,0,.7Z"/>
        </g>
        <g id="Group_7661" data-name="Group 7661">
          <path id="Path_509" data-name="Path 509" class="cls-4" d="M2912.63,111.394h-12.688a.349.349,0,0,1,0-.7h12.688a.349.349,0,0,1,0,.7Z"/>
        </g>
        <g id="Group_7662" data-name="Group 7662" class="cls-9" transform="translate(-4.289 -10.691)">
          <path id="Path_510" data-name="Path 510" class="cls-8" d="M2916.951,78.479c.281,1.26,1.036,4.65-.953,7.39-2.735,3.766-8.33,3.1-9.079,3-4.15-.558-10.279-3.822-10.387-10.032a10.211,10.211,0,0,1,10.032-10.387C2912.96,68.336,2916.159,74.919,2916.951,78.479Z" transform="translate(5 17)"/>
        </g>
      </g>
    </g>
  </g>
</svg>
