<svg xmlns="http://www.w3.org/2000/svg" width="100" height="100">
    <defs>
        <linearGradient id="linear-gradient" x1=".5" x2=".5" y2="1" gradientUnits="objectBoundingBox">
            <stop offset="0" stop-color="#1778f2"/>
            <stop offset="1" stop-color="#f40009"/>
        </linearGradient>
        <style>
            .cls-3{fill:#fff}.cls-4{fill:#2d2d2d}.cls-7{fill:#d9cdff}.cls-8{fill:#86bcff}
        </style>
    </defs>
    <g id="Group_124972" data-name="Group 124972" transform="translate(-48 -108)">
        <path id="Rectangle_10345" data-name="Rectangle 10345" transform="translate(48 108)" style="fill:none" d="M0 0h100v100H0z"/>
        <g id="Group_124892" data-name="Group 124892">
            <g id="Group_124891" data-name="Group 124891">
                <path id="Path_153237" data-name="Path 153237" d="M32.3 83.491a105.79 105.79 0 0 1-15.1-12.574A105.57 105.57 0 0 1 4.909 56.1 17.251 17.251 0 0 1 0 44.2a16.783 16.783 0 0 1 4.909-11.9A144.539 144.539 0 0 1 32.3 4.909 17.263 17.263 0 0 1 44.2 0a16.781 16.781 0 0 1 11.9 4.909 164.255 164.255 0 0 1 13.841 12.23A164.608 164.608 0 0 1 83.491 32.3 17.24 17.24 0 0 1 88.4 44.2a16.782 16.782 0 0 1-4.909 11.9 163.679 163.679 0 0 1-14.236 15.855A164.629 164.629 0 0 1 56.1 83.491a17.386 17.386 0 0 1-7.239 4.259 16.564 16.564 0 0 1-4.664.65 17.462 17.462 0 0 1-5.792-1.133 18.7 18.7 0 0 1-6.105-3.776z" transform="translate(56.375 112)" style="opacity:.05;fill:url(#linear-gradient)"/>
                <g id="Group_75766" data-name="Group 75766" transform="translate(12 5)">
                    <g id="Group_75765" data-name="Group 75765">
                        <g id="Group_75764" data-name="Group 75764">
                            <g id="Group_528" data-name="Group 528" transform="translate(63.057 159.071)">
                                <path id="Path_75" data-name="Path 75" class="cls-3" d="m429.872 232.317-4.824 9.655 5.591 3.448a57.188 57.188 0 0 1-.11 5.536c-.136 2.013-.819 8.131-1.106 9.844 1.4 1.394 6.778 3.229 16.022 4.313 9.78 1.146 17.453-4 19.071-5.014a72.98 72.98 0 0 1-1.069-5.911 73.1 73.1 0 0 1-.685-8.966l.767-10.74-1.644-8.571-10.635 3.3-7.455 1.133z" transform="translate(-425.048 -225.913)"/>
                            </g>
                            <g id="Group_529" data-name="Group 529" transform="translate(69.388 170.992)">
                                <path id="Path_76" data-name="Path 76" class="cls-3" d="m431.449 248.409.933 2.056 15.145 2.466 11.306.576a9.577 9.577 0 0 0 5.016-.494 9.944 9.944 0 0 0 4.235-3.248 13.322 13.322 0 0 0 2.385-4.974 20.971 20.971 0 0 0 .862-6.826l-7.649.221-.3 4.084-.933 2.521-2.411 1.125z" transform="translate(-431.449 -237.966)"/>
                            </g>
                            <g id="Group_530" data-name="Group 530" transform="translate(58.067 169.412)">
                                <path id="Path_77" data-name="Path 77" class="cls-3" d="M461.548 245.672a354 354 0 0 1-15.691 2.723c-3.049.459-4.714.71-7.016.986a91.823 91.823 0 0 1-10.634.823c-5.462.04-6.371-.6-6.866-1.151-1.313-1.464-1.039-3.775-.74-6.29a19.133 19.133 0 0 1 1.767-6.044l8.881.082a80.994 80.994 0 0 0-1.09 3.557q-.37 1.311-.679 2.57" transform="translate(-420.007 -236.372)"/>
                                <path id="Path_78" data-name="Path 78" class="cls-4" d="M427.719 250.548c-5.068 0-6.063-.625-6.641-1.268-1.417-1.579-1.13-4-.826-6.561a19.445 19.445 0 0 1 1.8-6.154l.095-.2 9.575.088-.149.451a81.08 81.08 0 0 0-1.085 3.541q-.368 1.306-.676 2.559a.346.346 0 1 1-.672-.166q.312-1.263.68-2.579c.294-1.04.61-2.089.947-3.121l-8.186-.076a18.729 18.729 0 0 0-1.642 5.737c-.285 2.4-.554 4.671.654 6.018.338.377.953 1.062 6.607 1.037a91.982 91.982 0 0 0 10.595-.82c2.29-.275 3.953-.525 6.975-.98 2.764-.417 5.566-.871 8.137-1.319 2.532-.442 5.079-.915 7.57-1.407a.35.35 0 0 1 .406.273.346.346 0 0 1-.272.406c-2.5.493-5.048.967-7.586 1.409-2.576.449-5.383.9-8.121 1.316-3.059.462-4.727.713-7.027.989a92.112 92.112 0 0 1-10.673.824c-.165.003-.327.003-.485.003z" transform="translate(-420.003 -236.368)"/>
                            </g>
                            <g id="Group_531" data-name="Group 531" transform="translate(74.823 119.355)">
                                <path id="Path_79" data-name="Path 79" class="cls-3" d="M452.2 210.9a5.306 5.306 0 0 0 .415 3.907 5.528 5.528 0 0 0 3.046 2.344 28.248 28.248 0 0 0-6.093 9.119c-.465 1.187-1.078 3.017-2.028 3.046s-1.662-1.721-2.324-3.125a42.293 42.293 0 0 0-5.489-8.634c-.168.059-.336.129-.514.2a6.329 6.329 0 0 0 2.552-1.8 7.188 7.188 0 0 0 1.563-5.222 16.482 16.482 0 0 1-5.272-7.566 15.42 15.42 0 0 1-.712-5.865c.168-1.82.247-2.789.88-3.729 1.81-2.68 5.45-.663 9.653-3.61 2.888-2.037 3.333-3.936 5.034-3.838 3.1.178 4.886 6.617 5.044 7.23a17.1 17.1 0 0 1-.326 9.436 17.966 17.966 0 0 1-5.429 8.107z" transform="translate(-436.948 -185.762)"/>
                                <path id="Path_80" data-name="Path 80" class="cls-4" d="M447.514 229.668c-1.071 0-1.769-1.5-2.445-2.952l-.177-.379a42.21 42.21 0 0 0-5.282-8.361l-.121.048-.032.012c-.039.016-.078.032-.117.045l-.259-.667.108-.044a5.961 5.961 0 0 0 2.3-1.658 6.8 6.8 0 0 0 1.49-4.809 16.682 16.682 0 0 1-5.267-7.635 15.857 15.857 0 0 1-.731-5.987l.012-.13c.167-1.8.258-2.792.93-3.789 1-1.479 2.48-1.657 4.194-1.862a11.027 11.027 0 0 0 5.552-1.842 15.84 15.84 0 0 0 2.589-2.333c.886-.949 1.534-1.624 2.672-1.568 3.446.2 5.293 7.2 5.37 7.5a17.586 17.586 0 0 1-.332 9.634 18.227 18.227 0 0 1-5.453 8.2 4.911 4.911 0 0 0 .41 3.533 5.2 5.2 0 0 0 2.833 2.176l.57.165-.41.427a28.362 28.362 0 0 0-6.018 9l-.125.322c-.5 1.3-1.121 2.916-2.224 2.949zm-7.25-12.021a42.875 42.875 0 0 1 5.276 8.384l.178.382c.5 1.08 1.185 2.573 1.811 2.539s1.223-1.566 1.58-2.491l.127-.327a28.725 28.725 0 0 1 5.785-8.833 5.9 5.9 0 0 1-2.717-2.323 5.667 5.667 0 0 1-.45-4.177l.029-.106.084-.073a17.519 17.519 0 0 0 5.322-7.946 16.831 16.831 0 0 0 .321-9.232c-.018-.073-1.788-6.8-4.719-6.968-.763-.043-1.229.4-2.107 1.342a16.531 16.531 0 0 1-2.7 2.431 11.8 11.8 0 0 1-5.879 1.967c-1.6.192-2.869.344-3.684 1.551-.57.846-.65 1.718-.811 3.456l-.01.1a15.153 15.153 0 0 0 .7 5.723 15.99 15.99 0 0 0 5.156 7.4l.118.095.014.151a7.566 7.566 0 0 1-1.647 5.486 6.735 6.735 0 0 1-1.777 1.469z" transform="translate(-436.944 -185.758)"/>
                            </g>
                            <g id="Group_532" data-name="Group 532" transform="translate(74.694 116.483)">
                                <ellipse id="Ellipse_462" data-name="Ellipse 462" class="cls-3" cx="10.665" cy="14.317" rx="10.665" ry="14.317" transform="translate(.358 .359)"/>
                                <path id="Path_81" data-name="Path 81" class="cls-4" d="M447.837 212.205c-6.078 0-11.023-6.583-11.023-14.676s4.945-14.676 11.023-14.676 11.024 6.584 11.024 14.676-4.945 14.676-11.024 14.676zm0-28.634c-5.683 0-10.306 6.262-10.306 13.959s4.623 13.96 10.306 13.96 10.307-6.262 10.307-13.96-4.623-13.959-10.307-13.959z" transform="translate(-436.814 -182.854)"/>
                            </g>
                            <g id="Group_535" data-name="Group 535" transform="translate(62.221 111.466)">
                                <g id="Group_533" data-name="Group 533" transform="translate(.348 .345)">
                                    <path id="Path_82" data-name="Path 82" d="M467.364 207.843a16.832 16.832 0 0 1-4.89 6.7c-2.058 1.71-4.323 2.744-6.128 2.645h-.04a2.934 2.934 0 0 1-.781-.129 5.528 5.528 0 0 1-3.046-2.344 5.305 5.305 0 0 1-.415-3.907 17.966 17.966 0 0 0 5.43-8.11 17.1 17.1 0 0 0 .326-9.436c-.158-.613-1.948-7.052-5.044-7.23-1.7-.1-2.146 1.8-5.034 3.838-4.2 2.947-7.843.93-9.653 3.61-.633.94-.712 1.909-.88 3.729a15.42 15.42 0 0 0 .712 5.865 16.482 16.482 0 0 0 5.272 7.566 7.188 7.188 0 0 1-1.563 5.222 6.329 6.329 0 0 1-2.552 1.8.075.075 0 0 0-.04.02 10.158 10.158 0 0 1-2.1.524 10.454 10.454 0 0 1-8.091-2.512 1.82 1.82 0 0 0-.188-.178c-3.605-3.248-3.9-8.192-4.055-9.97-.644-7.426 4.68-15.625 10.133-20.6 3.276-2.99 7.809-7.126 14.034-6.8 4.556.24 7.725 2.753 9.647 4.276 7.459 5.909 12.182 17.111 8.946 25.421z" transform="translate(-424.554 -178.13)" style="fill:#474747"/>
                                </g>
                                <g id="Group_534" data-name="Group 534">
                                    <path id="Path_83" data-name="Path 83" class="cls-4" d="M435.567 218.661a11.228 11.228 0 0 1-6.949-2.707l-.118-.115-.041-.037c-3.614-3.256-4.014-8-4.185-10.031l-.017-.2c-.684-7.892 5.092-16.185 10.246-20.889 3.339-3.049 7.909-7.21 14.285-6.888 4.666.247 7.908 2.815 9.844 4.35 9.14 7.242 11.779 18.813 9.05 25.816l-.322-.126.322.126a17.162 17.162 0 0 1-4.991 6.843c-2.206 1.832-4.527 2.841-6.369 2.724a3.293 3.293 0 0 1-.908-.145 5.833 5.833 0 0 1-3.242-2.5 5.652 5.652 0 0 1-.448-4.168l.028-.1.081-.07a17.538 17.538 0 0 0 5.325-7.952 16.844 16.844 0 0 0 .322-9.24c-.018-.072-1.791-6.806-4.73-6.975-.768-.043-1.237.4-2.117 1.345a16.5 16.5 0 0 1-2.7 2.429 11.8 11.8 0 0 1-5.873 1.965c-1.606.193-2.875.344-3.693 1.557-.571.847-.652 1.72-.813 3.46l-.01.106a15.166 15.166 0 0 0 .7 5.727 16 16 0 0 0 5.161 7.4l.113.092.014.146a7.556 7.556 0 0 1-1.645 5.477 6.666 6.666 0 0 1-2.659 1.887l-.073.032a10.426 10.426 0 0 1-2.166.543 8.973 8.973 0 0 1-1.422.118zm-6.482-3.219a10.114 10.114 0 0 0 7.8 2.422 9.941 9.941 0 0 0 1.964-.483l.049-.046.088-.009a5.986 5.986 0 0 0 2.38-1.69 6.824 6.824 0 0 0 1.492-4.823 16.678 16.678 0 0 1-5.268-7.633 15.859 15.859 0 0 1-.729-5.982l.011-.13c.166-1.8.258-2.788.929-3.783.995-1.475 2.473-1.652 4.185-1.856a11.053 11.053 0 0 0 5.557-1.844 15.86 15.86 0 0 0 2.591-2.337c.884-.947 1.53-1.638 2.662-1.564 3.437.2 5.283 7.192 5.36 7.49a17.564 17.564 0 0 1-.332 9.628 18.227 18.227 0 0 1-5.452 8.2 4.923 4.923 0 0 0 .409 3.545 5.224 5.224 0 0 0 2.841 2.182 2.58 2.58 0 0 0 .7.115c1.7.086 3.893-.867 5.934-2.565a16.459 16.459 0 0 0 4.789-6.561c3.314-8.507-2.006-19.611-8.835-25.022-1.871-1.484-5-3.966-9.451-4.2-6.076-.337-10.532 3.742-13.782 6.708-5.036 4.6-10.684 12.678-10.021 20.317l.017.2c.163 1.945.547 6.5 3.925 9.545.077.069.141.126.187.175z" transform="translate(-424.203 -177.781)"/>
                                </g>
                            </g>
                            <g id="Group_536" data-name="Group 536" transform="translate(67.164 182.893)">
                                <path id="Path_84" data-name="Path 84" class="cls-4" d="M429.547 261.153a.387.387 0 0 1-.094-.012.347.347 0 0 1-.239-.427 34.839 34.839 0 0 0 1.3-10.361.346.346 0 0 1 .338-.354.355.355 0 0 1 .354.337 35.591 35.591 0 0 1-1.326 10.564.345.345 0 0 1-.333.253z" transform="translate(-429.201 -249.998)"/>
                            </g>
                            <g id="Group_537" data-name="Group 537" transform="translate(100.907 185.981)">
                                <path id="Path_85" data-name="Path 85" class="cls-3" d="M465.159 264.34a61.916 61.916 0 0 1-1.1-6.25 62.284 62.284 0 0 1-.395-4.619" transform="translate(-463.32 -253.124)"/>
                                <path id="Path_86" data-name="Path 86" class="cls-4" d="M465.154 264.682a.348.348 0 0 1-.337-.269 62.608 62.608 0 0 1-1.1-6.283c-.19-1.538-.323-3.1-.4-4.647a.346.346 0 0 1 .329-.362.364.364 0 0 1 .363.329c.072 1.528.2 3.073.392 4.594a62.1 62.1 0 0 0 1.091 6.214.346.346 0 0 1-.26.414.3.3 0 0 1-.078.01z" transform="translate(-463.317 -253.12)"/>
                            </g>
                            <g id="Group_538" data-name="Group 538" transform="translate(64.327 175.552)">
                                <path id="Path_87" data-name="Path 87" d="M426.683 242.928q7.413.264 15.241.807 10.258.722 19.765 1.84" transform="translate(-426.337 -242.58)" style="fill:#9df6a3"/>
                                <path id="Path_88" data-name="Path 88" class="cls-4" d="M461.686 245.917a.273.273 0 0 1-.041 0 439.666 439.666 0 0 0-34.979-2.646.347.347 0 0 1-.334-.358.335.335 0 0 1 .358-.333c5.058.18 10.19.452 15.254.807a444.153 444.153 0 0 1 19.78 1.843.346.346 0 0 1-.04.689z" transform="translate(-426.333 -242.576)"/>
                            </g>
                            <g id="Group_539" data-name="Group 539" transform="translate(99.283 173.25)">
                                <path id="Path_89" data-name="Path 89" class="cls-4" d="M462.02 246.036a.332.332 0 0 1-.156-.039.345.345 0 0 1-.151-.465 12.6 12.6 0 0 0 1.354-4.959.346.346 0 1 1 .69.043 13.213 13.213 0 0 1-.281 2.027 13.38 13.38 0 0 1-1.146 3.2.348.348 0 0 1-.31.193z" transform="translate(-461.675 -240.248)"/>
                            </g>
                            <g id="Group_540" data-name="Group 540" transform="translate(95.026 129.231)">
                                <path id="Path_90" data-name="Path 90" class="cls-3" d="M457.995 202.678c2.764-1.3 3.811-3.746 3.15-5.093-.533-1.086-2.113-1.333-2.484-1.383a18.686 18.686 0 0 1-.667 6.475z" transform="translate(-457.378 -195.748)"/>
                                <path id="Path_91" data-name="Path 91" class="cls-4" d="m457.371 203.4.237-.834a18.3 18.3 0 0 0 .653-6.34l-.035-.483.481.064a3.631 3.631 0 0 1 2.785 1.6 2.877 2.877 0 0 1 .023 2.217 6.287 6.287 0 0 1-3.359 3.406zm1.708-6.723a19.244 19.244 0 0 1-.042 2.39 18.983 18.983 0 0 1-.44 2.825 5.121 5.121 0 0 0 2.174-2.529 2.114 2.114 0 0 0 .013-1.607 2.509 2.509 0 0 0-1.705-1.079z" transform="translate(-457.371 -195.743)"/>
                            </g>
                            <g id="Group_541" data-name="Group 541" transform="translate(72.172 128.668)">
                                <path id="Path_92" data-name="Path 92" class="cls-3" d="M437.661 202.144c-2.581-1.309-3.482-3.77-2.753-5.14a3.384 3.384 0 0 1 2.526-1.376 18.63 18.63 0 0 0 .226 6.516z" transform="translate(-434.269 -195.178)"/>
                                <path id="Path_93" data-name="Path 93" class="cls-4" d="m438.214 202.865-.737-.374a5.878 5.878 0 0 1-3.032-3.327 3.038 3.038 0 0 1 .111-2.35 3.679 3.679 0 0 1 2.83-1.583l.507-.057-.072.505a18.248 18.248 0 0 0 .222 6.379zm-1.243-6.763a2.554 2.554 0 0 0-1.719 1.083 2.268 2.268 0 0 0-.054 1.742 4.8 4.8 0 0 0 1.909 2.43 19.014 19.014 0 0 1-.136-5.255z" transform="translate(-434.264 -195.173)"/>
                            </g>
                            <g id="Group_542" data-name="Group 542" transform="translate(68.795 163.959)">
                                <path id="Path_94" data-name="Path 94" class="cls-4" d="M458.17 253.611h-.358a87.955 87.955 0 0 1-9.25-.385c-5.639-.7-11.5-1.568-17.424-2.579a.346.346 0 0 1-.283-.4.341.341 0 0 1 .4-.283 389.455 389.455 0 0 0 17.391 2.573 86.414 86.414 0 0 0 9.169.382c4.284-.026 5.773-.225 7.272-1.154a10.3 10.3 0 0 0 3.6-4.619c2.567-5.607 2.162-11.729 1.37-15.88a.346.346 0 1 1 .679-.129c.811 4.249 1.223 10.525-1.42 16.3a10.958 10.958 0 0 1-3.859 4.92c-1.699 1.043-3.42 1.254-7.287 1.254z" transform="translate(-430.85 -230.855)"/>
                            </g>
                            <g id="Group_543" data-name="Group 543" transform="translate(56.594 150.375)">
                                <path id="Path_95" data-name="Path 95" class="cls-3" d="M430.383 238.811c-1.4 1.22-3.568.85-5.647.494-2.814-.482-5.14-.88-5.755-2.385-.442-1.079.2-2.226 5.207-8.579 4.573-5.8 5.352-6.512 6.413-7.236a18.25 18.25 0 0 1 8.374-2.99l.554-.218a37.243 37.243 0 0 1 5.489 8.635c.57 1.276 1.248 2.812 2.137 2.8.733-.013 1.064-1.076 2.85-4.3a39.039 39.039 0 0 1 2.741-4.468 23.061 23.061 0 0 1 2.716-3.065c.085.013.214.032.368.057a21.336 21.336 0 0 1 11 5.474c.94.906 2.3 3.153 5.016 7.647 2.821 4.665 3.165 5.816 2.768 6.934-.8 2.241-4.054 2.908-5.646 3.234-2.037.416-5.862.646-6.855-1.15-.364-.66-.046-1.047-.082-2.878a15.586 15.586 0 0 0-.682-4.3" transform="translate(-418.518 -217.125)"/>
                                <path id="Path_96" data-name="Path 96" class="cls-4" d="M466.1 241.476c-1.79 0-3.6-.379-4.287-1.624a2.221 2.221 0 0 1-.186-1.449 13.719 13.719 0 0 0 .059-1.588 15.269 15.269 0 0 0-.667-4.207.346.346 0 0 1 .661-.207 15.975 15.975 0 0 1 .7 4.4 14.552 14.552 0 0 1-.062 1.66 1.621 1.621 0 0 0 .1 1.056c.84 1.521 4.337 1.418 6.482.979 1.512-.31 4.659-.952 5.388-3.011.349-.981-.012-2.131-2.738-6.641-2.7-4.462-4.052-6.7-4.959-7.576a20.887 20.887 0 0 0-10.82-5.382l-.2-.031a22.823 22.823 0 0 0-2.552 2.9 39.077 39.077 0 0 0-2.717 4.43c-.432.781-.779 1.435-1.067 1.978-.961 1.812-1.32 2.49-2.08 2.5-1.088.03-1.819-1.565-2.443-2.964a37.193 37.193 0 0 0-5.3-8.4l-.409.148a17.72 17.72 0 0 0-8.215 2.933c-.979.667-1.705 1.288-6.337 7.164-4.916 6.235-5.517 7.359-5.16 8.233.543 1.327 2.837 1.719 5.492 2.174 2.012.345 4.086.7 5.363-.412a.346.346 0 0 1 .455.522c-1.525 1.326-3.764.944-5.929.575-2.863-.492-5.332-.914-6.02-2.6-.523-1.277.215-2.529 5.256-8.925 4.489-5.7 5.346-6.527 6.49-7.307a18.4 18.4 0 0 1 8.486-3.043l.743-.292.16.193a38.028 38.028 0 0 1 5.539 8.714c.5 1.116 1.158 2.591 1.809 2.591h.007c.351-.007.7-.673 1.48-2.135.29-.546.639-1.2 1.074-1.99a39.63 39.63 0 0 1 2.765-4.505 23.48 23.48 0 0 1 2.756-3.112l.122-.115.54.082a21.6 21.6 0 0 1 11.189 5.567c.972.938 2.343 3.2 5.072 7.718 2.914 4.82 3.242 5.98 2.8 7.229-.86 2.426-4.266 3.122-5.9 3.457a15.167 15.167 0 0 1-2.94.313z" transform="translate(-418.514 -217.121)"/>
                            </g>
                            <g id="Group_544" data-name="Group 544" transform="translate(93.075 150.675)">
                                <path id="Path_97" data-name="Path 97" class="cls-7" d="M455.748 225.561q.393-2 .72-4.179.276-1.857.462-3.607" transform="translate(-455.402 -217.428)"/>
                                <path id="Path_98" data-name="Path 98" class="cls-4" d="M455.745 225.9a.386.386 0 0 1-.067-.006.345.345 0 0 1-.273-.406 90.804 90.804 0 0 0 1.177-7.756.34.34 0 0 1 .382-.306.347.347 0 0 1 .308.381 92.65 92.65 0 0 1-1.188 7.815.345.345 0 0 1-.339.278z" transform="translate(-455.398 -217.424)"/>
                            </g>
                            <g id="Group_545" data-name="Group 545" transform="translate(84.901 158.424)">
                                <path id="Path_99" data-name="Path 99" class="cls-4" d="M458.52 240.938a5.006 5.006 0 0 1-1.9-.462.346.346 0 1 1 .269-.637c1.1.463 1.914.529 2.413.195 1.1-.733 1.325-3.761.538-7.2-.737-3.219-2.36-6.589-4.324-6.861-1.9-.271-4.294 2.317-5.837 4.992-1.683 2.922-2.305 5.812-1.478 6.873a2.758 2.758 0 0 0 2.369.663.342.342 0 0 1 .363.328.347.347 0 0 1-.328.363 3.339 3.339 0 0 1-2.948-.928c-1.267-1.622-.025-5.132 1.423-7.644 1.537-2.666 4.167-5.655 6.533-5.333 2.448.34 4.171 4.195 4.9 7.393s.757 6.878-.828 7.933a2.047 2.047 0 0 1-1.165.325z" transform="translate(-447.134 -225.259)"/>
                            </g>
                            <g id="Group_546" data-name="Group 546" transform="translate(74.635 151.433)">
                                <path id="Path_100" data-name="Path 100" class="cls-7" d="M437.105 218.54a51.733 51.733 0 0 0 2.22 12.307" transform="translate(-436.758 -218.194)"/>
                                <path id="Path_101" data-name="Path 101" class="cls-4" d="M439.322 231.189a.347.347 0 0 1-.331-.243 52.137 52.137 0 0 1-2.235-12.389.349.349 0 0 1 .326-.367.365.365 0 0 1 .366.325 51.379 51.379 0 0 0 2.2 12.226.345.345 0 0 1-.228.432.336.336 0 0 1-.098.016z" transform="translate(-436.755 -218.19)"/>
                            </g>
                            <g id="Group_549" data-name="Group 549" transform="translate(75.17 163.041)">
                                <g id="Group_547" data-name="Group 547" transform="translate(.347 .346)">
                                    <circle id="Ellipse_463" data-name="Ellipse 463" class="cls-8" cx="2.035" cy="2.035" r="2.035"/>
                                </g>
                                <g id="Group_548" data-name="Group 548">
                                    <path id="Path_102" data-name="Path 102" class="cls-4" d="M439.677 234.688a2.381 2.381 0 1 1 2.382-2.381 2.384 2.384 0 0 1-2.382 2.381zm0-4.07a1.689 1.689 0 1 0 1.689 1.689 1.691 1.691 0 0 0-1.689-1.689z" transform="translate(-437.295 -229.927)"/>
                                </g>
                            </g>
                            <g id="Group_552" data-name="Group 552" transform="translate(86.515 170.357)">
                                <g id="Group_550" data-name="Group 550" transform="translate(.346 .346)">
                                    <circle id="Ellipse_464" data-name="Ellipse 464" class="cls-8" cx="1.242" cy="1.242" r="1.242"/>
                                </g>
                                <g id="Group_551" data-name="Group 551">
                                    <path id="Path_103" data-name="Path 103" class="cls-4" d="M450.354 240.5a1.588 1.588 0 1 1 1.588-1.587 1.59 1.59 0 0 1-1.588 1.587zm0-2.485a.9.9 0 1 0 .9.9.9.9 0 0 0-.9-.9z" transform="translate(-448.766 -237.324)"/>
                                </g>
                            </g>
                            <g id="Group_555" data-name="Group 555" transform="translate(93.285 171.66)">
                                <g id="Group_553" data-name="Group 553" transform="translate(.346 .345)">
                                    <circle id="Ellipse_465" data-name="Ellipse 465" class="cls-8" cx="1.242" cy="1.242" r="1.242"/>
                                </g>
                                <g id="Group_554" data-name="Group 554">
                                    <path id="Path_104" data-name="Path 104" class="cls-4" d="M457.2 241.817a1.588 1.588 0 1 1 1.588-1.588 1.59 1.59 0 0 1-1.588 1.588zm0-2.485a.9.9 0 1 0 .9.9.9.9 0 0 0-.9-.9z" transform="translate(-455.611 -238.641)"/>
                                </g>
                            </g>
                            <g id="Group_556" data-name="Group 556" transform="translate(68.058 162.548)">
                                <path id="Line_23" data-name="Line 23" class="cls-7" transform="translate(.346 .345)" d="M0 9.908 3.042 0"/>
                                <path id="Path_105" data-name="Path 105" class="cls-4" d="M430.45 240.027a.355.355 0 0 1-.1-.014.347.347 0 0 1-.229-.433l3.042-9.907a.352.352 0 0 1 .432-.23.347.347 0 0 1 .229.433l-3.042 9.907a.346.346 0 0 1-.332.244z" transform="translate(-430.104 -229.429)"/>
                            </g>
                            <g id="Group_559" data-name="Group 559" transform="translate(102.448 164.257)">
                                <g id="Group_557" data-name="Group 557" transform="translate(.346 .346)">
                                    <path id="Path_106" data-name="Path 106" class="cls-8" d="m470.816 233.271-1 .219a.324.324 0 0 1-.391-.237l-.211-.95a1.039 1.039 0 0 0-2.036.4l.219.984a.326.326 0 0 1-.259.382l-1.065.231a1.032 1.032 0 0 0-.823 1.2 1.032 1.032 0 0 0 1.255.741l1.063-.24a.325.325 0 0 1 .4.235l.213.958a1 1 0 0 0 .987.781 1.04 1.04 0 0 0 1.04-1.225l-.217-.975a.324.324 0 0 1 .253-.381l1-.227a1 1 0 0 0 .776-1.171 1 1 0 0 0-1.204-.725z" transform="translate(-465.225 -231.506)"/>
                                </g>
                                <g id="Group_558" data-name="Group 558">
                                    <path id="Path_107" data-name="Path 107" class="cls-4" d="M469.147 238.326a1.353 1.353 0 0 1-1.313-1.052l-.213-.958-1.044.268a1.443 1.443 0 0 1-1.087-.184 1.293 1.293 0 0 1-.4-1.81 1.445 1.445 0 0 1 .907-.626l1.064-.231-.224-.952a1.3 1.3 0 0 1 .27-1.107 1.424 1.424 0 0 1 1.128-.516 1.381 1.381 0 0 1 1.314 1.069l.211.949.98-.244a1.322 1.322 0 1 1 .574 2.58l-1 .227.225.942a1.321 1.321 0 0 1-.264 1.109 1.428 1.428 0 0 1-1.111.539zm-1.506-2.676a.674.674 0 0 1 .35.1.648.648 0 0 1 .307.419l.213.957a.656.656 0 0 0 .637.512h.008a.739.739 0 0 0 .576-.277.628.628 0 0 0 .13-.528l-.217-.975a.673.673 0 0 1 .513-.793l1-.228a.65.65 0 0 0 .514-.759.657.657 0 0 0-.787-.469l-1 .218a.673.673 0 0 1-.8-.5l-.211-.949a.681.681 0 0 0-.649-.528.707.707 0 0 0-.582.262.609.609 0 0 0-.13.518l.219.985a.65.65 0 0 1-.088.494.685.685 0 0 1-.436.3l-1.064.232a.751.751 0 0 0-.471.322.6.6 0 0 0 .19.853.748.748 0 0 0 .563.093l1.062-.24a.693.693 0 0 1 .152-.02z" transform="translate(-464.875 -231.156)"/>
                                </g>
                            </g>
                        </g>
                    </g>
                </g>
                <path id="Path_131" data-name="Path 131" d="M861.733 93.725c.27 1.213 1 4.473-.918 7.108-2.631 3.622-8.011 2.98-8.731 2.883-3.992-.538-9.886-3.677-9.99-9.65a9.821 9.821 0 0 1 9.649-9.99c6.15-.107 9.227 6.224 9.99 9.649z" transform="translate(-755.205 72.126)" style="fill:#ff8e93;opacity:.5;mix-blend-mode:multiply;isolation:isolate"/>
            </g>
        </g>
    </g>
</svg>
