<svg xmlns="http://www.w3.org/2000/svg" xmlns:xlink="http://www.w3.org/1999/xlink" width="100" height="100" viewBox="0 0 100 100">
  <defs>
    <style>
      .cls-1, .cls-6, .cls-8 {
        fill: none;
      }

      .cls-2 {
        opacity: 0.05;
        fill: url(#linear-gradient);
      }

      .cls-3 {
        fill: #fff;
      }

      .cls-4 {
        fill: #2d2d2d;
      }

      .cls-5 {
        fill: #474747;
      }

      .cls-6, .cls-8 {
        stroke: #2d2d2d;
        stroke-miterlimit: 10;
      }

      .cls-6 {
        stroke-width: 0.7px;
      }

      .cls-10, .cls-7 {
        fill: #ff8e93;
      }

      .cls-8 {
        stroke-linecap: round;
        stroke-width: 0.618px;
      }

      .cls-9 {
        mix-blend-mode: multiply;
        isolation: isolate;
      }

      .cls-10 {
        opacity: 0.5;
      }
    </style>
    <linearGradient id="linear-gradient" x1="0.5" x2="0.5" y2="1" gradientUnits="objectBoundingBox">
      <stop offset="0" stop-color="#1778f2"/>
      <stop offset="1" stop-color="#f40009"/>
    </linearGradient>
  </defs>
  <g id="Group_124984" data-name="Group 124984" transform="translate(-48 -1239)">
    <rect id="Rectangle_10357" data-name="Rectangle 10357" class="cls-1" width="100" height="100" transform="translate(48 1239)"/>
    <g id="Group_124917" data-name="Group 124917">
      <path id="Path_153250" data-name="Path 153250" class="cls-2" d="M32.3,83.491A105.79,105.79,0,0,1,17.2,70.917,105.57,105.57,0,0,1,4.909,56.1,17.251,17.251,0,0,1,0,44.2,16.783,16.783,0,0,1,4.909,32.3,144.539,144.539,0,0,1,32.3,4.909,17.263,17.263,0,0,1,44.2,0,16.781,16.781,0,0,1,56.1,4.909a164.255,164.255,0,0,1,13.841,12.23A164.608,164.608,0,0,1,83.491,32.3,17.24,17.24,0,0,1,88.4,44.2a16.782,16.782,0,0,1-4.909,11.9A163.679,163.679,0,0,1,69.255,71.955,164.629,164.629,0,0,1,56.1,83.491a17.386,17.386,0,0,1-7.239,4.259,16.564,16.564,0,0,1-4.664.65,17.462,17.462,0,0,1-5.792-1.133A18.7,18.7,0,0,1,32.3,83.491Z" transform="translate(56.375 1240)"/>
      <g id="Group_75806" data-name="Group 75806" transform="translate(-2009.595 1200.954)">
        <g id="Group_6197" data-name="Group 6197" transform="translate(2097.014 78.412)">
          <path id="Path_385" data-name="Path 385" class="cls-3" d="M2115.168,90.7l-7.812,14.44c-1.023-.336-7.189-2.459-8.341-7.452a7.323,7.323,0,0,1-.181-1.859q5.01-7.575,10.021-15.149Z" transform="translate(-2098.832 -80.677)"/>
        </g>
        <g id="Group_6198" data-name="Group 6198" transform="translate(2088.186 79.717)">
          <path id="Path_386" data-name="Path 386" class="cls-4" d="M2089.778,107.144a.354.354,0,0,1-.088-.011.331.331,0,0,1-.231-.406c.765-2.781,1.889-4.7,3.432-5.855.087-.093.15-.15.247-.237s.206-.187.435-.4a59.759,59.759,0,0,0,5.528-6.072,48.369,48.369,0,0,0,3.423-4.928,53.916,53.916,0,0,0,3.564-6.966.329.329,0,0,1,.606.258,54.448,54.448,0,0,1-3.608,7.05,48.851,48.851,0,0,1-3.468,5,60.175,60.175,0,0,1-5.591,6.14c-.235.225-.355.335-.446.416s-.144.131-.256.244c-1.46,1.1-2.506,2.9-3.229,5.536A.331.331,0,0,1,2089.778,107.144Z" transform="translate(-2089.448 -82.064)"/>
        </g>
        <g id="Group_6199" data-name="Group 6199" transform="translate(2093.355 47.652)">
          <ellipse id="Ellipse_5830" data-name="Ellipse 5830" class="cls-3" cx="16.489" cy="21.531" rx="16.489" ry="21.531" transform="translate(0 5.264) rotate(-9.185)"/>
          <path id="Path_387" data-name="Path 387" class="cls-4" d="M2116.233,93.752c-9.054,0-17.176-9.271-18.252-21h0c-.623-6.788,1.192-13.168,4.978-17.5a13.775,13.775,0,0,1,9.892-4.977c9.3-.391,17.729,9.013,18.827,20.987.623,6.788-1.192,13.167-4.978,17.5a13.773,13.773,0,0,1-9.891,4.978C2116.616,93.747,2116.425,93.752,2116.233,93.752Zm-2.805-42.834q-.273,0-.548.012a13.129,13.129,0,0,0-9.423,4.752c-3.67,4.2-5.425,10.4-4.819,17.01h0c1.065,11.629,9.192,20.791,18.141,20.389a13.133,13.133,0,0,0,9.425-4.753c3.668-4.2,5.424-10.4,4.817-17.008C2129.977,59.927,2122.148,50.918,2113.428,50.918Z" transform="translate(-2095.115 -48.119)"/>
        </g>
        <g id="Group_6202" data-name="Group 6202" transform="translate(2086.876 42.368)">
          <g id="Group_6200" data-name="Group 6200" transform="translate(0.328 0.33)">
            <path id="Path_388" data-name="Path 388" class="cls-5" d="M2127.877,51.781c2.067,8.38-12.033,20.536-20.255,17.665-2.6-.906-4.524-3.283-5.919-2.407-1.378.866-1.479,4.435-.026,6.774,1.377,2.218,3.193,1.888,4.218,3.683,1.669,2.921-.312,8.719-3.266,9.555-3.99,1.129-10.471-6.588-12.908-14.008a23.264,23.264,0,0,1-.136-14.949c3.722-10.875,14.369-14.265,15.306-14.532a24.627,24.627,0,0,1,16.679,1.514C2126.485,47.721,2127.561,50.5,2127.877,51.781Z" transform="translate(-2088.405 -42.72)"/>
          </g>
          <g id="Group_6201" data-name="Group 6201" transform="translate(0)">
            <path id="Path_389" data-name="Path 389" class="cls-4" d="M2101.8,87.468c-4.239,0-10.145-7.437-12.414-14.343a23.372,23.372,0,0,1-.134-15.158c3.867-11.3,15.052-14.606,15.527-14.743a24.88,24.88,0,0,1,16.906,1.531c3.614,1.945,5.851,4.336,6.488,6.926,1.128,4.57-2.319,9.7-5.92,12.977-4.937,4.492-10.728,6.487-14.762,5.077a13.871,13.871,0,0,1-2.838-1.5c-1.191-.758-2.135-1.36-2.8-.937-1.158.727-1.334,4.049.077,6.322a5.262,5.262,0,0,0,2.218,1.94,4.558,4.558,0,0,1,2.007,1.754c.9,1.567.865,4.069-.079,6.377a5.83,5.83,0,0,1-3.384,3.657A3.264,3.264,0,0,1,2101.8,87.468Zm9.17-44.44a21.889,21.889,0,0,0-6.01.831c-.46.132-11.327,3.346-15.084,14.322a22.732,22.732,0,0,0,.137,14.739c2.529,7.706,8.959,14.794,12.5,13.793a5.28,5.28,0,0,0,2.953-3.272c.869-2.126.916-4.4.116-5.8a3.927,3.927,0,0,0-1.754-1.5,5.889,5.889,0,0,1-2.458-2.169c-1.521-2.449-1.452-6.232.132-7.227,1.024-.643,2.17.091,3.5.94a13.419,13.419,0,0,0,2.7,1.436c4.332,1.509,10.2-1.394,14.1-4.943,4.416-4.019,6.609-8.744,5.724-12.332h0c-.593-2.4-2.716-4.65-6.143-6.494A25.584,25.584,0,0,0,2110.971,43.028Z" transform="translate(-2088.056 -42.368)"/>
          </g>
        </g>
        <g id="Group_6203" data-name="Group 6203" transform="translate(2108.936 92.062)">
          <path id="Path_390" data-name="Path 390" class="cls-6" d="M2111.5,95.185" transform="translate(-2111.503 -95.185)"/>
        </g>
        <g id="Group_6204" data-name="Group 6204" transform="translate(2088.985 98.889)">
          <path id="Path_391" data-name="Path 391" class="cls-3" d="M2110.009,105.673q3.755,12.047,7.509,24.092l-20.6.1-6.623-5.214,1.721-10.951,2.4-8.135c.451-.359,6.1-4.72,11.837-2.5A9.99,9.99,0,0,1,2110.009,105.673Z" transform="translate(-2090.298 -102.44)"/>
        </g>
        <g id="Group_6222" data-name="Group 6222" transform="translate(2089.891 48.094)">
          <g id="Group_6205" data-name="Group 6205" transform="translate(0.745 0.56)">
            <path id="Path_392" data-name="Path 392" class="cls-7" d="M2114.619,51.9a5.221,5.221,0,0,0-7.773-1.82,6.61,6.61,0,0,0-4.81.367,6.425,6.425,0,0,0-2.023,1.546,7.725,7.725,0,0,0-6.822,7.685,5.292,5.292,0,0,0-1.134,2.449,5.828,5.828,0,0,0,1.908,4.583,5.517,5.517,0,0,0,3.208,1.283,2.7,2.7,0,0,0,.714.675,3.253,3.253,0,0,0,1.623.455c.458.036.7.064.87.273.287.358.143,1,0,1.629-.16.721-.327,1.465.227,1.879.317.238.732.193,1.658.091a9.483,9.483,0,0,0,1.089-.155,1.939,1.939,0,0,0,.457-.167c.781-.4.955-1.205,1.139-2.053a8.029,8.029,0,0,1,.341-1.241,5.772,5.772,0,0,1,2.536-2.745,5.447,5.447,0,0,0,.952-.067c.093-.014.22-.039.375-.076a6.38,6.38,0,0,0,2.116-.952,6.2,6.2,0,0,0,1.783-1.756,7.575,7.575,0,0,0,5.958-2.506,5.556,5.556,0,0,0,1.465-4.439C2120.1,54.34,2117.7,52.324,2114.619,51.9Z" transform="translate(-2092.052 -49.049)"/>
          </g>
          <g id="Group_6221" data-name="Group 6221" transform="translate(0)">
            <g id="Group_6206" data-name="Group 6206" transform="translate(21.579 3.006)">
              <path id="Path_393" data-name="Path 393" class="cls-4" d="M2114.95,63.981c-.216,0-.381-.008-.484-.016a.29.29,0,0,1-.269-.31.283.283,0,0,1,.309-.269A7.39,7.39,0,0,0,2120.511,61a5.272,5.272,0,0,0,1.4-4.135c-.356-2.361-2.709-4.269-5.722-4.639a.292.292,0,0,1-.253-.325.3.3,0,0,1,.324-.253c3.27.4,5.831,2.513,6.226,5.131a5.834,5.834,0,0,1-1.522,4.592A7.809,7.809,0,0,1,2114.95,63.981Z" transform="translate(-2114.196 -51.649)"/>
            </g>
            <g id="Group_6207" data-name="Group 6207" transform="translate(14.019)">
              <path id="Path_394" data-name="Path 394" class="cls-4" d="M2116.155,54.552h-.012a.291.291,0,0,1-.278-.3A4.911,4.911,0,0,0,2106.7,51.5a.29.29,0,1,1-.5-.3,5.491,5.491,0,0,1,10.243,3.071A.291.291,0,0,1,2116.155,54.552Z" transform="translate(-2106.161 -48.454)"/>
            </g>
            <g id="Group_6208" data-name="Group 6208" transform="translate(1.443 10.669)">
              <path id="Path_395" data-name="Path 395" class="cls-8" d="M2092.795,59.793" transform="translate(-2092.795 -59.793)"/>
            </g>
            <g id="Group_6209" data-name="Group 6209" transform="translate(7.094 0.789)">
              <path id="Path_396" data-name="Path 396" class="cls-4" d="M2099.09,54.082a.265.265,0,0,1-.1-.02.289.289,0,0,1-.167-.374,6.826,6.826,0,0,1,8.562-4.043.291.291,0,0,1-.185.551,6.44,6.44,0,0,0-4.728.3,6.355,6.355,0,0,0-3.107,3.4A.29.29,0,0,1,2099.09,54.082Z" transform="translate(-2098.801 -49.293)"/>
            </g>
            <g id="Group_6210" data-name="Group 6210" transform="translate(5.623 12.87)">
              <path id="Path_397" data-name="Path 397" class="cls-4" d="M2101.825,68.18a2.422,2.422,0,0,1-.808-.135,2.666,2.666,0,0,1-1.713-2.22.289.289,0,0,1,.254-.323.278.278,0,0,1,.323.254,2.084,2.084,0,0,0,1.329,1.742,2.024,2.024,0,0,0,2.433-.98,2.46,2.46,0,0,0-.5-2.292,3.409,3.409,0,0,0-3.1-1.474,3.256,3.256,0,0,0-2.253,1.77.29.29,0,0,1-.525-.247,3.853,3.853,0,0,1,2.682-2.1,4.034,4.034,0,0,1,3.673,1.718,2.97,2.97,0,0,1,.549,2.868A2.609,2.609,0,0,1,2101.825,68.18Z" transform="translate(-2097.237 -62.132)"/>
            </g>
            <g id="Group_6211" data-name="Group 6211" transform="translate(12.171 7.505)">
              <path id="Path_398" data-name="Path 398" class="cls-4" d="M2108.7,67.289a7.188,7.188,0,0,1-4.4-1.684.29.29,0,0,1,.373-.445,6.356,6.356,0,0,0,4.838,1.484,5.9,5.9,0,0,0,2.342-.97,4.971,4.971,0,0,0,2.245-3,4.632,4.632,0,0,0-.718-3.452,4.3,4.3,0,0,0-2.576-2.108c-1.275-.3-3.037.088-3.311,1.009a1.418,1.418,0,0,0,.224,1.082.29.29,0,0,1-.5.289,1.974,1.974,0,0,1-.278-1.537c.373-1.249,2.423-1.775,4-1.408a4.832,4.832,0,0,1,2.94,2.366,5.189,5.189,0,0,1,.792,3.88,5.5,5.5,0,0,1-2.481,3.359,6.486,6.486,0,0,1-2.582,1.065A5.68,5.68,0,0,1,2108.7,67.289Z" transform="translate(-2104.197 -56.431)"/>
            </g>
            <g id="Group_6212" data-name="Group 6212" transform="translate(1.208 3.106)">
              <path id="Path_399" data-name="Path 399" class="cls-4" d="M2092.835,60.246a.291.291,0,0,1-.29-.284,8.056,8.056,0,0,1,7.222-8.205.291.291,0,1,1,.06.579,7.475,7.475,0,0,0-6.7,7.615.29.29,0,0,1-.284.3Z" transform="translate(-2092.544 -51.755)"/>
            </g>
            <g id="Group_6213" data-name="Group 6213" transform="translate(0 9.415)">
              <path id="Path_400" data-name="Path 400" class="cls-4" d="M2096.7,68.857h-.013a5.739,5.739,0,0,1-3.449-1.333,6.028,6.028,0,0,1-1.971-4.742,5.234,5.234,0,0,1,1.519-2.922,5.8,5.8,0,0,1,5.139-1.247.291.291,0,0,1-.138.565,5.306,5.306,0,0,0-4.6,1.1,4.65,4.65,0,0,0-1.344,2.567,5.43,5.43,0,0,0,1.772,4.235,5.16,5.16,0,0,0,3.1,1.195.29.29,0,0,1-.013.581Z" transform="translate(-2091.261 -58.46)"/>
            </g>
            <g id="Group_6214" data-name="Group 6214" transform="translate(4.499 16.81)">
              <path id="Path_401" data-name="Path 401" class="cls-4" d="M2101.172,74.707a.952.952,0,0,1-.607-.153c-.512-.383-.353-1.092-.185-1.843.155-.7.317-1.418-.031-1.854-.214-.269-.515-.3-1.03-.345a3.343,3.343,0,0,1-1.651-.46,4.26,4.26,0,0,1-1.623-3.413.29.29,0,0,1,.262-.316.285.285,0,0,1,.316.263,3.737,3.737,0,0,0,1.358,2.978,2.787,2.787,0,0,0,1.384.37,1.82,1.82,0,0,1,1.439.562,2.731,2.731,0,0,1,.144,2.343c-.12.537-.244,1.093-.033,1.251a3.552,3.552,0,0,0,1.218-.043,4.365,4.365,0,0,0,1.406-.266c.522-.271.659-.894.831-1.683a9.06,9.06,0,0,1,.4-1.429,6.842,6.842,0,0,1,3.015-3.288.291.291,0,0,1,.3.5,6.263,6.263,0,0,0-2.771,3,8.471,8.471,0,0,0-.371,1.341c-.189.865-.366,1.68-1.132,2.077a4.53,4.53,0,0,1-1.6.326C2101.757,74.671,2101.426,74.707,2101.172,74.707Z" transform="translate(-2096.042 -66.32)"/>
            </g>
            <g id="Group_6215" data-name="Group 6215" transform="translate(15.542 3.578)">
              <path id="Path_402" data-name="Path 402" class="cls-4" d="M2112.927,54.654a.29.29,0,0,1-.274-.193,2.411,2.411,0,0,0-2.225-1.623h-.062a2.359,2.359,0,0,0-2.036,1.347.291.291,0,1,1-.521-.258,2.939,2.939,0,0,1,2.541-1.67,3.006,3.006,0,0,1,2.851,2.008.291.291,0,0,1-.274.388Z" transform="translate(-2107.779 -52.257)"/>
            </g>
            <g id="Group_6216" data-name="Group 6216" transform="translate(22.27 7.379)">
              <path id="Path_403" data-name="Path 403" class="cls-4" d="M2117.495,58.539a2.485,2.485,0,0,1-.3-.018,2.764,2.764,0,0,1-2.248-1.837.291.291,0,1,1,.548-.195,2.12,2.12,0,0,0,4.029.02.286.286,0,0,1,.375-.167.29.29,0,0,1,.167.374A2.781,2.781,0,0,1,2117.495,58.539Z" transform="translate(-2114.929 -56.297)"/>
            </g>
            <g id="Group_6217" data-name="Group 6217" transform="translate(6.794 3.898)">
              <path id="Path_404" data-name="Path 404" class="cls-4" d="M2100.331,57.588a3.756,3.756,0,0,1-1.69-.4.292.292,0,0,1-.129-.39.3.3,0,0,1,.391-.129,3.144,3.144,0,0,0,4.441-3.7.291.291,0,1,1,.559-.162,3.717,3.717,0,0,1-3.571,4.782Z" transform="translate(-2098.481 -52.597)"/>
            </g>
            <g id="Group_6218" data-name="Group 6218" transform="translate(9.506 8.017)">
              <path id="Path_405" data-name="Path 405" class="cls-4" d="M2102.935,60.1a.289.289,0,0,1-.083-.012,2.153,2.153,0,0,1-1.374-1.3,2.124,2.124,0,0,1,.129-1.661.29.29,0,1,1,.513.272,1.536,1.536,0,0,0-.095,1.2,1.582,1.582,0,0,0,.993.935.291.291,0,0,1-.084.569Z" transform="translate(-2101.364 -56.975)"/>
            </g>
            <g id="Group_6219" data-name="Group 6219" transform="translate(13.826 6.808)">
              <path id="Path_406" data-name="Path 406" class="cls-4" d="M2108,57.436a2.183,2.183,0,0,1-2.026-1.345.291.291,0,0,1,.537-.224,1.6,1.6,0,0,0,1.563.985h.015a.29.29,0,0,1,.014.581C2108.075,57.435,2108.041,57.436,2108,57.436Z" transform="translate(-2105.955 -55.69)"/>
            </g>
            <g id="Group_6220" data-name="Group 6220" transform="translate(13.311 11.551)">
              <path id="Path_407" data-name="Path 407" class="cls-4" d="M2108.228,63.83a3,3,0,0,1-2.8-2.026.29.29,0,1,1,.548-.193,2.369,2.369,0,0,0,4.62-.613.28.28,0,0,1,.313-.267.29.29,0,0,1,.266.312,3.01,3.01,0,0,1-2.751,2.78C2108.356,63.827,2108.293,63.83,2108.228,63.83Z" transform="translate(-2105.408 -60.73)"/>
            </g>
          </g>
        </g>
        <g id="Group_6223" data-name="Group 6223" transform="translate(2085.923 94.928)">
          <path id="Path_408" data-name="Path 408" class="cls-3" d="M2115.574,130.058a39.7,39.7,0,0,1-4.276-12.15c-.985-5.712-.353-10.037-3.651-13.923a15.416,15.416,0,0,0-3.6-3.025,16.408,16.408,0,0,0-7.666-2.373,17.6,17.6,0,0,0-3.493,3.1,19.785,19.785,0,0,0-3.937,7.926c-2.21,7.907-1.487,17.216-1.251,19.789" transform="translate(-2087.064 -98.252)"/>
          <path id="Path_409" data-name="Path 409" class="cls-4" d="M2115.553,130.367a.333.333,0,0,1-.291-.173,40.451,40.451,0,0,1-4.31-12.249c-.269-1.558-.415-2.99-.558-4.375-.379-3.707-.679-6.636-3.019-9.392a15.3,15.3,0,0,0-3.52-2.957,16.093,16.093,0,0,0-7.4-2.318,17.245,17.245,0,0,0-3.337,2.983,20.232,20.232,0,0,0-3.87,7.8c-2.067,7.392-1.556,16.22-1.241,19.67a.329.329,0,0,1-.3.358.336.336,0,0,1-.358-.3c-.4-4.334-.758-12.681,1.263-19.908a20.875,20.875,0,0,1,4-8.054,17.941,17.941,0,0,1,3.56-3.16l.092-.063.111.007a16.755,16.755,0,0,1,7.819,2.422,15.723,15.723,0,0,1,3.677,3.092c2.471,2.912,2.8,6.081,3.173,9.75.141,1.375.286,2.8.551,4.33a39.775,39.775,0,0,0,4.242,12.05.328.328,0,0,1-.29.485Z" transform="translate(-2087.044 -98.231)"/>
        </g>
        <g id="Group_6224" data-name="Group 6224" transform="translate(2106.255 92.407)">
          <path id="Path_410" data-name="Path 410" class="cls-3" d="M2113.906,95.9c-.927,1.175-1.882,2.487-2.829,3.937-.776,1.187-1.464,2.341-2.073,3.442" transform="translate(-2108.674 -95.572)"/>
          <path id="Path_411" data-name="Path 411" class="cls-4" d="M2108.983,103.588a.335.335,0,0,1-.159-.04.33.33,0,0,1-.129-.448c.646-1.168,1.347-2.332,2.086-3.462.887-1.359,1.845-2.692,2.846-3.961a.329.329,0,1,1,.517.407c-.988,1.254-1.935,2.571-2.811,3.913-.729,1.118-1.424,2.268-2.06,3.421A.331.331,0,0,1,2108.983,103.588Z" transform="translate(-2108.654 -95.551)"/>
        </g>
        <g id="Group_6225" data-name="Group 6225" class="cls-9" transform="translate(2099.142 57.204)">
          <path id="Path_412" data-name="Path 412" class="cls-10" d="M2120.305,67.577c.264,1.186.975,4.375-.9,6.953-2.573,3.543-7.837,2.915-8.541,2.82-3.905-.525-9.672-3.6-9.773-9.439a9.607,9.607,0,0,1,9.439-9.773C2116.55,58.033,2119.561,64.227,2120.305,67.577Z" transform="translate(-2101.093 -58.137)"/>
        </g>
      </g>
    </g>
  </g>
</svg>
