<svg xmlns="http://www.w3.org/2000/svg" xmlns:xlink="http://www.w3.org/1999/xlink" width="100" height="100" viewBox="0 0 100 100">
  <defs>
    <style>
      .cls-1 {
        fill: none;
      }

      .cls-2 {
        opacity: 0.05;
        fill: url(#linear-gradient);
      }

      .cls-3 {
        fill: #fff;
      }

      .cls-4 {
        fill: #211f20;
      }

      .cls-5 {
        fill: #474747;
      }

      .cls-6 {
        fill: #2d2d2d;
      }

      .cls-7 {
        mix-blend-mode: multiply;
        isolation: isolate;
      }

      .cls-8 {
        fill: #ff8e93;
        opacity: 0.5;
      }
    </style>
    <linearGradient id="linear-gradient" x1="0.5" x2="0.5" y2="1" gradientUnits="objectBoundingBox">
      <stop offset="0" stop-color="#1778f2"/>
      <stop offset="1" stop-color="#f40009"/>
    </linearGradient>
  </defs>
  <g id="Group_124981" data-name="Group 124981" transform="translate(-216 -859)">
    <rect id="Rectangle_10353" data-name="Rectangle 10353" class="cls-1" width="100" height="100" transform="translate(216 859)"/>
    <g id="Group_124907" data-name="Group 124907">
      <path id="Path_153246" data-name="Path 153246" class="cls-2" d="M32.3,83.491A105.79,105.79,0,0,1,17.2,70.917,105.57,105.57,0,0,1,4.909,56.1,17.251,17.251,0,0,1,0,44.2,16.783,16.783,0,0,1,4.909,32.3,144.539,144.539,0,0,1,32.3,4.909,17.263,17.263,0,0,1,44.2,0,16.781,16.781,0,0,1,56.1,4.909a164.255,164.255,0,0,1,13.841,12.23A164.608,164.608,0,0,1,83.491,32.3,17.24,17.24,0,0,1,88.4,44.2a16.782,16.782,0,0,1-4.909,11.9A163.679,163.679,0,0,1,69.255,71.955,164.629,164.629,0,0,1,56.1,83.491a17.386,17.386,0,0,1-7.239,4.259,16.564,16.564,0,0,1-4.664.65,17.462,17.462,0,0,1-5.792-1.133A18.7,18.7,0,0,1,32.3,83.491Z" transform="translate(221.375 864)"/>
      <g id="Group_75795" data-name="Group 75795" transform="translate(-2002.643 823.819)">
        <g id="Group_5735" data-name="Group 5735" transform="translate(2232.673 45.503)">
          <path id="Path_374" data-name="Path 374" class="cls-3" d="M2254.488,48.21c3.4,13.531,6.194,23.8,8.763,31.923,0,0,2.038,6.441,3.24,19.62a12.407,12.407,0,0,1-.423,5.73,11.124,11.124,0,0,1-2.555,3.947c-2.485,2.624-4.2,2.737-10.651,6-4,2.028-5.089,2.867-8.268,3.982a17.975,17.975,0,0,1-4.905,1.285c-3.307.251-5.12-.829-6.073.234-.916,1.02-.142,3.02,0,3.386a6.383,6.383,0,0,0,4.2,3.5c1.511.441,2.057.046,4.438,0,3.095-.059,3.557.58,7.065.876a70.3,70.3,0,0,0,7.183-.175c6.79-.266,7.164-.285,8.234-.175,1.2.124,2.86.368,6.175.857,2.415.356,2.174.345,2.509.376,1.986.184,6.056.555,8.309-1.584,1.724-1.635,1.739-4.129,1.752-6.132.026-4.072-1.58-5.808-2.8-10.16-.882-3.139-.916-5.415-1.05-9.811-.171-5.555.639-7.008,1.762-16.005,1.037-8.306,1.511-13.563.846-20.468a40.414,40.414,0,0,0-7.406-19.717" transform="translate(-2232.834 -45.508)"/>
          <path id="Path_375" data-name="Path 375" class="cls-4" d="M2276,130.065c-1.018,0-1.944-.086-2.621-.149-.164-.015-.2-.02-.436-.058-.265-.043-.794-.128-2.093-.318-3.3-.488-4.952-.732-6.159-.856-1.012-.1-1.384-.091-7.628.154l-.558.021a68.824,68.824,0,0,1-7.224.175,26.062,26.062,0,0,1-3.378-.505,14.16,14.16,0,0,0-3.652-.37c-.854.017-1.478.08-1.979.129a5.763,5.763,0,0,1-2.56-.143,6.667,6.667,0,0,1-4.427-3.708c-.371-.956-.854-2.714.063-3.736.668-.743,1.611-.632,2.914-.479a16.766,16.766,0,0,0,3.388.133,17.744,17.744,0,0,0,4.817-1.267,32.219,32.219,0,0,0,5.22-2.389c.824-.442,1.778-.952,3.007-1.575,2.021-1.023,3.584-1.74,4.839-2.316,2.785-1.277,4.057-1.861,5.72-3.618a10.691,10.691,0,0,0,2.483-3.828,12.038,12.038,0,0,0,.4-5.584c-1.184-12.98-3.205-19.483-3.227-19.547-2.466-7.795-5.252-17.945-8.769-31.944l.662-.165c3.511,13.984,6.3,24.122,8.757,31.9.021.064,2.063,6.627,3.255,19.69a12.754,12.754,0,0,1-.442,5.878,11.568,11.568,0,0,1-2.629,4.065c-1.754,1.851-3.149,2.492-5.93,3.769-1.25.573-2.806,1.287-4.815,2.3-1.223.62-2.174,1.128-2.995,1.567a32.6,32.6,0,0,1-5.316,2.431,18.128,18.128,0,0,1-4.99,1.3,17.206,17.206,0,0,1-3.519-.134c-1.283-.152-1.914-.2-2.326.256-.493.55-.471,1.657.063,3.036a6,6,0,0,0,3.983,3.3,5.142,5.142,0,0,0,2.3.12c.514-.053,1.153-.117,2.034-.133a14.819,14.819,0,0,1,3.8.383,25.21,25.21,0,0,0,3.3.494,70.649,70.649,0,0,0,7.141-.177l.558-.021c6.281-.246,6.66-.261,7.724-.153,1.22.127,2.882.372,6.188.859,1.3.194,1.836.278,2.1.32.214.035.244.04.391.054,1.916.178,5.9.547,8.042-1.491,1.619-1.536,1.634-3.949,1.647-5.886a14.613,14.613,0,0,0-1.414-6.143,37.76,37.76,0,0,1-1.377-3.923c-.855-3.045-.924-5.283-1.047-9.342l-.016-.549a39.368,39.368,0,0,1,.723-8.847c.287-1.8.645-4.039,1.04-7.211.959-7.678,1.534-13.244.845-20.393a40.073,40.073,0,0,0-7.344-19.551l.554-.4a40.8,40.8,0,0,1,7.47,19.884c.695,7.218.116,12.819-.848,20.541-.4,3.185-.756,5.431-1.044,7.236a38.849,38.849,0,0,0-.716,8.718l.017.548c.122,4.007.189,6.214,1.022,9.18a37.365,37.365,0,0,0,1.355,3.856,15.346,15.346,0,0,1,1.461,6.4c-.013,2.068-.028,4.641-1.857,6.377C2280.385,129.732,2278.012,130.065,2276,130.065Z" transform="translate(-2232.825 -45.503)"/>
        </g>
        <g id="Group_5738" data-name="Group 5738" transform="translate(2270.531 116.073)">
          <g id="Group_5736" data-name="Group 5736" transform="translate(0.462 0.34)">
            <path id="Path_376" data-name="Path 376" class="cls-5" d="M2274.059,118.859a5.87,5.87,0,0,1,4.288-.162,5.658,5.658,0,0,1,3.642,5.016c.085,2.668-1.935,5.287-3.4,5.179-.807-.059-.958-.885-2.1-1.456a5.484,5.484,0,0,0-4.288.081Q2273.129,123.189,2274.059,118.859Z" transform="translate(-2272.198 -118.361)"/>
          </g>
          <g id="Group_5737" data-name="Group 5737">
            <path id="Path_377" data-name="Path 377" class="cls-6" d="M2278.663,129.227c-.037,0-.075,0-.111,0a1.794,1.794,0,0,1-1.2-.69,3.7,3.7,0,0,0-1.036-.8,5.035,5.035,0,0,0-4.019.1l-.579.21,2.027-9.432.161-.069a6.207,6.207,0,0,1,4.543-.168,6.036,6.036,0,0,1,3.862,5.326,6.549,6.549,0,0,1-1.885,4.669A2.678,2.678,0,0,1,2278.663,129.227Zm-4.023-2.548a4.139,4.139,0,0,1,3.2,1.375c.31.315.472.468.759.49a2,2,0,0,0,1.358-.671,5.837,5.837,0,0,0,1.676-4.158,5.34,5.34,0,0,0-3.419-4.708,5.466,5.466,0,0,0-3.875.089l-1.7,7.9A7.034,7.034,0,0,1,2274.64,126.679Z" transform="translate(-2271.723 -118.011)"/>
          </g>
        </g>
        <g id="Group_5741" data-name="Group 5741" transform="translate(2262.299 111.947)">
          <g id="Group_5739" data-name="Group 5739" transform="translate(0.339 0.342)">
            <path id="Path_378" data-name="Path 378" class="cls-5" d="M2263.958,117.776c.23-.917.862-3.442,2.184-3.641,1.213-.183,1.677,1.788,4.046,2.508,1.806.549,2.427-.307,3.48.323,1.729,1.036,1.879,4.641.809,7.2a6.01,6.01,0,0,1-3.09,3.5,6.342,6.342,0,0,1-6.781-1.882A13.176,13.176,0,0,1,2263.958,117.776Z" transform="translate(-2263.612 -114.123)"/>
          </g>
          <g id="Group_5740" data-name="Group 5740">
            <path id="Path_379" data-name="Path 379" class="cls-6" d="M2269.475,128.366a7.289,7.289,0,0,1-5.123-2.351l-.074-.118a13.744,13.744,0,0,1-.66-8.213h0c.251-1,.916-3.663,2.465-3.9.749-.116,1.242.378,1.81.942a5.527,5.527,0,0,0,2.385,1.577,4.017,4.017,0,0,0,1.888.119,2.287,2.287,0,0,1,1.667.237c1.949,1.167,2.064,4.956.949,7.626a6.323,6.323,0,0,1-3.277,3.685A5.34,5.34,0,0,1,2269.475,128.366Zm-4.585-2.777a5.954,5.954,0,0,0,6.357,1.754,5.7,5.7,0,0,0,2.905-3.316c.987-2.359.909-5.835-.669-6.778a1.649,1.649,0,0,0-1.23-.148,4.649,4.649,0,0,1-2.173-.142,6.108,6.108,0,0,1-2.668-1.746c-.537-.534-.837-.806-1.229-.752-.73.111-1.371,1.251-1.9,3.388h0A13.027,13.027,0,0,0,2264.89,125.589Z" transform="translate(-2263.264 -113.772)"/>
          </g>
        </g>
        <g id="Group_5744" data-name="Group 5744" transform="translate(2258.623 45.771)">
          <g id="Group_5742" data-name="Group 5742" transform="translate(0.369 0.371)">
            <path id="Path_380" data-name="Path 380" class="cls-5" d="M2264.927,53.167c2.71,1.022,2.78,7.209,2.793,8.123,0,0,.146,9.959,4.039,39.615a8.416,8.416,0,0,1-.526,4.817,9.815,9.815,0,0,1-1.509,2.348,4.831,4.831,0,0,0-.909,1.111,1.925,1.925,0,0,0-.382,1.213,1.667,1.667,0,0,0,.567,1,2.6,2.6,0,0,0,2.24.608c1.541-.323,1.8-2.126,2.614-2.034.828.092.755,1.993,1.917,2.273a2.082,2.082,0,0,0,1.844-.814,2.345,2.345,0,0,0,.536-1.326c.058-.892-.445-1.5-1.044-2.415s-1.012-1.919-1.583-2.84c-1.867-3.009-1.45-11.057-1.577-15.679-.048-1.743-.518-4.769-1.456-10.821,0,0-1.807-11.648-2.034-19.639-.02-.689-.09-4.646,1.251-6.1a6.891,6.891,0,0,0,1.349-2.015,4.636,4.636,0,0,0,.416-1.94,2.482,2.482,0,0,0-1.527-2.252,2.948,2.948,0,0,0-2.917.337c-1.011.826-.535,2.1-1.219,2.317-.719.227-1.264-1-3.048-1.631a4.181,4.181,0,0,0-3.46.072,2.928,2.928,0,0,0-1.438,2.193c0,1.433,1.6,2.339,2.168,2.658C2263.324,53.071,2264.148,52.874,2264.927,53.167Z" transform="translate(-2259.866 -46.159)"/>
          </g>
          <g id="Group_5743" data-name="Group 5743">
            <path id="Path_381" data-name="Path 381" class="cls-6" d="M2276.037,112.63a1.559,1.559,0,0,1-.36-.042c-.8-.191-1.122-.93-1.382-1.524-.156-.354-.316-.721-.49-.74h-.013c-.154,0-.361.279-.579.575a3.212,3.212,0,0,1-1.9,1.455,2.984,2.984,0,0,1-2.572-.7,2.034,2.034,0,0,1-.678-1.227,2.281,2.281,0,0,1,.428-1.441,5.144,5.144,0,0,1,.95-1.167,9.678,9.678,0,0,0,1.461-2.274,8.063,8.063,0,0,0,.494-4.542c-3.859-29.395-4.048-39.615-4.05-39.714-.062-4.3-1.017-7.2-2.554-7.783h0a3.863,3.863,0,0,0-.819-.175,5.486,5.486,0,0,1-2.127-.672c-.584-.331-2.358-1.334-2.355-2.981a3.3,3.3,0,0,1,1.619-2.509,4.345,4.345,0,0,1,3.771-.1,6.71,6.71,0,0,1,2.023,1.192c.4.312.627.485.792.435.1-.031.144-.2.217-.56a2.646,2.646,0,0,1,.879-1.692,3.293,3.293,0,0,1,3.3-.389,2.857,2.857,0,0,1,1.748,2.59,4.955,4.955,0,0,1-.446,2.086,7.16,7.16,0,0,1-1.378,2.077c-1.26,1.368-1.215,5.141-1.192,5.884.223,7.876,2.011,19.476,2.029,19.593.941,6.059,1.412,9.1,1.461,10.867.024.9.028,1.935.033,3.035.018,4.511.04,10.126,1.487,12.462.27.433.506.888.741,1.342a16.579,16.579,0,0,0,.838,1.488l.211.316a3.629,3.629,0,0,1,.892,2.327,2.722,2.722,0,0,1-.621,1.538A2.614,2.614,0,0,1,2276.037,112.63Zm-2.254-3.045a.94.94,0,0,1,.1.006c.6.067.855.658,1.084,1.178s.437,1,.879,1.1a1.74,1.74,0,0,0,1.477-.692,1.971,1.971,0,0,0,.449-1.111,2.974,2.974,0,0,0-.769-1.868l-.214-.321a17.068,17.068,0,0,1-.878-1.555c-.226-.437-.453-.874-.712-1.293-1.558-2.513-1.58-8.244-1.6-12.847,0-1.094-.009-2.121-.033-3.017-.047-1.719-.516-4.746-1.451-10.775-.019-.116-1.813-11.762-2.039-19.684-.032-1.113-.03-4.864,1.35-6.363a6.563,6.563,0,0,0,1.281-1.911,4.253,4.253,0,0,0,.385-1.794,2.122,2.122,0,0,0-1.307-1.915,2.576,2.576,0,0,0-2.534.285,1.954,1.954,0,0,0-.623,1.268c-.091.447-.193.951-.719,1.116-.548.171-.976-.168-1.471-.562a6.016,6.016,0,0,0-1.812-1.074,3.638,3.638,0,0,0-3.147.041,2.591,2.591,0,0,0-1.258,1.877c0,1.215,1.438,2.029,1.979,2.336a4.711,4.711,0,0,0,1.868.585,4.474,4.474,0,0,1,.975.215h0c2.544.96,2.991,5.7,3.031,8.443,0,.119.194,10.312,4.037,39.592a8.8,8.8,0,0,1-.564,5.035,10.17,10.17,0,0,1-1.582,2.445,4.457,4.457,0,0,0-.847,1.03,1.591,1.591,0,0,0-.333.984,1.3,1.3,0,0,0,.448.769,2.226,2.226,0,0,0,1.918.522,2.526,2.526,0,0,0,1.463-1.17C2272.938,110.03,2273.267,109.585,2273.782,109.585Z" transform="translate(-2259.487 -45.778)"/>
          </g>
        </g>
        <g id="Group_5747" data-name="Group 5747" transform="translate(2237.691 114.94)">
          <g id="Group_5745" data-name="Group 5745" transform="translate(0.341 0.346)">
            <path id="Path_382" data-name="Path 382" class="cls-5" d="M2261.664,117.372c-2.325-.978-3.913,2.485-10.06,4.882-6.645,2.59-13.1,1.775-13.271,3.452a1.737,1.737,0,0,0,.486,1.078c.822.983,2.318.983,3.183.971,4.138-.055,6.208-.078,6.365-.108,8.506-1.614,13.052,1.178,15.158-1.619C2265.375,123.573,2264.129,118.409,2261.664,117.372Z" transform="translate(-2238.331 -117.203)"/>
          </g>
          <g id="Group_5746" data-name="Group 5746">
            <path id="Path_383" data-name="Path 383" class="cls-6" d="M2241.709,128.089a4.036,4.036,0,0,1-3.161-1.1,1.893,1.893,0,0,1-.563-1.33c.111-1.1,1.742-1.318,4.447-1.679a38.281,38.281,0,0,0,9.04-2.057,25.947,25.947,0,0,0,6.09-3.451c1.691-1.218,2.811-2.025,4.225-1.426h0a5.362,5.362,0,0,1,2.661,3.678,6.557,6.557,0,0,1-.66,5.5c-1.244,1.653-3.261,1.527-6.059,1.351a34.733,34.733,0,0,0-9.307.4c-.16.03-1.132.044-4.827.092l-1.6.02C2241.911,128.088,2241.814,128.089,2241.709,128.089Zm19.141-10.554c-.773,0-1.583.551-2.892,1.494a26.608,26.608,0,0,1-6.241,3.533,38.872,38.872,0,0,1-9.2,2.1c-1.954.262-3.8.508-3.857,1.073-.012.113.026.371.408.825.733.878,2.156.857,2.917.85l1.6-.021c2.831-.037,4.541-.059,4.719-.082a35.231,35.231,0,0,1,9.468-.406c2.771.174,4.448.278,5.473-1.082a5.876,5.876,0,0,0,.545-4.909,4.781,4.781,0,0,0-2.267-3.229h0A1.716,1.716,0,0,0,2260.851,117.535Z" transform="translate(-2237.98 -116.847)"/>
          </g>
        </g>
        <g id="Group_5748" data-name="Group 5748" class="cls-7" transform="translate(2262.404 99.226)">
          <path id="Path_384" data-name="Path 384" class="cls-8" d="M2283.247,110.467c.274,1.227,1.009,4.527-.928,7.192-2.661,3.665-8.106,3.015-8.835,2.918-4.039-.544-10-3.721-10.109-9.765a9.938,9.938,0,0,1,9.764-10.109C2279.362,100.595,2282.476,107,2283.247,110.467Z" transform="translate(-2263.373 -100.702)"/>
        </g>
      </g>
    </g>
  </g>
</svg>
