<svg xmlns="http://www.w3.org/2000/svg" xmlns:xlink="http://www.w3.org/1999/xlink" width="100" height="100" viewBox="0 0 100 100">
  <defs>
    <style>
      .cls-1, .cls-4, .cls-5, .cls-9 {
        fill: none;
      }

      .cls-2 {
        opacity: 0.05;
        fill: url(#linear-gradient);
      }

      .cls-10, .cls-3, .cls-6, .cls-7 {
        fill: #fff;
      }

      .cls-10, .cls-13, .cls-14, .cls-15, .cls-4, .cls-5, .cls-6, .cls-7, .cls-8, .cls-9 {
        stroke: #2d2d2d;
      }

      .cls-10, .cls-14, .cls-4, .cls-6, .cls-9 {
        stroke-linecap: round;
      }

      .cls-10, .cls-14, .cls-15, .cls-4, .cls-5, .cls-6, .cls-7, .cls-8, .cls-9 {
        stroke-miterlimit: 10;
      }

      .cls-13, .cls-14, .cls-15, .cls-4, .cls-5, .cls-6, .cls-7, .cls-8 {
        stroke-width: 0.7px;
      }

      .cls-8 {
        fill: #474747;
      }

      .cls-9 {
        stroke-width: 0.65px;
      }

      .cls-10 {
        stroke-width: 0.705px;
      }

      .cls-11 {
        mix-blend-mode: multiply;
        isolation: isolate;
      }

      .cls-12, .cls-15 {
        fill: #ff8e93;
      }

      .cls-12 {
        opacity: 0.4;
      }

      .cls-13 {
        fill: #86bcff;
      }

      .cls-14 {
        fill: #ffa6ab;
      }
    </style>
    <linearGradient id="linear-gradient" x1="0.5" x2="0.5" y2="1" gradientUnits="objectBoundingBox">
      <stop offset="0" stop-color="#1778f2"/>
      <stop offset="1" stop-color="#f40009"/>
    </linearGradient>
  </defs>
  <g id="Group_124998" data-name="Group 124998" transform="translate(-216 -2550)">
    <rect id="Rectangle_10372" data-name="Rectangle 10372" class="cls-1" width="100" height="100" transform="translate(216 2550)"/>
    <g id="Group_124890" data-name="Group 124890">
      <g id="Group_124889" data-name="Group 124889">
        <g id="Group_124887" data-name="Group 124887" transform="translate(165)">
          <g id="Group_124197" data-name="Group 124197">
            <g id="Group_124191" data-name="Group 124191">
              <g id="Group_124150" data-name="Group 124150" transform="translate(-165 564)">
                <path id="Path_228174" data-name="Path 228174" class="cls-2" d="M32.3,83.491A105.79,105.79,0,0,1,17.2,70.917,105.57,105.57,0,0,1,4.909,56.1,17.251,17.251,0,0,1,0,44.2,16.783,16.783,0,0,1,4.909,32.3,144.539,144.539,0,0,1,32.3,4.909,17.263,17.263,0,0,1,44.2,0,16.781,16.781,0,0,1,56.1,4.909a164.255,164.255,0,0,1,13.841,12.23A164.608,164.608,0,0,1,83.491,32.3,17.24,17.24,0,0,1,88.4,44.2a16.782,16.782,0,0,1-4.909,11.9A163.679,163.679,0,0,1,69.255,71.955,164.629,164.629,0,0,1,56.1,83.491a17.386,17.386,0,0,1-7.239,4.259,16.564,16.564,0,0,1-4.664.65,17.462,17.462,0,0,1-5.792-1.133A18.7,18.7,0,0,1,32.3,83.491Z" transform="translate(221.375 1992)"/>
              </g>
            </g>
          </g>
        </g>
        <g id="Group_124888" data-name="Group 124888" transform="translate(-2203 -3614.373)">
          <g id="Group_89393" data-name="Group 89393">
            <path id="Path_184216" data-name="Path 184216" class="cls-3" d="M2218.42,83.5q-2.111,3.619-4.224,7.239l-3.613,6.192q-3.911-3.172-7.823-6.437-.513-.427-1.026-.858,1.935-2.5,3.881-5.242c2.536-3.583,4.786-7.086,6.783-10.454Q2215.41,78.721,2218.42,83.5Z" transform="translate(245.621 6138.036)"/>
            <path id="Path_184217" data-name="Path 184217" class="cls-4" d="M2209.778,75.614a51.636,51.636,0,0,1-3.422,6.687,46.732,46.732,0,0,1-3.286,4.733,57.355,57.355,0,0,1-5.3,5.826c-.452.432-.458.414-.677.636v0a9.748,9.748,0,0,0-3.16,5.418" transform="translate(246.42 6137.865)"/>
            <path id="Path_184218" data-name="Path 184218" class="cls-5" d="M2215.631,88.387" transform="translate(244.199 6136.557)"/>
            <path id="Path_184219" data-name="Path 184219" class="cls-3" d="M2212.384,99.084a32.961,32.961,0,0,1,1.157,4.179c.544,2.636.46,3.886,1.119,6.9.264,1.207.508,2.059.784,3.022a72.206,72.206,0,0,0,3.284,9.067l-17.982-.477-6.319-4.976,1.642-10.448,2.289-7.761c3.656-3.217,8.183-4.146,11.293-2.388A7.1,7.1,0,0,1,2212.384,99.084Z" transform="translate(246.369 6135.847)"/>
            <path id="Path_184220" data-name="Path 184220" class="cls-6" d="M2220.139,122.323a54.253,54.253,0,0,1-4.912-13.759c-.94-5.45-.336-9.575-3.483-13.283a14.773,14.773,0,0,0-3.433-2.886A15.649,15.649,0,0,0,2201,90.132a16.781,16.781,0,0,0-3.334,2.96,18.907,18.907,0,0,0-3.756,7.563c-2.109,7.544-1.418,16.424-1.194,18.88" transform="translate(246.574 6136.378)"/>
            <path id="Path_184221" data-name="Path 184221" class="cls-6" d="M2217.8,89.1c-.881,1.111-1.794,2.362-2.7,3.756a19.453,19.453,0,0,0-1.316,2.294" transform="translate(244.469 6136.484)"/>
            <ellipse id="Ellipse_13903" data-name="Ellipse 13903" class="cls-7" cx="18.251" cy="13.474" rx="18.251" ry="13.474" transform="translate(2451.868 6224.139) rotate(-62.608)"/>
            <path id="Path_184222" data-name="Path 184222" class="cls-8" d="M2245.806,66.716c-2.947,7.038-19.358,8.239-23.681,1.871-1.366-2.012-1.482-4.713-2.934-4.826-1.435-.112-3.387,2.369-3.588,4.794-.191,2.3,1.272,3.022,1.054,4.836-.354,2.952-4.814,6.024-7.351,5.061-3.426-1.3-3.963-10.192-1.784-16.741a20.566,20.566,0,0,1,7.778-10.683c8.37-5.758,17.712-2.557,18.518-2.253a21.77,21.77,0,0,1,11.043,9.86C2246.956,63.1,2246.256,65.642,2245.806,66.716Z" transform="translate(245.162 6140.731)"/>
            <g id="Group_89381" data-name="Group 89381" transform="translate(2459.542 6191.658)">
              <path id="Path_184223" data-name="Path 184223" class="cls-3" d="M2236.419,56.354A4.282,4.282,0,0,0,2231,52.678a5.422,5.422,0,0,0-3.792-1.131,5.264,5.264,0,0,0-2,.59,6.339,6.339,0,0,0-7.483,3.882,4.348,4.348,0,0,0-1.588,1.543,4.784,4.784,0,0,0,.116,4.071,4.535,4.535,0,0,0,2.081,1.925,2.223,2.223,0,0,0,.349.726,2.677,2.677,0,0,0,1.109.825c.341.162.521.257.588.465.114.358-.186.811-.478,1.249-.334.5-.681,1.025-.377,1.506.171.275.5.362,1.242.557a7.863,7.863,0,0,0,.88.2,1.616,1.616,0,0,0,.4.006c.716-.08,1.084-.643,1.475-1.238a6.707,6.707,0,0,1,.626-.85,4.735,4.735,0,0,1,2.749-1.358,4.625,4.625,0,0,0,.75.229c.075.016.179.035.31.051a5.237,5.237,0,0,0,1.9-.108,5.094,5.094,0,0,0,1.881-.821,6.217,6.217,0,0,0,5.3-.169,4.558,4.558,0,0,0,2.425-2.97C2239.9,59.836,2238.655,57.587,2236.419,56.354Z" transform="translate(-2215.354 -51.328)"/>
              <g id="Group_89380" data-name="Group 89380">
                <path id="Path_184224" data-name="Path 184224" class="cls-9" d="M2233.745,65.386a6.324,6.324,0,0,0,5.516-.07,4.744,4.744,0,0,0,2.4-2.914c.433-1.969-.811-4.257-3.141-5.5" transform="translate(-2217.198 -51.878)"/>
                <path id="Path_184225" data-name="Path 184225" class="cls-9" d="M2237.842,58.5a4.266,4.266,0,0,0-6.579-5.077" transform="translate(-2216.944 -51.426)"/>
                <path id="Path_184226" data-name="Path 184226" class="cls-9" d="M2217.743,55.946" transform="translate(-2215.56 -51.78)"/>
                <path id="Path_184227" data-name="Path 184227" class="cls-9" d="M2231.988,52.537a5.357,5.357,0,0,0-7.415.557" transform="translate(-2216.259 -51.305)"/>
                <path id="Path_184228" data-name="Path 184228" class="cls-9" d="M2221.269,62.8a1.941,1.941,0,0,0,.583,1.964,1.9,1.9,0,0,0,2.471-.046,2.222,2.222,0,0,0,.355-2.13,3.033,3.033,0,0,0-2.125-2.217,2.928,2.928,0,0,0-2.459.756" transform="translate(-2215.801 -52.228)"/>
                <path id="Path_184229" data-name="Path 184229" class="cls-9" d="M2229.306,60.139a1.338,1.338,0,0,1,.192-1.076c.57-.742,2.174-.513,3.155.147a3.749,3.749,0,0,1,1.455,2.523,4.12,4.12,0,0,1-.5,3.03,4.3,4.3,0,0,1-2.744,1.741,5.085,5.085,0,0,1-2.185.057,5.434,5.434,0,0,1-3.428-2.675" transform="translate(-2216.328 -52.052)"/>
                <path id="Path_184230" data-name="Path 184230" class="cls-9" d="M2225.237,52.014a6.37,6.37,0,0,0-7.655,4.014" transform="translate(-2215.543 -51.356)"/>
                <path id="Path_184231" data-name="Path 184231" class="cls-9" d="M2221.681,56.839a4.555,4.555,0,0,0-4.075-.53,4.092,4.092,0,0,0-1.895,1.669,4.718,4.718,0,0,0,.109,4,4.473,4.473,0,0,0,2.136,1.93" transform="translate(-2215.311 -51.788)"/>
                <path id="Path_184232" data-name="Path 184232" class="cls-9" d="M2218.47,62.53a3.4,3.4,0,0,0,.2,2.885c.628.852,1.619.736,1.854,1.473.331,1.042-1.36,2.184-.946,2.841.108.171.438.258,1.1.431a3.6,3.6,0,0,0,1.231.213c.9-.1,1.188-1.2,2-2.1a5.282,5.282,0,0,1,3.14-1.559" transform="translate(-2215.611 -52.454)"/>
                <path id="Path_184233" data-name="Path 184233" class="cls-9" d="M2235.382,57.733a2.143,2.143,0,0,0-3.631-1.661" transform="translate(-2216.994 -51.732)"/>
                <path id="Path_184234" data-name="Path 184234" class="cls-9" d="M2240.238,61.659a2.043,2.043,0,0,1-2.442.487,2.022,2.022,0,0,1-1.053-1.851" transform="translate(-2217.505 -52.225)"/>
                <path id="Path_184235" data-name="Path 184235" class="cls-9" d="M2228.257,53.85a2.819,2.819,0,0,1-4.9,1.671" transform="translate(-2216.134 -51.566)"/>
                <path id="Path_184236" data-name="Path 184236" class="cls-9" d="M2225.837,59a1.535,1.535,0,0,1-.578-1.2,1.511,1.511,0,0,1,.5-1.063" transform="translate(-2216.329 -51.861)"/>
                <path id="Path_184237" data-name="Path 184237" class="cls-9" d="M2229.725,57.046a1.564,1.564,0,0,0,.276.84,1.581,1.581,0,0,0,.8.593" transform="translate(-2216.786 -51.893)"/>
                <path id="Path_184238" data-name="Path 184238" class="cls-9" d="M2231.68,62.507a2.182,2.182,0,0,1-4.171-1" transform="translate(-2216.559 -52.35)"/>
              </g>
            </g>
            <path id="Path_184240" data-name="Path 184240" class="cls-10" d="M2238.565,38.93c1.329.052,1.8.362,1.933.694.234.575-.534,1.225-.25,1.68.3.483,1.344.031,1.7.547.318.463-.336,1.091-.011,1.6.31.489,1.078.2,1.492.675.225.261.353.76,0,1.791" transform="translate(245.524 6146.672)"/>
            <path id="Path_184244" data-name="Path 184244" class="cls-4" d="M2199.842,110.943a73.4,73.4,0,0,0,.6,8.582c.227,1.759.507,3.428.821,5" transform="translate(245.815 6134.249)"/>
            <path id="Path_38810" data-name="Path 38810" class="cls-7" d="M2253.845,423.974a3.391,3.391,0,0,1,.753-2.174,2.388,2.388,0,0,1,1.811-.9c3.41-.211,6.98-.334,10.7-.341q5.922,0,11.332.341a2.365,2.365,0,0,1,1.811.9,3.844,3.844,0,0,1,.754,2.174c.189,2.126.321,4.48.321,7.03.008,2.748-.122,5.274-.321,7.536a3.783,3.783,0,0,1-.067.707,3.485,3.485,0,0,1-.685,1.466,2.566,2.566,0,0,1-1.014.786c-.678.27-1.031-.014-1.163.185-.412.625,2.717,3.9,2.347,4.533-.056.1-.321.352-3.328-1.244-2.893-1.539-3.474-2.217-4.925-2.748a13.722,13.722,0,0,0-4.781-.308s-7.312.008-10.981-.3a2.647,2.647,0,0,1-1.811-.9,3.025,3.025,0,0,1-.365-.553,3.687,3.687,0,0,1-.387-1.623c-.124-2.042-.2-4.207-.218-6.482C2253.609,429.185,2253.694,426.482,2253.845,423.974Z" transform="translate(228.913 5753.724)"/>
            <g id="Group_89387" data-name="Group 89387" class="cls-11" transform="translate(2453.371 6185.33)">
              <path id="Path_210" data-name="Path 210" class="cls-12" d="M202.634,88.4c.269,1.212,1,4.472-.917,7.106-2.63,3.623-8.011,2.98-8.73,2.883-3.992-.537-9.886-3.675-9.99-9.647a9.82,9.82,0,0,1,9.647-9.989C198.795,78.648,201.871,84.98,202.634,88.4Z" transform="translate(-182.995 -78.755)"/>
            </g>
            <g id="Group_89389" data-name="Group 89389" transform="translate(-1)">
              <path id="Path_38810-2" data-name="Path 38810" class="cls-7" d="M2253.8,423.251a2.676,2.676,0,0,1,.594-1.715,1.883,1.883,0,0,1,1.428-.712c2.689-.166,5.505-.264,8.439-.269q4.671,0,8.937.269a1.864,1.864,0,0,1,1.428.712,3.028,3.028,0,0,1,.595,1.715c.15,1.677.253,3.533.253,5.544.006,2.167-.1,4.159-.253,5.944a2.974,2.974,0,0,1-.053.558,2.753,2.753,0,0,1-.54,1.156,2.028,2.028,0,0,1-.8.62c-.535.213-.813-.011-.917.146-.325.493,2.143,3.073,1.851,3.575-.044.077-.253.277-2.625-.981a44.181,44.181,0,0,0-3.884-2.167,10.822,10.822,0,0,0-3.771-.243s-5.767.006-8.661-.236a2.087,2.087,0,0,1-1.428-.712,2.38,2.38,0,0,1-.288-.436,2.907,2.907,0,0,1-.305-1.28c-.1-1.611-.16-3.318-.172-5.112C2253.612,427.361,2253.679,425.23,2253.8,423.251Z" transform="translate(188.71 5758.968)"/>
              <g id="Group_89388" data-name="Group 89388" transform="translate(2447.075 6181.404)">
                <path id="Path_184248" data-name="Path 184248" class="cls-13" d="M6.02,0a6.02,6.02,0,1,0,6.02,6.02A6.02,6.02,0,0,0,6.02,0Z" transform="translate(0 0)"/>
                <path id="Path_184245" data-name="Path 184245" class="cls-4" d="M764.679,243.395a3.266,3.266,0,0,0-2.159-1.634,3.178,3.178,0,0,0-2.2.387" transform="translate(-756.545 -234.033)"/>
                <ellipse id="Ellipse_13905" data-name="Ellipse 13905" class="cls-8" cx="0.297" cy="0.297" rx="0.297" ry="0.297" transform="translate(7.481 4.094)"/>
                <ellipse id="Ellipse_13906" data-name="Ellipse 13906" class="cls-8" cx="0.297" cy="0.297" rx="0.297" ry="0.297" transform="translate(3.857 4.094)"/>
                <path id="Path_184246" data-name="Path 184246" class="cls-14" d="M761.158,236.488a1.569,1.569,0,0,1-1.515-.357" transform="translate(-752.538 -232.443)"/>
                <path id="Path_184247" data-name="Path 184247" class="cls-14" d="M764.995,236.488a1.569,1.569,0,0,0,1.515-.357" transform="translate(-761.715 -232.443)"/>
              </g>
            </g>
            <path id="Path_184249" data-name="Path 184249" class="cls-15" d="M1354.5,336.348h-2.514a.951.951,0,0,1-.951-.951v-2.513a1.609,1.609,0,0,0-1.256-1.609,1.546,1.546,0,0,0-1.828,1.516V335.4a.951.951,0,0,1-.951.951h-2.513a1.608,1.608,0,0,0-1.609,1.256,1.545,1.545,0,0,0,1.515,1.827H1347a.951.951,0,0,1,.951.951V342.9a1.608,1.608,0,0,0,1.256,1.609,1.545,1.545,0,0,0,1.828-1.516v-2.607a.951.951,0,0,1,.951-.951h2.607a1.546,1.546,0,0,0,1.516-1.827A1.608,1.608,0,0,0,1354.5,336.348Z" transform="translate(1147.827 5846.435)"/>
          </g>
        </g>
      </g>
    </g>
  </g>
</svg>
