<svg xmlns="http://www.w3.org/2000/svg" xmlns:xlink="http://www.w3.org/1999/xlink" width="100" height="100" viewBox="0 0 100 100">
  <defs>
    <style>
      .cls-1, .cls-6 {
        fill: none;
      }

      .cls-2 {
        opacity: 0.05;
        fill: url(#linear-gradient);
      }

      .cls-3 {
        fill: #fff;
      }

      .cls-4 {
        fill: #2d2d2d;
      }

      .cls-5 {
        fill: #474747;
      }

      .cls-6 {
        stroke: #2d2d2d;
        stroke-miterlimit: 10;
        stroke-width: 0.694px;
      }

      .cls-7 {
        mix-blend-mode: multiply;
        isolation: isolate;
      }

      .cls-8 {
        fill: #ff8e93;
        opacity: 0.5;
      }
    </style>
    <linearGradient id="linear-gradient" x1="0.5" x2="0.5" y2="1" gradientUnits="objectBoundingBox">
      <stop offset="0" stop-color="#1778f2"/>
      <stop offset="1" stop-color="#f40009"/>
    </linearGradient>
  </defs>
  <g id="Group_124975" data-name="Group 124975" transform="translate(-47 -292)">
    <rect id="Rectangle_10348" data-name="Rectangle 10348" class="cls-1" width="100" height="100" transform="translate(47 292)"/>
    <g id="Group_124898" data-name="Group 124898">
      <g id="Group_124897" data-name="Group 124897">
        <path id="Path_153239" data-name="Path 153239" class="cls-2" d="M32.3,83.491A105.79,105.79,0,0,1,17.2,70.917,105.57,105.57,0,0,1,4.909,56.1,17.251,17.251,0,0,1,0,44.2,16.783,16.783,0,0,1,4.909,32.3,144.539,144.539,0,0,1,32.3,4.909,17.263,17.263,0,0,1,44.2,0,16.781,16.781,0,0,1,56.1,4.909a164.255,164.255,0,0,1,13.841,12.23A164.608,164.608,0,0,1,83.491,32.3,17.24,17.24,0,0,1,88.4,44.2a16.782,16.782,0,0,1-4.909,11.9A163.679,163.679,0,0,1,69.255,71.955,164.629,164.629,0,0,1,56.1,83.491a17.386,17.386,0,0,1-7.239,4.259,16.564,16.564,0,0,1-4.664.65,17.462,17.462,0,0,1-5.792-1.133A18.7,18.7,0,0,1,32.3,83.491Z" transform="translate(56.375 300)"/>
        <g id="Group_75775" data-name="Group 75775" transform="translate(-486.671 262.073)">
          <g id="Group_1483" data-name="Group 1483" transform="translate(550.779 86.503)">
            <path id="Path_132" data-name="Path 132" class="cls-3" d="M551.681,88.917a30.268,30.268,0,0,0,5.68,20.629l3.7-13.916Z" transform="translate(-551.22 -88.306)"/>
            <path id="Path_133" data-name="Path 133" class="cls-4" d="M557.491,110.284l-.413-.567a30.6,30.6,0,0,1-5.743-20.855l.053-.582,10.038,7.187Zm-5.539-20.777a29.917,29.917,0,0,0,5.256,19.24l3.455-13Z" transform="translate(-551.206 -88.281)"/>
          </g>
          <g id="Group_1484" data-name="Group 1484" transform="translate(580.01 113.433)">
            <path id="Path_134" data-name="Path 134" class="cls-3" d="M581.615,119.653q.532,5.194,1.065,10.388l23.815-2.717,2.61-3.619a12.917,12.917,0,0,0-.852-7.409Z" transform="translate(-581.615 -116.296)"/>
          </g>
          <g id="Group_1485" data-name="Group 1485" transform="translate(556.461 110.001)">
            <path id="Path_135" data-name="Path 135" class="cls-3" d="M558.4,113.145l-1.279,10.38,21.737,1.258-3.463-12.057Z" transform="translate(-557.118 -112.726)"/>
          </g>
          <g id="Group_1486" data-name="Group 1486" transform="translate(579.762 93.095)">
            <path id="Path_136" data-name="Path 136" class="cls-3" d="M584.669,95.138a50.523,50.523,0,0,1-1.2,12.857c-3.237,9.557-2.6,17.07.879,18.911,2.976,1.574,7.5-1.277,9.59-2.594,7.808-4.92,10.479-13.229,11.388-16.867a21.039,21.039,0,0,1-4.515-11.755Z" transform="translate(-581.358 -95.138)"/>
          </g>
          <g id="Group_1489" data-name="Group 1489" transform="translate(580.048 48.888)">
            <g id="Group_1487" data-name="Group 1487" transform="translate(0.334 0.331)">
              <path id="Path_137" data-name="Path 137" class="cls-5" d="M603.982,81.2c-4.153-.455-10.574-1.315-15.476-4.9a15.936,15.936,0,0,1-4.383-4.777,13.849,13.849,0,0,1-2.1-6.3c-.433-6.942,4.9-14.576,11.766-15.606a10.873,10.873,0,0,1,5.643.633c1.759.709,4.758,2.488,9.046,14.14,3.163,8.608,5.133,13.961,2.682,16.269-.24.227-.875.747-3.23.784" transform="translate(-582.003 -49.494)"/>
            </g>
            <g id="Group_1488" data-name="Group 1488" transform="translate(0)">
              <path id="Path_138" data-name="Path 138" class="cls-4" d="M606.976,81.885l-.242-.635c1.533-.026,3.726-.408,4.187-.843,2.288-2.155.282-7.616-2.756-15.882-4.492-12.21-7.558-13.447-8.868-13.976a10.477,10.477,0,0,0-5.47-.612c-6.445.968-11.918,8.239-11.48,15.255A13.487,13.487,0,0,0,584.4,71.34a15.679,15.679,0,0,0,4.294,4.679c5.084,3.717,11.995,4.474,15.316,4.837l-.072.662c-3.38-.369-10.411-1.138-15.638-4.961a16.334,16.334,0,0,1-4.474-4.876,14.132,14.132,0,0,1-2.141-6.447c-.458-7.336,5.286-14.943,12.048-15.959a11.193,11.193,0,0,1,5.818.655c2.3.929,5.195,3.357,9.234,14.334,3.251,8.848,5.206,14.171,2.6,16.628A8.545,8.545,0,0,1,606.976,81.885Z" transform="translate(-581.655 -49.149)"/>
            </g>
          </g>
          <g id="Group_1490" data-name="Group 1490" transform="translate(576.667 71.538)">
            <path id="Path_139" data-name="Path 139" class="cls-3" d="M584.173,101.151a21.946,21.946,0,0,1-2.728-3.535,17.951,17.951,0,0,1-2.754-6.881,16.269,16.269,0,0,1,.607-7.676,6.415,6.415,0,0,1,2.559-3.685c.138-.089.249-.148.348-.2a9.746,9.746,0,0,1,4.193-1.009c1.16-.12,3.922-.408,5.195-2.083a4.33,4.33,0,0,0,.719-2.989l5.274.433a5.245,5.245,0,0,0,.651,3.087c1.1,1.858,3.424,2.75,6.062,3.755a5.923,5.923,0,0,1,.946.367c2.305,1.426,1.8,6.081,1.45,9a39.74,39.74,0,0,1-3.956,12.987" transform="translate(-578.151 -72.727)"/>
            <path id="Path_140" data-name="Path 140" class="cls-4" d="M603.023,102.849l-.6-.3a39.624,39.624,0,0,0,3.923-12.878c.307-2.563.876-7.332-1.294-8.673a.864.864,0,0,0-.249-.107c-.122-.041-.308-.107-.64-.233-2.606-.992-5.068-1.929-6.23-3.9a5.5,5.5,0,0,1-.71-2.951l-4.574-.374a4.361,4.361,0,0,1-.807,2.826c-1.36,1.792-4.209,2.087-5.426,2.214-.157.015-.323.03-.5.045a8.371,8.371,0,0,0-3.57.925c-.107.058-.2.111-.326.189a6.035,6.035,0,0,0-2.424,3.512,15.95,15.95,0,0,0-.593,7.515,17.541,17.541,0,0,0,2.708,6.758,21.657,21.657,0,0,0,2.687,3.481l-.484.46a22.293,22.293,0,0,1-2.768-3.589,18.143,18.143,0,0,1-2.8-7,16.639,16.639,0,0,1,.62-7.833,6.661,6.661,0,0,1,2.694-3.86c.138-.089.251-.15.351-.2a8.972,8.972,0,0,1,3.852-1.014c.169-.013.331-.027.484-.044,1.13-.116,3.778-.39,4.963-1.952a3.9,3.9,0,0,0,.652-2.759l-.033-.393,5.994.492-.02.326a5,5,0,0,0,.606,2.9c1.044,1.766,3.29,2.622,5.893,3.613.32.121.5.183.618.223a1.5,1.5,0,0,1,.384.172c2.532,1.565,1.952,6.419,1.606,9.318A40.319,40.319,0,0,1,603.023,102.849Z" transform="translate(-578.138 -72.712)"/>
          </g>
          <g id="Group_1491" data-name="Group 1491" transform="translate(599.463 92.917)">
            <path id="Path_141" data-name="Path 141" class="cls-4" d="M609.262,126.106a.416.416,0,0,1-.089-.012.335.335,0,0,1-.232-.411A21.238,21.238,0,0,0,604.7,106.07a14.166,14.166,0,0,1-2.653-10.838.339.339,0,0,1,.383-.275.332.332,0,0,1,.275.384,13.505,13.505,0,0,0,2.517,10.314,21.948,21.948,0,0,1,4.17,7.508,22.212,22.212,0,0,1,.2,12.7A.335.335,0,0,1,609.262,126.106Z" transform="translate(-601.852 -94.953)"/>
          </g>
          <g id="Group_1492" data-name="Group 1492" transform="translate(584.44 109.238)">
            <path id="Path_142" data-name="Path 142" class="cls-4" d="M594.435,121.743a.336.336,0,0,1-.314-.22,16.641,16.641,0,0,0-3.37-5.549,16.923,16.923,0,0,0-4.354-3.415.334.334,0,0,1,.321-.585,17.61,17.61,0,0,1,4.526,3.55,17.338,17.338,0,0,1,3.5,5.771.333.333,0,0,1-.2.428A.322.322,0,0,1,594.435,121.743Z" transform="translate(-586.224 -111.932)"/>
          </g>
          <g id="Group_1493" data-name="Group 1493" transform="translate(591.22 110.279)">
            <path id="Path_143" data-name="Path 143" class="cls-4" d="M593.935,131.311a.333.333,0,0,1-.326-.269,17.628,17.628,0,0,1,7.282-17.966.333.333,0,1,1,.383.546,16.968,16.968,0,0,0-7.011,17.29.333.333,0,0,1-.261.392A.387.387,0,0,1,593.935,131.311Z" transform="translate(-593.277 -113.015)"/>
          </g>
          <g id="Group_1494" data-name="Group 1494" transform="translate(598.843 98.779)">
            <path id="Path_144" data-name="Path 144" class="cls-6" d="M601.207,101.051" transform="translate(-601.207 -101.051)"/>
          </g>
          <g id="Group_1495" data-name="Group 1495" transform="translate(581.955 83.389)">
            <path id="Path_145" data-name="Path 145" class="cls-3" d="M584.812,86.585a41.907,41.907,0,0,1,9.269-1.175c4.443-.058,7.632-.1,9.034,1.995.8,1.2,1.3,3.51.4,5-.508.838-1.575,1.608-1.895,3.28a4.862,4.862,0,0,0-.075.586,63.777,63.777,0,0,1-7.139.144c-6.5-.235-7.79-1.288-8.385-2.009a10.892,10.892,0,0,1-1.408-2.606,6.213,6.213,0,0,1-.614-2.724A5.093,5.093,0,0,1,584.812,86.585Z" transform="translate(-583.653 -85.055)"/>
            <path id="Path_146" data-name="Path 146" class="cls-4" d="M596.646,96.778q-1.142,0-2.27-.041c-6.245-.225-7.868-1.2-8.633-2.132a11.054,11.054,0,0,1-1.462-2.7,6.575,6.575,0,0,1-.636-2.864,5.351,5.351,0,0,1,.87-2.656l.073-.114.132-.031a42.428,42.428,0,0,1,9.343-1.184c4.537-.062,7.814-.1,9.318,2.145a5.517,5.517,0,0,1,.4,5.359,6.788,6.788,0,0,1-.585.782,5.087,5.087,0,0,0-1.267,2.388,4.617,4.617,0,0,0-.07.544l-.018.292-.292.022C599.915,96.716,598.272,96.778,596.646,96.778Zm-11.635-9.913a4.674,4.674,0,0,0-.694,2.212,5.978,5.978,0,0,0,.59,2.586,10.637,10.637,0,0,0,1.355,2.514c.4.492,1.353,1.643,8.138,1.888a63.527,63.527,0,0,0,6.819-.123c.011-.1.029-.213.052-.335a5.725,5.725,0,0,1,1.408-2.689,6.506,6.506,0,0,0,.53-.7c.842-1.389.315-3.586-.388-4.636-1.3-1.942-4.421-1.9-8.742-1.846A41.782,41.782,0,0,0,585.011,86.865Z" transform="translate(-583.639 -85.041)"/>
          </g>
          <g id="Group_1496" data-name="Group 1496" transform="translate(577.384 103.13)">
            <path id="Path_147" data-name="Path 147" class="cls-3" d="M582.55,107.194a49.167,49.167,0,0,1,22.225.006,20.16,20.16,0,0,1,3.418,6.4,19.9,19.9,0,0,1,.938,6.348,62.524,62.524,0,0,1-29.466.711,25.184,25.184,0,0,1-.144-8.315,8.231,8.231,0,0,1,.963-2.985A7.067,7.067,0,0,1,582.55,107.194Z" transform="translate(-578.897 -105.591)"/>
            <path id="Path_148" data-name="Path 148" class="cls-4" d="M592.926,122.4a63.048,63.048,0,0,1-13.344-1.432l-.22-.047-.037-.222a25.466,25.466,0,0,1-.144-8.433l.03-.156a8.13,8.13,0,0,1,.977-2.941,7.368,7.368,0,0,1,2.161-2.263l.113-.05a49.5,49.5,0,0,1,22.376.006l.113.026.073.091a20.315,20.315,0,0,1,4.43,12.957l0,.252-.244.065a63,63,0,0,1-15.682,2.143Q593.225,122.4,592.926,122.4Zm-12.982-2.037a63.019,63.019,0,0,0,13.572,1.367,62.363,62.363,0,0,0,15.271-2.056,19.642,19.642,0,0,0-4.215-12.189,48.987,48.987,0,0,0-9.9-1.229,49.571,49.571,0,0,0-12,1.236,6.681,6.681,0,0,0-1.917,2.023,7.483,7.483,0,0,0-.892,2.717l-.029.157A24.54,24.54,0,0,0,579.944,120.362Z" transform="translate(-578.884 -105.578)"/>
          </g>
          <g id="Group_1497" data-name="Group 1497" transform="translate(553.679 111.708)">
            <path id="Path_149" data-name="Path 149" class="cls-4" d="M554.557,131.214l-.043,0a.333.333,0,0,1-.287-.374l2.062-16.014,24.04-.323,1.412,16.141a.333.333,0,0,1-.3.361.328.328,0,0,1-.361-.3l-1.358-15.522-22.842.306-1.988,15.44A.334.334,0,0,1,554.557,131.214Z" transform="translate(-554.223 -114.501)"/>
          </g>
          <g id="Group_1498" data-name="Group 1498" transform="translate(572.141 88.198)">
            <path id="Path_150" data-name="Path 150" class="cls-3" d="M582.752,90.748a24.993,24.993,0,0,1,1.172,11.218c-.529,4.072-2.435,10.459-4.795,10.485-2.022.022-4.065-4.633-5.327-10.8Z" transform="translate(-573.443 -90.071)"/>
            <path id="Path_151" data-name="Path 151" class="cls-4" d="M579.1,112.758c-3.129,0-5.105-8.467-5.638-11.067l-.032-.156,9.433-11.491.192.57a25.143,25.143,0,0,1,1.187,11.369c-.455,3.5-2.306,10.743-5.123,10.774Zm-4.951-11.045c1.291,6.218,3.274,10.377,4.952,10.377h.011c2.027-.023,3.929-6.042,4.468-10.193a24.354,24.354,0,0,0-.97-10.493Z" transform="translate(-573.429 -90.044)"/>
          </g>
          <g id="Group_1499" data-name="Group 1499" transform="translate(562.817 69.808)">
            <path id="Path_152" data-name="Path 152" class="cls-3" d="M564.1,77.622,564.8,71.7l6.98-.419q.32,3.145.639,6.291a8.957,8.957,0,0,1-8.311.053Z" transform="translate(-563.744 -70.927)"/>
            <path id="Path_153" data-name="Path 153" class="cls-4" d="M568.193,78.939a9.3,9.3,0,0,1-4.257-1.034l-.206-.106.752-6.431,7.579-.455.694,6.832-.2.106a9.334,9.334,0,0,1-4.31,1.088Zm-3.746-1.525a8.645,8.645,0,0,0,3.746.856h.049a8.653,8.653,0,0,0,3.8-.906l-.585-5.746L565.08,72Z" transform="translate(-563.73 -70.913)"/>
          </g>
          <g id="Group_1500" data-name="Group 1500" transform="translate(554.299 57.479)">
            <path id="Path_154" data-name="Path 154" class="cls-3" d="M558.484,59.169c-1.13-.941-2.47-.906-2.984-.314a1.6,1.6,0,0,0-.173,1.521,2.229,2.229,0,0,0,.973,1.075,11.323,11.323,0,0,1,2.93,2.909" transform="translate(-554.881 -58.1)"/>
            <path id="Path_155" data-name="Path 155" class="cls-4" d="M558.949,64.546a11.3,11.3,0,0,0-2.842-2.828A2.532,2.532,0,0,1,555,60.477a1.923,1.923,0,0,1,.234-1.854c.632-.727,2.169-.788,3.449.278l-.427.512c-1.015-.844-2.152-.775-2.518-.352a1.3,1.3,0,0,0-.112,1.187,1.871,1.871,0,0,0,.817.894,11.95,11.95,0,0,1,3.041,3.006Z" transform="translate(-554.868 -58.087)"/>
          </g>
          <g id="Group_1501" data-name="Group 1501" transform="translate(583.675 63.898)">
            <path id="Path_156" data-name="Path 156" class="cls-3" d="M588.268,65.425c-1.08-.5-2.1-.475-2.43-.023-.451.615.485,1.865.719,2.176a5.452,5.452,0,0,0,2.718,1.861" transform="translate(-585.439 -64.776)"/>
            <path id="Path_157" data-name="Path 157" class="cls-4" d="M589.178,69.693a5.689,5.689,0,0,1-2.855-1.96c-.858-1.146-1.1-1.989-.721-2.507.432-.59,1.572-.618,2.772-.066l-.234.507c-1-.462-1.866-.417-2.089-.112-.077.1-.253.549.715,1.843a5.132,5.132,0,0,0,2.581,1.764Z" transform="translate(-585.428 -64.764)"/>
          </g>
          <g id="Group_1502" data-name="Group 1502" transform="translate(576.203 56.779)">
            <path id="Path_158" data-name="Path 158" class="cls-3" d="M578.117,58.643c1.455-1,2.871-1.178,3.383-.629.481.514.121,1.615.04,1.861a5.026,5.026,0,0,1-1.425,1.966,29.745,29.745,0,0,0-2.184,2.568" transform="translate(-577.666 -57.372)"/>
            <path id="Path_159" data-name="Path 159" class="cls-4" d="M578.187,64.6l-.532-.4a30.006,30.006,0,0,1,2.209-2.6l.207-.215a4.09,4.09,0,0,0,1.142-1.624c.341-1.046.138-1.418.034-1.528-.325-.35-1.53-.307-2.95.675l-.379-.549c1.535-1.062,3.141-1.308,3.816-.582.28.3.528.923.114,2.19a4.654,4.654,0,0,1-1.3,1.881l-.2.213A29.161,29.161,0,0,0,578.187,64.6Z" transform="translate(-577.655 -57.359)"/>
          </g>
          <g id="Group_1503" data-name="Group 1503" transform="translate(557.834 46.918)">
            <ellipse id="Ellipse_1364" data-name="Ellipse 1364" class="cls-3" cx="9.67" cy="12.188" rx="9.67" ry="12.188" transform="translate(0.334 0.334)"/>
            <path id="Path_160" data-name="Path 160" class="cls-4" d="M568.55,72.144c-5.517,0-10-5.617-10-12.521s4.487-12.522,10-12.522,10,5.618,10,12.522S574.065,72.144,568.55,72.144Zm0-24.376c-5.149,0-9.337,5.318-9.337,11.854s4.188,11.853,9.337,11.853,9.336-5.317,9.336-11.853S573.7,47.768,568.55,47.768Z" transform="translate(-558.546 -47.1)"/>
          </g>
          <g id="Group_1506" data-name="Group 1506" transform="translate(553.479 116.367)">
            <g id="Group_1504" data-name="Group 1504" transform="translate(0.333 0.333)">
              <path id="Path_161" data-name="Path 161" class="cls-3" d="M554.362,131.448q.361-3,.8-6.107.406-2.874.858-5.643,4.845-.022,9.853.061,7.473.124,14.581.47.285,2.681.56,5.387.3,2.93.573,5.832" transform="translate(-554.362 -119.694)"/>
            </g>
            <g id="Group_1505" data-name="Group 1505" transform="translate(0)">
              <path id="Path_162" data-name="Path 162" class="cls-4" d="M554.35,131.768a.285.285,0,0,1-.04,0,.334.334,0,0,1-.291-.371c.242-2.025.511-4.082.8-6.116.268-1.89.559-3.79.86-5.647l.045-.28h.283c3.275-.013,6.593.006,9.86.061,4.856.081,9.765.239,14.591.471l.285.014.031.284q.285,2.68.559,5.388.3,2.93.573,5.834a.335.335,0,0,1-.3.364.339.339,0,0,1-.363-.3q-.277-2.9-.572-5.829-.26-2.564-.53-5.1c-4.727-.224-9.532-.379-14.284-.458-3.168-.051-6.382-.07-9.563-.061-.286,1.764-.559,3.564-.813,5.356-.287,2.028-.556,4.08-.8,6.1A.333.333,0,0,1,554.35,131.768Z" transform="translate(-554.016 -119.348)"/>
            </g>
          </g>
          <g id="Group_1509" data-name="Group 1509" transform="translate(555.315 42.393)">
            <g id="Group_1507" data-name="Group 1507" transform="translate(0.333 0.336)">
              <path id="Path_163" data-name="Path 163" class="cls-5" d="M558.712,58.666c.947.3,1.744-.387,2.811-.864,2.96-1.326,4.546.521,7.432-.079,4.2-.874,5.481-5.749,7.1-5.19,1.5.518.772,4.829,1.838,5.032.778.148,2.265-1.981,2.478-4.272.409-4.393-4.018-7.727-4.635-8.178a13.43,13.43,0,0,0-9.989-2.175c-1.466.253-5.266.907-7.645,4.272a9.437,9.437,0,0,0-1.146,9.018C557.28,56.966,557.648,58.328,558.712,58.666Z" transform="translate(-556.272 -42.742)"/>
            </g>
            <g id="Group_1508" data-name="Group 1508">
              <path id="Path_164" data-name="Path 164" class="cls-4" d="M559.171,59.061a1.885,1.885,0,0,1-.574-.089h0c-1.047-.334-1.486-1.438-1.807-2.243-.054-.137-.1-.266-.155-.379a9.727,9.727,0,0,1,1.177-9.344c2.46-3.478,6.384-4.154,7.861-4.408a13.673,13.673,0,0,1,10.243,2.235c.869.635,5.184,4.033,4.771,8.478a6.713,6.713,0,0,1-2.019,4.3,1.08,1.08,0,0,1-.854.268c-.731-.139-.852-1.189-.993-2.407-.124-1.081-.28-2.426-.891-2.638-.486-.164-1.075.558-1.823,1.477-1.1,1.352-2.613,3.207-5.1,3.724a7.838,7.838,0,0,1-3.417-.15,5.728,5.728,0,0,0-3.947.206c-.258.116-.5.243-.731.367A3.831,3.831,0,0,1,559.171,59.061Zm-.371-.727c.578.183,1.117-.1,1.8-.465.244-.13.5-.264.771-.385a6.36,6.36,0,0,1,4.356-.252,7.2,7.2,0,0,0,3.146.151c2.253-.469,3.619-2.146,4.716-3.492.913-1.122,1.635-2.006,2.559-1.686,1.009.348,1.183,1.859,1.337,3.192.077.665.206,1.779.455,1.827a.563.563,0,0,0,.328-.146,6.082,6.082,0,0,0,1.755-3.83c.38-4.085-3.682-7.279-4.5-7.878a13,13,0,0,0-9.735-2.116c-1.4.242-5.129.883-7.43,4.136a9.051,9.051,0,0,0-1.113,8.689c.054.12.108.256.166.4.286.72.643,1.615,1.389,1.852Z" transform="translate(-555.925 -42.393)"/>
            </g>
          </g>
          <g id="Group_1510" data-name="Group 1510" transform="translate(547.699 74.702)">
            <path id="Path_165" data-name="Path 165" class="cls-3" d="M555.088,117.589c-1.418-1.282-.1-3.885.559-9.515a49.734,49.734,0,0,0,.064-11.012c-5.692.564-6.87-1.117-7.138-1.6-.767-1.374.435-2.723,3.622-10.123,1.7-3.947,1.776-4.534,2.733-5.575,2.54-2.765,6.3-3.292,8.55-3.381a4.7,4.7,0,0,0,8.151,0c7.334,1.172,10.142,3.791,11.348,5.976,1.38,2.5.3,3.786,2.238,8.492,1.884,4.587,3.245,6.166,2.557,7.156-.319.46-.848.413-3.344.638-2,.181-3.63.388-4.727.542.181,2.332.466,5.787.879,9.986.4,4.062,1.877,6.816.32,8.65a4.86,4.86,0,0,1-3.038,1.415c-4.4.8-6.339-2.311-10.868-3.145C560.778,114.95,557.16,119.463,555.088,117.589Z" transform="translate(-548.016 -76.019)"/>
            <path id="Path_166" data-name="Path 166" class="cls-4" d="M576.46,119.689a10.635,10.635,0,0,1-5.011-1.561,15.861,15.861,0,0,0-4.528-1.719,13.313,13.313,0,0,0-7.734,1.162c-1.8.7-3.222,1.259-4.336.251h0c-1.087-.984-.788-2.559-.293-5.168.234-1.239.528-2.782.745-4.633a49.489,49.489,0,0,0,.1-10.61c-5.08.433-6.648-.931-7.133-1.8-.626-1.12-.133-2.183,1.329-5.341.6-1.3,1.351-2.919,2.28-5.076.413-.961.731-1.723.989-2.34a9.561,9.561,0,0,1,1.8-3.328c1.961-2.133,5-3.34,8.784-3.489l.2-.009.1.178a4.368,4.368,0,0,0,7.571,0l.113-.2.23.037c5.965.953,9.863,3.02,11.587,6.144a8.031,8.031,0,0,1,.926,3.326,17.436,17.436,0,0,0,1.328,5.2c.64,1.56,1.218,2.764,1.681,3.731.935,1.952,1.405,2.932.841,3.742-.355.509-.843.549-2.462.682-.323.027-.7.059-1.127.1-1.483.134-2.962.3-4.4.5.25,3.189.537,6.438.855,9.666a32.936,32.936,0,0,0,.577,3.488c.462,2.258.828,4.043-.336,5.411a5.177,5.177,0,0,1-3.232,1.528A8.24,8.24,0,0,1,576.46,119.689Zm-11.513-4.13a11.637,11.637,0,0,1,2.1.192,16.483,16.483,0,0,1,4.709,1.781c1.907.974,3.552,1.812,6.04,1.365a4.554,4.554,0,0,0,2.841-1.3c.952-1.121.633-2.683.19-4.845a33.436,33.436,0,0,1-.588-3.557c-.328-3.338-.624-6.7-.88-9.992l-.024-.313.31-.043c1.547-.216,3.142-.4,4.744-.544.433-.039.806-.07,1.131-.1,1.452-.12,1.8-.158,1.97-.4.341-.491-.073-1.354-.9-3.073-.467-.975-1.049-2.188-1.7-3.766a18.031,18.031,0,0,1-1.374-5.376,7.39,7.39,0,0,0-.847-3.082c-1.6-2.9-5.26-4.838-10.885-5.77a5.038,5.038,0,0,1-8.507-.024c-3.512.176-6.316,1.3-8.12,3.265a9,9,0,0,0-1.679,3.133c-.258.619-.576,1.383-.992,2.348-.932,2.164-1.683,3.786-2.287,5.092-1.391,3-1.811,3.912-1.351,4.735.333.6,1.668,1.94,6.814,1.429l.33-.033.035.33a50.172,50.172,0,0,1-.064,11.086c-.22,1.875-.516,3.43-.753,4.68-.466,2.46-.724,3.814.085,4.547h0c.77.7,1.833.332,3.645-.377A15.974,15.974,0,0,1,564.947,115.559Z" transform="translate(-548.002 -76.004)"/>
          </g>
          <g id="Group_1511" data-name="Group 1511" transform="translate(586.34 55.304)">
            <path id="Path_167" data-name="Path 167" class="cls-3" d="M598.152,56.134a8.779,8.779,0,0,1,4.839,8.594c-.253,3.751-3.106,9.066-7.383,8.924-3.445-.113-6.975-3.739-7.06-8.681" transform="translate(-588.214 -55.836)"/>
            <path id="Path_168" data-name="Path 168" class="cls-4" d="M595.766,73.977c-.061,0-.121,0-.183,0-3.492-.114-7.293-3.762-7.382-9.009l.667-.012c.084,4.867,3.551,8.249,6.737,8.354l.152,0c3.91,0,6.641-4.977,6.887-8.616a8.557,8.557,0,0,0-1.41-5.427,8.705,8.705,0,0,0-3.247-2.847l.3-.6a9.36,9.36,0,0,1,3.5,3.069,9.2,9.2,0,0,1,1.523,5.845C603.053,68.556,600.224,73.976,595.766,73.977Z" transform="translate(-588.201 -55.824)"/>
          </g>
          <g id="Group_1512" data-name="Group 1512" transform="translate(586.048 52.055)">
            <path id="Path_169" data-name="Path 169" class="cls-4" d="M588.231,65.155a.334.334,0,0,1-.047-.664,18.9,18.9,0,0,0,7.035-2.458,16.791,16.791,0,0,0,2.58-1.867,15.473,15.473,0,0,0,4.458-7.478.337.337,0,0,1,.411-.234.334.334,0,0,1,.233.41,16.152,16.152,0,0,1-4.655,7.8,17.734,17.734,0,0,1-2.686,1.945,19.566,19.566,0,0,1-7.281,2.544A.4.4,0,0,1,588.231,65.155Z" transform="translate(-587.897 -52.444)"/>
          </g>
          <g id="Group_1513" data-name="Group 1513" transform="translate(587.066 55.04)">
            <path id="Path_170" data-name="Path 170" class="cls-5" d="M588.956,64.476a18.87,18.87,0,0,0,5.4-1.8,15.337,15.337,0,0,0,3.335-2.245,14.74,14.74,0,0,0,2.729-3.253c-.6-.818-1.453-1.772-2.2-1.605-.466.1-.685.6-.882.946-1.071,1.868-3.182,2.041-4.955,3.172A8.676,8.676,0,0,0,588.956,64.476Z" transform="translate(-588.956 -55.55)"/>
          </g>
          <g id="Group_1514" data-name="Group 1514" transform="translate(578.013 88.239)">
            <line id="Line_24" data-name="Line 24" class="cls-3" x1="1.079" y1="9.908" transform="translate(0.333 0.335)"/>
            <path id="Path_171" data-name="Path 171" class="cls-4" d="M580.949,100.663a.334.334,0,0,1-.331-.3l-1.079-9.907a.334.334,0,0,1,.663-.072l1.078,9.908a.333.333,0,0,1-.3.367A.225.225,0,0,1,580.949,100.663Z" transform="translate(-579.538 -90.086)"/>
          </g>
          <g id="Group_1515" data-name="Group 1515" transform="translate(554.973 89.745)">
            <path id="Path_172" data-name="Path 172" class="cls-3" d="M555.954,96.576a24.44,24.44,0,0,1,.013-2.948c.036-.569.091-1.111.16-1.625" transform="translate(-555.583 -91.667)"/>
            <path id="Path_173" data-name="Path 173" class="cls-4" d="M555.94,96.9a.333.333,0,0,1-.333-.315,25.2,25.2,0,0,1,.013-2.989c.036-.549.09-1.1.163-1.649a.334.334,0,0,1,.661.088c-.067.507-.121,1.042-.158,1.6a24.477,24.477,0,0,0-.014,2.908.333.333,0,0,1-.314.352Z" transform="translate(-555.57 -91.654)"/>
          </g>
          <g id="Group_1516" data-name="Group 1516" transform="translate(546.112 113.809)">
            <path id="Path_174" data-name="Path 174" class="cls-4" d="M546.685,128.363a.335.335,0,0,1-.236-.569,10.441,10.441,0,0,0,2.788-5.079,10.332,10.332,0,0,0-.31-5.587.334.334,0,0,1,.631-.215,10.993,10.993,0,0,1,.33,5.946,11.106,11.106,0,0,1-2.965,5.4A.332.332,0,0,1,546.685,128.363Z" transform="translate(-546.351 -116.687)"/>
          </g>
          <g id="Group_1517" data-name="Group 1517" transform="translate(542.169 112.76)">
            <path id="Path_175" data-name="Path 175" class="cls-4" d="M542.583,127.272a.334.334,0,0,1-.228-.578c2.2-2.051,3.138-3.7,2.785-4.9a3.1,3.1,0,0,0-.751-1.152,3.153,3.153,0,0,1-.967-1.848,3.951,3.951,0,0,1,1.485-3.1.334.334,0,0,1,.466.479,3.335,3.335,0,0,0-1.286,2.56,2.5,2.5,0,0,0,.8,1.468,3.663,3.663,0,0,1,.89,1.406c.435,1.486-.535,3.311-2.97,5.579A.327.327,0,0,1,542.583,127.272Z" transform="translate(-542.25 -115.596)"/>
          </g>
          <g id="Group_1518" data-name="Group 1518" transform="translate(611.853 113.809)">
            <path id="Path_176" data-name="Path 176" class="cls-4" d="M618.208,128.363a.327.327,0,0,1-.237-.1,11.019,11.019,0,0,1-2.638-11.352.334.334,0,0,1,.632.215,10.345,10.345,0,0,0,2.478,10.665.335.335,0,0,1-.236.57Z" transform="translate(-614.742 -116.687)"/>
          </g>
          <g id="Group_1519" data-name="Group 1519" transform="translate(615.963 112.76)">
            <path id="Path_177" data-name="Path 177" class="cls-4" d="M622.316,127.272a.331.331,0,0,1-.228-.09c-2.435-2.269-3.406-4.094-2.969-5.579a3.662,3.662,0,0,1,.89-1.406,2.508,2.508,0,0,0,.8-1.468,3.34,3.34,0,0,0-1.286-2.561.333.333,0,1,1,.466-.477,3.949,3.949,0,0,1,1.484,3.1,3.147,3.147,0,0,1-.966,1.847,3.1,3.1,0,0,0-.751,1.153c-.354,1.2.583,2.853,2.785,4.9a.334.334,0,0,1-.228.578Z" transform="translate(-619.018 -115.596)"/>
          </g>
          <g id="Group_1520" data-name="Group 1520" class="cls-7" transform="translate(557.408 109.631)">
            <path id="Path_178" data-name="Path 178" class="cls-8" d="M577.732,121.985c.27,1.212.995,4.471-.917,7.1-2.629,3.62-8.007,2.978-8.726,2.882-3.99-.537-9.881-3.675-9.985-9.644a9.816,9.816,0,0,1,9.643-9.985C573.895,112.235,576.97,118.563,577.732,121.985Z" transform="translate(-558.102 -112.341)"/>
          </g>
          <g id="Group_1521" data-name="Group 1521" class="cls-7" transform="translate(582.66 107.074)">
            <path id="Path_179" data-name="Path 179" class="cls-8" d="M604,119.325c.269,1.211.995,4.47-.917,7.1-2.629,3.62-8.007,2.978-8.726,2.881-3.99-.536-9.882-3.674-9.986-9.643a9.816,9.816,0,0,1,9.643-9.985C600.166,109.575,603.241,115.9,604,119.325Z" transform="translate(-584.372 -109.681)"/>
          </g>
        </g>
      </g>
    </g>
  </g>
</svg>
