<svg xmlns="http://www.w3.org/2000/svg" xmlns:xlink="http://www.w3.org/1999/xlink" width="100" height="100" viewBox="0 0 100 100">
  <defs>
    <style>
      .cls-1, .cls-10 {
        fill: none;
      }

      .cls-2 {
        opacity: 0.05;
        fill: url(#linear-gradient);
      }

      .cls-3 {
        fill: #fff;
      }

      .cls-4 {
        fill: #211f20;
      }

      .cls-5 {
        fill: #a2c064;
      }

      .cls-6 {
        fill: #2d2d2d;
      }

      .cls-7 {
        fill: #474747;
      }

      .cls-12, .cls-8 {
        fill: #ff8e93;
      }

      .cls-9 {
        fill: #ffa7ac;
      }

      .cls-10 {
        stroke: #2d2d2d;
        stroke-miterlimit: 10;
        stroke-width: 0.704px;
      }

      .cls-11 {
        mix-blend-mode: multiply;
        isolation: isolate;
      }

      .cls-12 {
        opacity: 0.5;
      }
    </style>
    <linearGradient id="linear-gradient" x1="0.5" x2="0.5" y2="1" gradientUnits="objectBoundingBox">
      <stop offset="0" stop-color="#1778f2"/>
      <stop offset="1" stop-color="#f40009"/>
    </linearGradient>
  </defs>
  <g id="Group_124973" data-name="Group 124973" transform="translate(-218 -108)">
    <rect id="Rectangle_10346" data-name="Rectangle 10346" class="cls-1" width="100" height="100" transform="translate(218 108)"/>
    <g id="Group_124893" data-name="Group 124893" transform="translate(5)">
      <path id="Path_153238" data-name="Path 153238" class="cls-2" d="M32.3,83.491A105.79,105.79,0,0,1,17.2,70.917,105.57,105.57,0,0,1,4.909,56.1,17.251,17.251,0,0,1,0,44.2,16.783,16.783,0,0,1,4.909,32.3,144.539,144.539,0,0,1,32.3,4.909,17.263,17.263,0,0,1,44.2,0,16.781,16.781,0,0,1,56.1,4.909a164.255,164.255,0,0,1,13.841,12.23A164.608,164.608,0,0,1,83.491,32.3,17.24,17.24,0,0,1,88.4,44.2a16.782,16.782,0,0,1-4.909,11.9A163.679,163.679,0,0,1,69.255,71.955,164.629,164.629,0,0,1,56.1,83.491a17.386,17.386,0,0,1-7.239,4.259,16.564,16.564,0,0,1-4.664.65,17.462,17.462,0,0,1-5.792-1.133A18.7,18.7,0,0,1,32.3,83.491Z" transform="translate(221.375 112)"/>
      <g id="Group_75769" data-name="Group 75769" transform="translate(-4.984 4)">
        <g id="Group_1008" data-name="Group 1008" transform="translate(254.198 149.749)">
          <path id="Path_108" data-name="Path 108" class="cls-3" d="M841.852,111.434c-.136-3.128-.259-11.585,3.1-14.453a7.754,7.754,0,0,1,.62-.5c1-.706,2.295-1.129,7.248-3.32,6.759-2.984,8.043-3.824,9.108-5.236a10.828,10.828,0,0,0,2.019-6.18l9.126.916a15.518,15.518,0,0,0,.45,2.828,16.249,16.249,0,0,0,1.434,3.471c3.359,5.822,9.951,6.252,13.539,8.587,3.667,2.387,7.221,8.632,5.169,26.456" transform="translate(-841.502 -81.418)"/>
          <path id="Path_109" data-name="Path 109" class="cls-4" d="M893.656,124.29l-.035,0a.3.3,0,0,1-.263-.331c1.627-14.133-.067-22.939-5.034-26.172a22.2,22.2,0,0,0-4.041-1.842c-3.394-1.3-7.241-2.769-9.593-6.846a16.362,16.362,0,0,1-1.465-3.544,15.554,15.554,0,0,1-.442-2.632l-8.562-.858a10.843,10.843,0,0,1-2.064,6.032c-1.1,1.458-2.445,2.334-9.227,5.328-1.609.713-2.833,1.237-3.784,1.647a20.115,20.115,0,0,0-3.413,1.645,6.706,6.706,0,0,0-.54.429l-.06.052c-3.031,2.586-3.179,10.014-3,14.212a.3.3,0,0,1-.286.312.285.285,0,0,1-.312-.286c-.186-4.307-.017-11.942,3.208-14.693a7.87,7.87,0,0,1,.641-.515,20.25,20.25,0,0,1,3.521-1.7c.95-.409,2.172-.934,3.778-1.645,6.659-2.94,7.963-3.78,8.991-5.142a10.388,10.388,0,0,0,1.959-6.013l.011-.317,9.692.971.017.252A15.021,15.021,0,0,0,873.8,85.4a16.105,16.105,0,0,0,1.4,3.4c2.247,3.893,5.988,5.324,9.29,6.586a22.541,22.541,0,0,1,4.152,1.9c5.175,3.366,6.959,12.362,5.3,26.74A.3.3,0,0,1,893.656,124.29Z" transform="translate(-841.49 -81.405)"/>
        </g>
        <g id="Group_1009" data-name="Group 1009" transform="translate(262.898 172.282)">
          <path id="Path_110" data-name="Path 110" class="cls-3" d="M858.511,104.833,851,106.293l-.469,7.194,6.308,2.4Z" transform="translate(-850.535 -104.833)"/>
        </g>
        <g id="Group_1010" data-name="Group 1010" transform="translate(263.058 176.482)">
          <path id="Path_111" data-name="Path 111" class="cls-3" d="M851.437,124.28a12.55,12.55,0,0,1,5.445-15.08l16.894,2.483c.35.627,3.873,7.189.671,13.393-3.616,7.008-13.413,8.908-17.727,6.087-.486-.317-.82-.6-5.283-6.884Z" transform="translate(-850.702 -109.2)"/>
        </g>
        <g id="Group_1011" data-name="Group 1011" transform="translate(268.099 124.795)">
          <path id="Path_112" data-name="Path 112" class="cls-5" d="M855.943,55.46" transform="translate(-855.943 -55.46)"/>
        </g>
        <g id="Group_1012" data-name="Group 1012" transform="translate(265.853 135.506)">
          <path id="Path_113" data-name="Path 113" class="cls-3" d="M857.32,66.946c-.235.026-2.655.324-3.254,1.878-.63,1.634.8,4.531,4.171,5.769a19.392,19.392,0,0,1-.917-7.647Z" transform="translate(-853.62 -66.609)"/>
          <path id="Path_114" data-name="Path 114" class="cls-6" d="M858.707,75.077l-.584-.215A7.14,7.14,0,0,1,854,71.291a3.383,3.383,0,0,1-.222-2.588c.66-1.715,3.212-2.038,3.5-2.069l.36-.038-.028.361a19.092,19.092,0,0,0,.9,7.53Zm-1.724-7.79c-.7.132-2.227.54-2.648,1.633a2.851,2.851,0,0,0,.209,2.125,6.34,6.34,0,0,0,3.206,3.014,19.674,19.674,0,0,1-.766-6.772Z" transform="translate(-853.608 -66.596)"/>
        </g>
        <g id="Group_1013" data-name="Group 1013" transform="translate(291.382 134.138)">
          <path id="Path_115" data-name="Path 115" class="cls-3" d="M880.746,65.486c.237,0,2.673.025,3.424,1.5.789,1.554-.345,4.6-3.572,6.2a19.439,19.439,0,0,0,.148-7.707Z" transform="translate(-880.168 -65.186)"/>
          <path id="Path_116" data-name="Path 116" class="cls-6" d="M880.151,73.73l.137-.615a19.149,19.149,0,0,0,.145-7.588l-.064-.352.359,0c.27.013,2.864.038,3.692,1.667a3.392,3.392,0,0,1,.045,2.581,7.252,7.252,0,0,1-3.75,4.028Zm.937-7.941a19.7,19.7,0,0,1-.082,6.817,6.445,6.445,0,0,0,2.889-3.374,2.849,2.849,0,0,0-.01-2.12C883.358,66.074,881.8,65.841,881.088,65.79Z" transform="translate(-880.151 -65.174)"/>
        </g>
        <g id="Group_1014" data-name="Group 1014" transform="translate(268.448 119.893)">
          <ellipse id="Ellipse_911" data-name="Ellipse 911" class="cls-3" cx="11.726" cy="16.825" rx="11.726" ry="16.825" transform="translate(0 1.039) rotate(-2.539)"/>
          <path id="Path_117" data-name="Path 117" class="cls-6" d="M869.156,84.817a9.8,9.8,0,0,1-6.57-2.723c-3.359-3.021-5.532-8.15-5.811-13.722C856.3,58.941,861.3,50.967,867.924,50.6a9.648,9.648,0,0,1,7.056,2.708c3.36,3.021,5.532,8.151,5.811,13.722.472,9.43-4.529,17.4-11.149,17.776C869.479,84.812,869.318,84.817,869.156,84.817Zm-.748-33.634c-.149,0-.3,0-.45.013-6.292.353-11.038,8.044-10.584,17.147.272,5.415,2.37,10.389,5.613,13.3a9.089,9.089,0,0,0,6.621,2.556c6.292-.353,11.039-8.044,10.583-17.147-.271-5.415-2.37-10.389-5.614-13.3A9.209,9.209,0,0,0,868.408,51.183Z" transform="translate(-856.323 -50.371)"/>
        </g>
        <g id="Group_1017" data-name="Group 1017" transform="translate(265.754 112.466)">
          <g id="Group_1015" data-name="Group 1015" transform="translate(0.296 0.299)">
            <path id="Path_118" data-name="Path 118" class="cls-7" d="M872.088,43.416a14.77,14.77,0,0,0-10.26,1.084c-1.07.545-5.9,2.991-7.488,8.549-1.739,6.094,1.26,12.645,2.668,12.551,1.256-.083.442-5.413,3.786-7.69,2.265-1.543,3.623.218,7.758-1.3,3.2-1.175,3.965-2.809,5.875-2.377,1.773.4,2.845,2.206,3.661,3.579,2.106,3.544,1.635,6.476,2.277,6.549,1,.114,4.52-6.757,2.2-12.9C880.26,45.353,873.616,43.777,872.088,43.416Z" transform="translate(-853.813 -42.952)"/>
          </g>
          <g id="Group_1016" data-name="Group 1016">
            <path id="Path_119" data-name="Path 119" class="cls-6" d="M856.966,65.89a1.632,1.632,0,0,1-1.153-.754c-1.626-2.013-3.147-7.366-1.772-12.182a14.223,14.223,0,0,1,7.632-8.73,14.9,14.9,0,0,1,10.474-1.113l-.07.292.072-.292c6.881,1.634,9.61,5.38,10.687,8.234A14.768,14.768,0,0,1,881.3,64c-.368.472-.7.679-.981.65-.477-.054-.571-.607-.728-1.523a14.06,14.06,0,0,0-1.774-5.171c-.812-1.365-1.821-3.064-3.469-3.438-.993-.228-1.621.166-2.663.817a15.489,15.489,0,0,1-3.041,1.548,10.662,10.662,0,0,1-4.734.658,4.13,4.13,0,0,0-2.957.61c-1.92,1.306-2.4,3.7-2.756,5.45-.264,1.3-.453,2.243-1.179,2.291Zm11.3-22.648a14.591,14.591,0,0,0-13.651,9.878c-1.427,5,.379,10.05,1.663,11.641.316.391.56.529.687.529h.01c.268-.017.461-.969.631-1.81.373-1.85.884-4.385,3.007-5.828a4.7,4.7,0,0,1,3.326-.713,10.029,10.029,0,0,0,4.5-.622,14.919,14.919,0,0,0,2.931-1.495c1.049-.655,1.878-1.172,3.113-.893,1.9.431,3.029,2.331,3.853,3.718a14.767,14.767,0,0,1,1.85,5.375,3.794,3.794,0,0,0,.254,1.049,4.488,4.488,0,0,0,.828-1.11,14.469,14.469,0,0,0,1.01-11.4c-1.026-2.718-3.64-6.289-10.265-7.863l.067-.291-.069.291A16.209,16.209,0,0,0,868.268,43.242Z" transform="translate(-853.505 -42.641)"/>
          </g>
        </g>
        <g id="Group_1018" data-name="Group 1018" transform="translate(282.871 144.773)">
          <circle id="Ellipse_912" data-name="Ellipse 912" class="cls-8" cx="1.993" cy="1.993" r="1.993"/>
        </g>
        <g id="Group_1019" data-name="Group 1019" transform="translate(270.881 161.768)">
          <circle id="Ellipse_913" data-name="Ellipse 913" class="cls-9" cx="1.993" cy="1.993" r="1.993" transform="translate(0 0)"/>
        </g>
        <g id="Group_1020" data-name="Group 1020" transform="translate(294.028 161.455)">
          <circle id="Ellipse_914" data-name="Ellipse 914" class="cls-8" cx="1.993" cy="1.993" r="1.993" transform="translate(0)"/>
        </g>
        <g id="Group_1021" data-name="Group 1021" transform="translate(285.507 125.722)">
          <circle id="Ellipse_915" data-name="Ellipse 915" class="cls-8" cx="3.215" cy="3.215" r="3.215"/>
        </g>
        <g id="Group_1024" data-name="Group 1024" transform="translate(225.669 130.569)">
          <g id="Group_1022" data-name="Group 1022" transform="translate(0.339 0.342)">
            <path id="Path_120" data-name="Path 120" class="cls-7" d="M815.254,100.254a23.556,23.556,0,0,1-3.052-10.5c-.44-10.511,5.644-24.3,16.368-27.248a13.076,13.076,0,0,1,7.768-.147c6.932,2.244,9.634,10.413,14.5,26,5.309,17.025,3.44,20.261,2.289,21.549-.753.843-2.194,1.966-7.425,2.268C840.732,112.459,822.849,113.492,815.254,100.254Z" transform="translate(-812.18 -61.819)"/>
          </g>
          <g id="Group_1023" data-name="Group 1023">
            <path id="Path_121" data-name="Path 121" class="cls-6" d="M841.715,112.616c-13.12,0-22.115-4.1-26.768-12.206h0a23.808,23.808,0,0,1-3.1-10.657,32.876,32.876,0,0,1,4.038-16.637c3.111-5.687,7.579-9.578,12.577-10.953a13.326,13.326,0,0,1,7.962-.142c6.963,2.253,9.689,10.1,14.714,26.222,4.992,16,3.807,20.1,2.219,21.874-.9,1.012-2.519,2.085-7.658,2.38Q843.649,112.615,841.715,112.616Zm-26.18-12.545c4.972,8.665,15.114,12.611,30.129,11.749,4.921-.284,6.428-1.3,7.191-2.155,1.356-1.517,2.585-5.367-2.359-21.222-4.956-15.894-7.633-23.628-14.277-25.779a12.7,12.7,0,0,0-7.573.152c-10.2,2.806-16.568,16.177-16.119,26.908a23.15,23.15,0,0,0,3.008,10.348Z" transform="translate(-811.828 -61.463)"/>
          </g>
        </g>
        <g id="Group_1025" data-name="Group 1025" transform="translate(220.5 163.858)">
          <path id="Path_122" data-name="Path 122" class="cls-3" d="M851.22,130.9c1.53-14.918-1.513-20.336-4.772-22.432-3.006-1.931-7.89-2.25-10.468-6.527a8.934,8.934,0,0,1-1.251-4.469l-7.252-1a6.981,6.981,0,0,1-1.861,4.233c-.907.943-1.968,1.478-7.487,3.293-4.886,1.611-5.4,1.632-6.438,2.354-1.364.948-2.721,2.471-3.794,5.882-.407,1.295-1.54,5.395-.9,12.248a46.746,46.746,0,0,0,1.119,6.7" transform="translate(-806.466 -96.09)"/>
          <path id="Path_123" data-name="Path 123" class="cls-6" d="M808.1,131.507a.338.338,0,0,1-.329-.26,47.361,47.361,0,0,1-1.127-6.747,31.853,31.853,0,0,1,.914-12.381c1.189-3.777,2.722-5.223,3.925-6.059a11.213,11.213,0,0,1,3.444-1.4c.775-.247,1.77-.565,3.081-1,5.419-1.782,6.487-2.312,7.348-3.207a6.584,6.584,0,0,0,1.769-4.033l.036-.349,7.886,1.087,0,.289a8.59,8.59,0,0,0,1.2,4.3c1.68,2.786,4.34,3.82,6.913,4.82a19.424,19.424,0,0,1,3.448,1.6c4.519,2.906,6.177,10.559,4.927,22.752a.332.332,0,0,1-.372.3.339.339,0,0,1-.3-.372c1.222-11.917-.332-19.357-4.62-22.113a18.95,18.95,0,0,0-3.327-1.535c-2.554-.993-5.448-2.119-7.248-5.1a9.186,9.186,0,0,1-1.29-4.348l-6.628-.914a7.151,7.151,0,0,1-1.912,4.086c-.967,1.005-2.025,1.539-7.625,3.38-1.313.433-2.309.751-3.087,1a10.68,10.68,0,0,0-3.262,1.311c-1.115.776-2.539,2.125-3.665,5.706a31.186,31.186,0,0,0-.886,12.115,46.647,46.647,0,0,0,1.111,6.651.338.338,0,0,1-.249.409A.326.326,0,0,1,808.1,131.507Z" transform="translate(-806.453 -96.075)"/>
        </g>
        <g id="Group_1026" data-name="Group 1026" transform="translate(235.088 139.681)">
          <path id="Path_124" data-name="Path 124" class="cls-3" d="M834.3,71.28c4.741,1.2,8.321,6.616,8.321,13.123,0,7.394-4.624,13.382-10.318,13.382S821.974,91.8,821.974,84.4a18.144,18.144,0,0,1,.245-2.933" transform="translate(-821.635 -70.95)"/>
          <path id="Path_125" data-name="Path 125" class="cls-6" d="M832.291,98.11c-5.883,0-10.67-6.155-10.67-13.721a18.478,18.478,0,0,1,.25-2.988l.668.112a17.753,17.753,0,0,0-.24,2.877c0,7.191,4.482,13.043,9.992,13.043s9.979-5.852,9.979-13.043c0-6.23-3.392-11.611-8.066-12.795l.167-.658c4.969,1.259,8.577,6.916,8.577,13.453C842.949,91.955,838.168,98.11,832.291,98.11Z" transform="translate(-821.621 -70.937)"/>
        </g>
        <g id="Group_1027" data-name="Group 1027" transform="translate(234.947 131.862)">
          <path id="Path_126" data-name="Path 126" class="cls-6" d="M821.688,81.685l-.214-.642a22.75,22.75,0,0,0,9.542-6.227,24.8,24.8,0,0,0,5.977-12.009l.665.129a25.482,25.482,0,0,1-6.143,12.338A23.433,23.433,0,0,1,821.688,81.685Z" transform="translate(-821.474 -62.807)"/>
        </g>
        <g id="Group_1028" data-name="Group 1028" transform="translate(241.512 158.367)">
          <path id="Path_127" data-name="Path 127" class="cls-10" d="M828.3,90.365" transform="translate(-828.3 -90.365)"/>
        </g>
        <g id="Group_1029" data-name="Group 1029" transform="translate(231.487 149.895)">
          <path id="Path_128" data-name="Path 128" class="cls-3" d="M821.892,81.93c-.244.013-2.764.182-3.464,1.755-.737,1.653.594,4.735,4.016,6.211a20.15,20.15,0,0,1-.552-7.967Z" transform="translate(-817.891 -81.571)"/>
          <path id="Path_129" data-name="Path 129" class="cls-6" d="M822.945,90.475l-.648-.281a7.488,7.488,0,0,1-4.1-3.959,3.545,3.545,0,0,1-.091-2.7c.778-1.746,3.455-1.938,3.758-1.954l.406-.021-.052.4a19.815,19.815,0,0,0,.542,7.832ZM821.491,82.3c-.745.1-2.291.44-2.769,1.513a2.923,2.923,0,0,0,.1,2.18,6.572,6.572,0,0,0,3.1,3.272,20.44,20.44,0,0,1-.43-6.965Z" transform="translate(-817.877 -81.557)"/>
        </g>
        <g id="Group_1030" data-name="Group 1030" transform="translate(236.21 140.673)">
          <path id="Path_130" data-name="Path 130" class="cls-7" d="M822.834,80.961a21.274,21.274,0,0,0,6.058-3.639c3.8-3.119,3.757-3.938,4.689-5.336C828.872,75.06,826.105,78.192,822.834,80.961Z" transform="translate(-822.834 -71.986)"/>
        </g>
        <g id="Group_1031" data-name="Group 1031" transform="translate(239.344 160.828)">
          <circle id="Ellipse_916" data-name="Ellipse 916" class="cls-8" cx="3.215" cy="3.215" r="3.215" transform="translate(0 0)"/>
        </g>
        <g id="Group_1032" data-name="Group 1032" transform="translate(238.936 151.974)">
          <circle id="Ellipse_917" data-name="Ellipse 917" class="cls-8" cx="2.163" cy="2.163" r="2.163" transform="translate(0 0)"/>
        </g>
        <g id="Group_1033" data-name="Group 1033" transform="translate(254.382 177.769)">
          <circle id="Ellipse_918" data-name="Ellipse 918" class="cls-8" cx="1.993" cy="1.993" r="1.993" transform="translate(0 0)"/>
        </g>
        <g id="Group_1034" data-name="Group 1034" class="cls-11" transform="translate(254.778 152.317)">
          <path id="Path_131" data-name="Path 131" class="cls-12" d="M861.733,93.725c.27,1.213,1,4.473-.918,7.108-2.631,3.622-8.011,2.98-8.731,2.883-3.992-.538-9.886-3.677-9.99-9.65a9.821,9.821,0,0,1,9.649-9.99C857.893,83.969,860.97,90.3,861.733,93.725Z" transform="translate(-842.092 -84.075)"/>
        </g>
      </g>
    </g>
  </g>
</svg>
