<svg xmlns="http://www.w3.org/2000/svg" xmlns:xlink="http://www.w3.org/1999/xlink" width="100" height="100" viewBox="0 0 100 100">
  <defs>
    <style>
      .cls-1, .cls-6 {
        fill: none;
      }

      .cls-2 {
        opacity: 0.05;
        fill: url(#linear-gradient);
      }

      .cls-14, .cls-3, .cls-7, .cls-8 {
        fill: #fff;
      }

      .cls-4 {
        fill: #bce0ff;
      }

      .cls-5 {
        fill: #2d2d2d;
      }

      .cls-14, .cls-15, .cls-6, .cls-7, .cls-8, .cls-9 {
        stroke: #2d2d2d;
      }

      .cls-14, .cls-15, .cls-6, .cls-8, .cls-9 {
        stroke-miterlimit: 10;
      }

      .cls-15, .cls-6, .cls-7, .cls-8, .cls-9 {
        stroke-width: 0.6px;
      }

      .cls-15, .cls-7, .cls-8, .cls-9 {
        stroke-linecap: round;
      }

      .cls-7 {
        stroke-linejoin: round;
      }

      .cls-12, .cls-9 {
        fill: #ff8e93;
      }

      .cls-10 {
        fill: #474747;
      }

      .cls-11 {
        fill: #d9cdff;
      }

      .cls-13 {
        fill: #ffd7d2;
      }

      .cls-14 {
        stroke-width: 0.2px;
      }

      .cls-15, .cls-16 {
        fill: #86bcff;
      }
    </style>
    <linearGradient id="linear-gradient" x1="0.5" x2="0.5" y2="1" gradientUnits="objectBoundingBox">
      <stop offset="0" stop-color="#1778f2"/>
      <stop offset="1" stop-color="#f40009"/>
    </linearGradient>
  </defs>
  <g id="Group_124991" data-name="Group 124991" transform="translate(-216 -1799)">
    <rect id="Rectangle_10364" data-name="Rectangle 10364" class="cls-1" width="100" height="100" transform="translate(216 1799)"/>
    <g id="Group_124928" data-name="Group 124928">
      <path id="Path_184967" data-name="Path 184967" class="cls-2" d="M32.3,83.491A105.79,105.79,0,0,1,17.2,70.917,105.57,105.57,0,0,1,4.909,56.1,17.251,17.251,0,0,1,0,44.2,16.783,16.783,0,0,1,4.909,32.3,144.539,144.539,0,0,1,32.3,4.909,17.263,17.263,0,0,1,44.2,0,16.781,16.781,0,0,1,56.1,4.909a164.255,164.255,0,0,1,13.841,12.23A164.608,164.608,0,0,1,83.491,32.3,17.24,17.24,0,0,1,88.4,44.2a16.782,16.782,0,0,1-4.909,11.9A163.679,163.679,0,0,1,69.255,71.955,164.629,164.629,0,0,1,56.1,83.491a17.386,17.386,0,0,1-7.239,4.259,16.564,16.564,0,0,1-4.664.65,17.462,17.462,0,0,1-5.792-1.133A18.7,18.7,0,0,1,32.3,83.491Z" transform="translate(221.375 1804)"/>
      <g id="Group_105511" data-name="Group 105511" transform="translate(5884.376 669.491)">
        <path id="Path_184943" data-name="Path 184943" class="cls-3" d="M79,254.139l1.062-1.413.381-.148.756,1.039Z" transform="translate(-5693.186 931.427)"/>
        <g id="Group_529" data-name="Group 529" transform="translate(-5630.631 1198.508)">
          <path id="Path_76" data-name="Path 76" class="cls-3" d="M67.163,271.989v1.653l7.165,1.742,7.249.37a6.139,6.139,0,0,0,3.216-.317,6.371,6.371,0,0,0,2.715-2.083,8.521,8.521,0,0,0,1.529-3.188,13.445,13.445,0,0,0,.553-4.377l-4.9.142-.193,2.618-.6,1.617-1.546.721Z" transform="translate(-64.02 -265.789)"/>
        </g>
        <g id="Group_549" data-name="Group 549" transform="translate(-5614.742 1194.052)">
          <g id="Group_547" data-name="Group 547" transform="translate(0.222 0.222)">
            <circle id="Ellipse_463" data-name="Ellipse 463" class="cls-4" cx="1.305" cy="1.305" r="1.305"/>
          </g>
          <g id="Group_548" data-name="Group 548">
            <path id="Path_102" data-name="Path 102" class="cls-5" d="M80.019,264.783a1.527,1.527,0,1,1,1.527-1.527A1.526,1.526,0,0,1,80.019,264.783Zm0-2.61a1.083,1.083,0,1,0,1.084,1.082h0A1.085,1.085,0,0,0,80.019,262.174Z" transform="translate(-78.493 -261.73)"/>
          </g>
        </g>
        <path id="Path_184945" data-name="Path 184945" class="cls-6" d="M78.709,265.875s3.838-2.742,4.54.161" transform="translate(-5693.214 932.613)"/>
        <g id="Group_537" data-name="Group 537" transform="translate(-5609.479 1207.123)">
          <path id="Path_85" data-name="Path 85" class="cls-3" d="M86.4,280.239a39.894,39.894,0,0,1-1.825-3.637c-.42-.961-.781-1.886-1.09-2.765" transform="translate(-83.268 -273.617)"/>
          <path id="Path_86" data-name="Path 86" class="cls-5" d="M86.485,280.47a.221.221,0,0,1-.256-.1,40.138,40.138,0,0,1-1.83-3.657c-.4-.91-.767-1.845-1.1-2.781a.222.222,0,0,1,.135-.283.236.236,0,0,1,.284.135c.324.925.687,1.851,1.084,2.75a39.729,39.729,0,0,0,1.813,3.617.223.223,0,0,1-.085.3A.171.171,0,0,1,86.485,280.47Z" transform="translate(-83.287 -273.636)"/>
        </g>
        <path id="Path_184946" data-name="Path 184946" class="cls-3" d="M71.492,284.021,102.637,282l-2.5-9.711-25.194-.619s.532,3.472-.485,5.754S71.492,284.021,71.492,284.021Z" transform="translate(-5693.92 933.294)"/>
        <g id="Group_105500" data-name="Group 105500" transform="translate(-5623.528 1183.37)">
          <path id="Path_184947" data-name="Path 184947" class="cls-3" d="M94.064,252s-8.434.839-14.025,1.517c-2.254.274-4.047.521-4.638.678-2.061.546-4.495,15.307-4.495,15.307l29.322,2.48S102.76,257.865,94.064,252Z" transform="translate(-70.449 -252)"/>
          <g id="Group_528" data-name="Group 528" transform="translate(0 10.981)">
            <path id="Path_75" data-name="Path 75" class="cls-3" d="M74.067,262.677l-3.577,7.16,4.145,2.557c.036,1.266.02,2.639-.081,4.106-.1,1.492-.607,6.029-.82,7.3,1.039,1.034,5.027,2.394,11.882,3.2,7.252.85,12.942-2.966,14.142-3.718-.26-1.165-.552-2.649-.793-4.384a54.344,54.344,0,0,1-.508-6.65q.285-3.982.569-7.964l-1.219-6.356-7.887,2.447-5.529.84Z" transform="translate(-70.49 -257.927)"/>
          </g>
        </g>
        <g id="Group_529-2" data-name="Group 529" transform="translate(-5618.834 1198.718)">
          <path id="Path_76-2" data-name="Path 76" class="cls-3" d="M74.766,273.725l.693,1.525,11.231,1.829,8.384.427a7.1,7.1,0,0,0,3.719-.367,7.377,7.377,0,0,0,3.141-2.409,9.892,9.892,0,0,0,1.769-3.689,15.54,15.54,0,0,0,.639-5.062l-5.673.165-.222,3.028-.692,1.87-1.788.834Z" transform="translate(-74.766 -265.98)"/>
        </g>
        <g id="Group_537-2" data-name="Group 537" transform="translate(-5593.269 1209.78)">
          <path id="Path_85-2" data-name="Path 85" class="cls-3" d="M101.656,283.693a46.284,46.284,0,0,1-2.109-4.207c-.487-1.111-.9-2.181-1.262-3.2" transform="translate(-98.03 -276.034)"/>
          <path id="Path_86-2" data-name="Path 86" class="cls-5" d="M101.752,283.961a.257.257,0,0,1-.3-.12,46.476,46.476,0,0,1-2.117-4.23c-.462-1.053-.888-2.134-1.271-3.217a.256.256,0,0,1,.157-.327.269.269,0,0,1,.327.156c.377,1.07.8,2.142,1.255,3.182a45.9,45.9,0,0,0,2.1,4.183.257.257,0,0,1-.1.349A.213.213,0,0,1,101.752,283.961Z" transform="translate(-98.053 -276.056)"/>
        </g>
        <g id="Group_537-3" data-name="Group 537" transform="translate(-5622.911 1209.78)">
          <path id="Path_85-3" data-name="Path 85" class="cls-3" d="M74.656,276.288c-.358,1.017-.775,2.087-1.261,3.2a46.007,46.007,0,0,1-2.11,4.207" transform="translate(-71.03 -276.034)"/>
          <path id="Path_86-3" data-name="Path 86" class="cls-5" d="M71.183,283.937a.256.256,0,0,1-.1-.349,46.472,46.472,0,0,0,2.1-4.183c.459-1.04.878-2.111,1.254-3.182a.27.27,0,0,1,.328-.156.256.256,0,0,1,.157.327c-.383,1.082-.81,2.164-1.271,3.217a46.76,46.76,0,0,1-2.117,4.23.257.257,0,0,1-.3.12A.2.2,0,0,1,71.183,283.937Z" transform="translate(-71.052 -276.056)"/>
        </g>
        <path id="Path_184948" data-name="Path 184948" class="cls-7" d="M86.252,208.956a4.084,4.084,0,0,0-3.388-3.09,124.337,124.337,0,0,0-14.376-.279c-3.613.1-6.126.323-6.126.323A4.084,4.084,0,0,0,58.974,209a40.451,40.451,0,0,0,0,11.311,4.06,4.06,0,0,0,2.146,3.059s.506.413,3.566.723c.259.026.541.052.838.076l-.992,3.1,2.692-2.985c1.607.088,3.628.145,6.17.145,1.823,0,3.446-.087,4.857-.209L81,227.268l-1.032-3.227c1.275-.154,2.3-.326,3-.463a4.047,4.047,0,0,0,3.279-3.262l.008-.049A40.453,40.453,0,0,0,86.252,208.956Z" transform="translate(-5699.552 931.616)"/>
        <path id="Path_184949" data-name="Path 184949" class="cls-8" d="M75.81,271.691c4.021.246,21.516,1.755,21.923,3.7.249,1.193-1.65,1.852-3.41,2.2-2.368.473-4.726.991-7.054,1.658-6.516,1.867-16.48.187-19.144-2.072-3.707-3.142.889-15.164,2.828-18.49,0,0,1.492-5.195,10.311-5.978" transform="translate(-5694.387 931.44)"/>
        <path id="Path_184950" data-name="Path 184950" class="cls-8" d="M92.706,252.351s8.541,1.755,10.913,5.186c3.192,4.619,2.2,14.965,1.1,18.663-.819,2.759-3.894,4.527-9.88,4.391-4.239-.1-11.742-3.188-15.476-5.442-4.285-2.586-7.727-5.212-2.473-4.375,0,0,11.073,2.225,20.331,1.724a2.022,2.022,0,0,0,1.841-1.428c.313-1.089.428-2.976-.4-6.159" transform="translate(-5693.652 931.322)"/>
        <g id="Group_531" data-name="Group 531" transform="translate(-5614.804 1160.423)">
          <path id="Path_79" data-name="Path 79" class="cls-3" d="M89.724,249.718a3.937,3.937,0,0,0,.309,2.9,4.1,4.1,0,0,0,2.258,1.739,20.957,20.957,0,0,0-4.519,6.762c-.345.88-.8,2.237-1.5,2.259s-1.232-1.277-1.722-2.318a31.414,31.414,0,0,0-4.071-6.4c-.125.044-.249.1-.381.148a4.691,4.691,0,0,0,1.892-1.335,5.328,5.328,0,0,0,1.159-3.872,12.226,12.226,0,0,1-3.909-5.611,11.452,11.452,0,0,1-.528-4.35,5.521,5.521,0,0,1,.653-2.765c1.342-1.987,4.041-.492,7.158-2.677,2.142-1.511,2.471-2.919,3.733-2.847,2.3.132,3.624,4.907,3.741,5.362a12.675,12.675,0,0,1-.243,7A13.313,13.313,0,0,1,89.724,249.718Z" transform="translate(-78.413 -231.074)"/>
          <path id="Path_80" data-name="Path 80" class="cls-5" d="M86.277,263.663c-.795,0-1.312-1.112-1.814-2.189l-.132-.281a31.214,31.214,0,0,0-3.917-6.2l-.089.035-.024.009c-.029.012-.058.024-.087.034l-.192-.5.08-.033a4.422,4.422,0,0,0,1.706-1.23,5.041,5.041,0,0,0,1.1-3.566,12.38,12.38,0,0,1-3.906-5.663,11.766,11.766,0,0,1-.541-4.44l.009-.1a5.532,5.532,0,0,1,.689-2.809c.741-1.1,1.839-1.228,3.11-1.381a8.168,8.168,0,0,0,4.117-1.366,11.728,11.728,0,0,0,1.92-1.73c.658-.7,1.137-1.2,1.982-1.163,2.556.148,3.925,5.339,3.982,5.562a13.035,13.035,0,0,1-.246,7.145,13.525,13.525,0,0,1-4.043,6.081,3.637,3.637,0,0,0,.3,2.619,3.85,3.85,0,0,0,2.1,1.614l.423.123-.3.316a21.049,21.049,0,0,0-4.463,6.675l-.092.238c-.371.964-.831,2.163-1.649,2.187ZM80.9,254.749a31.8,31.8,0,0,1,3.913,6.218l.132.283c.371.8.879,1.908,1.344,1.883s.907-1.162,1.171-1.848l.094-.243a21.266,21.266,0,0,1,4.29-6.55,4.374,4.374,0,0,1-2.016-1.724,4.2,4.2,0,0,1-.334-3.1l.022-.079.063-.054a13,13,0,0,0,3.947-5.892,12.487,12.487,0,0,0,.237-6.847c-.013-.054-1.325-5.042-3.5-5.166-.566-.032-.911.3-1.563.995a12.188,12.188,0,0,1-2,1.8,8.752,8.752,0,0,1-4.361,1.459c-1.186.143-2.128.255-2.731,1.151a5.123,5.123,0,0,0-.6,2.562l-.008.075a11.258,11.258,0,0,0,.519,4.244,11.853,11.853,0,0,0,3.824,5.487l.088.07.01.112a5.612,5.612,0,0,1-1.221,4.069A5,5,0,0,1,80.9,254.749Z" transform="translate(-78.437 -231.098)"/>
        </g>
        <g id="Group_532" data-name="Group 532" transform="translate(-5614.898 1158.296)">
          <ellipse id="Ellipse_462" data-name="Ellipse 462" class="cls-3" cx="7.909" cy="10.617" rx="7.909" ry="10.617" transform="translate(0.265 0.267)"/>
          <path id="Path_81" data-name="Path 81" class="cls-5" d="M86.524,250.927c-4.507,0-8.173-4.882-8.173-10.884s3.667-10.883,8.173-10.883,8.176,4.882,8.176,10.883S91.033,250.927,86.524,250.927Zm0-21.234c-4.213,0-7.642,4.644-7.642,10.351S82.311,250.4,86.524,250.4s7.644-4.644,7.644-10.352S90.74,229.692,86.524,229.692Z" transform="translate(-78.351 -229.16)"/>
        </g>
        <path id="Path_184951" data-name="Path 184951" class="cls-9" d="M78.771,238.05a.129.129,0,0,1,.231-.075c.831,1.137,3.913,4.341,7.482,4.341,3.708,0,6.5-3.095,7.515-3.932a.217.217,0,0,1,.356.167c.01,1.843-.341,8.733-6.06,10.8a5.458,5.458,0,0,1-3.846-.033C82.061,248.389,78.465,245.721,78.771,238.05Z" transform="translate(-5693.21 929.994)"/>
        <g id="Group_1017" data-name="Group 1017" transform="translate(-5616.921 1153.055)">
          <g id="Group_1015" data-name="Group 1015" transform="translate(0.198 0.21)">
            <path id="Path_118" data-name="Path 118" class="cls-10" d="M88.954,224.889a9.912,9.912,0,0,0-6.886.728,9.609,9.609,0,0,0-5.026,5.737c-1.167,4.089.845,8.486,1.791,8.424.843-.056.3-3.633,2.541-5.161,1.52-1.036,2.432.146,5.207-.873,2.147-.788,2.661-1.885,3.942-1.6,1.19.268,1.91,1.48,2.457,2.4,1.414,2.378,1.1,4.346,1.528,4.395.672.077,3.034-4.534,1.477-8.657C94.439,226.189,89.979,225.131,88.954,224.889Z" transform="translate(-76.689 -224.577)"/>
          </g>
          <g id="Group_1016" data-name="Group 1016">
            <path id="Path_119" data-name="Path 119" class="cls-5" d="M78.831,240a1.1,1.1,0,0,1-.774-.506,10.288,10.288,0,0,1-1.189-8.177,9.547,9.547,0,0,1,5.121-5.859,10,10,0,0,1,7.03-.747l-.047.2.048-.2c4.619,1.1,6.45,3.611,7.172,5.526a9.9,9.9,0,0,1-1.031,8.493c-.247.317-.47.456-.658.436-.321-.036-.384-.407-.49-1.022a9.434,9.434,0,0,0-1.19-3.47c-.545-.916-1.222-2.056-2.328-2.308-.666-.153-1.088.112-1.787.549a10.383,10.383,0,0,1-2.041,1.039,7.14,7.14,0,0,1-3.177.441,2.774,2.774,0,0,0-1.985.409c-1.289.877-1.611,2.483-1.85,3.658-.177.873-.3,1.505-.79,1.538Zm7.584-15.2a9.342,9.342,0,0,0-8.046,14.442c.212.262.377.356.461.356h.007c.18-.012.31-.651.424-1.215.25-1.242.594-2.943,2.018-3.912a3.16,3.16,0,0,1,2.233-.479,6.713,6.713,0,0,0,3.02-.417,9.974,9.974,0,0,0,1.967-1,2.594,2.594,0,0,1,2.089-.6c1.275.29,2.033,1.564,2.585,2.5a9.887,9.887,0,0,1,1.242,3.607,2.566,2.566,0,0,0,.171.7,3.055,3.055,0,0,0,.556-.745,9.708,9.708,0,0,0,.677-7.651c-.688-1.825-2.443-4.221-6.889-5.277l.045-.2-.046.2a10.835,10.835,0,0,0-2.513-.306Z" transform="translate(-76.508 -224.386)"/>
          </g>
        </g>
        <g id="Group_540" data-name="Group 540" transform="translate(-5599.821 1167.75)">
          <path id="Path_90" data-name="Path 90" class="cls-3" d="M92.5,242.881c2.05-.964,2.827-2.778,2.336-3.777-.4-.806-1.567-.989-1.842-1.026a13.849,13.849,0,0,1-.494,4.8Z" transform="translate(-92.044 -237.742)"/>
          <path id="Path_91" data-name="Path 91" class="cls-5" d="M92.085,243.45l.176-.618a13.6,13.6,0,0,0,.484-4.7l-.026-.358.357.047a2.692,2.692,0,0,1,2.065,1.187,2.133,2.133,0,0,1,.018,1.643,4.664,4.664,0,0,1-2.491,2.526Zm1.266-4.985a14.244,14.244,0,0,1-.031,1.772,14.042,14.042,0,0,1-.326,2.095,3.8,3.8,0,0,0,1.612-1.875,1.565,1.565,0,0,0,.01-1.191,1.859,1.859,0,0,0-1.265-.8Z" transform="translate(-92.085 -237.772)"/>
        </g>
        <g id="Group_544" data-name="Group 544" transform="translate(-5600.866 1183.732)">
          <path id="Path_97" data-name="Path 97" class="cls-11" d="M91.38,258.7q.31-1.573.565-3.285.217-1.461.363-2.836" transform="translate(-91.108 -252.305)"/>
          <path id="Path_98" data-name="Path 98" class="cls-5" d="M91.405,258.993a.286.286,0,0,1-.053-.005.271.271,0,0,1-.215-.317h0c.212-1.078.4-2.178.563-3.272.139-.933.26-1.887.362-2.826a.268.268,0,0,1,.291-.242h.009a.273.273,0,0,1,.243.3c-.1.949-.226,1.907-.366,2.847-.165,1.1-.355,2.21-.569,3.3A.272.272,0,0,1,91.405,258.993Z" transform="translate(-91.132 -252.329)"/>
        </g>
        <g id="Group_545" data-name="Group 545" transform="translate(-5607.293 1189.827)">
          <path id="Path_99" data-name="Path 99" class="cls-5" d="M94.23,270.2a3.928,3.928,0,0,1-1.493-.363.272.272,0,1,1,.191-.508l.02.008c.865.364,1.505.416,1.9.154.864-.576,1.042-2.956.423-5.659-.58-2.53-1.855-5.18-3.4-5.394-1.493-.213-3.375,1.821-4.588,3.925-1.323,2.3-1.811,4.568-1.161,5.4a2.164,2.164,0,0,0,1.862.522.268.268,0,0,1,.284.251v.007a.273.273,0,0,1-.258.285,2.626,2.626,0,0,1-2.318-.729c-1-1.276-.02-4.035,1.119-6.01,1.208-2.095,3.276-4.444,5.136-4.191,1.923.268,3.278,3.3,3.851,5.811s.6,5.407-.651,6.236A1.608,1.608,0,0,1,94.23,270.2Z" transform="translate(-85.278 -257.881)"/>
        </g>
        <g id="Group_546" data-name="Group 546" transform="translate(-5615.381 1184.465)">
          <path id="Path_100" data-name="Path 100" class="cls-11" d="M78.178,253.12a40.641,40.641,0,0,0,1.744,9.674" transform="translate(-77.885 -252.985)"/>
          <path id="Path_101" data-name="Path 101" class="cls-5" d="M79.949,263.078a.275.275,0,0,1-.26-.191,41.021,41.021,0,0,1-1.757-9.739c-.008-.149-.074-.138.077-.148s.451-.031.468.115a40.4,40.4,0,0,0,1.729,9.61.272.272,0,0,1-.179.339h0A.256.256,0,0,1,79.949,263.078Z" transform="translate(-77.911 -252.997)"/>
        </g>
        <g id="Group_547-2" data-name="Group 547" transform="translate(-5614.668 1193.725)">
          <circle id="Ellipse_463-2" data-name="Ellipse 463" class="cls-12" cx="1.6" cy="1.6" r="1.6"/>
        </g>
        <g id="Group_548-2" data-name="Group 548" transform="translate(-5614.939 1193.452)">
          <path id="Path_102-2" data-name="Path 102" class="cls-5" d="M80.185,264.927a1.872,1.872,0,1,1,1.872-1.872A1.871,1.871,0,0,1,80.185,264.927Zm0-3.2a1.327,1.327,0,1,0,1.327,1.327h0A1.328,1.328,0,0,0,80.185,261.728Z" transform="translate(-78.314 -261.183)"/>
        </g>
        <g id="Group_550" data-name="Group 550" transform="translate(-5605.751 1199.475)">
          <circle id="Ellipse_464" data-name="Ellipse 464" class="cls-12" cx="0.976" cy="0.976" r="0.976" transform="translate(0)"/>
        </g>
        <g id="Group_551" data-name="Group 551" transform="translate(-5606.023 1199.203)">
          <path id="Path_103" data-name="Path 103" class="cls-5" d="M87.683,268.918a1.248,1.248,0,1,1,1.248-1.248h0A1.249,1.249,0,0,1,87.683,268.918Zm0-1.953a.707.707,0,1,0,.708.707h0A.707.707,0,0,0,87.683,266.965Z" transform="translate(-86.435 -266.422)"/>
        </g>
        <g id="Group_553" data-name="Group 553" transform="translate(-5600.43 1200.499)">
          <circle id="Ellipse_465" data-name="Ellipse 465" class="cls-12" cx="0.976" cy="0.976" r="0.976"/>
        </g>
        <g id="Group_554" data-name="Group 554" transform="translate(-5600.701 1200.228)">
          <path id="Path_104" data-name="Path 104" class="cls-5" d="M92.531,269.851a1.248,1.248,0,1,1,1.248-1.248A1.248,1.248,0,0,1,92.531,269.851Zm0-1.953a.707.707,0,1,0,.708.707h0A.707.707,0,0,0,92.531,267.9Z" transform="translate(-91.283 -267.355)"/>
        </g>
        <path id="Path_184953" data-name="Path 184953" class="cls-6" d="M71.535,260.065s-.7,4.33-1.517,5.272" transform="translate(-5704.827 931.85)"/>
        <g id="Group_555" data-name="Group 555" transform="translate(-5619.823 1201.345)">
          <g id="Group_553-2" data-name="Group 553" transform="translate(0.221 0.221)">
            <circle id="Ellipse_465-2" data-name="Ellipse 465" class="cls-4" cx="0.796" cy="0.796" r="0.796"/>
          </g>
          <g id="Group_554-2" data-name="Group 554" transform="translate(0)">
            <path id="Path_104-2" data-name="Path 104" class="cls-5" d="M68.1,264.753a1.018,1.018,0,1,1,.952-1.081A1.018,1.018,0,0,1,68.1,264.753Zm-.1-1.59a.577.577,0,1,0,.613.539h0A.576.576,0,0,0,68,263.164Z" transform="translate(-67.017 -262.719)"/>
          </g>
        </g>
        <path id="Path_184954" data-name="Path 184954" class="cls-6" d="M71.233,259.86s-.7,4.33-1.517,5.272" transform="translate(-5704.856 931.83)"/>
        <g id="Group_105501" data-name="Group 105501" transform="translate(-5619.398 1194.289)">
          <g id="Group_557" data-name="Group 557" transform="translate(0.166 0.169)">
            <path id="Path_106" data-name="Path 106" class="cls-13" d="M70.183,257.269l-.471.1a.153.153,0,0,1-.184-.111l-.1-.448a.489.489,0,0,0-.958.189l.1.463a.152.152,0,0,1-.122.179h0l-.5.109a.486.486,0,0,0-.386.565h0a.484.484,0,0,0,.591.348l.5-.112a.153.153,0,0,1,.188.108v0l.1.451a.471.471,0,0,0,.464.368.49.49,0,0,0,.5-.482.451.451,0,0,0-.008-.094l-.1-.459a.153.153,0,0,1,.119-.18l.471-.106a.471.471,0,0,0,.366-.551h0A.471.471,0,0,0,70.183,257.269Z" transform="translate(-67.556 -256.445)"/>
          </g>
          <g id="Group_558" data-name="Group 558" transform="translate(0)">
            <path id="Path_107" data-name="Path 107" class="cls-5" d="M69.414,259.666a.636.636,0,0,1-.618-.5l-.1-.451-.492.126a.676.676,0,0,1-.512-.087.609.609,0,0,1-.2-.838l.01-.014a.683.683,0,0,1,.426-.294l.5-.109-.105-.448a.612.612,0,0,1,.126-.521.673.673,0,0,1,.531-.243.65.65,0,0,1,.618.5l.1.447.461-.114a.622.622,0,0,1,.3,1.207l-.032.008-.471.107.106.444a.621.621,0,0,1-.125.521.671.671,0,0,1-.523.254Zm-.709-1.259a.312.312,0,0,1,.165.047.307.307,0,0,1,.145.2l.1.451a.31.31,0,0,0,.3.24h0a.348.348,0,0,0,.271-.131.293.293,0,0,0,.06-.248l-.1-.459a.317.317,0,0,1,.242-.373l.471-.108a.3.3,0,0,0,.242-.357.309.309,0,0,0-.37-.221l-.471.1a.317.317,0,0,1-.377-.235l-.1-.447a.321.321,0,0,0-.305-.248.331.331,0,0,0-.274.123.289.289,0,0,0-.061.244l.1.463a.3.3,0,0,1-.041.233.325.325,0,0,1-.205.142l-.5.109a.356.356,0,0,0-.222.152.283.283,0,0,0,.075.393l.014.009a.351.351,0,0,0,.265.044l.5-.113a.383.383,0,0,1,.071-.01Z" transform="translate(-67.404 -256.292)"/>
          </g>
        </g>
        <g id="Group_529-3" data-name="Group 529" transform="translate(-5648.386 1204.359)">
          <path id="Path_76-3" data-name="Path 76" class="cls-3" d="M41,272.161l.6,1.319,9.71,1.581,7.248.369a6.144,6.144,0,0,0,3.217-.316,6.377,6.377,0,0,0,2.715-2.083,8.55,8.55,0,0,0,1.529-3.189,13.442,13.442,0,0,0,.552-4.376l-4.9.142-.192,2.618-.6,1.616-1.546.721Z" transform="translate(-41 -265.465)"/>
        </g>
        <g id="Group_540-2" data-name="Group 540" transform="translate(-5638.535 1177.586)">
          <path id="Path_90-2" data-name="Path 90" class="cls-3" d="M50.333,245.494c1.772-.833,2.444-2.4,2.02-3.265a2.137,2.137,0,0,0-1.593-.887,11.986,11.986,0,0,1-.428,4.151Z" transform="translate(-49.938 -241.051)"/>
          <path id="Path_91-2" data-name="Path 91" class="cls-5" d="M49.973,245.986l.152-.535a11.715,11.715,0,0,0,.418-4.065l-.022-.31.308.041a2.326,2.326,0,0,1,1.785,1.026,1.842,1.842,0,0,1,.015,1.421,4.037,4.037,0,0,1-2.154,2.185Zm1.095-4.311a12.265,12.265,0,0,1-.308,3.344,3.281,3.281,0,0,0,1.393-1.621,1.354,1.354,0,0,0,.009-1.03,1.608,1.608,0,0,0-1.093-.693Z" transform="translate(-49.973 -241.077)"/>
        </g>
        <g id="Group_546-2" data-name="Group 546" transform="translate(-5639.426 1194.858)">
          <path id="Path_101-2" data-name="Path 101" class="cls-5" d="M50.806,264.029a.221.221,0,0,1-.212-.132,24.516,24.516,0,0,1-1.433-6.738c-.007-.1.248-.3.37-.3s-.013-.1,0,0a26.246,26.246,0,0,0,1.484,6.931.184.184,0,0,1-.146.235h0A.246.246,0,0,1,50.806,264.029Z" transform="translate(-49.161 -256.81)"/>
        </g>
        <g id="Group_549-2" data-name="Group 549" transform="translate(-5639.083 1199.902)">
          <g id="Group_547-3" data-name="Group 547" transform="translate(0.221 0.223)">
            <circle id="Ellipse_463-3" data-name="Ellipse 463" class="cls-4" cx="1.305" cy="1.305" r="1.305"/>
          </g>
          <g id="Group_548-3" data-name="Group 548">
            <path id="Path_102-3" data-name="Path 102" class="cls-5" d="M51,264.458a1.527,1.527,0,1,1,1.527-1.526A1.526,1.526,0,0,1,51,264.458Zm0-2.608a1.082,1.082,0,1,0,1.082,1.082h0A1.083,1.083,0,0,0,51,261.85Z" transform="translate(-49.474 -261.405)"/>
          </g>
        </g>
        <g id="Group_555-2" data-name="Group 555" transform="translate(-5649.486 1202.086)">
          <g id="Group_553-3" data-name="Group 553" transform="translate(0.221 0.221)">
            <circle id="Ellipse_465-3" data-name="Ellipse 465" class="cls-4" cx="0.796" cy="0.796" r="0.796"/>
          </g>
          <g id="Group_554-3" data-name="Group 554">
            <path id="Path_104-3" data-name="Path 104" class="cls-5" d="M41.081,265.428a1.018,1.018,0,1,1,.951-1.08A1.018,1.018,0,0,1,41.081,265.428Zm-.1-1.59a.577.577,0,1,0,.611.539h0A.577.577,0,0,0,40.98,263.839Z" transform="translate(-39.997 -263.394)"/>
          </g>
        </g>
        <path id="Path_184955" data-name="Path 184955" class="cls-6" d="M49.689,265.551s3.839-2.742,4.54.161" transform="translate(-5688.536 938.788)"/>
        <path id="Path_184956" data-name="Path 184956" class="cls-6" d="M44.534,261.333s3.419-.231,4.39.4c1.38.887.212-4.835,1.517-6.437a.891.891,0,0,0-.07-1.188,1.992,1.992,0,0,0-.708-.464" transform="translate(-5689.04 937.738)"/>
        <g id="Group_537-4" data-name="Group 537" transform="translate(-5633.82 1212.974)">
          <path id="Path_85-4" data-name="Path 85" class="cls-3" d="M57.384,279.913a39.736,39.736,0,0,1-1.823-3.637c-.422-.961-.782-1.886-1.091-2.764" transform="translate(-54.248 -273.292)"/>
          <path id="Path_86-4" data-name="Path 86" class="cls-5" d="M57.466,280.146a.226.226,0,0,1-.257-.1,40.006,40.006,0,0,1-1.829-3.658c-.4-.909-.768-1.844-1.1-2.781a.222.222,0,0,1,.136-.282.232.232,0,0,1,.283.135c.325.925.687,1.851,1.085,2.75a39.688,39.688,0,0,0,1.811,3.616.221.221,0,0,1-.083.3A.174.174,0,0,1,57.466,280.146Z" transform="translate(-54.268 -273.312)"/>
        </g>
        <path id="Path_184957" data-name="Path 184957" class="cls-6" d="M45.032,260.535s.7,4.33,1.517,5.272" transform="translate(-5688.991 938.412)"/>
        <path id="Path_184958" data-name="Path 184958" class="cls-6" d="M44.213,260.535s-.7,4.33-1.517,5.272" transform="translate(-5689.22 938.412)"/>
        <path id="Path_184959" data-name="Path 184959" class="cls-14" d="M47.746,272.035s.974,5.61,1.923,7.052" transform="translate(-5688.726 939.537)"/>
        <path id="Path_184960" data-name="Path 184960" class="cls-3" d="M40.472,283.7l33.515-.653-4.864-11.084-25.193-.619s.531,3.472-.485,5.754S40.472,283.7,40.472,283.7Z" transform="translate(-5689.437 939.469)"/>
        <g id="Group_537-5" data-name="Group 537" transform="translate(-5649.096 1215.265)">
          <path id="Path_85-5" data-name="Path 85" class="cls-3" d="M43.918,275.631c-.354,1.019-.764,2.091-1.245,3.2a46.157,46.157,0,0,1-2.088,4.218" transform="translate(-40.33 -275.376)"/>
          <path id="Path_86-5" data-name="Path 86" class="cls-5" d="M40.484,283.3a.258.258,0,0,1-.1-.349,45.9,45.9,0,0,0,2.074-4.194c.455-1.043.867-2.116,1.237-3.187a.271.271,0,0,1,.327-.159.258.258,0,0,1,.159.327c-.378,1.085-.8,2.168-1.255,3.223a46.612,46.612,0,0,1-2.094,4.241.259.259,0,0,1-.3.121A.232.232,0,0,1,40.484,283.3Z" transform="translate(-40.353 -275.399)"/>
        </g>
        <g id="Group_105502" data-name="Group 105502" transform="translate(-5647.87 1189.335)">
          <path id="Path_184961" data-name="Path 184961" class="cls-3" d="M63.968,252.022s-11.113-.546-13.174,0-8.907,17.146-8.907,17.146l29.322,2.481S72.664,257.886,63.968,252.022Z" transform="translate(-41.429 -251.779)"/>
          <g id="Group_528-2" data-name="Group 528" transform="translate(0 6.394)">
            <path id="Path_75-2" data-name="Path 75" class="cls-3" d="M45.048,262.353l-3.578,7.16,4.146,2.557c.035,1.265.019,2.638-.081,4.1-.1,1.493-.608,6.03-.821,7.3,1.039,1.033,5.027,2.394,11.882,3.2,7.253.85,12.943-2.966,14.143-3.718-.261-1.164-.553-2.649-.794-4.384a54.324,54.324,0,0,1-.507-6.648q.285-3.982.569-7.965l-1.22-6.355L60.9,260.05l-5.528.84Z" transform="translate(-41.47 -257.603)"/>
          </g>
        </g>
        <g id="Group_529-4" data-name="Group 529" transform="translate(-5643.174 1204.569)">
          <path id="Path_76-4" data-name="Path 76" class="cls-3" d="M45.747,273.4l.692,1.524,11.231,1.829,8.384.427a7.106,7.106,0,0,0,3.721-.366,7.381,7.381,0,0,0,3.14-2.409,9.866,9.866,0,0,0,1.769-3.689,15.548,15.548,0,0,0,.64-5.062l-5.672.164-.223,3.029-.692,1.87-1.788.834Z" transform="translate(-45.747 -265.656)"/>
        </g>
        <g id="Group_531-2" data-name="Group 531" transform="translate(-5639.146 1166.273)">
          <path id="Path_79-2" data-name="Path 79" class="cls-3" d="M60.705,249.394a3.931,3.931,0,0,0,.307,2.9,4.1,4.1,0,0,0,2.258,1.738,20.941,20.941,0,0,0-4.518,6.763c-.345.88-.8,2.237-1.5,2.258s-1.233-1.276-1.724-2.316a31.327,31.327,0,0,0-4.071-6.4c-.124.044-.249.1-.381.148a4.7,4.7,0,0,0,1.893-1.334,5.339,5.339,0,0,0,1.159-3.873,12.22,12.22,0,0,1-3.91-5.611,11.446,11.446,0,0,1-.528-4.349,5.517,5.517,0,0,1,.653-2.765c1.343-1.988,4.041-.492,7.158-2.678,2.142-1.511,2.472-2.919,3.734-2.846,2.3.132,3.623,4.906,3.74,5.361a12.684,12.684,0,0,1-.242,7A13.331,13.331,0,0,1,60.705,249.394Z" transform="translate(-49.393 -230.749)"/>
          <path id="Path_80-2" data-name="Path 80" class="cls-5" d="M57.257,263.339c-.794,0-1.312-1.112-1.814-2.189l-.131-.281a31.322,31.322,0,0,0-3.917-6.2l-.09.036-.023.009c-.03.011-.058.023-.088.033l-.191-.5.079-.032a4.414,4.414,0,0,0,1.706-1.23,5.045,5.045,0,0,0,1.106-3.567,12.361,12.361,0,0,1-3.906-5.662,11.747,11.747,0,0,1-.542-4.44l.009-.1a5.525,5.525,0,0,1,.689-2.809c.742-1.1,1.84-1.23,3.11-1.381a8.193,8.193,0,0,0,4.118-1.366,11.77,11.77,0,0,0,1.919-1.73c.658-.7,1.138-1.2,1.982-1.164,2.556.149,3.926,5.34,3.983,5.563a13.031,13.031,0,0,1-.247,7.144,13.5,13.5,0,0,1-4.043,6.081,3.645,3.645,0,0,0,.3,2.621,3.859,3.859,0,0,0,2.1,1.614l.423.122-.3.317a21.014,21.014,0,0,0-4.463,6.674l-.093.239c-.371.964-.831,2.162-1.649,2.187Zm-5.376-8.914a31.889,31.889,0,0,1,3.913,6.217l.132.283c.371.8.878,1.908,1.343,1.883s.907-1.161,1.171-1.847l.094-.243a21.3,21.3,0,0,1,4.29-6.551,4.375,4.375,0,0,1-2.015-1.723,4.2,4.2,0,0,1-.334-3.1l.021-.078.063-.054a13,13,0,0,0,3.947-5.893,12.494,12.494,0,0,0,.238-6.846c-.013-.054-1.326-5.042-3.5-5.167-.565-.032-.911.3-1.562,1a12.342,12.342,0,0,1-2,1.8,8.751,8.751,0,0,1-4.359,1.458c-1.187.143-2.128.256-2.732,1.151a5.131,5.131,0,0,0-.6,2.563l-.007.074A11.211,11.211,0,0,0,50.5,243.6a11.862,11.862,0,0,0,3.823,5.488l.088.07.011.112a5.614,5.614,0,0,1-1.222,4.069A4.992,4.992,0,0,1,51.881,254.425Z" transform="translate(-49.417 -230.773)"/>
        </g>
        <g id="Group_532-2" data-name="Group 532" transform="translate(-5639.24 1164.146)">
          <ellipse id="Ellipse_462-2" data-name="Ellipse 462" class="cls-3" cx="7.909" cy="10.617" rx="7.909" ry="10.617" transform="translate(0.265 0.267)"/>
          <path id="Path_81-2" data-name="Path 81" class="cls-5" d="M57.505,250.6c-4.508,0-8.174-4.881-8.174-10.883S53,228.835,57.505,228.835s8.174,4.883,8.174,10.884S62.013,250.6,57.505,250.6Zm0-21.234c-4.215,0-7.643,4.644-7.643,10.353s3.429,10.351,7.643,10.351,7.643-4.643,7.643-10.351S61.72,229.367,57.505,229.367Z" transform="translate(-49.331 -228.835)"/>
        </g>
        <g id="Group_535" data-name="Group 535" transform="translate(-5648.49 1160.423)">
          <g id="Group_533" data-name="Group 533" transform="translate(0.256 0.258)">
            <path id="Path_82" data-name="Path 82" class="cls-10" d="M72.887,247.715a12.473,12.473,0,0,1-3.626,4.969,7.2,7.2,0,0,1-4.544,1.962h-.03a2.21,2.21,0,0,1-.58-.1,4.093,4.093,0,0,1-2.258-1.738,3.937,3.937,0,0,1-.308-2.9,13.319,13.319,0,0,0,4.027-6.014,12.675,12.675,0,0,0,.242-7c-.116-.454-1.444-5.23-3.74-5.362-1.26-.075-1.591,1.335-3.733,2.846-3.115,2.186-5.816.691-7.159,2.678a5.522,5.522,0,0,0-.652,2.765,11.433,11.433,0,0,0,.528,4.35,12.22,12.22,0,0,0,3.909,5.61,5.329,5.329,0,0,1-1.159,3.873A4.688,4.688,0,0,1,51.911,255a.053.053,0,0,0-.03.014,7.536,7.536,0,0,1-1.557.389,7.752,7.752,0,0,1-6-1.863,1.221,1.221,0,0,0-.139-.132c-2.673-2.409-2.892-6.074-3.007-7.394-.478-5.507,3.471-11.586,7.515-15.276,2.429-2.216,5.791-5.284,10.407-5.042a12.391,12.391,0,0,1,7.153,3.171C71.785,233.245,75.287,241.553,72.887,247.715Z" transform="translate(-41.138 -225.679)"/>
          </g>
          <g id="Group_534" data-name="Group 534">
            <path id="Path_83" data-name="Path 83" class="cls-5" d="M49.333,255.763a8.326,8.326,0,0,1-5.153-2.007l-.088-.086-.031-.027c-2.68-2.414-2.976-5.933-3.1-7.439l-.012-.148c-.507-5.853,3.777-12,7.6-15.49,2.476-2.262,5.865-5.348,10.593-5.108a12.642,12.642,0,0,1,7.3,3.225c6.778,5.371,8.735,13.951,6.711,19.145l-.238-.093.238.093a12.731,12.731,0,0,1-3.7,5.074,7.324,7.324,0,0,1-4.723,2.02,2.464,2.464,0,0,1-.674-.108,4.325,4.325,0,0,1-2.4-1.853,4.191,4.191,0,0,1-.332-3.091l.021-.074.059-.053a13,13,0,0,0,3.949-5.9,12.486,12.486,0,0,0,.239-6.853c-.013-.053-1.328-5.047-3.508-5.172-.57-.032-.918.3-1.57,1a12.235,12.235,0,0,1-2,1.8,8.744,8.744,0,0,1-4.355,1.457c-1.191.144-2.132.256-2.739,1.155a5.124,5.124,0,0,0-.6,2.566l-.008.079a11.244,11.244,0,0,0,.519,4.246,11.873,11.873,0,0,0,3.827,5.488l.085.068.01.109a5.6,5.6,0,0,1-1.22,4.061,4.948,4.948,0,0,1-1.972,1.4l-.055.024a7.7,7.7,0,0,1-1.606.4A6.514,6.514,0,0,1,49.333,255.763Zm-4.807-2.387a7.156,7.156,0,0,0,7.241,1.438l.036-.034.065-.008a4.445,4.445,0,0,0,1.765-1.253,5.06,5.06,0,0,0,1.107-3.577,12.374,12.374,0,0,1-3.907-5.66,11.751,11.751,0,0,1-.54-4.436l.008-.1a5.5,5.5,0,0,1,.689-2.8c.738-1.093,1.833-1.225,3.1-1.377a8.191,8.191,0,0,0,4.12-1.367,11.814,11.814,0,0,0,1.922-1.733c.655-.7,1.134-1.214,1.974-1.159,2.548.148,3.917,5.333,3.974,5.554a13.02,13.02,0,0,1-.246,7.14,13.516,13.516,0,0,1-4.043,6.081,3.649,3.649,0,0,0,.3,2.628,3.874,3.874,0,0,0,2.107,1.618,1.89,1.89,0,0,0,.519.086,7,7,0,0,0,4.4-1.9,12.2,12.2,0,0,0,3.551-4.866c2.457-6.308-1.488-14.543-6.552-18.556a12.176,12.176,0,0,0-7.009-3.115c-4.505-.25-7.81,2.775-10.221,4.974-3.735,3.412-7.923,9.4-7.431,15.067l.013.148c.121,1.443.405,4.821,2.91,7.079.057.052.1.093.138.13Z" transform="translate(-40.905 -225.444)"/>
          </g>
        </g>
        <g id="Group_540-3" data-name="Group 540" transform="translate(-5624.162 1173.6)">
          <path id="Path_90-3" data-name="Path 90" class="cls-3" d="M63.482,242.556c2.05-.964,2.826-2.777,2.336-3.777-.4-.8-1.568-.988-1.842-1.025a13.881,13.881,0,0,1-.5,4.8Z" transform="translate(-63.024 -237.417)"/>
          <path id="Path_91-3" data-name="Path 91" class="cls-5" d="M63.065,243.125l.176-.618a13.569,13.569,0,0,0,.484-4.7l-.025-.359.356.047a2.7,2.7,0,0,1,2.066,1.187,2.135,2.135,0,0,1,.016,1.645,4.66,4.66,0,0,1-2.491,2.526Zm1.267-4.985a14.264,14.264,0,0,1-.032,1.773,14.084,14.084,0,0,1-.326,2.095,3.8,3.8,0,0,0,1.613-1.875,1.568,1.568,0,0,0,.009-1.192,1.861,1.861,0,0,0-1.264-.8Z" transform="translate(-63.065 -237.447)"/>
        </g>
        <g id="Group_541" data-name="Group 541" transform="translate(-5641.113 1173.184)">
          <path id="Path_92" data-name="Path 92" class="cls-3" d="M50.117,242.2c-1.915-.97-2.582-2.8-2.042-3.812a2.511,2.511,0,0,1,1.873-1.02,13.824,13.824,0,0,0,.168,4.832Z" transform="translate(-47.598 -237.038)"/>
          <path id="Path_93" data-name="Path 93" class="cls-5" d="M50.556,242.771l-.546-.278a4.354,4.354,0,0,1-2.248-2.467,2.247,2.247,0,0,1,.082-1.743,2.727,2.727,0,0,1,2.1-1.174l.377-.042-.054.374a13.515,13.515,0,0,0,.165,4.731Zm-.921-5.016a1.893,1.893,0,0,0-1.275.8,1.68,1.68,0,0,0-.041,1.292,3.56,3.56,0,0,0,1.416,1.8,14.09,14.09,0,0,1-.1-3.9Z" transform="translate(-47.625 -237.068)"/>
        </g>
        <path id="Path_184962" data-name="Path 184962" class="cls-8" d="M50.108,253s-5.925,1.423-8.15,4.565-6.535,15.348-2.828,18.49c2.664,2.258,12.628,3.939,19.144,2.072,2.327-.666,4.686-1.185,7.054-1.658,1.76-.352,3.659-1.011,3.41-2.2-.406-1.943-19.847-3.232-23.868-3.478-.368-.022-.53-.386-.5-.773a10.693,10.693,0,0,1,1.893-5.486" transform="translate(-5689.71 937.675)"/>
        <path id="Path_184963" data-name="Path 184963" class="cls-8" d="M63.739,252s7.756,2.521,9.981,5.663,3.192,15.2,2.095,18.49c-.819,2.457-5.974,2.305-11.961,2.185a38.061,38.061,0,0,1-14.494-3.813c-4.285-2.3-7.727-4.642-2.473-3.9,0,0,11.927,2.135,21.375,1.473a2.694,2.694,0,0,0,1.708-.729c.839-.821,1.654-2.549.332-6.008" transform="translate(-5689.07 937.577)"/>
        <g id="Group_537-6" data-name="Group 537" transform="translate(-5618.708 1215.631)">
          <path id="Path_85-6" data-name="Path 85" class="cls-3" d="M71.637,283.368a45.739,45.739,0,0,1-2.11-4.207c-.486-1.11-.9-2.181-1.261-3.2" transform="translate(-68.01 -275.709)"/>
          <path id="Path_86-6" data-name="Path 86" class="cls-5" d="M71.732,283.636a.258.258,0,0,1-.3-.119,46.656,46.656,0,0,1-2.117-4.231c-.461-1.052-.887-2.133-1.271-3.217a.258.258,0,0,1,.157-.327.271.271,0,0,1,.328.157c.375,1.07.795,2.141,1.255,3.18a46.049,46.049,0,0,0,2.095,4.184.256.256,0,0,1-.1.349A.233.233,0,0,1,71.732,283.636Z" transform="translate(-68.033 -275.732)"/>
        </g>
        <path id="Path_184964" data-name="Path 184964" class="cls-15" d="M49.751,237.726a.13.13,0,0,1,.231-.076c.831,1.138,3.913,4.342,7.483,4.342,3.707,0,6.495-3.1,7.514-3.932a.216.216,0,0,1,.356.166c.011,1.843-.341,8.733-6.059,10.8a5.458,5.458,0,0,1-3.846-.034C53.041,248.066,49.445,245.4,49.751,237.726Z" transform="translate(-5688.531 936.169)"/>
        <g id="Group_544-2" data-name="Group 544" transform="translate(-5625.409 1189.248)">
          <path id="Path_97-2" data-name="Path 97" class="cls-11" d="M62.177,258.069q.31-1.573.566-3.285.216-1.459.362-2.836" transform="translate(-61.905 -251.676)"/>
          <path id="Path_98-2" data-name="Path 98" class="cls-5" d="M62.2,258.364a.286.286,0,0,1-.053-.005.27.27,0,0,1-.215-.317h0c.212-1.078.4-2.178.563-3.272.139-.932.26-1.887.362-2.825a.268.268,0,0,1,.291-.243h.01a.273.273,0,0,1,.242.3c-.1.949-.226,1.907-.366,2.848-.165,1.1-.355,2.209-.569,3.3A.271.271,0,0,1,62.2,258.364Z" transform="translate(-61.929 -251.7)"/>
        </g>
        <g id="Group_545-2" data-name="Group 545" transform="translate(-5631.836 1195.343)">
          <path id="Path_99-2" data-name="Path 99" class="cls-5" d="M65.027,269.573a3.928,3.928,0,0,1-1.493-.363.272.272,0,1,1,.191-.508l.02.008c.865.364,1.505.416,1.9.154.865-.576,1.042-2.956.423-5.659-.58-2.53-1.855-5.18-3.4-5.394-1.493-.213-3.375,1.821-4.588,3.925-1.323,2.3-1.811,4.568-1.161,5.4a2.167,2.167,0,0,0,1.862.52.27.27,0,0,1,.285.251v.007a.273.273,0,0,1-.258.285,2.626,2.626,0,0,1-2.318-.729c-1-1.276-.02-4.035,1.119-6.008,1.209-2.1,3.276-4.445,5.136-4.193,1.923.268,3.278,3.3,3.851,5.812s.6,5.406-.651,6.236A1.616,1.616,0,0,1,65.027,269.573Z" transform="translate(-56.075 -257.252)"/>
        </g>
        <g id="Group_546-3" data-name="Group 546" transform="translate(-5639.903 1190.675)">
          <path id="Path_100-2" data-name="Path 100" class="cls-11" d="M48.975,253.491a40.7,40.7,0,0,0,1.744,9.674" transform="translate(-48.702 -252.952)"/>
          <path id="Path_101-3" data-name="Path 101" class="cls-5" d="M50.744,263.485a.274.274,0,0,1-.26-.191,41.01,41.01,0,0,1-1.757-9.739c-.008-.149.149-.546.3-.555s.228.377.245.523A40.387,40.387,0,0,0,51,263.133a.272.272,0,0,1-.179.339h0A.237.237,0,0,1,50.744,263.485Z" transform="translate(-48.727 -253)"/>
        </g>
        <g id="Group_549-3" data-name="Group 549" transform="translate(-5639.481 1200.066)">
          <g id="Group_547-4" data-name="Group 547" transform="translate(0.271 0.273)">
            <circle id="Ellipse_463-4" data-name="Ellipse 463" class="cls-16" cx="1.6" cy="1.6" r="1.6"/>
          </g>
          <g id="Group_548-4" data-name="Group 548">
            <path id="Path_102-4" data-name="Path 102" class="cls-5" d="M50.982,265.3a1.872,1.872,0,1,1,1.872-1.872A1.872,1.872,0,0,1,50.982,265.3Zm0-3.2a1.327,1.327,0,1,0,1.327,1.327h0A1.327,1.327,0,0,0,50.982,262.1Z" transform="translate(-49.111 -261.554)"/>
          </g>
        </g>
        <g id="Group_552" data-name="Group 552" transform="translate(-5630.565 1204.719)">
          <g id="Group_550-2" data-name="Group 550" transform="translate(0.272 0.272)">
            <circle id="Ellipse_464-2" data-name="Ellipse 464" class="cls-16" cx="0.976" cy="0.976" r="0.976"/>
          </g>
          <g id="Group_551-2" data-name="Group 551">
            <path id="Path_103-2" data-name="Path 103" class="cls-5" d="M58.48,268.289a1.248,1.248,0,1,1,1.248-1.248h0A1.249,1.249,0,0,1,58.48,268.289Zm0-1.953a.708.708,0,1,0,.708.707h0A.707.707,0,0,0,58.48,266.336Z" transform="translate(-57.232 -265.793)"/>
          </g>
        </g>
        <g id="Group_555-3" data-name="Group 555" transform="translate(-5625.243 1205.744)">
          <g id="Group_553-4" data-name="Group 553" transform="translate(0.272 0.271)">
            <circle id="Ellipse_465-4" data-name="Ellipse 465" class="cls-16" cx="0.976" cy="0.976" r="0.976"/>
          </g>
          <g id="Group_554-4" data-name="Group 554" transform="translate(0)">
            <path id="Path_104-4" data-name="Path 104" class="cls-5" d="M63.328,269.222a1.248,1.248,0,1,1,1.248-1.248A1.248,1.248,0,0,1,63.328,269.222Zm0-1.953a.708.708,0,1,0,.708.707h0A.707.707,0,0,0,63.328,267.269Z" transform="translate(-62.08 -266.726)"/>
          </g>
        </g>
        <g id="Group_105503" data-name="Group 105503" transform="translate(-5630.23 1138.802)">
          <path id="Path_184965" data-name="Path 184965" class="cls-12" d="M68.9,210.563a.688.688,0,0,1-.453-.991,4.489,4.489,0,0,1,3.415-2.5,4.756,4.756,0,0,1,3.825,1.08,4.152,4.152,0,0,1,1.032,2.237,5.091,5.091,0,0,1-2.637,5.6c-2.66,1.226-2.44,2.886-2.161,3.8a.3.3,0,0,1-.294.383l-.992-.013a.428.428,0,0,1-.426-.4c-.072-1.055-.01-3.957,2.64-5.284,3.273-1.638,1.951-4.157,1.183-4.937-.5-.507-1.747-1.073-4.478.845-.157.111-.277.269-.463.225Z" transform="translate(-68.364 -207.035)"/>
          <path id="Path_184966" data-name="Path 184966" class="cls-12" d="M71.268,219.841a.74.74,0,0,0-.765.747.764.764,0,0,0,.745.786.784.784,0,0,0,.765-.828C72.022,219.851,71.268,219.841,71.268,219.841Z" transform="translate(-68.155 -205.782)"/>
        </g>
        <path id="Path_90-4" data-name="Path 90" class="cls-3" d="M110.762,216.747a13.464,13.464,0,0,1-.48-4.669c-.268.036-1.407.215-1.791,1-.477.971.278,2.735,2.27,3.672Z" transform="translate(-5724.475 956.215)"/>
        <path id="Path_91-4" data-name="Path 91" class="cls-5" d="M110.658,217.025a4.534,4.534,0,0,1-2.422-2.456,2.069,2.069,0,0,1,.017-1.6,2.617,2.617,0,0,1,2.008-1.154l.347-.046-.026.348a12.626,12.626,0,0,0,.168,4.486v.605Zm-.666-4.58a1.805,1.805,0,0,0-1.229.778,1.522,1.522,0,0,0,.01,1.158,3.122,3.122,0,0,0,1.355,1.739,12.95,12.95,0,0,1-.224-1.993,13.258,13.258,0,0,1,.088-1.682Z" transform="translate(-5724.493 956.194)"/>
      </g>
    </g>
  </g>
</svg>
