<svg xmlns="http://www.w3.org/2000/svg" xmlns:xlink="http://www.w3.org/1999/xlink" width="100" height="100" viewBox="0 0 100 100">
  <defs>
    <style>
      .cls-1, .cls-5 {
        fill: none;
      }

      .cls-2 {
        opacity: 0.05;
        fill: url(#linear-gradient);
      }

      .cls-3 {
        fill: #fff;
      }

      .cls-4 {
        fill: #2d2d2d;
      }

      .cls-5 {
        stroke: #2d2d2d;
        stroke-linecap: round;
        stroke-miterlimit: 10;
        stroke-width: 0.7px;
      }

      .cls-6 {
        fill: #474747;
      }

      .cls-7 {
        fill: #86bcff;
      }

      .cls-8 {
        mix-blend-mode: multiply;
        isolation: isolate;
      }

      .cls-9 {
        fill: #ff8e93;
        opacity: 0.5;
      }
    </style>
    <linearGradient id="linear-gradient" x1="0.5" x2="0.5" y2="1" gradientUnits="objectBoundingBox">
      <stop offset="0" stop-color="#1778f2"/>
      <stop offset="1" stop-color="#f40009"/>
    </linearGradient>
  </defs>
  <g id="Group_124977" data-name="Group 124977" transform="translate(-218 -484)">
    <rect id="Rectangle_10349" data-name="Rectangle 10349" class="cls-1" width="100" height="100" transform="translate(218 484)"/>
    <g id="Group_124899" data-name="Group 124899">
      <path id="Path_153242" data-name="Path 153242" class="cls-2" d="M32.3,83.491A105.79,105.79,0,0,1,17.2,70.917,105.57,105.57,0,0,1,4.909,56.1,17.251,17.251,0,0,1,0,44.2,16.783,16.783,0,0,1,4.909,32.3,144.539,144.539,0,0,1,32.3,4.909,17.263,17.263,0,0,1,44.2,0,16.781,16.781,0,0,1,56.1,4.909a164.255,164.255,0,0,1,13.841,12.23A164.608,164.608,0,0,1,83.491,32.3,17.24,17.24,0,0,1,88.4,44.2a16.782,16.782,0,0,1-4.909,11.9A163.679,163.679,0,0,1,69.255,71.955,164.629,164.629,0,0,1,56.1,83.491a17.386,17.386,0,0,1-7.239,4.259,16.564,16.564,0,0,1-4.664.65,17.462,17.462,0,0,1-5.792-1.133A18.7,18.7,0,0,1,32.3,83.491Z" transform="translate(221.375 488)"/>
      <g id="Group_75783" data-name="Group 75783" transform="translate(0 49)">
        <g id="Group_2914" data-name="Group 2914" transform="translate(232.516 448.215)">
          <path id="Path_234" data-name="Path 234" class="cls-3" d="M1361.475,54.765c-.358,1.025-.147,1.67.382,5.119.463,3.024.7,6.086,1.144,9.114.832,5.733,1.007,8.279,1.486,12.112,1.721,13.772,2.582,20.658,4.767,24.1,7.914,12.46,35.858,12.334,43.777,0,.859-1.339,2.2-8.135,4.881-21.725,1.751-8.881,1.071-6.628,2.631-14.734.583-3.025.826-6.116,1.335-9.157.44-2.626.623-3.421.266-4.453-.853-2.472-3.8-3.407-8.237-4.495-6.582-1.614-9.874-2.421-14.986-2.872a90.17,90.17,0,0,0-14.644-.125,73.236,73.236,0,0,0-13.27,2.247C1364.262,51.517,1362.172,52.767,1361.475,54.765Z" transform="translate(-1360.959 -47.07)"/>
          <path id="Path_235" data-name="Path 235" class="cls-4" d="M1391.068,114.835h-.1c-9.887-.024-18.32-3.647-22.01-9.454-2.226-3.505-3.091-10.434-4.817-24.239-.166-1.327-.295-2.5-.427-3.7-.253-2.289-.515-4.656-1.059-8.4-.208-1.438-.375-2.906-.537-4.323-.177-1.575-.364-3.2-.606-4.79-.089-.587-.171-1.093-.241-1.532-.345-2.165-.451-2.819-.125-3.749h0c.78-2.236,3.246-3.52,9.773-5.087a73.906,73.906,0,0,1,13.325-2.256,90.5,90.5,0,0,1,14.7.125c5.141.453,8.449,1.263,15.038,2.88,4.381,1.075,7.554,2.042,8.477,4.714.354,1.027.217,1.833-.147,3.988l-.107.631c-.222,1.33-.4,2.7-.566,4.017-.217,1.693-.441,3.444-.77,5.148-.737,3.829-.974,5.345-1.2,6.812-.26,1.664-.505,3.236-1.429,7.923-2.769,14.041-4.033,20.448-4.928,21.844C1409.56,111.217,1401.044,114.835,1391.068,114.835Zm-.335-67.1c-2.175,0-4.325.08-6.439.238a73.5,73.5,0,0,0-13.216,2.239c-7.037,1.692-8.7,2.941-9.292,4.652h0c-.269.769-.179,1.33.155,3.42.07.441.151.947.241,1.537.245,1.6.431,3.235.611,4.814.16,1.414.326,2.876.533,4.3.546,3.756.807,6.128,1.061,8.423.133,1.2.263,2.372.429,3.7,1.711,13.7,2.57,20.581,4.716,23.958,3.566,5.614,11.779,9.116,21.437,9.14h.1c9.747,0,18.044-3.5,21.666-9.142.826-1.286,2.25-8.5,4.834-21.607.922-4.674,1.166-6.24,1.424-7.9.231-1.472.469-3,1.207-6.836.325-1.684.547-3.424.763-5.106.17-1.327.345-2.7.571-4.042l.106-.632c.353-2.088.471-2.79.174-3.654-.811-2.347-3.826-3.253-8-4.276-6.557-1.608-9.848-2.414-14.937-2.863C1396.143,47.859,1393.419,47.738,1390.733,47.738Z" transform="translate(-1360.948 -47.059)"/>
        </g>
        <g id="Group_2915" data-name="Group 2915" transform="translate(264.333 465.41)">
          <path id="Path_236" data-name="Path 236" class="cls-4" d="M1403.632,110.991a5.88,5.88,0,0,1-1-.084c-2.8-.481-4.442-2.991-5.173-4.444-.991-1.966-.8-3.348-.5-5.638a44.9,44.9,0,0,0,.461-5.244,33.111,33.111,0,0,0-.608-7.427,31.05,31.05,0,0,1-.59-6.553l0-.1a16.965,16.965,0,0,0-.525-4.8,9.89,9.89,0,0,0-.565-1.627,11.225,11.225,0,0,1-.564-1.563c-.612-2.144-1.536-5.38.148-7.121a4.079,4.079,0,0,1,4.529-.731c1.83.95,2.075,3.375,2.313,5.722a15.256,15.256,0,0,1-.069,3.616.336.336,0,0,1-.382.29.34.34,0,0,1-.29-.383,14.576,14.576,0,0,0,.065-3.45c-.219-2.171-.446-4.411-1.949-5.192a3.4,3.4,0,0,0-3.729.6c-1.412,1.459-.553,4.469.016,6.46a10.686,10.686,0,0,0,.535,1.482,10.578,10.578,0,0,1,.6,1.724,17.526,17.526,0,0,1,.546,4.983l0,.1a30.12,30.12,0,0,0,.582,6.425,33.678,33.678,0,0,1,.617,7.561,45.684,45.684,0,0,1-.465,5.317c-.3,2.233-.467,3.462.43,5.242.543,1.078,2.084,3.633,4.682,4.08,3.938.671,8.216-3.267,9.745-7.375a5.327,5.327,0,0,0,.351-2.776,17.912,17.912,0,0,1,.164-4.345,79.445,79.445,0,0,1,2.811-12.846,4.259,4.259,0,0,0,.028-3.405,3.075,3.075,0,0,0-1.484-1.236.339.339,0,1,1,.272-.621,3.742,3.742,0,0,1,1.8,1.517,4.882,4.882,0,0,1,.04,3.926,78.621,78.621,0,0,0-2.793,12.761,17.053,17.053,0,0,0-.16,4.2,5.991,5.991,0,0,1-.392,3.063C1411.632,107.123,1407.6,110.991,1403.632,110.991Z" transform="translate(-1393.764 -65.271)"/>
        </g>
        <g id="Group_2916" data-name="Group 2916" transform="translate(270.923 467.748)">
          <path id="Path_237" data-name="Path 237" class="cls-4" d="M1405.693,76.353a.32.32,0,0,1-.112-.018.341.341,0,0,1-.21-.432,9.3,9.3,0,0,0,.516-3.512,4.873,4.873,0,0,0-.808-3.08c-1.29-1.514-3.831-1.093-4.119-1.041a.339.339,0,1,1-.123-.667c.323-.061,3.219-.538,4.759,1.268a5.444,5.444,0,0,1,.969,3.489,10.033,10.033,0,0,1-.551,3.767A.341.341,0,0,1,1405.693,76.353Z" transform="translate(-1400.56 -67.5)"/>
        </g>
        <g id="Group_2917" data-name="Group 2917" transform="translate(275.984 470.211)">
          <path id="Path_238" data-name="Path 238" class="cls-4" d="M1410.114,78.762a.339.339,0,0,1-.3-.5,7.049,7.049,0,0,0,.826-2.668,4.741,4.741,0,0,0-.6-3.427c-1.249-1.661-3.782-1.41-3.887-1.4a.325.325,0,0,1-.374-.3.338.338,0,0,1,.3-.373c.311-.033,3.048-.27,4.5,1.664a5.364,5.364,0,0,1,.733,3.9,7.727,7.727,0,0,1-.9,2.928A.34.34,0,0,1,1410.114,78.762Z" transform="translate(-1405.78 -70.07)"/>
        </g>
        <g id="Group_2918" data-name="Group 2918" transform="translate(269.729 491.31)">
          <path id="Path_239" data-name="Path 239" class="cls-3" d="M1399.133,106.059c2.2,2.556,4.487,2.19,6.282,8.651,2.006,7.22,2.351,14.093,1.582,17.331,7.853-5.113,14.6-7.336,22.457-12.45-1.939-.775-4.911-3.283-7.692-5.354-4.553-3.39-6.328-8.651-7.768-11.011s-2.385-6-3.419-10.689C1406.826,95.664,1402.881,102.933,1399.133,106.059Z" transform="translate(-1399.329 -92.537)"/>
        </g>
        <g id="Group_2919" data-name="Group 2919" transform="translate(280.911 473.24)">
          <path id="Path_240" data-name="Path 240" class="cls-4" d="M1413.82,81.722a.343.343,0,0,1-.141-.03.339.339,0,0,1-.168-.45,10.97,10.97,0,0,0,.86-2.884,4.665,4.665,0,0,0,.054-2.029c-.468-1.6-2.65-2.265-3.307-2.43a.34.34,0,1,1,.165-.659c.746.188,3.224.951,3.794,2.9a5.179,5.179,0,0,1-.035,2.322,11.625,11.625,0,0,1-.914,3.065A.337.337,0,0,1,1413.82,81.722Z" transform="translate(-1410.861 -73.23)"/>
        </g>
        <g id="Group_2920" data-name="Group 2920" transform="translate(271.231 506.202)">
          <path id="Path_241" data-name="Path 241" class="cls-4" d="M1406.581,132.333a.334.334,0,0,1-.092-.013.339.339,0,0,1-.235-.419,25.214,25.214,0,0,0-.339-15,24.633,24.633,0,0,0-4.952-8.445.339.339,0,1,1,.507-.45,25.3,25.3,0,0,1,5.086,8.676,25.894,25.894,0,0,1,.351,15.4A.34.34,0,0,1,1406.581,132.333Z" transform="translate(-1400.878 -107.896)"/>
        </g>
        <g id="Group_2921" data-name="Group 2921" transform="translate(282.067 495.707)">
          <path id="Path_242" data-name="Path 242" class="cls-4" d="M1432.634,121.016a.338.338,0,0,1-.129-.024,34.646,34.646,0,0,1-14.35-10.944,34.154,34.154,0,0,1-6.092-12.8.339.339,0,0,1,.659-.159,33.486,33.486,0,0,0,5.972,12.549,33.964,33.964,0,0,0,14.068,10.728.339.339,0,0,1-.129.653Z" transform="translate(-1412.053 -96.827)"/>
        </g>
        <g id="Group_2922" data-name="Group 2922" transform="translate(274.325 515.459)">
          <path id="Path_243" data-name="Path 243" class="cls-5" d="M1404.069,117.213" transform="translate(-1404.069 -117.213)"/>
        </g>
        <g id="Group_2923" data-name="Group 2923" transform="translate(238.207 465.408)">
          <path id="Path_244" data-name="Path 244" class="cls-4" d="M1380.066,110.991c-3.965,0-8-3.867-9.5-7.891a6.012,6.012,0,0,1-.392-3.063,17.138,17.138,0,0,0-.159-4.2,78.643,78.643,0,0,0-2.783-12.723,4.923,4.923,0,0,1,.028-3.964,3.74,3.74,0,0,1,1.8-1.517.339.339,0,1,1,.272.621,3.079,3.079,0,0,0-1.485,1.236,4.23,4.23,0,0,0,.017,3.375,79.225,79.225,0,0,1,2.822,12.876,17.867,17.867,0,0,1,.164,4.345,5.326,5.326,0,0,0,.351,2.776c1.529,4.109,5.82,8.047,9.745,7.375,2.6-.447,4.139-3,4.682-4.08.9-1.779.731-3.009.43-5.242a45.441,45.441,0,0,1-.465-5.317,33.66,33.66,0,0,1,.617-7.559,30.035,30.035,0,0,0,.582-6.427l0-.1a17.505,17.505,0,0,1,.545-4.983,10.62,10.62,0,0,1,.6-1.724,10.684,10.684,0,0,0,.533-1.48c.57-1.992,1.431-5,.017-6.463a3.4,3.4,0,0,0-3.728-.6c-1.5.782-1.73,3.023-1.949,5.191a14.572,14.572,0,0,0,.065,3.451.341.341,0,0,1-.29.383.335.335,0,0,1-.382-.29,15.273,15.273,0,0,1-.069-3.611c.238-2.348.482-4.776,2.313-5.726a4.07,4.07,0,0,1,4.529.731c1.686,1.742.76,4.979.148,7.122a11.378,11.378,0,0,1-.564,1.562A9.869,9.869,0,0,0,1388,76.7a16.883,16.883,0,0,0-.525,4.8l0,.1a31.071,31.071,0,0,1-.589,6.555,33.016,33.016,0,0,0-.609,7.425,45.217,45.217,0,0,0,.459,5.244c.309,2.29.5,3.672-.5,5.638-.731,1.452-2.375,3.963-5.173,4.444A5.982,5.982,0,0,1,1380.066,110.991Z" transform="translate(-1366.817 -65.269)"/>
        </g>
        <g id="Group_2924" data-name="Group 2924" transform="translate(248.719 467.748)">
          <path id="Path_245" data-name="Path 245" class="cls-4" d="M1378.542,76.353a.341.341,0,0,1-.321-.229,10.024,10.024,0,0,1-.551-3.766,5.44,5.44,0,0,1,.969-3.49c1.538-1.8,4.435-1.329,4.759-1.267a.338.338,0,0,1,.272.4.333.333,0,0,1-.395.271c-.286-.053-2.828-.473-4.119,1.041a4.872,4.872,0,0,0-.808,3.08,9.37,9.37,0,0,0,.515,3.513.339.339,0,0,1-.209.431A.348.348,0,0,1,1378.542,76.353Z" transform="translate(-1377.66 -67.5)"/>
        </g>
        <g id="Group_2925" data-name="Group 2925" transform="translate(244.065 470.211)">
          <path id="Path_246" data-name="Path 246" class="cls-4" d="M1374.135,78.762a.34.34,0,0,1-.3-.177,7.729,7.729,0,0,1-.9-2.925,5.372,5.372,0,0,1,.732-3.9c1.453-1.933,4.2-1.7,4.5-1.664a.339.339,0,0,1,.3.372.326.326,0,0,1-.373.3c-.11-.014-2.641-.263-3.889,1.4a4.741,4.741,0,0,0-.6,3.424,7.08,7.08,0,0,0,.826,2.671.338.338,0,0,1-.3.5Z" transform="translate(-1372.859 -70.07)"/>
        </g>
        <g id="Group_2926" data-name="Group 2926" transform="translate(222.5 491.31)">
          <path id="Path_247" data-name="Path 247" class="cls-3" d="M1382.808,106.472a19.752,19.752,0,0,0-3.57,5.489,13.816,13.816,0,0,0-1.919,3.57c-2.006,7.188-1.709,13.111-.939,16.334-8.587-6.525-8.993-9.051-17.58-15.577,1.419-.156,3.818-2.471,7.5-7.854.784-1.149,1.535-3.207,2.856-4.864,3.313-4.154,3.438-8.812,3.649-11.035C1376.551,95.65,1379.06,103.36,1382.808,106.472Z" transform="translate(-1350.618 -92.537)"/>
        </g>
        <g id="Group_2927" data-name="Group 2927" transform="translate(240.412 473.239)">
          <path id="Path_248" data-name="Path 248" class="cls-4" d="M1370.469,81.722a.339.339,0,0,1-.309-.2,11.623,11.623,0,0,1-.913-3.064,5.188,5.188,0,0,1-.035-2.323c.571-1.948,3.048-2.709,3.8-2.9a.34.34,0,0,1,.165.659c-.657.165-2.839.826-3.308,2.43a4.671,4.671,0,0,0,.053,2.028,10.963,10.963,0,0,0,.861,2.885.339.339,0,0,1-.168.45A.346.346,0,0,1,1370.469,81.722Z" transform="translate(-1369.092 -73.23)"/>
        </g>
        <g id="Group_2928" data-name="Group 2928" transform="translate(245.428 506.202)">
          <path id="Path_249" data-name="Path 249" class="cls-4" d="M1374.6,132.118h-.01a.339.339,0,0,1-.329-.349,40.827,40.827,0,0,1,8.392-23.74.34.34,0,0,1,.54.413,40.15,40.15,0,0,0-8.254,23.348A.339.339,0,0,1,1374.6,132.118Z" transform="translate(-1374.265 -107.897)"/>
        </g>
        <g id="Group_2929" data-name="Group 2929" transform="translate(222.672 495.707)">
          <path id="Path_250" data-name="Path 250" class="cls-4" d="M1351.135,121.016a.339.339,0,0,1-.129-.653,33.955,33.955,0,0,0,14.068-10.728,33.477,33.477,0,0,0,5.973-12.549.341.341,0,0,1,.409-.25.338.338,0,0,1,.249.409,34.151,34.151,0,0,1-6.091,12.8,34.646,34.646,0,0,1-14.351,10.944A.336.336,0,0,1,1351.135,121.016Z" transform="translate(-1350.795 -96.827)"/>
        </g>
        <g id="Group_2930" data-name="Group 2930" transform="translate(251.333 515.459)">
          <path id="Path_251" data-name="Path 251" class="cls-5" d="M1380.356,117.213" transform="translate(-1380.356 -117.213)"/>
        </g>
        <g id="Group_2931" data-name="Group 2931" transform="translate(251.411 515.459)">
          <path id="Path_252" data-name="Path 252" class="cls-5" d="M1380.436,117.213" transform="translate(-1380.436 -117.213)"/>
        </g>
        <g id="Group_2934" data-name="Group 2934" transform="translate(243.896 443.923)">
          <g id="Group_2932" data-name="Group 2932" transform="translate(0.348 0.339)">
            <path id="Path_253" data-name="Path 253" class="cls-6" d="M1373.919,49.6c-1.925,3.623-.526,9.282,2.76,11.537,3.31,2.272,6.218-.5,14.721-.443,9.867.061,13.395,3.836,16.944,1.4,3.211-2.2,4.27-7.987,2.3-11.759C1405.587,40.66,1378.676,40.65,1373.919,49.6Z" transform="translate(-1373.044 -42.982)"/>
          </g>
          <g id="Group_2933" data-name="Group 2933">
            <path id="Path_254" data-name="Path 254" class="cls-4" d="M1405.655,63.242a17.45,17.45,0,0,1-4.105-.741,38.61,38.61,0,0,0-10.162-1.476,41.875,41.875,0,0,0-8.308.872c-2.773.533-4.606.885-6.6-.488-3.476-2.386-4.87-8.206-2.868-11.975h0c2.2-4.139,9.28-6.8,18.062-6.8h.157c7.01.025,16.22,2.017,19.108,7.544,2.085,3.994.913,9.92-2.41,12.2A4.863,4.863,0,0,1,1405.655,63.242Zm-14.514-2.9h.25a39.217,39.217,0,0,1,10.327,1.5c2.894.743,4.64,1.191,6.423-.031,3.012-2.062,4.1-7.67,2.19-11.322-2.26-4.329-9.526-7.148-18.508-7.18h-.156c-8.534,0-15.378,2.522-17.461,6.443h0c-1.823,3.431-.509,8.928,2.652,11.1,1.762,1.208,3.393.9,6.092.379A40.141,40.141,0,0,1,1391.141,60.347Z" transform="translate(-1372.685 -42.632)"/>
          </g>
        </g>
        <g id="Group_2935" data-name="Group 2935" transform="translate(246.858 451.695)">
          <path id="Path_255" data-name="Path 255" class="cls-4" d="M1376.08,54.763a.339.339,0,0,1-.14-.649,39.348,39.348,0,0,1,32.293,0,.339.339,0,1,1-.278.619,38.989,38.989,0,0,0-15.879-3.405h-.281a38.985,38.985,0,0,0-15.576,3.4A.335.335,0,0,1,1376.08,54.763Z" transform="translate(-1375.74 -50.649)"/>
        </g>
        <g id="Group_2938" data-name="Group 2938" transform="translate(263.278 451.057)">
          <g id="Group_2936" data-name="Group 2936" transform="translate(0.943 0.342)">
            <path id="Path_256" data-name="Path 256" class="cls-7" d="M1396.062,60.882c1.289-.976,3.252-2.4,5.75-3.987,4.075-2.584,6.891-3.668,6.747-5.176a1.68,1.68,0,0,0-1.046-1.3c-.559-.211-1.264-.042-3.493,1.612-1.385,1.028-2.439,1.948-4.3,3.6-1.531,1.36-1.711,1.533-2.418,2.15-1.521,1.328-2.8,2.374-3.654,3.063Z" transform="translate(-1393.648 -50.343)"/>
          </g>
          <g id="Group_2937" data-name="Group 2937">
            <path id="Path_257" data-name="Path 257" class="cls-4" d="M1396.144,61.212l-3.469-.059.732-.588c1.215-.976,2.44-2,3.643-3.054.409-.358.642-.565,1.065-.943l1.352-1.2c1.91-1.7,2.959-2.607,4.321-3.618,2.342-1.737,3.123-1.922,3.815-1.657a2.022,2.022,0,0,1,1.265,1.589c.126,1.33-1.43,2.24-4.007,3.748-.861.5-1.835,1.074-2.9,1.746-1.975,1.252-3.9,2.588-5.727,3.97Zm-1.587-.7,1.363.023c1.813-1.369,3.723-2.692,5.681-3.932,1.07-.679,2.052-1.253,2.917-1.76,2.264-1.324,3.759-2.2,3.674-3.1a1.352,1.352,0,0,0-.83-1.02c-.357-.138-.893-.123-3.17,1.568-1.348,1-2.338,1.859-4.276,3.582l-1.35,1.2c-.426.38-.659.589-1.071.948C1396.525,58.869,1395.54,59.7,1394.557,60.507Z" transform="translate(-1392.675 -49.99)"/>
          </g>
        </g>
        <g id="Group_2939" data-name="Group 2939" class="cls-8" transform="translate(253.062 457.021)">
          <path id="Path_258" data-name="Path 258" class="cls-9" d="M1401.939,65.87c.271,1.222,1,4.509-.925,7.165-2.652,3.651-8.077,3-8.8,2.906-4.025-.541-9.967-3.706-10.072-9.727a9.9,9.9,0,0,1,9.727-10.071C1398.068,56.035,1401.17,62.418,1401.939,65.87Z" transform="translate(-1382.139 -56.142)"/>
        </g>
      </g>
    </g>
  </g>
</svg>
