<svg xmlns="http://www.w3.org/2000/svg" xmlns:xlink="http://www.w3.org/1999/xlink" width="100" height="100" viewBox="0 0 100 100">
  <defs>
    <style>
      .cls-1, .cls-6 {
        fill: none;
      }

      .cls-2 {
        opacity: 0.05;
        fill: url(#linear-gradient);
      }

      .cls-3 {
        fill: #fff;
      }

      .cls-4 {
        fill: #474747;
      }

      .cls-5 {
        fill: #2d2d2d;
      }

      .cls-6 {
        stroke: #2d2d2d;
        stroke-miterlimit: 10;
        stroke-width: 0.7px;
      }

      .cls-7 {
        mix-blend-mode: multiply;
        isolation: isolate;
      }

      .cls-8 {
        fill: #ff8e93;
        opacity: 0.5;
      }
    </style>
    <linearGradient id="linear-gradient" x1="0.5" x2="0.5" y2="1" gradientUnits="objectBoundingBox">
      <stop offset="0" stop-color="#1778f2"/>
      <stop offset="1" stop-color="#f40009"/>
    </linearGradient>
  </defs>
  <g id="Group_124974" data-name="Group 124974" transform="translate(-218 -292)">
    <rect id="Rectangle_10347" data-name="Rectangle 10347" class="cls-1" width="100" height="100" transform="translate(218 292)"/>
    <g id="Group_124896" data-name="Group 124896">
      <g id="Group_124895" data-name="Group 124895">
        <path id="Path_153240" data-name="Path 153240" class="cls-2" d="M32.3,83.491A105.79,105.79,0,0,1,17.2,70.917,105.57,105.57,0,0,1,4.909,56.1,17.251,17.251,0,0,1,0,44.2,16.783,16.783,0,0,1,4.909,32.3,144.539,144.539,0,0,1,32.3,4.909,17.263,17.263,0,0,1,44.2,0,16.781,16.781,0,0,1,56.1,4.909a164.255,164.255,0,0,1,13.841,12.23A164.608,164.608,0,0,1,83.491,32.3,17.24,17.24,0,0,1,88.4,44.2a16.782,16.782,0,0,1-4.909,11.9A163.679,163.679,0,0,1,69.255,71.955,164.629,164.629,0,0,1,56.1,83.491a17.386,17.386,0,0,1-7.239,4.259,16.564,16.564,0,0,1-4.664.65,17.462,17.462,0,0,1-5.792-1.133A18.7,18.7,0,0,1,32.3,83.491Z" transform="translate(221.375 300)"/>
        <g id="Group_75777" data-name="Group 75777" transform="translate(70.447 261.966)">
          <g id="Group_1523" data-name="Group 1523" transform="translate(175.838 110.954)">
            <path id="Path_180" data-name="Path 180" class="cls-3" d="M176.667,113.684l1.812,15.243,29.74.107,2.025-6.929-2.025-6.929Z" transform="translate(-176.667 -113.684)"/>
          </g>
          <g id="Group_1973" data-name="Group 1973" transform="translate(178.831 42.5)">
            <g id="Group_1971" data-name="Group 1971" transform="translate(0.341 0.339)">
              <path id="Path_181" data-name="Path 181" class="cls-4" d="M182.428,69.542a15.488,15.488,0,0,1-2.278-7.293c-.329-7.3,4.213-16.872,12.219-18.921a10.451,10.451,0,0,1,5.8-.1c5.175,1.558,7.192,7.231,10.821,18.054,3.964,11.821,2.569,14.068,1.709,14.962-.563.586-1.638,1.366-5.543,1.575C201.448,78.017,188.1,78.734,182.428,69.542Z" transform="translate(-180.134 -42.853)"/>
            </g>
            <g id="Group_1972" data-name="Group 1972">
              <path id="Path_182" data-name="Path 182" class="cls-5" d="M202.185,78.222c-9.828,0-16.566-2.858-20.057-8.516h0A15.788,15.788,0,0,1,179.8,62.25c-.441-9.814,6.13-17.641,12.472-19.262a10.714,10.714,0,0,1,5.98-.1c5.47,1.647,7.568,7.9,11.044,18.269,3.745,11.172,2.839,14.047,1.631,15.3-.684.715-1.9,1.471-5.767,1.678Q203.628,78.222,202.185,78.222ZM182.7,69.352c3.694,5.985,11.239,8.716,22.422,8.115,3.65-.2,4.76-.89,5.319-1.471s2.311-2.405-1.785-14.623c-3.689-11-5.68-16.358-10.6-17.839a10.134,10.134,0,0,0-5.614.1c-7.575,1.938-12.3,11.172-11.971,18.581a15.116,15.116,0,0,0,2.228,7.132Z" transform="translate(-179.779 -42.5)"/>
            </g>
          </g>
          <g id="Group_1974" data-name="Group 1974" transform="translate(176.421 114.346)">
            <path id="Path_183" data-name="Path 183" class="cls-3" d="M177.273,117.211l1.359,12.631,19.667.48,10.473-2.478a22.87,22.87,0,0,0,1.119-9.594Z" transform="translate(-177.273 -117.211)"/>
          </g>
          <g id="Group_1975" data-name="Group 1975" transform="translate(174.892 65.424)">
            <path id="Path_184" data-name="Path 184" class="cls-3" d="M203.252,100.918a34.469,34.469,0,0,0,3.172-5.244h0a31.3,31.3,0,0,0,1.512-4.275c.848-3.314,3.176-12.433-2.225-16.211-2.581-1.805-5.979-1.726-7.814-4.6a6.028,6.028,0,0,1-.934-3.151l-5.414-.7a4.79,4.79,0,0,1-1.39,2.984c-.677.664-1.468,1.041-5.588,2.321-3.649,1.136-4.031,1.15-4.806,1.659a7.215,7.215,0,0,0-2.833,4.147,18.584,18.584,0,0,0-.672,8.635,20.639,20.639,0,0,0,3.049,7.741,21.265,21.265,0,0,0,3.459,4.1" transform="translate(-175.696 -66.353)"/>
            <path id="Path_185" data-name="Path 185" class="cls-5" d="M203.512,101.1l-.548-.39a34.474,34.474,0,0,0,3.143-5.191A31.036,31.036,0,0,0,207.6,91.3c.853-3.338,3.122-12.205-2.094-15.852a13.773,13.773,0,0,0-3.109-1.474c-1.77-.664-3.6-1.349-4.8-3.221a6.309,6.309,0,0,1-.975-3.037l-4.8-.624a5.014,5.014,0,0,1-1.443,2.848c-.733.719-1.528,1.1-5.724,2.4-.978.3-1.721.529-2.3.7a8.2,8.2,0,0,0-2.421.916,6.83,6.83,0,0,0-2.7,3.971,18.282,18.282,0,0,0-.659,8.477,20.365,20.365,0,0,0,3,7.611,20.925,20.925,0,0,0,3.4,4.037l-.457.5a21.607,21.607,0,0,1-3.513-4.169,21.061,21.061,0,0,1-3.1-7.871,18.953,18.953,0,0,1,.685-8.793,7.447,7.447,0,0,1,2.967-4.322,8.662,8.662,0,0,1,2.6-1c.578-.174,1.319-.4,2.3-.7,4.029-1.251,4.821-1.62,5.453-2.241a4.428,4.428,0,0,0,1.291-2.78l.036-.342,6.043.786.006.289a5.676,5.676,0,0,0,.882,2.978c1.074,1.682,2.721,2.3,4.465,2.953a14.265,14.265,0,0,1,3.259,1.552c5.6,3.915,3.244,13.109,2.358,16.571a31.779,31.779,0,0,1-1.531,4.329A35.088,35.088,0,0,1,203.512,101.1Z" transform="translate(-175.683 -66.338)"/>
          </g>
          <g id="Group_1976" data-name="Group 1976" transform="translate(180.942 77.297)">
            <path id="Path_186" data-name="Path 186" class="cls-5" d="M198.509,92.226c-.167,0-.271-.008-.292-.01a6.466,6.466,0,0,1-5.285-4.462,6.207,6.207,0,0,1-1.242,1.511c-1.9,1.68-5.2,2.482-7.435.921a5.89,5.89,0,0,1-2.219-5.514,6.887,6.887,0,0,1,.373-1.3,6.849,6.849,0,0,0,.492-2.253,7.985,7.985,0,0,0-.171-2.022.336.336,0,0,1,.658-.14,8.614,8.614,0,0,1,.186,2.193,7.5,7.5,0,0,1-.532,2.451,6.311,6.311,0,0,0-.341,1.183,5.259,5.259,0,0,0,1.941,4.855c1.959,1.372,4.895.634,6.6-.874a5.7,5.7,0,0,0,1.458-2.042l.4-.927.237.982a5.95,5.95,0,0,0,4.932,4.773,5.246,5.246,0,0,0,4.008-1.533,4.889,4.889,0,0,0,1.19-2.662,4.62,4.62,0,0,0-.134-1.738,9.71,9.71,0,0,1-.25-1.828,9.911,9.911,0,0,1,.345-2.958.34.34,0,0,1,.413-.237.336.336,0,0,1,.237.414,9.263,9.263,0,0,0-.322,2.757,9.118,9.118,0,0,0,.237,1.711,5.33,5.33,0,0,1,.143,1.964,5.565,5.565,0,0,1-1.36,3.03A5.853,5.853,0,0,1,198.509,92.226Z" transform="translate(-181.974 -78.684)"/>
          </g>
          <g id="Group_1977" data-name="Group 1977" transform="translate(178.463 91.674)">
            <path id="Path_187" data-name="Path 187" class="cls-3" d="M183.594,98.232a24.717,24.717,0,0,1-4.2,7.475l25.982,1.04a28.569,28.569,0,0,1-3.957-11.593l-16.709-1.518A24.454,24.454,0,0,1,183.594,98.232Z" transform="translate(-179.397 -93.635)"/>
          </g>
          <g id="Group_1978" data-name="Group 1978" transform="translate(175.592 88.141)">
            <path id="Path_188" data-name="Path 188" class="cls-5" d="M177.669,122.065a.338.338,0,0,1-.329-.266c-1.635-7.657-1.11-13.237,1.559-16.588.627-.786,3.724-4.791,4.574-8.239a17.674,17.674,0,0,0,.411-2.62,15.263,15.263,0,0,0-.254-3.989.335.335,0,0,1,.264-.4.34.34,0,0,1,.4.265,15.887,15.887,0,0,1,.265,4.164,18,18,0,0,1-.428,2.737c-.862,3.495-3.805,7.374-4.686,8.479-2.552,3.2-3.032,8.6-1.442,16.047a.337.337,0,0,1-.259.4A.356.356,0,0,1,177.669,122.065Z" transform="translate(-176.411 -89.961)"/>
          </g>
          <g id="Group_1979" data-name="Group 1979" transform="translate(200.127 89.379)">
            <path id="Path_189" data-name="Path 189" class="cls-5" d="M210.094,126.218a.4.4,0,0,1-.088-.011.337.337,0,0,1-.237-.414,24.661,24.661,0,0,0-.21-13.881,24.141,24.141,0,0,0-4.5-8.222,16.075,16.075,0,0,1-2.581-5.341,16.274,16.274,0,0,1-.347-6.819.337.337,0,0,1,.664.109,15.577,15.577,0,0,0,.333,6.533,15.39,15.39,0,0,0,2.461,5.1,24.792,24.792,0,0,1,4.61,8.434,25.347,25.347,0,0,1,.217,14.26A.336.336,0,0,1,210.094,126.218Z" transform="translate(-201.925 -91.248)"/>
          </g>
          <g id="Group_1980" data-name="Group 1980" transform="translate(183.496 107.739)">
            <path id="Path_190" data-name="Path 190" class="cls-5" d="M193.687,121.3a.335.335,0,0,1-.316-.222,18.858,18.858,0,0,0-8.567-10.107.336.336,0,1,1,.328-.588A19.521,19.521,0,0,1,194,120.851a.338.338,0,0,1-.2.431A.345.345,0,0,1,193.687,121.3Z" transform="translate(-184.631 -110.341)"/>
          </g>
          <g id="Group_1981" data-name="Group 1981" transform="translate(191.001 108.911)">
            <path id="Path_191" data-name="Path 191" class="cls-5" d="M193.131,132.065a.336.336,0,0,1-.33-.271,20.3,20.3,0,0,1,1.342-12.007,20.07,20.07,0,0,1,6.7-8.164.336.336,0,1,1,.389.548,19.386,19.386,0,0,0-6.478,7.89,19.613,19.613,0,0,0-1.3,11.6.336.336,0,0,1-.265.4A.376.376,0,0,1,193.131,132.065Z" transform="translate(-192.435 -111.559)"/>
          </g>
          <g id="Group_1982" data-name="Group 1982" transform="translate(199.406 95.935)">
            <path id="Path_192" data-name="Path 192" class="cls-6" d="M201.175,98.066" transform="translate(-201.175 -98.066)"/>
          </g>
          <g id="Group_1983" data-name="Group 1983" transform="translate(185.867 48.393)">
            <path id="Path_193" data-name="Path 193" class="cls-3" d="M196.649,48.969c3.539.846,6.212,4.664,6.212,9.251,0,5.212-3.452,9.434-7.7,9.434s-7.712-4.222-7.712-9.434a12.07,12.07,0,0,1,.183-2.068" transform="translate(-187.109 -48.641)"/>
            <path id="Path_194" data-name="Path 194" class="cls-5" d="M195.145,67.977c-4.438,0-8.049-4.383-8.049-9.77a12.512,12.512,0,0,1,.188-2.124l.663.114a11.86,11.86,0,0,0-.177,2.01c0,5.017,3.308,9.1,7.376,9.1s7.366-4.081,7.366-9.1c0-4.347-2.5-8.1-5.954-8.923l.157-.656c3.749.9,6.47,4.926,6.47,9.579C203.184,63.594,199.578,67.977,195.145,67.977Z" transform="translate(-187.096 -48.628)"/>
          </g>
          <g id="Group_1984" data-name="Group 1984" transform="translate(185.825 43.09)">
            <path id="Path_195" data-name="Path 195" class="cls-5" d="M187.252,56.4l-.2-.642a17.08,17.08,0,0,0,7.089-4.322,16.759,16.759,0,0,0,4.435-8.324l.659.138a17.434,17.434,0,0,1-4.613,8.659A17.751,17.751,0,0,1,187.252,56.4Z" transform="translate(-187.052 -43.114)"/>
          </g>
          <g id="Group_1985" data-name="Group 1985" transform="translate(190.502 82.622)">
            <path id="Path_196" data-name="Path 196" class="cls-3" d="M192.266,88.786a8.378,8.378,0,0,0,1.977-4.215" transform="translate(-191.929 -84.236)"/>
            <path id="Path_197" data-name="Path 197" class="cls-5" d="M192.253,89.109a.336.336,0,0,1-.253-.558,8.041,8.041,0,0,0,1.9-4.046.336.336,0,1,1,.665.1,8.711,8.711,0,0,1-2.056,4.384A.335.335,0,0,1,192.253,89.109Z" transform="translate(-191.916 -84.222)"/>
          </g>
          <g id="Group_1986" data-name="Group 1986" transform="translate(190.746 61.661)">
            <path id="Path_198" data-name="Path 198" class="cls-6" d="M192.169,62.425" transform="translate(-192.169 -62.425)"/>
          </g>
          <g id="Group_1987" data-name="Group 1987" transform="translate(183.179 55.585)">
            <path id="Path_199" data-name="Path 199" class="cls-3" d="M187.384,56.478c-.183.01-2.064.128-2.586,1.237-.55,1.166.443,3.338,3,4.379a13.424,13.424,0,0,1-.413-5.616Z" transform="translate(-184.314 -56.121)"/>
            <path id="Path_200" data-name="Path 200" class="cls-5" d="M188.3,62.655l-.645-.263a5.5,5.5,0,0,1-3.139-2.912,2.447,2.447,0,0,1-.038-1.923c.59-1.25,2.5-1.41,2.873-1.429l.407-.021-.056.4a13.083,13.083,0,0,0,.4,5.476Zm-1.317-5.811c-.571.085-1.579.328-1.9,1a1.812,1.812,0,0,0,.056,1.391,4.6,4.6,0,0,0,2.129,2.231,13.749,13.749,0,0,1-.289-4.623Z" transform="translate(-184.301 -56.107)"/>
          </g>
          <g id="Group_1988" data-name="Group 1988" transform="translate(187.257 49.352)">
            <path id="Path_201" data-name="Path 201" class="cls-4" d="M188.29,55.6a15.876,15.876,0,0,0,7.734-6.125C193.583,51.432,190.732,53.652,188.29,55.6Z" transform="translate(-188.541 -49.625)"/>
          </g>
          <g id="Group_1989" data-name="Group 1989" transform="translate(180.722 79.619)">
            <path id="Path_202" data-name="Path 202" class="cls-3" d="M183.137,82.175a39.685,39.685,0,0,1,20.126,1.318,6.839,6.839,0,0,1,.5,4.337c-.461,1.893-1.715,2.675-2.159,4.978a8,8,0,0,0-.053,2.665l-17.162-.56a12.019,12.019,0,0,0,.106-1.706,9.454,9.454,0,0,0-.16-1.839c-.288-1.346-.9-1.487-1.559-2.931a6.873,6.873,0,0,1-.68-3.065A6.231,6.231,0,0,1,183.137,82.175Z" transform="translate(-181.759 -81.112)"/>
            <path id="Path_203" data-name="Path 203" class="cls-5" d="M201.929,95.808l-17.936-.585.05-.369a11.648,11.648,0,0,0,.1-1.658,9.174,9.174,0,0,0-.152-1.771,3.36,3.36,0,0,0-.7-1.467,7.382,7.382,0,0,1-.833-1.4,7.162,7.162,0,0,1-.709-3.213,6.612,6.612,0,0,1,1.092-3.371l.078-.121.141-.028a40.019,40.019,0,0,1,20.3,1.331l.146.049.059.141a7.3,7.3,0,0,1,.515,4.546,7.848,7.848,0,0,1-1.018,2.251,7.79,7.79,0,0,0-1.137,2.71,7.693,7.693,0,0,0-.051,2.553Zm-17.175-1.233,16.4.535a8.259,8.259,0,0,1,.1-2.38,8.35,8.35,0,0,1,1.219-2.927,7.2,7.2,0,0,0,.942-2.066A6.56,6.56,0,0,0,203,83.75a39.379,39.379,0,0,0-19.667-1.286,5.918,5.918,0,0,0-.91,2.905,6.529,6.529,0,0,0,.65,2.915,6.722,6.722,0,0,0,.765,1.279,4.07,4.07,0,0,1,.816,1.72,9.758,9.758,0,0,1,.166,1.907A12.579,12.579,0,0,1,184.754,94.576Z" transform="translate(-181.746 -81.099)"/>
          </g>
          <g id="Group_1990" data-name="Group 1990" transform="translate(175.686 101.82)">
            <path id="Path_204" data-name="Path 204" class="cls-3" d="M180.3,104.539l24.837.48a22.7,22.7,0,0,1,4.824,14.337,68.127,68.127,0,0,1-32.618.8,28.787,28.787,0,0,1-.161-9.354,12.588,12.588,0,0,1,1.066-3.357A11.621,11.621,0,0,1,180.3,104.539Z" transform="translate(-176.522 -104.2)"/>
            <path id="Path_205" data-name="Path 205" class="cls-5" d="M192.019,122.081a68.615,68.615,0,0,1-14.764-1.611l-.222-.049L177,120.2a29.068,29.068,0,0,1-.16-9.471,13.553,13.553,0,0,1,1.1-3.447,12.027,12.027,0,0,1,2.112-2.989l.1-.106,25.144.486.1.126a23.047,23.047,0,0,1,4.895,14.55l0,.254-.244.066a68.608,68.608,0,0,1-17.354,2.41Q192.35,122.082,192.019,122.081Zm-14.4-2.219a68.682,68.682,0,0,0,15.051,1.543,67.968,67.968,0,0,0,16.938-2.32,22.361,22.361,0,0,0-4.656-13.746l-24.528-.474a11.269,11.269,0,0,0-1.893,2.715,12.872,12.872,0,0,0-1.036,3.27A28.068,28.068,0,0,0,177.623,119.862Z" transform="translate(-176.509 -104.186)"/>
          </g>
          <g id="Group_1991" data-name="Group 1991" transform="translate(168.924 100.332)">
            <path id="Path_206" data-name="Path 206" class="cls-5" d="M172.022,123.137a.338.338,0,0,1-.3-.172,17.589,17.589,0,0,1,2.12-20.212.336.336,0,1,1,.506.443,16.917,16.917,0,0,0-2.038,19.441.336.336,0,0,1-.293.5Z" transform="translate(-169.478 -102.638)"/>
          </g>
          <g id="Group_1992" data-name="Group 1992" transform="translate(165.342 102.943)">
            <path id="Path_207" data-name="Path 207" class="cls-5" d="M166.722,117.974a.337.337,0,0,1-.322-.24,15.354,15.354,0,0,1-.506-6.493,15.156,15.156,0,0,1,2.018-5.724.336.336,0,1,1,.577.346,14.515,14.515,0,0,0-1.927,5.469,14.676,14.676,0,0,0,.483,6.208.336.336,0,0,1-.225.419A.309.309,0,0,1,166.722,117.974Z" transform="translate(-165.752 -105.354)"/>
          </g>
          <g id="Group_1993" data-name="Group 1993" transform="translate(217.146 102.944)">
            <path id="Path_208" data-name="Path 208" class="cls-5" d="M221.437,117.974a.309.309,0,0,1-.1-.014.336.336,0,0,1-.225-.419,14.676,14.676,0,0,0,.483-6.208,14.471,14.471,0,0,0-1.927-5.469.336.336,0,1,1,.577-.346,15.144,15.144,0,0,1,2.018,5.724,15.338,15.338,0,0,1-.506,6.493A.337.337,0,0,1,221.437,117.974Z" transform="translate(-219.622 -105.354)"/>
          </g>
          <g id="Group_1994" data-name="Group 1994" transform="translate(209.899 100.207)">
            <path id="Path_209" data-name="Path 209" class="cls-5" d="M216.024,122.788a.318.318,0,0,1-.14-.032.335.335,0,0,1-.165-.445,16.922,16.922,0,0,0-3.531-19.227.336.336,0,0,1,.47-.481,17.59,17.59,0,0,1,3.673,19.99A.338.338,0,0,1,216.024,122.788Z" transform="translate(-212.086 -102.508)"/>
          </g>
          <g id="Group_1995" data-name="Group 1995" class="cls-7" transform="translate(181.924 77.364)">
            <path id="Path_210" data-name="Path 210" class="cls-8" d="M202.634,88.4c.269,1.212,1,4.472-.917,7.106-2.63,3.623-8.011,2.98-8.73,2.883-3.992-.537-9.886-3.675-9.99-9.647a9.82,9.82,0,0,1,9.647-9.989C198.795,78.648,201.871,84.98,202.634,88.4Z" transform="translate(-182.995 -78.755)"/>
          </g>
          <g id="Group_1996" data-name="Group 1996" class="cls-7" transform="translate(182.244 102.627)">
            <path id="Path_211" data-name="Path 211" class="cls-8" d="M202.966,114.673c.27,1.213,1,4.473-.917,7.107-2.63,3.622-8.01,2.979-8.73,2.883-3.992-.538-9.885-3.676-9.989-9.647a9.82,9.82,0,0,1,9.647-9.99C199.127,104.919,202.2,111.25,202.966,114.673Z" transform="translate(-183.328 -105.025)"/>
          </g>
        </g>
      </g>
    </g>
  </g>
</svg>
